<svg xmlns="http://www.w3.org/2000/svg" version="1.0" viewBox="0 0 80 80">
    <path d="M31.9 8.3C16.9 12.6 7.6 24.6 7.5 40c0 6.6.5 8.5 3.3 14.2C16.6 66 26.9 72.4 40 72.4c13.1 0 23.4-6.4 29.2-18.2 8-16.2 1.5-35.3-14.5-43.2-7.3-3.6-16-4.6-22.8-2.7zm20.6 5.1c10.4 4.7 16.9 15 16.9 26.6 0 16.4-13 29.4-29.4 29.4S10.6 56.4 10.6 40c0-21.8 21.9-35.7 41.9-26.6z"/>
    <path d="M28.8 26.6c-.3.3.5 2.4 1.8 4.7 3 5.3 3.1 11.4.3 16.9-1.3 2.5-1.7 4.4-1.1 5C31.2 54.6 36 44.4 36 40c0-2-1.2-5.9-2.6-8.8-2.5-5-3.4-5.9-4.6-4.6zM46.5 31.2c-1.4 2.9-2.5 6.9-2.5 8.9 0 4.2 4.8 14.5 6.2 13.1.6-.6.1-2.5-1.3-5.1-2.7-5.3-2.3-13.3.9-17.8 2-2.8 2-4.3 0-4.3-.5 0-2 2.4-3.3 5.2z"/>
    <path d="M24.5 30.9c-.3.6.1 2.1.9 3.3 2 2.8 2 8.7.1 11.5-1.1 1.6-1.2 2.4-.4 2.9 1.6.9 3.7-2.1 4.5-6.2 1-5.3-3.1-14.6-5.1-11.5zM52.1 33.1C50.9 35 50 38 50 39.8c0 3.4 2.4 9.2 3.9 9.2 1.7 0 2-1.4.6-3.4-2-2.7-1.9-8.6.1-11.5 1.1-1.6 1.3-2.6.6-3.3-.8-.8-1.7 0-3.1 2.3zM21 34c-.6 1.9-.4 11 .3 11 .4 0 1.3-1.1 1.9-2.5.9-2 .8-3.2-.5-5.8-.8-1.7-1.6-3-1.7-2.7z"/>
    <path d="M57.2 36c-1.5 2.5-1.5 6.3 0 7.8 2 2 2.5 1.4 2.4-3.7-.1-5.8-.7-6.8-2.4-4.1z"/>
    <path fill="currentColor" d="M37.988 69.318c-3.472-.274-6.578-1.009-9.54-2.256A29.064 29.064 0 0 1 15.422 56.22C11.17 49.722 9.676 41.8 11.22 33.938c2.027-10.328 9.464-18.683 19.516-21.924 4.128-1.331 8.444-1.724 12.81-1.165 5.12.655 10.344 2.757 14.351 5.775a29.536 29.536 0 0 1 5.586 5.564c6.448 8.5 7.713 20.344 3.224 30.178A29.1 29.1 0 0 1 45.25 68.915c-1.782.31-2.718.388-4.876.41-1.125.01-2.2.008-2.387-.007zM30.61 53.123c.658-.435 1.534-1.747 2.57-3.848.804-1.632 1.335-2.916 1.854-4.491.68-2.06 1.07-4.112.979-5.16-.253-2.934-1.847-7.36-3.99-11.082-.621-1.079-.927-1.513-1.397-1.986-.603-.606-1.047-.659-1.594-.19-.255.218-.284.274-.284.55 0 .571.408 1.575 1.633 4.013 1.304 2.595 1.587 3.288 1.981 4.843 1.052 4.152.55 8.352-1.484 12.412-1.287 2.571-1.687 4.375-1.106 4.999.194.208.463.189.838-.06zm19.583.103c.203-.203.262-.397.259-.853-.006-.857-.348-1.887-1.223-3.677-.83-1.698-.939-1.96-1.291-3.104-.483-1.566-.707-3.064-.756-5.059-.053-2.211.11-3.774.59-5.633.451-1.745 1.031-3.03 2.12-4.688 1.388-2.118 1.718-3.18 1.184-3.815-.19-.226-.7-.412-1.125-.412-.317 0-.543.181-1.006.805-.833 1.123-2.474 4.242-3.184 6.049-1.063 2.708-1.745 5.501-1.756 7.195-.01 1.638.59 4.004 1.736 6.846 1.702 4.22 3.712 7.085 4.452 6.346zm4.602-4.41c.877-.435.796-1.586-.223-3.149-1.017-1.56-1.386-2.859-1.455-5.125-.055-1.802.116-3.122.588-4.53.252-.753.486-1.22 1.096-2.194.899-1.435 1.042-2.28.497-2.927-.338-.403-.757-.505-1.165-.286-.948.51-2.628 3.164-3.356 5.301-.66 1.938-.886 3.34-.754 4.676.336 3.372 2.204 7.737 3.579 8.362.278.126.793.071 1.193-.127zm-28.462-.199c1.253-.589 2.54-2.923 3.207-5.82.172-.744.19-.944.193-2.183.005-1.741-.187-3.038-.718-4.862-.753-2.584-2.075-4.886-3.074-5.354-.504-.236-1.028-.094-1.374.373-.424.572-.058 2.06.863 3.512.681 1.075 1.142 2.412 1.347 3.91.13.956.113 2.94-.035 3.853-.27 1.662-.61 2.602-1.39 3.844-.56.89-.765 1.381-.764 1.836 0 .835.894 1.291 1.745.891zm-4.528-3.928c.84-.78 1.762-2.638 1.968-3.965.15-.97-.11-2.034-.912-3.725-.874-1.842-1.575-3.035-1.784-3.035-.114 0-.211.4-.322 1.33-.118.997-.119 6.135 0 7.366.158 1.641.339 2.353.597 2.353.057 0 .261-.146.453-.324zm37.33.007c.314-.34.426-1.003.482-2.855.077-2.55-.142-5.752-.455-6.64-.166-.474-.304-.623-.574-.623-.502 0-1.423 1.197-1.949 2.531-.433 1.098-.657 2.685-.544 3.85.158 1.627.624 2.552 1.734 3.435.675.537 1.015.616 1.306.302z"/>
</svg>
