<svg xmlns="http://www.w3.org/2000/svg" version="1.0" viewBox="0 0 80 80">
    <path d="M13 6.8c-1.9.9-4.5 3.2-5.7 5.1C5.1 15.2 5 16 5 40s.1 24.8 2.3 28.1C11.6 74.6 13.7 75 40 75c26.3 0 28.4-.4 32.7-6.9C74.9 64.8 75 64 75 40s-.1-24.8-2.3-28.1C68.4 5.4 66.3 5 40 5c-20.4 0-24 .2-27 1.8zm55.3 5 2.7 2.8v50.8l-2.7 2.8-2.7 2.8h-51l-2.8-2.7L9 65.6v-51l2.7-2.8L14.4 9h51.2l2.7 2.8z"/>
    <path d="M35 19.7c0 .3.8 1.5 1.7 2.5 1.6 1.8 1.2 2.4-9.2 12.8-6 6-10.6 11.3-10.2 11.7.4.4 5.7-4.2 11.7-10.2l11-11 11 11c6 6 11.3 10.6 11.7 10.2.4-.4-4.2-5.7-10.2-11.7-10.8-10.8-10.9-10.9-9-13 2.4-2.6 1.1-3.9-1.5-1.5-1.9 1.7-2.1 1.7-3.8.2-1.9-1.8-3.2-2.2-3.2-1z"/>
    <path d="M30.7 36.8 22 45.5V60h36V45.5l-8.7-8.7c-4.8-4.9-9-8.8-9.3-8.8-.3 0-4.5 3.9-9.3 8.8zM36 50v4h-8v-8h8v4zm16 0v4h-8v-8h8v4z"/>
    <path fill="currentColor" d="M27.997 49.991v-3.955h7.98v7.911h-7.98ZM44.024 49.991v-3.955h7.98v7.911h-7.98z"/>
    <path fill="currentColor" d="m11.816 68.293-2.78-2.697V14.585l2.7-2.791 2.7-2.791h51.128l2.7 2.79 2.7 2.79v50.834l-2.7 2.79-2.7 2.79-25.485-.003-25.484-.004zm46.19-15.56v-7.282l-6.736-6.718c-7.445-7.426-9.71-9.61-10.902-10.51L40 27.947l-.368.278c-1.197.903-3.386 3.013-10.834 10.441l-6.803 6.785v14.567h36.01zM17.94 46.476c1.117-.671 3.464-2.68 6.952-5.953.863-.81 4.615-4.51 8.339-8.223l6.77-6.751 6.665 6.65c3.667 3.657 7.265 7.215 7.996 7.908 4.237 4.009 7.358 6.612 7.927 6.612.44 0-.33-1.161-2.26-3.41-2.173-2.531-4.144-4.615-8.939-9.446-6.747-6.798-7.764-7.904-8.46-9.193-.56-1.039-.46-1.457.653-2.742 1.303-1.504 1.588-2.694.645-2.694-.592 0-1.275.395-2.418 1.398-.927.815-1.326 1.07-1.731 1.109-.51.049-.864-.17-2.228-1.381-.98-.869-1.775-1.336-2.288-1.343-.335-.005-.453.089-.545.43-.063.233-.05.31.098.605.256.51.67 1.092 1.347 1.898.749.89.895 1.156.89 1.612-.017 1.294-1.176 2.663-8.573 10.129-4.998 5.044-7.07 7.23-9.142 9.652-1.916 2.239-2.666 3.376-2.227 3.376.068 0 .306-.11.529-.243z"/>
</svg>
