<svg xmlns="http://www.w3.org/2000/svg" version="1.0" viewBox="0 0 80 80">
    <path d="M30.9 8.5C16 13.3 5.8 28.2 7.3 42.8 8 49.9 13 59.9 17.7 64.1c12.9 11.2 31.7 11.2 44.6 0 2-1.8 5.1-6.2 6.9-9.9 8-16.3 1.5-35.3-14.7-43.3-7.7-3.8-16.6-4.7-23.6-2.4zm15.3 2.6c15.6 3.3 26 19.2 22.7 34.6C65.6 61.7 50 72.2 34.3 69c-16-3.4-26.5-19-23.2-34.7C13.8 21 25.5 11 39.2 10.1c.9-.1 4.1.4 7 1z"/>
    <path d="M27.3 27.9C25.2 30.1 19 46.6 19 49.8c0 3.2 4.1 7.2 8.1 7.8 2.8.5 4.1.1 6.6-2 2.8-2.4 3.1-3.2 3.8-11.1.6-7.3.9-8.5 2.5-8.5s1.9 1.2 2.5 8.5c.7 7.9 1 8.7 3.8 11.1 3.9 3.3 9.1 2.8 12.5-1.1 2.9-3.4 2.8-5.1-1-15.7-3.6-9.9-5.7-12.8-9.3-12.8-2.7 0-6.5 3.1-6.5 5.3 0 .7-.9 1.3-2 1.3s-2-.6-2-1.3c0-2.2-3.8-5.3-6.5-5.3-1.3 0-3.2.9-4.2 1.9zm6.3 17.7c2.1 3.1 1.4 6.3-1.8 8.7-3.2 2.4-7.1 1.7-9.3-1.7-2.3-3.4-1-7.5 2.8-9.1 3.7-1.6 6.4-.9 8.3 2.1zm24.7 1.7c1.9 5.7-4.7 10.6-9.9 7.3-3.2-2.2-3.9-4.1-2.8-7.4 2.1-5.9 10.7-5.8 12.7.1z"/>
    <path fill="currentColor" d="M27.178 55.652c-1.865-.23-3.449-1.262-4.608-3.003-.749-1.124-1.104-2.143-1.166-3.34-.127-2.454 1.348-4.66 3.85-5.76 2.496-1.098 4.527-1.128 6.27-.095.888.527 2.031 1.917 2.648 3.218 1.083 2.286.653 4.603-1.22 6.575-1.621 1.706-3.863 2.64-5.774 2.405zM51.104 55.579c-1.478-.217-2.932-.985-4.24-2.24-1.23-1.179-1.706-2.193-1.702-3.62.002-.814.13-1.5.46-2.473 1.078-3.18 4.468-4.996 7.862-4.208 2.47.573 4.275 2.299 4.914 4.699.219.824.248 2.15.064 2.89-.802 3.219-4.09 5.431-7.358 4.952z"/>
    <path fill="currentColor" d="M38.602 69.518a30.35 30.35 0 0 1-5.531-.84c-11.236-2.865-19.905-12.02-22.055-23.289-.42-2.2-.589-5.202-.416-7.37.906-11.357 8.08-21.107 18.844-25.612 3.125-1.308 7.373-2.265 10.044-2.264 1.693.001 6.123.75 8.574 1.449 7.163 2.043 13.265 6.771 17.2 13.327 1.824 3.039 3.125 6.465 3.752 9.882.354 1.927.414 2.659.414 5.097 0 2.433-.06 3.17-.41 5.081-1.971 10.736-9.569 19.557-19.845 23.039-3.412 1.156-7.095 1.679-10.571 1.5zm-8.277-11.88c1.169-.302 2.683-1.301 4.244-2.802 2.048-1.968 2.311-2.994 3.114-12.108.334-3.796.624-5.391 1.11-6.113.313-.463.861-.672 1.509-.575 1.175.176 1.55 1.417 2.016 6.688.452 5.112.69 7.082 1.029 8.492.35 1.464.772 2.26 1.729 3.259 1.923 2.01 3.965 3.086 6.224 3.282 2.6.226 5.153-.792 7.122-2.841 1.164-1.211 2.02-2.584 2.268-3.633.42-1.787.055-3.85-1.523-8.593-1.753-5.275-3.548-9.785-4.813-12.099-1.23-2.25-2.286-3.448-3.612-4.1-1.489-.733-3.062-.67-4.774.189-2.125 1.067-3.793 2.938-3.984 4.47-.077.61-.264.884-.777 1.136a2.793 2.793 0 0 1-2.414 0c-.513-.252-.7-.525-.777-1.136-.23-1.846-2.594-4.126-5.109-4.93-1.096-.35-2.057-.296-3.274.182-.843.331-1.915 1.016-2.399 1.532-1.667 1.78-6.643 14.315-8.009 20.178-.26 1.116-.275 2.29-.038 3 .873 2.62 3.58 5.172 6.54 6.163.556.186 1.717.423 2.508.511.519.058 1.57-.019 2.09-.152z"/>
</svg>
