<svg xmlns="http://www.w3.org/2000/svg" version="1.0" viewBox="0 0 128 128">
  <path d="M41 12.5c0 .9-.9 1.5-2.5 1.5-2 0-2.5.5-2.5 2.5 0 1.8 2 4.6 6.8 9.4 7.8 8 10.9 9.7 20 11.5l6.7 1.4-4.9.1c-2.7 0-6.3.6-8 1.2-2.5.9-5.1.7-13.3-1-14.4-3-15.5-2.9-20.9 2.1-2.5 2.3-5.2 5.4-6 6.9-1.8 3.6-1.8 9.4.2 15.1 1.5 4.6 1.5 4.6-1.7 10.3l-3.2 5.8-.2 15.3c0 8.5.3 15.4.7 15.4.5 0 1.2 1 1.7 2.1.5 1.5 1.7 2.2 3.9 2.4 3.8.3 4.2-1.5 1.4-5.8-1.5-2.3-1.8-4.2-1.4-11 .2-4.5.7-8.6 1.1-9 .8-.8 6.1 15.5 6.1 18.6 0 1 .6 2 1.4 2.3.8.3 1.7 1.6 2 3 .5 2 1.2 2.4 4.6 2.4 4.6 0 4.5-1.1-.2-7-2-2.6-3.3-6.2-4.8-13-2.6-12-2.5-13.8.5-18.2 1.4-2.1 3-4.9 3.5-6.4 1-2.4 1.2-2.5 2.8-1.1 2.6 2.4 11.1 5.8 14.9 5.9 1.9.1 3.6.5 3.8.9 1 1.4-1.4 18.9-3.4 25.7-1.9 6.4-2 7.1-.5 10.1 2 3.9 6.4 4.5 6.4.8 0-1.3-.5-2.8-1-3.3-.8-.8-.1-3.9 2.4-10.5 1.9-5.2 3.7-11.2 4.1-13.4 1.2-6.8 2.4-1.8 3.3 12.7.9 14.5 2.2 17.8 7 17.8 2.2 0 2.3-.3 1.7-2.8-1-3.7-1.8-27.7-1.1-31.7.4-1.8 2-5 3.6-7 2.1-2.6 3-4.9 3-7.4 0-2 .5-4.3 1-5.1.9-1.3 1.2-1.3 2.4.3.8 1 2.3 1.7 3.3 1.5 1.4-.3 1.9-1.4 2.1-6l.3-5.6 4.4-.7c5-.7 6.8-2.9 6.3-7.3-.2-2-1.4-3.3-4.6-5-2.4-1.3-4.1-2.7-3.7-3 .3-.3 4.3-.6 8.9-.6 7.7-.1 8.8-.4 12.8-3.1 4.4-3.2 6.4-7.5 3.4-7.5-1.2 0-1.6-1-1.6-4.1 0-3.3-.3-4-1.7-3.7-1.1.2-1.9 1.4-2.1 3.1-.4 3.1-2.2 3.7-2.2.7 0-1.3-.7-2-2-2-1.1 0-2-.7-2-1.5s-.7-1.5-1.5-1.5c-2.1 0-6.6 3-6 4 .3.4-1 1.1-2.9 1.4-2.1.4-4.1 1.7-5.3 3.4l-1.8 2.7-.5-8c-.5-7.4-.7-8-2.7-8.3-1.7-.3-2.3.2-2.3 1.6 0 1.5-.5 1.8-2.5 1.4-1.8-.3-2.5 0-2.5 1.2 0 .9-.7 1.6-1.5 1.6s-1.5-.7-1.5-1.5-.8-1.5-1.9-1.5c-2.6 0-3.8 7.3-1.7 10.5.9 1.3 1.1 2.7.6 3.6-1.3 2-2 .8-3-5.6-.5-3.2-1.6-6.8-2.5-8.1-1.7-2.7-5.5-3.3-5.5-.9 0 .8-.9 1.5-2.1 1.5-1.6 0-1.9.4-1.4 2 .8 2.6-1 2.6-2.9-.1-.9-1.4-2.2-2-3.4-1.7-1.4.4-2.3-.1-3.1-1.8-1.2-2.7-5.1-3.3-5.1-.9zm7.4 5.5c.9 0 2.7 1.2 4 2.7 2 2.4 2.6 2.5 4 1.4.9-.7 1.6-2.1 1.7-3 0-.9.7-.1 1.5 1.6 1.6 3.8 4 4.6 2.9 1-.3-1.2-.9-3.3-1.1-4.7-.5-2.3-.4-2.4.9-.7.8.9 1.7 4 2 6.8 1 8.5 5.6 11.7 8.2 5.6 1.2-2.9 1.2-3.4-.5-5.2-2.5-2.7-1.7-7 1-5.3 1 .7 2.5.8 3.6.3 1.1-.4 2.5-.7 3.2-.6.8.1 1.9-.3 2.6-.8 1-.9 1.2-.1.8 3.9-.5 5.4.8 8 3.9 8 1 0 2.4-.9 3.1-1.9.8-1.1 2.6-2.3 4.1-2.6 1.5-.4 3.6-1.8 4.6-3.1 2.2-2.8 3.1-2.2 3.1 2v3.1l1.9-2.4 1.9-2.5.4 2.4c.4 3.3 3.7 3.9 4.5.9.6-2.2.7-2.2 1.4-.3 1.4 3.6.9 4.5-3.7 6.6-3.7 1.6-5.8 1.9-10.3 1.4-4.3-.5-6.1-.3-7.9 1-3.4 2.3-2.5 5.5 2.1 7.7 5.4 2.7 4.9 6.9-.8 7.5-4.7.5-6.8 3-6.2 7.4.5 3.7-.5 5.9-1.8 3.8-.9-1.5-4.1-1.2-5.4.4-.6.8-1.4 3.1-1.7 5.2-.2 2.1-1.5 5.4-2.9 7.4-1.3 1.9-2.9 4.8-3.4 6.3-1.6 4.2-1.3 26.4.4 31.1 1.3 3.8 1.3 3.9-.5 2-1.5-1.5-2-4-2.5-12.4-.9-16.4-1.4-18.9-3.6-20.1-2.8-1.5-4.5.2-5.3 5.4-.4 2.3-2.1 8.4-3.8 13.4-2.7 8-3 9.7-2 12 1.1 2.6 1.1 2.7-.3.9-2.1-2.7-1.9-6.1.6-12.6 1.3-3.3 2.4-9.1 2.8-14.5.7-10.3 0-11.8-5.9-12.3-1.9-.2-6.9-1.9-11-3.7l-7.4-3.4-3.3 6.2c-1.8 3.3-3.7 6.5-4.3 7.1-1.5 1.5-1.2 4.5 1.6 16.3 1.6 6.8 3.5 12 5 14 1.4 1.8 2.1 3.3 1.6 3.3-2 0-5.3-6.5-7.3-14.4-2.5-10.2-4-12.6-6.6-11-2.7 1.7-4.1 18.7-1.8 22.6.9 1.6 1.2 2.8.7 2.8s-1.4-1-2-2.3c-1.4-2.8-1-30 .5-31.9.5-.7 2.1-3.2 3.3-5.6 2.3-4.2 2.4-4.3.7-9-.9-2.6-1.7-6.6-1.7-9 0-3.7.6-4.8 5-9.3l4.9-5.2 5.3.6c2.9.4 8.6 1.4 12.6 2.4 7 1.6 7.6 1.6 12.2 0 2.6-.9 6.6-1.7 8.9-1.7 2.8 0 4.4-.5 4.7-1.5 1-2.6-1.6-4.5-6-4.5-7.9 0-17-5.8-25.9-16.6-1.7-2.1-1.7-2.1.8-1.7 1.6.4 2.5.1 2.5-.7 0-.9.6-.8 1.8.3 1 1 2.6 1.7 3.6 1.7z" />
  <path fill="currentColor" d="M70.487 112.813c-.988-1.011-1.324-1.544-1.68-2.663-.663-2.083-.922-4.475-1.443-13.35-.719-12.24-1.298-15.484-2.972-16.644-.648-.45-1.655-.826-2.217-.829-.636-.003-1.531.43-1.908.925-.727.952-1.213 2.298-1.617 4.475-.612 3.3-1.924 7.935-4.26 15.05-.697 2.121-1.446 4.528-1.664 5.346-.363 1.36-.398 1.622-.405 3.032l-.007 1.544.584 1.418c.32.78.56 1.443.53 1.472-.07.07-1.35-1.663-1.626-2.204-.401-.786-.646-2.02-.646-3.254 0-1.964.53-4.081 2.146-8.568 1.69-4.69 2.819-12.257 2.82-18.908.002-3.499-.321-4.959-1.316-5.95-.85-.846-1.797-1.187-4.146-1.491-3.363-.435-7.663-1.956-14.873-5.259-2.237-1.025-4.123-1.842-4.19-1.815-.066.027-.93 1.572-1.92 3.435-2.824 5.313-4.3 7.818-6.019 10.22-.768 1.072-.795 2.759-.108 6.704.475 2.728 2.029 9.582 2.861 12.623.582 2.127 1.547 5.123 2.113 6.56.736 1.87 1.353 3.036 2.508 4.737.932 1.372 1.41 2.327 1.247 2.49-.18.18-.774-.177-1.464-.88-2.078-2.115-4.372-7.516-6.064-14.275-1.57-6.271-2.861-9.489-4.152-10.343-.95-.628-2.236-.253-2.958.863-1.27 1.964-2.173 7.2-2.283 13.219-.09 4.934.177 6.792 1.325 9.238.645 1.377.776 1.776.67 2.054-.11.285-.353.2-.849-.295-1.207-1.207-1.594-2.382-1.862-5.65-.197-2.406-.199-16.411-.003-19.625.277-4.545.627-7.376 1.002-8.103.11-.212.646-1.105 1.192-1.985 1.865-3 3.711-6.597 3.966-7.726.24-1.064.118-1.74-.852-4.701-1.349-4.119-1.809-6.578-1.81-9.678 0-1.722.035-2.211.201-2.75.4-1.295 1.098-2.411 2.456-3.929.584-.652 5.77-6.164 6.756-7.181l.398-.41 2.867.331c5.175.598 8.855 1.264 16.041 2.9 5.594 1.276 6.577 1.267 10.79-.09 3.685-1.187 6.096-1.665 9.22-1.826 3.617-.186 4.477-.515 4.868-1.86.52-1.785-.682-3.254-3.214-3.927-.364-.097-1.703-.245-2.977-.328-1.297-.085-2.815-.254-3.453-.384-6.736-1.375-14.131-6.598-21.469-15.164-1.084-1.266-2.034-2.519-2.034-2.683 0-.179.794-.163 1.837.037 1.744.334 2.485.134 2.627-.708.042-.247.124-.478.183-.515.224-.138.65.089 1.487.793 1.108.932 2.356 1.546 3.455 1.7 1.397.194 2.572 1.001 4.562 3.132.658.705 1.344 1.358 1.524 1.451.44.228 1.074.223 1.526-.01.945-.49 2.101-2.08 2.267-3.118.039-.24.114-.503.167-.588.157-.247.557.334 1.439 2.094.63 1.257.933 1.73 1.464 2.281.786.817 1.207.984 1.515.603.304-.375.254-.832-.358-3.248-.566-2.234-1.092-4.75-1.093-5.231 0-.23.021-.244.182-.11.433.359 1.263 1.607 1.588 2.39.5 1.2.934 3.016 1.264 5.285.568 3.91 1.388 6.203 2.763 7.733.921 1.024 1.87 1.39 2.885 1.11.787-.218 1.833-1.312 2.419-2.53 1.013-2.11 1.313-3.574.892-4.36-.099-.186-.522-.743-.94-1.238-.42-.496-.893-1.142-1.053-1.437-.62-1.138-.802-2.663-.418-3.507.419-.923 1.107-1.05 2.3-.427 1.251.655 2.298.702 3.811.173.962-.336 2.174-.56 3.027-.56.948 0 1.645-.206 2.404-.71.325-.216.637-.393.693-.393.158 0 .343.644.344 1.202 0 .279-.08 1.523-.181 2.765-.277 3.424-.018 5.424.875 6.755.946 1.41 2.846 1.9 4.383 1.13.407-.203.99-.696 1.815-1.535 1.402-1.427 2.317-2.03 3.774-2.487 1.83-.574 3.264-1.456 4.492-2.764 1.652-1.76 2.021-2.09 2.337-2.087.832.004 1.022.725 1.12 4.24l.071 2.532 1.166-1.485c.641-.817 1.453-1.87 1.805-2.34.351-.47.673-.854.716-.854.042 0 .166.583.277 1.295.245 1.585.515 2.345 1.038 2.925.48.532.936.74 1.615.74.58 0 .977-.177 1.391-.623.381-.41.551-.774.911-1.947.187-.607.348-.956.43-.929.366.119 1.296 2.88 1.304 3.87.01 1.34-.62 2.04-2.88 3.203-2.68 1.378-4.755 2.056-6.974 2.278-1.294.13-2.226.094-4.988-.189-3.36-.344-5.366-.203-6.7.47-4.266 2.155-3.988 5.708.636 8.106 3.353 1.74 4.785 3.636 4.032 5.34-.58 1.311-1.774 1.935-4.506 2.354-2.296.352-3.496.837-4.547 1.84-.697.665-1.094 1.324-1.387 2.302-.158.53-.19.947-.158 2.095.099 3.486.07 4.496-.141 5.045-.355.92-.804.914-1.47-.019-.968-1.357-3.468-1.42-5.099-.128-.77.61-1.583 2.597-2.005 4.904-.652 3.565-1.504 5.832-3.06 8.147-1.57 2.337-3.147 5.377-3.535 6.811-.54 2.004-.776 5.026-.856 11.016-.088 6.584.182 12.534.748 16.482.249 1.74.475 2.691 1.03 4.328.432 1.276.573 1.901.429 1.901-.054 0-.401-.31-.771-.689z" />
</svg>
