<svg xmlns="http://www.w3.org/2000/svg" version="1.0" viewBox="0 0 128 128">
  <path d="M42 24.6c-11.4 2.1-18.9 5.5-25.9 12-6.6 6.1-7.6 9.2-7.6 24.9 0 12.1-.2 13.2-2.2 15.2-2.9 2.9-3.7 6.1-3.1 12.5.4 4 1.1 5.5 3.4 7.4 1.6 1.3 4.1 2.3 5.5 2.4 3.5 0 6.3-3.2 5.5-6.4-.5-2 .1-3.1 2.6-5.5l3.3-3.1.3 5.8c.5 8.8 2.3 10.2 13.3 10.2 7.7 0 9-.2 10.2-2.1 2.1-2.9 1-5.8-2.9-7.4-2.8-1.2-3.3-1.9-4-6-.3-2.6-.3-5 .2-5.4.7-.6 10-4.1 10.9-4.1.1 0-.3 2.2-.9 5-.8 4.1-.7 5.6.7 8.5.9 2 1.7 4.6 1.7 6 0 1.4 1.1 3.2 2.7 4.5 2.2 1.7 3.8 2 8.6 1.8 4.2-.2 6.3-.8 7-1.9 1.4-2.3.1-6.7-2.3-7.4-2.5-.8-2.5-2.5.1-8.2l2.1-4.7 1.4 3.3c1.8 4.4 7.5 10.9 12.3 14 2.2 1.5 5.1 3.9 6.5 5.4 3.6 3.8 8.2 3.7 13.8-.6 5.8-4.5 6.1-7.2 1-9.2-2.7-1.1-4.9-3.1-7.1-6.4-1.7-2.7-3.1-5.2-3.1-5.6 0-.7-3.2-7.8-6.1-13.7-1.4-2.8 3.3-3.3 12-1.4 9.9 2.1 10.5 2.1 13.7-.9 1.5-1.4 3.2-2.5 3.9-2.5 1.6 0 4.5-3.3 4.5-5.2 0-.8-1.8-2.9-4-4.7-2.2-1.7-4-4-4-4.9 0-.9-.9-3.2-2-5-1.1-1.8-2-4.4-2-5.7 0-1.8-.8-2.8-2.7-3.6-1.4-.5-3.1-.8-3.7-.6-.6.2-1.9-.7-2.9-2-2.1-2.7-6.8-3.1-8.7-.8-1.9 2.2-8.4 1.8-17.5-1.1-6.3-2.1-10.5-2.7-20-2.9-6.6-.2-13.1-.2-14.5.1zm34 5.8c8.3 2.9 16.6 3.4 19.6 1.1 2.9-2.2 4.4-1.8 5.5 1.5 1.1 3.1 2.3 3.8 3.4 2 1.3-2.1 3.5-.8 4.5 2.7.6 2.1 1.7 4.7 2.5 5.7.8 1.1 1.5 2.9 1.5 4.1 0 1.3 1.5 3.2 4 5.1 2.2 1.6 4 3.2 4 3.5 0 .3-1.1 1.1-2.4 1.9-2 1-2.9 1-5.5-.3-2.8-1.4-3.1-1.4-3.1 0 0 .9.8 2.2 1.8 2.9 1.6 1.2 1.6 1.3-.1 2-1 .4-3.5.2-5.5-.4-7.6-2.2-13.7-2.5-17.4-.8l-3.5 1.7 3.9 9.5c5.1 12.3 9 18.5 13.3 20.7 1.9.9 3.5 2.1 3.5 2.5 0 .5-1.3 1.8-3 3-3.7 2.8-8.4 2.9-9.6.3-.5-1.1-3.8-4.2-7.4-6.8-6.1-4.5-9.4-9.2-13.4-18.8-1.1-2.7-10.1 14.3-9.2 17.2.4 1.1 1.8 2.5 3.1 3.1 4.4 2 3.1 4.2-2.4 4.2-5.1 0-6.9-1.1-7.6-5.1-.3-1.3-1.1-3.7-1.9-5.4-1.7-3.5-.7-11.2 2-15.3 2.1-3.3 1.4-3.5-3.4-1.2-2.3 1.1-6.8 2.6-9.9 3.4l-5.8 1.3v5.4c.1 8.2 1.1 10.9 4.5 12.1 1.7.5 3 1.6 3 2.4 0 1.8-15 2-16.8.2-.7-.7-1.2-2.9-1.2-4.9 0-5.3-1.1-10-2.5-10.5-.6-.3-3.3 1.6-5.9 4.2-3.9 3.8-4.7 5.1-4.4 7.7.4 4.1-2.3 4.7-5.7 1.3-3.8-3.8-3.5-9.9.7-14.8l3.2-3.6-.3-13c-.4-17.2.7-19.8 10.7-26.5 11.1-7.5 16.7-8.8 34.3-8.2 9.2.3 13.2.9 18.9 2.9z" />
  <path fill="currentColor" d="M96.138 100.865c-1.309-.254-2-.734-2.794-1.94-.945-1.433-3.59-3.889-6.688-6.207-4.153-3.109-6.46-5.472-8.773-8.983-1.63-2.476-3.179-5.455-4.733-9.108-.28-.66-.577-1.27-.659-1.353-.665-.681-2.799 2.034-5.316 6.767-2.14 4.024-3.682 7.94-3.855 9.793-.083.892.132 1.39 1.027 2.379.692.765 1.436 1.301 2.742 1.977 1.397.723 2.175 1.628 1.936 2.256-.388 1.02-2.78 1.616-5.907 1.475-3.36-.152-4.955-.88-5.827-2.661-.171-.35-.479-1.3-.683-2.112a33.065 33.065 0 0 0-1.746-5.194c-.826-1.933-.998-2.827-.995-5.156.005-4.174.917-7.429 3.137-11.19.873-1.48.967-2.093.335-2.187-.408-.06-1.654.378-3.664 1.29-4.248 1.925-7.852 3.07-14.04 4.458l-2.095.47.008 4.737c.006 3.751.046 5.024.191 6.117.348 2.626.935 4.252 1.913 5.297.626.67 1.146.989 2.424 1.49 1.528.6 2.356 1.178 2.732 1.905.25.483.094.719-.66 1.001-1.361.51-3.941.777-7.49.777-4.763 0-7.755-.469-8.476-1.326-.712-.846-1.03-2.419-1.169-5.774-.118-2.88-.316-4.498-.765-6.278-.508-2.01-1.252-3.268-1.935-3.268-1.384 0-7.607 5.516-9.393 8.325a7.07 7.07 0 0 0-.592 1.267c-.216.638-.236.867-.181 2.094.11 2.493-.336 3.552-1.568 3.717-1.504.202-4.246-1.857-5.539-4.158-1.812-3.226-1.407-7.481 1.064-11.195.333-.502 1.45-1.862 2.48-3.024 1.447-1.63 1.874-2.18 1.871-2.408-.001-.163-.074-3.173-.162-6.69-.188-7.513-.21-14.33-.054-16.329.627-7.989 2.476-10.745 11.024-16.438 5.888-3.92 9.535-5.677 14.167-6.822 3.61-.892 7.075-1.197 13.505-1.189 6.817.009 12.533.296 16.304.819 2.987.414 4.677.848 10.036 2.574 4.43 1.428 8.208 2.083 12.027 2.085 1.917.001 2.434-.036 3.403-.242 1.335-.285 2.264-.68 3.248-1.382 1.54-1.099 2.726-1.384 3.513-.845.559.383 1.027 1.127 1.537 2.443.87 2.245 1.481 3.078 2.263 3.078.412 0 .43-.015 1.652-1.358.59-.648 1.036-.751 1.753-.404.534.258 1.213 1.017 1.62 1.809.127.247.517 1.3.867 2.341.704 2.091 1.489 3.849 2.163 4.843.936 1.38 1.489 2.816 1.63 4.235.1.99.636 1.968 1.711 3.118a18.63 18.63 0 0 0 1.772 1.63c2.427 1.89 3.185 2.51 3.821 3.117.379.362.689.703.689.758 0 .33-2.104 1.777-3.252 2.235-.577.23-.953.306-1.489.302-.857-.006-1.39-.186-3.521-1.19-1.819-.855-2.372-.958-2.625-.489-.428.793.221 2.383 1.389 3.403l1.098.962c.488.43.43.607-.32.987-.837.424-1.75.535-3.163.383-1.289-.139-1.486-.181-4.324-.923-5.985-1.565-10.676-1.896-14.197-1.003-.672.17-1.748.603-3.14 1.265a108.676 108.676 0 0 0-2.148 1.034c-.045.046 4.594 11.277 5.538 13.406 3.733 8.423 6.919 13.45 10.019 15.81.432.329 1.357.906 2.054 1.283 1.35.73 2.427 1.45 2.85 1.904.357.385.258.611-.685 1.558-1.626 1.635-3.973 3.086-5.803 3.589-.809.222-2.54.37-3.087.263z" />
</svg>
