<svg xmlns="http://www.w3.org/2000/svg" version="1.0" viewBox="0 0 128 128">
  <path d="M100.2 33.8c-.6 1.8-2.5 3.7-5 5-4 2.1-4.3 2.1-16.9.5-14.5-1.7-26.5-.8-33.8 2.7a60.4 60.4 0 0 0-19.1 18.9c-2.4 4.4-3.7 5.7-7.3 7.1C12.7 70.1 6.2 75.3 5 78.6c-1.5 3.8.3 6.9 4.9 8.8 6.1 2.4 9.7 2 16.8-1.9L33 82v2.8c0 1.5 1 4.5 2.3 6.7 2 3.5 2.8 4 6.2 4.3 2.2.2 5.4-.3 7-1.1l5.8-2.5c3.4-1.4 3.4-3.5.2-7.4a14.2 14.2 0 0 1-2.5-3.6c0-.4 1.5-1.6 3.4-2.6s4.6-3.1 6.1-4.6c2.6-2.7 2.6-2.7 7.3-1.3l5.9 1.8c.6.2 1.4 1.7 1.8 3.4 1 4.8 8.1 15 11.2 16.2 3.8 1.4 11 .2 12.6-2.1.7-1 2.3-2 3.7-2.2 1.4-.2 3.2-1.6 4.3-3.6 1.7-2.9 1.8-3.9.8-7.2-.6-2.2-2.7-5.6-4.6-7.6-1.9-2-3.2-4-2.9-4.5 1.1-1.9 10.5-5.9 13.7-5.9 3.7 0 8.7-3.2 8.7-5.6 0-.8-1.1-2.4-2.4-3.5a12.2 12.2 0 0 1-3.1-5.7c-.4-2-1.5-4.7-2.6-6A10 10 0 0 1 114 36c0-2.4-2.6-4.3-5-3.7-1.1.3-2.3.1-2.6-.4-.3-.5-1.6-.9-2.9-.9-1.6 0-2.6.8-3.3 2.8zm5.4 1.7c.7 1.7 3.4 2.1 3.4.5 0-.6.5-1 1-1 .6 0 1 .8 1 1.9 0 1 .8 2.9 1.9 4.2 1 1.3 2.2 4 2.6 5.9.4 1.9 1.8 4.7 3.2 6.2 2.5 2.6 2.5 2.6.5 3.7-1.2.6-3.5 1.1-5.1 1.1-5.7 0-21 10.5-17.2 11.8 2.5.8 7.9 6.3 9.1 9.2 1 2.5 1 3.4-.4 5.5-2.2 3.3-4.4 3.2-5.1-.3-1-4.5-2-5.6-6.6-7.3a26 26 0 0 1-7.3-4.3c-2.8-2.6-3-4.3-1.1-8.9.5-1.2.3-1.7-.8-1.7-1.4 0-3.7 4.7-3.7 7.7 0 .8 1.2 2.6 2.7 4.1 1.4 1.4 3.2 4.4 3.8 6.6 1.3 4.2 2.3 5.1 6.8 6.1 2.6.5 4.6 2.9 3.4 4.1-.3.3-2.3.8-4.5 1.1-3.4.5-4.3.1-6.7-2.3-2.8-3-8.5-14.2-8.5-16.9 0-1-1-1.5-2.9-1.5-1.5 0-4.2-.5-5.9-1.1-3-1-3.2-1.3-2.6-5 .8-4.6-1.1-5.5-2.1-.9-.9 4.2-4 7.7-10.3 11.7-4.8 3.1-5.3 3.7-4.7 6.1.4 1.5 1.5 3.6 2.6 4.8 2.5 2.7 2.4 3.4-.4 3.4-3.1 0-6.6-3.4-7.4-7.1-.6-3.1-2.6-3.4-3.1-.5-.6 3.1.6 6.1 3 7.1 3.3 1.4 2.8 2.9-1 3.3-4.1.4-5.7-1.4-7.2-8.2-1-4.8-1-5 2.1-8.2 5.4-5.6 2.3-6.1-3.5-.6C28.7 81.4 20.4 86 16.3 86 13.5 86 7 82.7 7 81.2c0-2.3 6.5-8.2 10.8-9.8 6-2.2 7.9-3.9 10.8-9.5a46.4 46.4 0 0 1 17.1-17c7.6-3.5 18.3-4.3 32.7-2.6l12.8 1.6 5-2.5a15 15 0 0 0 6-4.9c1.3-2.8 2.6-3.2 3.4-1zM94.5 80.2c2.9 1.3 3.4 3.8.7 3.8-2.1 0-4.2-1.8-4.2-3.7 0-1.6.2-1.6 3.5-.1z"/>
  <path fill="currentColor" d="M40.8 92.7c-2-.4-3.1-2-4.1-5.3-.6-2-1.2-4.8-1.3-6.2 0-1 0-1.1.4-2 .3-.5.9-1.3 1.9-2.4 2.5-2.7 3.5-4.2 3-4.7-.2-.3-.7-.1-1.9.5-1 .5-2.6 1.8-5.5 4.3a46 46 0 0 1-12 7.8c-2.3 1-3.4 1.2-5 1.2-1.1 0-1.4 0-2.7-.5a13 13 0 0 1-3-1.3C8 82.8 6.7 81.7 7 81c.5-2 4.7-6.2 8.6-8.5a61.1 61.1 0 0 0 6-2.7 13 13 0 0 0 4.7-4l1.9-3.1a44.4 44.4 0 0 1 17.7-17.8c4.2-2 10.2-3.2 17.7-3.3 6-.1 9.4.1 20.6 1.5l7 .9 3-1.5 4-2.1c1.9-1.3 3.5-3 4.4-4.5.4-.9 1.3-1.8 1.7-1.8.4 0 1 .6 1.3 1.3.3.8 1 1.4 1.7 1.6 1 .2 1.7-.2 1.7-1 0-.4.6-1 1-.9.6 0 .9.6 1 1.8.2 1.4.6 2.4 1.7 4a17 17 0 0 1 2.8 6.1c.8 2.9 2 4.9 3.9 7 1.3 1.4 1.4 1.8 1 2.2-.8 1-3 1.6-6 2-2.2.1-3.9.6-6.3 1.8-6.5 3.1-12.6 8.1-11.6 9.6l.9.5a25 25 0 0 1 8.4 8.5c1 2 1.1 3.4.6 4.7-1 2-2.7 3.8-3.8 3.8-.5 0-1.2-.5-1.5-1l-.8-2.4a9.5 9.5 0 0 0-2-4.3c-1-.8-1.6-1.2-4.2-2.3a24.4 24.4 0 0 1-8.1-5c-1.2-1.2-1.6-2.1-1.7-3.4 0-1.3.1-2 .9-4.2.5-1.3.6-1.7.5-2-.2-.3-1-.5-1.4-.2-1.3.7-3.2 5-3.2 7.2 0 1 .6 2.2 2.6 4.4a18 18 0 0 1 3.9 6.7l.9 2.4c1 2 2 2.6 5.3 3.5 1.7.4 2.8 1 3.5 1.7 1.1 1.3 1 2.4-.2 2.8l-4.5 1c-1.6.1-2.7 0-3.6-.4-.9-.5-2.6-2-3.5-3.3A55 55 0 0 1 77.8 72c-.2-.5-1.2-.8-3-1a17 17 0 0 1-7.9-2c-.6-.7-.7-1.2-.4-3.4.4-3 .2-4.4-.5-4.4-.5 0-1 1-1.5 2.9a14 14 0 0 1-3.9 6.7c-1.5 1.6-3.2 3-6.6 5.1-2.9 2-4 3-4.4 3.7-.7 1.5.5 4.7 3 7.5 1.8 2.2 1.8 2.8-.2 3-2.6.3-5.4-1.5-7.2-4.6l-.9-2.3c-.5-1.7-.8-2.4-1.4-2.6-.8-.3-1.5.6-1.7 2.4a7 7 0 0 0 1.2 5.1c.6.8 1 1 2.2 1.6 1 .6 1.8 1.2 1.8 1.7 0 .3-.4.7-.9 1-.8.4-3.6.7-4.7.4z"/>
</svg>
