<svg xmlns="http://www.w3.org/2000/svg" version="1.0" viewBox="0 0 128 128">
  <path d="M84.5 7.4c-.9 1.3-2.9 2.6-4.5 3-2 .4-3.1 1.3-3.6 3-.5 2.1-.9 2.3-2.4 1.4-1.4-.9-2.2-.9-3.4.1-2.5 2.1-1.9 5.4 1.8 9.7l3.4 4-1.3 5.2c-1.2 4.7-1.2 5.9.4 10.9 1.2 3.9 2.5 5.9 3.9 6.4 3.4 1.3 2.6 1.7-2 1.2-2.4-.3-7.7.2-11.8 1.1-5.3 1-10.2 1.3-16.6.9-7.7-.5-10-.2-15.7 1.6-7.1 2.4-6.9 2.2-8.2 10.2-.4 2.9-.1 3.9 2 5.7 2.3 2 2.4 2.4 1.1 4.5-.9 1.2-3.5 4-5.8 6.3-2.6 2.4-4.8 5.6-5.6 8-.6 2.1-2.3 5.5-3.7 7.4-4.2 5.6-3 15 1.8 15 2.8 0 4.7-1.8 4.7-4.3 0-2.9 5.6-12.2 9.1-15.1 3.4-2.9 4.9-3.3 4.9-1.2 0 .8 2.1 3.9 4.8 7 2.6 3.1 5.6 7.3 6.8 9.4l2.1 3.7 7.3.2c8.2.2 10.1-.7 9.8-4.6-.1-1.4 2.1-7 4.9-12.5 4.9-9.7 5.1-9.9 6.3-7.6.7 1.4 3.5 5.1 6.2 8.3 2.6 3.2 5.7 7.5 6.7 9.5 2.7 5.2 5.4 7.4 8.8 7 4.5-.5 4.3-4.7-.5-11.6-2.1-3.2-5.3-8.4-7.1-11.7-2.8-5.4-3-6.1-1.5-7 1-.6 4.2-3.2 7.2-5.8l5.4-4.9 5.9.7c7 .8 8.9-.2 8.9-5 0-2.7-.8-4-4.2-6.9l-4.3-3.5 3.4-3.5c1.9-2 4.3-3.8 5.2-4.1 2.6-.9 3.2-4 1.4-6.9-1.2-1.8-2.4-2.4-5-2.3-2.3.1-4.3-.7-5.8-2.1-1.3-1.2-2.9-2.2-3.6-2.2-1.4 0 2.6-5.9 6.6-9.7 2.4-2.3 3.1-6.7 1.3-7.8-.5-.3-1-1.4-1-2.3 0-.9-1.6-3.3-3.6-5.2-4.2-4-6.6-3.4-7.4 2l-.5 3.3-1.7-3.6c-1-2.1-2.3-3.7-3-3.7-.7 0-1.9-.9-2.6-2-1.6-2.7-3.8-2.5-5.7.4zm2.4 4.5c-1.5 4.2-.5 5 2.6 2.1 1.4-1.3 2.7-2.1 3-1.8.3.3-.1 1.1-1 1.8-2.2 1.8-1.8 3.3.7 2.6 1.7-.4 2.8.2 4.4 2.1 2.7 3.4 4.3 2.3 4.2-2.8 0-2.2.2-4.3.6-4.6.3-.4.6 1.5.6 4.1 0 5.1 1.9 6.1 3 1.5.4-1.6.8-2 1.3-1.2.4.7.1 2.6-.8 4.3-1.6 3.1-.4 4.3 1.4 1.2.9-1.5 1-1.5 1.1.5 0 1.2-.6 2.6-1.4 3-2.1 1.2-11.5 13.3-13.8 17.6-1.5 3-1.7 4.2-.7 5.3 1.5 1.9 2.6 1.8 6-.7 2.2-1.6 2.9-2.8 2.9-5.5 0-1.9.4-3.4.9-3.4s.8.8.7 1.7c0 1 .5 1.7 1.2 1.6.6-.2 1.2.4 1.2 1.3 0 1.1.5 1.4 1.6 1 1-.4 2.5.1 3.4.9 1.2 1.1 2 1.3 2.5.5.3-.5 1.1-.8 1.6-.5 1.4.9 1.1 2.5-.6 2.5-.8 0-3.7 2.3-6.5 5l-5.1 5.1 3.2 2.7c1.8 1.5 4.1 3.3 5.1 4 1 .7 1.8 2.4 1.8 3.8 0 2.4-.1 2.4-6.4 1.8l-6.3-.6-5.6 4.8c-3.1 2.7-6.9 5.9-8.4 7l-2.8 2.2 3 6.3c1.7 3.4 4.9 9 7.2 12.3 2.4 3.4 4.3 6.7 4.3 7.4 0 3-3.6.4-6.6-4.8-1.8-3-5.5-8.2-8.3-11.5-2.8-3.2-5.1-6.4-5.1-7 0-.5-.7-1.9-1.5-2.9-1.5-2-1.5-2-3 0-3.5 4.3-12.5 23.8-11.9 25.7.4 1.4.2 1.8-1.1 1.5-3.5-.6-3.9-3.2-1.2-7.4 2.2-3.3 4.2-8.9 6.4-18 .7-3.2-1.6-4.1-9-3.6-6.2.4-7.1.8-10.3 4-1.9 1.9-3.4 4.5-3.4 5.8 0 2.9 10.3 18 11.9 17.6.7-.1 1 .2.6.8-1.2 1.9-6.3 1.2-7-1-.4-1.1-3.1-5.1-6.1-8.8-4-5-5.4-7.5-5.4-10 0-1.7-.4-3.2-.8-3.2s-3.2 1.5-6.1 3.2c-4.4 2.7-6.2 4.7-9.6 10.8-2.4 4.1-4 8.1-3.7 8.9.3.9 0 1.2-.9.9-.8-.2-1.5-1.7-1.7-3.2-.5-4.1 7.3-19.1 12.4-23.8 5.2-4.8 7-8.8 5.4-11.7-.6-1.2-1.7-2.1-2.5-2.1-1.4 0-1.3-3.2 0-7.7.8-2.6 11.3-4.6 20.4-3.9 5.1.4 10.6.2 13.6-.4 10.4-2.3 14.7-2.3 20.5-.1 3 1.2 5.8 2.1 6.2 2.1.3 0 1-1.4 1.3-3.2.8-3.5-1.3-6-5-5.7-3.5.2-6.5-1.3-6.5-3.2 0-1-.4-2.1-1-2.4-1.3-.8-1.3-9.4.1-13.4 1-2.9.8-3.4-2.5-7.1-2-2.2-3.6-4.8-3.5-5.8 0-1.5.2-1.5 1.4.3 3.6 5.2 4.3 5.8 5.4 5.1.8-.5.9-2.3.5-5.7-.5-3.4-.3-4.9.5-4.9.7 0 1.1 1.2.9 2.7-.4 3.9 2.3 3.7 3.4-.2 1.5-4.8 2.8-7.8 3.3-7.3.3.3 0 1.9-.6 3.7zm11.5 28.8c0 1.6-1 3.3-2.4 4.2l-2.2 1.5 2.1-4.2c1.2-2.3 2.3-4.2 2.4-4.2.1 0 .2 1.2.1 2.7zM88 54.4c0 1.2-.6 1.3-3 .5-1.6-.6-3-1.3-3-1.5 0-.2 1.4-.4 3-.4 2 0 3 .5 3 1.4zM60.9 86.8c-.5 1.5-1.4 4.5-1.9 6.7s-2 5.7-3.2 7.7l-2.3 3.7-4.2-6.4c-2.4-3.5-4.3-7-4.3-7.7 0-.8 1.2-2.6 2.8-4.1 2-1.9 3.9-2.7 7.7-2.9 6.4-.4 6.5-.3 5.4 3z" />
  <path d="m90.1 19.7-2.3 1.8 4.2 2.4c5.3 2.9 7.5 1.6 4.4-2.6-2.6-3.5-3.6-3.7-6.3-1.6zM84.2 25.3C82.4 27.4 79 37 79 39.9c0 3 1.7 5 6.7 7.5 2.1 1.1 3.4 1.2 3.8.5.4-.6.4-1.3.1-1.6-.3-.3.8-3.1 2.5-6.3 4.4-8.3 4.3-10.9-.6-13.7-4.6-2.6-5.8-2.8-7.3-1zm5.9 3.3c3.4 1.7 3.4 2.7-1.1 11.1-2.6 4.9-2.9 5.1-4.9 3.7-1.1-.8-2.1-2.6-2.1-3.8 0-2.3 3.8-12.6 4.7-12.6.2 0 1.7.7 3.4 1.6zM103.6 46.6c-4.6 1.6-6.8 3.3-6 4.5 1 1.7 4.9.8 8.2-2 4-3.4 3.2-4.4-2.2-2.5z" />
  <path fill="currentColor" d="M50.791 109.976c-.943-.17-1.727-.467-2.301-.873-.468-.33-.653-.572-1.102-1.443-.993-1.924-3.11-4.923-6.652-9.427-1.642-2.087-3.064-4.179-3.673-5.403-.698-1.4-.9-2.152-1.01-3.748-.14-2.058-.43-3.142-.838-3.142-.479 0-4.94 2.416-7.212 3.906-2.37 1.555-3.816 2.9-5.365 4.99-1.931 2.607-5.248 8.66-6.391 11.665-.372.977-.42 1.22-.428 2.122-.004.601-.059 1.07-.132 1.144-.171.17-.821.036-1.177-.244-.58-.456-1.28-2.327-1.28-3.418 0-3.049 3.837-11.492 8.162-17.96 1.646-2.461 2.506-3.506 4.901-5.954 1.216-1.243 2.451-2.573 2.745-2.956 1.93-2.522 2.809-4.822 2.516-6.59-.304-1.831-1.82-3.684-3.015-3.684-.342 0-.726-.394-.869-.89-.269-.938-.018-3.334.595-5.693.345-1.326.544-1.648 1.363-2.2 2.84-1.912 10.821-3.146 17.935-2.773 3.657.192 10.848.192 12.523 0 .697-.08 2.608-.414 4.245-.742 5.771-1.155 9.073-1.51 11.874-1.276 2.721.227 4.157.595 8.151 2.089 2.359.882 4.465 1.563 4.835 1.563.284 0 .85-1.147 1.181-2.398.388-1.458.407-3.097.046-4.019-.677-1.732-2.723-2.81-4.902-2.582-1.38.144-3.764-.326-4.813-.95-.564-.334-1.203-.965-1.427-1.407-.108-.212-.225-.717-.262-1.122-.083-.936-.306-1.466-.848-2.02-.81-.83-1.037-2.051-1.03-5.568.007-3.475.315-5.668 1.159-8.268.238-.735.343-1.281.351-1.827.02-1.278-.378-1.921-3.165-5.134-1.348-1.553-2.261-2.848-2.861-4.056-.404-.813-.46-1.015-.447-1.616.016-.715.095-.975.267-.87.055.035.874 1.149 1.82 2.476 2.806 3.94 3.52 4.568 4.572 4.024.453-.234.657-.697.794-1.801.116-.945.02-2.414-.37-5.694-.132-1.106-.075-2.277.134-2.736.16-.349.577-.495.825-.289.454.376.534.76.54 2.584.006 1.453.04 1.826.197 2.115.569 1.05 1.534.885 2.429-.414.303-.44.624-1.227 1.168-2.863 1.677-5.043 2.85-7.374 2.97-5.906.045.558-.227 1.77-.782 3.485-.378 1.167-.448 1.529-.456 2.364-.01.956-.001.992.28 1.152.272.153.337.141.993-.183.403-.2 1.24-.816 1.969-1.449 1.207-1.048 2.419-1.884 2.73-1.884.191 0 .286.27.205.59-.035.142-.556.75-1.157 1.353-.81.812-1.124 1.206-1.212 1.525-.267.969.335 1.306 1.884 1.055 2.044-.332 2.508-.13 4.466 1.944.774.82 1.61 1.611 1.858 1.757.602.354 1.24.354 1.622 0 .656-.608.841-1.554.964-4.917.094-2.585.253-3.83.527-4.103.254-.254.565 2.159.57 4.434.006 2.394.569 4.08 1.362 4.08.32 0 .872-.585 1.127-1.19.094-.225.324-.93.51-1.567.363-1.24.607-1.764.821-1.764.32 0 .591.57.591 1.24 0 .918-.248 1.792-.961 3.388-1.099 2.457-.887 3.778.428 2.671.191-.16.662-.778 1.045-1.37.384-.593.744-1.078.801-1.078.156 0 .269 1.144.19 1.915-.086.839-.613 1.951-1.087 2.297-.736.538-3.198 3.085-4.505 4.663-4.21 5.08-8.488 11.034-9.68 13.472-1.413 2.891-1.515 3.798-.567 5.035 1.378 1.798 2.526 1.767 5.333-.143 2.136-1.454 3.081-2.536 3.427-3.921.09-.364.213-1.456.271-2.426.148-2.456.538-3.438 1.13-2.846.192.193.254.43.32 1.223.116 1.403.393 1.81 1.254 1.839.77.026 1.019.328 1.173 1.422.146 1.035.593 1.275 1.662.89.959-.346 2.257.029 3.432.99.35.285.853.616 1.12.734.605.267.928.17 1.504-.454.347-.376.465-.435.872-.435.4 0 .536.064.9.428.36.36.427.5.427.887 0 .338-.07.529-.266.725-.263.263-.39.31-1.195.44-.504.08-1.949 1.033-3.417 2.252-2.28 1.893-8.218 7.717-8.086 7.93.139.225 4.79 4.062 6.754 5.571 2.177 1.674 2.619 2.18 3.011 3.45.259.837.303 2.461.08 2.902-.36.713-1.4.728-7.846.116-3.852-.365-4.654-.415-4.796-.294L94.32 73c-5.643 4.826-6.58 5.605-9.316 7.751-1.183.927-2.242 1.773-2.354 1.88-.196.188-.153.298 1.306 3.378 2.9 6.12 5.292 10.333 9.102 16.028 1.983 2.964 3.094 4.796 3.597 5.932.299.675.316 1.502.038 1.837-.262.316-.912.208-1.628-.27-1.34-.895-2.807-2.657-4.545-5.46-2.772-4.467-5.277-7.87-9.984-13.559-1.931-2.334-3.47-4.583-3.47-5.07 0-.393-.813-1.936-1.511-2.869-1.495-1.998-1.618-1.993-3.209.118-2.979 3.953-9.413 17.197-11.432 23.53-.314.987-.394 1.914-.238 2.767.17.93-.283 1.053-1.969.533-1.922-.594-2.525-2.03-1.78-4.236.323-.955.67-1.629 1.672-3.253 1.968-3.19 3.732-8.059 5.626-15.531.54-2.131.62-2.577.585-3.272-.036-.704-.084-.858-.381-1.226-.398-.491-1.103-.881-1.998-1.106-1.441-.362-6.656-.287-10.061.144-3.039.384-4.275 1.014-6.683 3.403-2.234 2.215-3.697 4.659-3.697 6.174 0 .373.118.862.347 1.441 1.587 4.023 8.073 13.596 10.659 15.734.355.293.606.413.865.413.531 0 .714.1.714.394 0 .374-.663.986-1.288 1.19-.677.221-1.813.304-2.495.182zm50.955-58.418c1.66-.614 2.953-1.423 4.645-2.905 1.734-1.519 2.31-2.557 1.634-2.943-.251-.144-.422-.15-1.157-.041-2.425.358-6.886 2.147-8.44 3.385-1.303 1.037-1.365 2.092-.16 2.708.69.353 2.215.264 3.478-.204zm-12.36-3.462c.416-.443.641-1.505.357-1.68-.418-.26.24-1.992 2.426-6.395 1.83-3.684 2.494-5.22 2.856-6.603.992-3.787-.232-5.605-5.569-8.274-3.325-1.663-4.501-1.42-6.036 1.246-1.77 3.076-4.232 10.33-4.44 13.08-.243 3.223 1.688 5.514 6.74 8 1.39.683 1.924.85 2.764.864.56.009.708-.03.902-.238zm7.853-22.766c.747-.375.82-1.135.23-2.398-.7-1.498-2.788-3.985-3.702-4.41-.653-.303-1.369-.255-2.182.149-.832.412-3.885 2.759-3.754 2.885.051.05.54.348 1.085.662 3.713 2.137 4.898 2.72 6.285 3.088.98.26 1.553.267 2.038.024z" />
</svg>
