<svg xmlns="http://www.w3.org/2000/svg" version="1.0" viewBox="0 0 128 128">
  <path d="M46.5 12.6c-1.1.3-2.7.8-3.5 1.2-.8.3-4.3.6-7.6.7-7.1 0-10.4 2.1-10.4 6.5 0 5-2 9-4.5 9-5.8 0-5.8 8 .1 10.7 2.8 1.4 3.8 1.4 6 .4 1.5-.6 3-.8 3.4-.4.4.4 1.2 4.1 1.9 8.2 1.6 9.9 4.6 16.5 9.4 20.6 3.9 3.3 4 3.7 5.8 14.2 2.4 13.9 2.3 18-.1 23.1-3.7 7.6-2.4 9 8.6 9.1 9.9.1 10.1-.2 10.6-16.4C66.7 85 67.9 81 71.7 81c2.6 0 6.3 5 6.3 8.7 0 2.9-3.9 13.2-6.2 16.2-5.9 7.8 3.4 13 10 5.5 1.8-2 3.2-4.2 3.2-5 0-.8.9-3.3 1.9-5.7 5.9-12.7 6-14 2.9-19.3-2.7-4.6-.8-4.2 2.6.6 5.4 7.3 6.1 9.8 6.1 21.5v11l3.7.3c6.9.6 8.3-4.9 5.9-23.3-.7-5-1.8-10.4-2.6-12.2-2.5-5.4-1.4-9.6 3.1-11.3 3.6-1.4 3.4-9-.4-14.5-4.4-6.3-9.6-8.6-21.5-9.6-10.6-.8-13.4-1.4-20.3-4.6l-4.2-1.9 1.9-2.3c1.4-1.7 1.9-3.9 1.9-8.1 0-5.2-.3-6.1-3.7-9.9-3.3-3.7-4.4-4.2-8.8-4.6-2.7-.2-5.9-.2-7 .1zm10.4 3.8c5.3 2.8 7.5 10.9 4.6 16.5-3 5.8-11.5 6-11.5.3v-2.7l1.8 2.3c3.4 4.4 7.7-.8 4.6-5.5-2.8-4.3-7.6-2.2-8.9 3.8-1.2 5.3 1.9 8.3 9.1 8.9 3.3.3 7.9 1.6 10.4 2.9 6 3.2 14.1 5 22.1 5.1 8.6 0 13.2 2 16.4 7 2.5 3.9 3.4 10 1.5 10-.5 0-1-1.4-1-3 0-1.7-.4-3-1-3-.5 0-1 2-1 4.4 0 2.6-.6 4.8-1.5 5.6-1.9 1.6-1.9 7.2-.1 11.3 2.3 5 4.9 28.8 3.4 30.2-.2.2-1.4.5-2.8.7-1.8.2-2.4-.1-2.1-1.2.2-.8.6-4.3.8-7.7.7-7.6-1.3-14.2-6.4-21.9-3.4-5.1-3.8-5.4-7.4-5.2-2.2.2-3.9.7-3.9 1.2 0 .4 1.2 3 2.6 5.5l2.5 4.8-3.5 9c-2 5-3.6 9.3-3.6 9.7 0 1.7-4.6 6.6-6.1 6.6-3.1 0-3.1-1.7 0-7.2 3.5-6.4 6.3-15.2 5.4-17.6-.4-.9-1.8-3.4-3.1-5.5-2.2-3.3-2.9-3.7-6.6-3.7-3.9 0-4.4.3-6.1 3.7-1.4 2.9-2 6.6-2.2 15.3-.5 15.5-.6 16-4.4 16-2.3 0-3-.4-2.6-1.4 1.8-4.7 2.5-10.5 2.5-21.9 0-7-.3-12.7-.8-12.7-1.4 0-2 4.4-2 16.6 0 14.4-1.4 19.4-5.6 19.4-2.2 0-2.4-.3-1.8-2.3.3-1.2 1.3-3.4 2-4.9 1.9-3.7 1.8-9.5-.6-23.5-1.7-9.9-2.4-12-4.3-13.3-6.2-4.2-10-11.9-11.3-23.1-.4-3.8-1.3-6.8-2.2-7.5-.9-.6-1.3-1.8-.9-2.8.8-2-.6-2.1-2.3 0-2.6 3-5 3.6-7.6 1.9-3.5-2.3-3.1-4.3.8-4.1 3 .1 3.3-.2 5-5.8 1-3.2 1.6-6.2 1.3-6.6-.2-.4.4-1.5 1.4-2.4 2.7-2.4 7.2-1.7 8.7 1.3l1.2 2.3 1.1-2.1c2.3-4.2 11.1-6.2 16-3.7z" />
  <path fill="currentColor" d="M49.027 112.846c-.505-.163-.627-.328-.627-.842 0-.687.721-2.778 1.708-4.951 1.655-3.646 1.877-4.798 1.785-9.261-.081-3.962-.48-7.367-1.73-14.774-1.449-8.591-2.253-11.686-3.408-13.116-.195-.24-.884-.832-1.532-1.314-2.948-2.195-5.4-5.26-7.126-8.913-1.768-3.742-2.833-7.75-3.64-13.7-.66-4.858-1.192-6.586-2.405-7.8-.823-.823-1.034-1.632-.686-2.62.2-.564.215-1.23.033-1.41-.396-.397-1.106.032-2.6 1.572-1.169 1.203-2.259 2.044-3.056 2.355-1.403.548-2.88.314-4.404-.699-1.863-1.236-2.681-2.543-2.03-3.242.46-.493.915-.596 2.961-.67 2.173-.078 2.368-.136 3.017-.895.494-.576.878-1.5 1.67-4.011 1.169-3.714 1.785-6.534 1.642-7.517-.09-.618.316-1.36 1.216-2.225 1.123-1.078 2.356-1.561 3.972-1.556 1.084.003 1.663.13 2.566.56 1.08.516 1.728 1.242 2.622 2.937.424.803.795 1.46.825 1.46.03 0 .378-.608.772-1.35.838-1.578 1.652-2.479 2.995-3.315 3.768-2.347 9.747-2.867 13.165-1.145 4.55 2.291 7.041 8.71 5.55 14.3-.121.455-.471 1.344-.778 1.975-.485 1-.686 1.278-1.566 2.161-1.122 1.127-2.008 1.686-3.346 2.11-2.543.808-4.908.164-6.023-1.64-.362-.584-.516-1.51-.516-3.097v-1.532l1.08 1.362c1.2 1.512 1.607 1.9 2.338 2.224 2.335 1.038 4.554-1.555 3.934-4.596-.537-2.635-2.531-4.7-4.54-4.7-2.285 0-4.457 2.326-5.295 5.668-.818 3.259-.204 5.636 1.853 7.183 1.613 1.212 3.563 1.833 6.921 2.203 1.845.204 3.242.467 5.23.986 2.168.566 3.545 1.078 5.789 2.151 3.197 1.53 5.499 2.375 8.654 3.178 4.24 1.08 7.399 1.497 12.679 1.676 1.82.061 3.804.16 4.41.22 4.862.482 8.055 1.852 10.589 4.545 2.495 2.653 4.174 6.648 4.182 9.951.003 1.451-.117 1.873-.602 2.115-.643.32-1.066-.705-1.219-2.96-.111-1.638-.387-2.645-.784-2.857-.73-.39-1.144.928-1.305 4.16-.15 3.01-.501 4.51-1.278 5.472-.89 1.101-1.053 1.366-1.265 2.054-.777 2.513-.427 6.184.916 9.602.718 1.828 1.221 3.845 1.844 7.386 1.225 6.967 2.08 15.727 1.963 20.093-.063 2.354-.15 2.624-.93 2.876-1.386.448-3.382.644-3.945.387-.397-.18-.431-.405-.237-1.555.476-2.822.894-8.68.8-11.217-.225-6.139-2.314-11.72-6.973-18.64-1.859-2.76-2.685-3.694-3.685-4.17-.577-.273-.694-.288-2.37-.285-1.89.003-3.158.194-4.167.628-.676.29-.76.455-.553 1.078.236.707 1.652 3.566 3.387 6.836.82 1.546 1.493 2.886 1.495 2.977.001.09-1.044 2.844-2.323 6.119-3.564 9.121-4.73 12.257-4.73 12.716 0 .1-.142.48-.316.844-.798 1.675-3.55 4.57-5.081 5.346-.41.207-.598.237-1.14.18-1.327-.138-1.806-.622-1.7-1.715.091-.934.366-1.659 1.384-3.646 2.208-4.31 2.566-5.041 3.198-6.531 1.965-4.634 3.07-8.51 3.18-11.164l.06-1.433-.625-1.193c-.889-1.694-2.415-4.284-3.105-5.268-1.273-1.814-2.11-2.503-3.41-2.805-1.127-.261-5.37-.182-6.171.115-.865.32-1.534 1.094-2.39 2.763-1.82 3.549-2.221 6.119-2.568 16.42-.354 10.528-.588 12.964-1.38 14.35-.246.43-.45.628-.852.826-.479.235-.672.26-2.071.26-1.63 0-2.187-.11-2.544-.505-.195-.215-.187-.262.262-1.622.624-1.89.944-3.195 1.28-5.216.683-4.114.884-7.757.878-15.92-.005-7.75-.217-11.803-.652-12.476-.37-.572-1.014.151-1.368 1.536-.525 2.054-.74 5.675-.833 14.027-.036 3.214-.113 6.761-.172 7.883-.397 7.532-1.508 11.015-3.847 12.05-.561.25-2.362.368-2.906.193z" />
</svg>
