<svg xmlns="http://www.w3.org/2000/svg" version="1.0" viewBox="0 0 128 128">
  <path d="M75 18.7c-2.5 1.5-6.1 3.8-8 5.1-2.7 1.8-4.3 2.2-7 1.8-24.6-4.2-26.7-3.9-37.7 5.1-7.3 6-12.1 14.5-13.8 24.8-.4 2.2-2 7.9-3.6 12.7-2.4 7-3.01 10.648-2.7 15.5-.096 4.274.793 6.305 3.3 6.8 1.344.266 3.3-.7 4.4-3 .8-1.7 2.3-3.6 3.3-4.3 1-.7 1.8-2.3 1.9-3.5 0-1.2.5-3.1 1-4.2 1.1-2.5.2 13-1.2 19.3-.7 3.4-.6 5 .9 8 1.6 3.5 1.9 3.7 6.6 3.7 6.7 0 8-2 4.8-7.6-2.9-4.9-2.5-9.6 1.4-20.1 2.9-7.6 4.7-9.8 3.1-3.8-1 3.7-.8 4.6 4.1 14.7 2.9 5.9 5.2 11.6 5.2 12.5 0 2.9 5.5 6 10.2 5.6 5.9-.4 6.3-3.3 1.4-9.5-5.9-7.5-8.8-17.4-7.1-23.7.7-2.6 1.1-2.8 4.4-2.2 2 .3 5.9.6 8.6.6 4.9 0 5 .1 6.7 4.3 2.8 6.8 3.7 12.6 3.8 22.3 0 8.6.1 9.3 2.5 10.8 3.5 2.3 11.1 2.1 12.4-.3.8-1.5.5-2.7-1.4-5.5l-2.4-3.5 5.2-5.8c2.9-3.1 6.7-7 8.5-8.6 4-3.6 4.1-6.9.7-13.7-2.7-5.3-3.2-8.5-1.4-9.6.8-.4.9 0 .4 1.5-.9 3.1.1 5.4 3.4 7.4 4 2.3 6.4 2.1 9.9-.8 2.7-2.2 2.9-3.1 3.5-11 .6-9 1.9-13.1 3-10.1 1 2.6 6.2 2 9.2-1.1 4.3-4.7 4.6-14.1.6-17.8-3-2.6-5.5-1.6-6.1 2.5l-.5 3.4-3.6-4.2c-2-2.3-4.4-4.2-5.4-4.2-.9 0-3.4-1.4-5.3-3.2C98.1 22.3 85 16 81.7 16c-1.2 0-4.2 1.2-6.7 2.7Zm15.5 3.9c3.9 2 7.9 4.4 9 5.5 1.9 1.9 1.9 1.9-.4 1.9-1.3 0-3.8 1.5-5.8 3.5-1.9 1.9-3.7 3.5-3.9 3.5-.2 0-.4-1-.4-2.3 0-1.3-.7-3.2-1.5-4.3-1.5-1.9-1.5-1.9-3.5.5-2.7 3.1-3.4 6.2-2.6 11.5.8 5 4.1 8.1 7.4 6.8 2.5-.9 11.2-8.9 11.2-10.2 0-1.9-1.8-1-6.8 3.5-2.7 2.5-5.4 4.5-5.9 4.5-.6 0-1.8-1.5-2.7-3.3-1.6-2.8-1.6-3.8-.6-7.6.9-3.3 1.4-4.1 2.1-3 .5.8.9 2.4.9 3.5 0 1.2.6 2.7 1.4 3.3 1.1.9 1.8.6 3.6-1.9 3-4.2 7.4-6.4 10-5 1.4.7 2 .7 2 0 0-3.6 7.5 1.7 10.8 7.6 1.6 2.8 4.1.9 4.8-3.7.7-4.1.7-4.1 2-1.8 1.9 3.4 1.7 6.9-.6 10.7-2.6 4.3-4.5 3.9-8.8-1.8-4-5.2-5.9-6.4-4.7-2.9 1.8 5.5-.1 25.5-2.7 28.1-4.3 4.3-8.4 1.3-9.1-6.7-.7-8.2-1.1-10-2.2-10.2-.6-.2-1 1.4-1 3.5 0 2.4-.8 4.8-2.3 6.6-2.5 3.2-2.4 4 1.4 12.5 1.3 2.9 2.4 5.8 2.4 6.3s-2.4 3.3-5.3 6.1c-3 2.9-6.6 6.8-8.1 8.7l-2.7 3.5.7-4c.5-3 1.9-5.3 5.6-9.1l5-5.1-4.1-5.4c-2.3-3-4.1-5.7-4.1-6.2 0-.4-1.1-.7-2.4-.7h-2.4v16.2l.1 16.3 2.9 3.7 3 3.8h-3.6c-2 0-3.6-.5-3.6-1 0-.6-.7-1-1.6-1-1.4 0-1.6-.9-1-6.8.8-7.6-.8-16.3-4.8-27.7-1.4-3.9-2.6-8.1-2.6-9.3 0-1.5-.5-2.2-1.2-1.9-.7.2-1.2.8-1.2 1.3.1.5.4 2.4.8 4.3l.6 3.4-9.8-.7-9.9-.7-1.5 3.9c-2.7 6.9.5 18.9 7.2 27 3.6 4.4 3.7 5.2.8 5.2-2.5-.1-6.8-3.2-7.2-5.2-.4-1.9-1.5-4.4-5.7-13.5-3.2-7.1-3.6-8.7-2.8-11.5 1.4-4.7.9-12.8-.8-12.8-.7 0-1.3.4-1.3 1 0 .5-1.4 3.2-3.1 6.1-4.2 7.2-6.7 14.2-7.5 21-.5 4.9-.3 6.3 1.6 9.3 1.8 3.1 1.9 3.7.6 4.2-2.6 1-5.1-.1-5.4-2.4-.2-1.3-.8-2-1.4-1.6-.8.5-.9.1-.4-1.2.4-1 1.4-7.7 2.2-14.9.9-7.1 1.8-14.7 2.1-16.8.3-2.2-.2-5.8-1.2-9-1-2.8-1.8-6-1.9-7 0-.9-.5-1.7-1.1-1.7-.5 0-1.3 3.5-1.6 7.7-.7 8.5-4 24.3-5.1 24.3-.4 0-.8-1.2-1-2.8l-.4-2.7-.6 2.5c-.4 1.4-1 4.2-1.3 6.2-.3 2.1-1 3.8-1.5 3.8-1.6 0-1-9 1-16 1-3.6 2.6-9.2 3.4-12.5 4-14.8 4.6-16.4 9.9-22.1C27.2 29.8 33.2 26 38.4 26c2.3 0 8.4.7 13.6 1.6 11.2 1.8 14.9 1.3 19.3-2.5 3.6-3.1 8.4-5.8 10.7-6 .9-.1 4.7 1.5 8.5 3.5zM18 71c-1 2.3-1 2.2-.5-.9.3-1.8.6-4.3.7-5.5.1-1.2.3-.9.5.9.2 1.7-.1 4.2-.7 5.5zm64.8 12.7-2.3 2.5-.7-3.9c-.4-2.1-.7-5.1-.7-6.7-.1-2.9-.1-2.9 3 1.4l3.1 4.2z"/>
  <path fill="currentColor" d="M81.949 19.007c-2.111.27-3.99 1.415-5.81 2.45-2.29 1.32-4.283 3.063-6.382 4.65a11.718 11.718 0 0 1-7.496 2.256c-3.295.109-6.56-.288-9.804-.845-5.307-.766-10.645-1.833-16.032-1.489-4.812.965-8.84 4.067-12.324 7.372-3.028 3.014-6.25 5.966-8.407 9.7-2.146 3.94-3.153 8.359-4.404 12.632-1.567 5.876-3.176 11.741-4.775 17.608-.98 4.055-1.686 8.231-1.515 12.415.112.782.055 1.81.755 2.33.707.252.987-.71 1.191-1.2.842-2.435.971-5.04 1.664-7.508.24-1.027.48-2.05.736-3.074.35 1.496.314 3.125 1.036 4.509.139.393.674.45.806.019 1.025-2.213 1.459-4.648 2.051-7 1.448-6.38 2.424-12.867 3.034-19.373.275-1.745.38-3.585 1.145-5.202.183-.315.563.16.714.332.46.906.389 1.983.713 2.94.882 3.806 2.54 7.469 2.713 11.4.182 2.903-.458 5.792-.734 8.686-.984 7.516-1.753 15.065-2.918 22.55-.2 1.389-.515 2.749-.877 4.096-.129.36.176.834.575.586.32-.166.71-.385.95.048.654.978.492 2.377 1.461 3.193 1.395 1.287 3.699 1.273 5.246.278.708-.668.073-1.702-.246-2.4-1.053-2.085-2.682-4.064-2.663-6.518-.106-4.377.79-8.735 2.074-12.911 1.611-5.244 4.27-10.06 6.956-14.816.646-1.314 1.502-2.58 1.83-4.014.333-.633 1.414-.75 1.698-.011 1.046 2.351.766 4.993.764 7.499.01 1.98-.605 3.889-.957 5.823-.366 2.827 1.017 5.479 2.04 8.02 2.056 4.761 4.42 9.393 6.245 14.251.394 1.21.657 2.55 1.659 3.433 1.619 1.626 3.648 3.055 5.968 3.384.74.012 1.706.089 2.245-.515.323-.825-.428-1.608-.803-2.282-1.888-2.651-4.1-5.107-5.61-7.994-3.021-5.547-4.979-11.917-4.313-18.287.308-2.37 1.334-4.557 2.174-6.772.298-.334.982-.008 1.43-.08 6.07.358 12.13.862 18.2 1.209.348-.285-.062-.843-.02-1.225-.353-2.248-.922-4.47-1.145-6.733.16-.659 1.193-1.373 1.744-.771.471 1.085.296 2.334.66 3.458 1.62 6.282 4.205 12.287 5.614 18.624 1.04 4.415 1.765 8.943 1.581 13.492.035 2.932-.608 5.858-.324 8.794.073.693.71 1.127 1.377 1.117.593.061 1.367.22 1.452.932.393.714 1.366.76 2.076.942 1.686.079 3.395.182 5.074.016.407-.284-.323-.689-.421-.974-1.724-2.212-3.465-4.411-5.198-6.616l-.042-32.305c1.47-.014 3.04-.177 4.406.464.206.48.419 1.01.736 1.453 2.272 3.565 4.967 6.833 7.487 10.222-2.485 2.626-5.12 5.119-7.462 7.874-1.549 1.922-2.817 4.153-3.12 6.64-.193 1.184-.507 2.368-.583 3.563.347.277.552-.43.796-.602 2.483-3.327 5.259-6.421 8.192-9.359 2.32-2.45 4.857-4.72 6.898-7.418.73-.811.066-1.886-.202-2.74-1.438-3.86-3.401-7.518-4.608-11.454-.427-1.313-.346-2.856.476-3.993 1.193-1.71 2.565-3.409 2.934-5.525.462-1.828.144-3.786.797-5.565.227-.594.777-.046.952.271.72 1.308.703 2.87.95 4.308.438 3.21.426 6.523 1.416 9.636.66 1.769 1.722 3.777 3.706 4.27 1.108.166 2.262-.008 3.188-.67 1.178-.662 2.143-1.7 2.514-3.022 1.376-4.103 1.793-8.45 2.203-12.735.293-4.284.54-8.64-.233-12.888-.118-.857-.643-1.719-.476-2.583.798.1 1.321.898 1.893 1.404 2.24 2.302 3.864 5.17 6.339 7.242.917.776 2.331 1.247 3.391.461 1.497-1.114 2.384-2.848 3.163-4.5 1.152-2.699 1.194-5.939-.257-8.537-.39-.632-.66-1.454-1.305-1.865-.58.04-.55.862-.708 1.273-.52 2.158-.555 4.648-2.138 6.372-.465.523-1.281.882-1.89.377-.922-.703-1.334-1.87-2.066-2.748-1.87-2.556-4.134-4.925-6.921-6.479-.735-.33-1.656-.797-2.454-.43-.505.286-.491.879-.581 1.366-.439.35-1.055-.106-1.513-.246-1.827-.914-3.983-.422-5.665.576-2.526 1.303-4.16 3.72-5.946 5.814-.45.533-1.241 1.204-1.931.618-1.479-.954-1.529-2.898-1.762-4.457-.246-1.03-.366-2.327-1.309-2.979-.652-.146-.874.747-1.084 1.196-.676 2.037-1.355 4.135-1.416 6.297.093 1.97 1.27 3.67 2.23 5.32.514.684 1.035 1.697 1.992 1.747 1.573-.658 2.805-1.923 4.128-2.967 2.372-1.958 4.523-4.266 7.235-5.754.368-.301 1.017-.249 1.04.31.028.972-.878 1.62-1.426 2.318-2.69 2.779-5.523 5.47-8.757 7.604-1.443.978-3.473.96-4.838-.154-2.458-1.905-3.33-5.167-3.477-8.134-.102-2.459-.058-5.043 1.29-7.189.89-1.387 1.827-2.818 3.136-3.842.542-.378.954.427 1.282.738 1.291 1.497 1.82 3.473 1.88 5.416.091.587.064 1.264.454 1.742 1.092-.685 2.003-1.701 2.975-2.572 1.824-1.66 3.623-3.597 6.052-4.33.814-.301 1.764.061 2.53-.366.3-.46-.36-.871-.608-1.196-2.596-2.516-5.884-4.132-9.014-5.869-2.756-1.4-5.508-2.889-8.483-3.768a3.24 3.24 0 0 0-.859-.085z"/>
</svg>
