<svg xmlns="http://www.w3.org/2000/svg" version="1.0" viewBox="0 0 128 128">
  <path d="M43.2 3.2c-1.9 1.9-1.4 3.6 1.8 6.5 5.2 4.6 3 5.9-4.1 2.3-2.6-1.4-4.8-1.8-6.2-1.4-1.2.4-3.4.7-4.8.5-1.5-.1-4.3.9-6.4 2.3-6.2 4.3-7.4 3.2-2.3-2.1 2.8-2.9 3-3.5 2-5.8-1.5-3.2-3.9-3.2-8.2 0-4.8 3.5-7.2 7.4-6.6 10.8.3 1.5 0 3.7-.7 4.7-.9 1.6-.8 2.6.7 5.4 2 3.7 5.2 5.6 9.4 5.6 4.9 0 6 4.2 6.5 25.1.2 6.1-.2 8.1-1.5 9.6-2.2 2.4-2.3 6.2-.3 6.9 1 .4 1.2 1.1.6 2.3-1.2 2.2.5 5.1 2.9 5.1 1.7 0 6.8-6.1 8.3-10 .3-.8.6.1.6 2 .1 1.9.6 5.1 1.2 7 .6 1.9 1.3 7.1 1.5 11.5.2 4.4.7 11.5 1 15.7.3 4.7.1 8.4-.5 9.7-.7 1.3-.8 2.8-.1 4.5.9 2.4 1.2 2.5 10.2 2.5 5.1 0 9.8-.5 10.5-1.1.9-.7 1.3-3.6 1.3-8.5 0-7 1.5-24 2.6-29.1.4-2.1.8-2.3 4.7-1.7 2.3.4 5.4.2 6.9-.4 2.7-1 2.9-.9 6.3 5.9l3.5 7-1.4 6.8c-.8 3.7-2.4 8.4-3.6 10.5-1.9 3.2-2.1 4.2-1.2 6.3 1 2.1 1.8 2.4 5.8 2.2 5.2-.2 7.4-1.8 7.4-5.5 0-1.4 1.4-7.2 3.1-13 1.7-5.7 2.9-11.4 2.6-12.5-.4-1.4-.3-1.8.4-1.1.6.6 2.2 5.7 3.6 11.4 2.4 9.9 2.4 10.5.8 13.5-1.4 2.5-1.5 3.6-.5 5.3.9 1.8 1.9 2.2 5.3 1.9l4.2-.3.8-5c.4-2.8.5-8.5.2-12.9-.6-7.1-.5-7.9 1.4-9.3 1.2-.8 2.1-2.5 2.1-3.7 0-1.6.7-2.6 2.1-2.9 2-.5 2.1-1.1 1.5-5.9-1.2-10.3-1.7-13.4-3.3-21.3-1.6-7.4-2.1-8.4-6.8-13-2.7-2.8-8.3-7-12.4-9.5-6.7-4-8.5-4.6-17.5-5.7-5.6-.7-10.8-1.2-11.7-1.3-2.4 0-8.6-6.5-9.2-9.6-.3-1.5-.2-3.7.2-4.8 1.5-4-.7-8.5-5.6-11.6-5.1-3.2-7.2-3.7-9.1-1.8zm6.9 4c3.7 2.1 6.1 6 5.2 8.6-.7 1.8-6.2 4.6-10.3 5.2-2.6.4-3.6 1-3.8 2.7-.3 1.8.1 2.1 2.3 1.9 1.4-.2 3.3-1 4.3-1.9.9-.8 2.9-1.9 4.5-2.2 2.2-.6 2.7-.4 2.7 1 0 2.5 4.6 8.2 7.9 10 1.6.8 7.1 1.9 12.2 2.5 13 1.5 12.7 1.4 21.1 6.9 12.8 8.5 15.2 12.3 17.9 28.8 2.5 15.4 2.3 18.9-.6 10.6l-1.4-3.8-.1 7.2c0 4.2-.4 7.3-1 7.3s-1-4.1-1-10.2c0-14.2-2.6-28.8-5.1-28.8-1.6 0-2.3 5.3-2.3 16 0 9.5.3 11 2.7 15.5 2.5 4.7 2.7 6 3.1 19.8l.3 14.7h-2.9c-3.3 0-3.3-.2-1.2-3.5 1.8-2.7 1.3-8.3-1.7-18.1C100.6 90 91.3 71 90 71c-.6 0-1 2.5-1 5.6 0 4.2.7 6.8 2.7 10.3l2.6 4.8-3.1 11c-1.8 6.1-3.2 12.3-3.2 13.7 0 2.8-2 3.7-2 .8-.1-1.6-.1-1.6-1.4 0-1.3 1.8-4.6 2.5-4.6 1 0-.4.8-2.1 1.8-3.7 2.5-4.2 4.6-12.1 4.5-17.5 0-3.3-1-6.4-3.9-11.6l-3.9-7.1-3.8 1.3c-2.8 1-5.1 1.1-8.9.4-2.8-.6-5.3-.9-5.4-.7-.7.7-3.4 28.4-3.4 34.8v6.9h-2.9c-3.8 0-4.7-1.5-2.8-4.4 1.3-1.9 1.5-5.8 1.4-21.4-.2-20.2-.6-22-4.7-20.7-2.2.7-2.2 1-1.6 10.4.4 5.3.5 10.9.4 12.6-.2 1.6-.2 7.6-.1 13.3l.2 10.3-3.2-.3c-2.3-.2-3.1-.7-2.7-1.8.2-.8.6-5.7.8-10.8.2-6.7 0-9.2-.9-9.2-.8 0-1-1.4-.5-4.9.4-3.4 0-8.1-1.4-14.7-2.1-10.2-1.9-19.9.6-21.9 1.3-1.1 2.6-18.5 1.3-18.5-1.2 0-1.9 2.9-1.9 7.8 0 6.6-.8 8.8-3.6 10.2-1.9 1.1-2.4 2.1-2.4 5.4 0 3.8-2.4 10-5.5 14-2.7 3.5-2.7.9 0-3.9 2.8-5.2 2.9-6.7 0-3.5-1 1.1-2.5 2-3.3 2-1.2 0-1-.6.7-2.4 1.2-1.3 2.3-3.4 2.5-4.8.1-1.3.6-2.9 1-3.6.4-.7.4-2.1 0-3-.4-.9-1-6.3-1.3-11.9-.8-12.5-2.4-15.5-9.1-16.4-4.3-.6-8-3.6-8-6.5 0-1.2.7-1.1 3.8.2 2 1 5.4 1.9 7.5 2.2 3.4.4 3.8.2 3.5-1.4-.2-1.4-1.3-2-4.3-2.2-10.5-.7-12.3-6.5-4-12.8 4.3-3.3 5.8-2.4 2.2 1.2-3.5 3.4-4.3 6.2-2.4 8.1 1.9 1.9 6.8 1 9.3-1.8 2.2-2.5 5.4-2.5 6.1.1.6 2.2 2.3 2.7 2.3.7 0-3.1 2.2-3.6 6.2-1.6 8.9 4.6 14.2 0 7.7-6.7-3.8-3.9-3.2-4.3 2.2-1.2zM107.3 76c.4 4.7.3 5.8-.4 4.1-.5-1.3-1.1-6.5-1.4-11.5-.3-7.2-.3-8.1.4-4.1.5 2.7 1.1 7.9 1.4 11.5zM49.7 88.7c-.2 2.1-.4.4-.4-3.7 0-4.1.2-5.8.4-3.8.2 2.1.2 5.5 0 7.5zM93.5 83c1.3 2.7 1.4 3.2.2 2-.8-.8-1.8-2.6-2.2-4-.9-3.2-.2-2.5 2 2zm-43.8 28.7c-.2 2.1-.4.4-.4-3.7 0-4.1.2-5.8.4-3.8.2 2.1.2 5.5 0 7.5z"/>
  <path fill="currentColor" d="M45.75 5.094c-.74.144-.028 1.015.243 1.299 1.737 2.16 4.2 4.122 4.681 6.993.178 1.396-.726 2.786-2.093 3.16-2.45.642-5.088-.006-7.342-1.073-1.905-.802-4.023-2.16-6.15-1.37-1.365.674-.9 2.438-1.506 3.558-.67.491-1.256-.496-1.471-.981-.451-1.162-1.105-2.648-2.57-2.66-2.14-.282-3.623 1.532-5.111 2.735-2.046 1.61-5.074 2.438-7.489 1.281-1.589-.93-1.936-3.156-1.015-4.664 1.155-2.435 3.608-3.952 4.82-6.34.314-.698-.635-.862-1.088-.597-2.602 1.114-4.836 3.022-6.662 5.162-1.314 1.673-2.535 4.18-1.218 6.192 1.822 2.515 5.166 3.096 8.057 3.432 1.576.296 3.766.053 4.713 1.662.334.655.469 1.971-.578 1.964-3.916.029-7.689-1.295-11.271-2.768-.804-.187-1.786-.893-2.586-.393-.562 1.165.215 2.512.862 3.49 2.013 2.723 5.503 3.594 8.656 4.142 2.22.426 4.311 1.76 5.229 3.875 1.661 3.735 1.745 7.906 2.121 11.911.335 4.04.45 8.137 1.322 12.107.848 1.908-.543 3.845-.846 5.71-.322 2.325-1.48 4.433-3.083 6.114-.324.528-1.277 1.244-.804 1.912 1.185.46 2.332-.602 3.23-1.242.938-.682 1.608-1.872 2.72-2.241-.174 1.46-1.064 2.748-1.65 4.086-.909 1.956-2.204 3.856-2.467 6.037-.023.636.786.528 1.04.123 2.535-2.696 4.201-6.106 5.485-9.546 1.034-2.671 1.049-5.554 1.392-8.355.2-1.6 1.678-2.44 2.905-3.225 1.845-1.118 2.492-3.32 2.628-5.35.428-3.535.033-7.18.883-10.636.21-.527.507-1.507 1.208-1.411.685 2.245.314 4.682.272 7.002-.277 3.49-.382 7.047-1.346 10.432-.558 1.282-1.605 2.34-1.823 3.776-.744 3.894-.609 7.914-.244 11.844.768 7.612 3.41 15.115 2.394 22.826-.008 1.241-.515 2.747.304 3.829.435.254.957.49.971 1.087.534 4.043.128 8.147.007 12.209-.113 2.454-.307 4.907-.64 7.334.206 1.175 1.716 1.14 2.637 1.33 1.182.058 2.494.459 3.6.203-.365-5.716-.194-11.453-.276-17.179-.041-7.49.073-14.993-.503-22.464.002-1.906-.336-3.922.148-5.752.626-1.09 2.11-1.24 3.245-1.326 1.592.019 1.926 1.927 2.149 3.144.768 5.728.586 11.54.713 17.312-.007 6.171.134 12.363-.343 18.518-.082 2.007-1.462 3.598-1.94 5.48-.22 1.42 1.378 2.243 2.6 2.154 1.377.062 2.755.069 4.132.105.277-1.074.032-2.368.115-3.525-.093-8.773.938-17.507 1.754-26.227.47-3.915.73-7.896 1.54-11.742.417-.379 1.181-.04 1.697-.07 3.915.497 8.014 1.797 11.89.385 1.505-.433 2.982-.952 4.47-1.435 2.346 4.476 5.124 8.777 6.884 13.528 1.15 3.304.868 6.965.39 10.39a39.475 39.475 0 0 1-5.044 13.92c-.25.728-.963 1.558-.65 2.35.956 1.01 2.505.245 3.477-.37.908-.5 1.442-1.534 2.224-2.097.377.862-.097 2.192.78 2.79 1.036.197 1.397-1.193 1.506-1.965.64-5.64 2.45-11.066 3.895-16.534.805-2.94 1.703-5.87 2.455-8.814-1.911-3.67-4.336-7.252-5.057-11.387-.209-2.626-.316-5.32.116-7.927.149-.39.208-1.098.674-1.196 1.52 1.75 2.459 3.93 3.607 5.93 3.454 6.697 6.783 13.51 9.15 20.678 1.407 4.893 2.991 9.94 2.533 15.072-.182 2.032-1.799 3.55-2.268 5.482.008.916 1.261.613 1.846.757 1.22.082 2.445.11 3.668.168.27-.981.04-2.171.091-3.234-.222-7.807-.195-15.633-.845-23.42-.177-2.323-.717-4.62-1.857-6.67-1.488-3.019-3.054-6.145-3.16-9.583-.252-5.638-.132-11.317.095-16.956.258-2.004.312-4.184 1.381-5.942.596-.728 1.401.202 1.658.768 1.708 3.51 2.182 7.497 2.787 11.32.957 6.799 1.136 13.676 1.196 20.536.161 1.939.044 3.995.766 5.827.478.452.81-.465.835-.828.66-4.251.475-8.581.646-12.87.982 2.467 1.656 5.1 3.018 7.39.41.487.701-.33.62-.672-.02-4.009-.8-7.974-1.342-11.936-1.052-6.111-1.852-12.425-4.63-18.048-3.035-5.973-8.808-9.792-14.208-13.42-3.368-2.227-6.825-4.631-10.912-5.253-6.88-1.245-13.965-1.448-20.7-3.396-2.978-1.032-5.094-3.608-6.949-6.035-1.009-1.449-2.059-3.02-2.105-4.847-.161-.84-1.136-1.073-1.838-.751-2.152.462-4.2 1.347-5.908 2.75-1.603.946-3.528 1.93-5.44 1.515-.98-.36-.577-1.652-.388-2.415.523-1.615 2.533-1.626 3.886-2.04 3.39-.758 6.877-1.953 9.449-4.379 1.375-1.394.644-3.598-.183-5.082-1.825-3.203-5.203-5.107-8.534-6.402a1.245 1.245 0 0 0-.332-.045Z"/>
</svg>
