<svg xmlns="http://www.w3.org/2000/svg" version="1.0" viewBox="0 0 128 128">
  <path d="M35.1 19.2c-1.2 1.2-3.3 1.5-19.4 2-7.5.3-9.1 1.5-8.1 6 .3 1.4 0 2.9-.5 3.3-2.5 1.5-.6 4.9 8 13.7 5 5.1 9.4 9.6 9.7 10.1 1.4 1.6 7.7 6.7 8.3 6.7.4 0 1 1.6 1.3 3.5C35.5 70 40.3 81 44.2 87c2 3 3.9 7.1 4.3 9 .6 3.1.3 3.8-2.4 5.8-3.3 2.4-4 5.2-1.7 7.1 1.2 1 6.5 1 33.1.1 2.2-.1 8.2-.1 13.3 0 11.2.1 13-.4 13.8-3.8.3-1.5 3.9-9.5 8-17.7 9.4-19 10.7-24.9 7.4-34.5-4-11.9-9.2-17-21.9-21.2-4.3-1.5-8.5-1.9-18.4-1.9-12.4 0-13.1-.1-18.4-2.9-3.1-1.7-7.1-3-8.9-3-2.3 0-4.1-.9-6.2-3-3.3-3.2-8.7-4.1-11.1-1.8zm8.8 3.4c1.4 1 2.1 2.3 1.8 3.5-.4 1.6 0 1.8 3.8 1.2 3.7-.5 5.4 0 10.4 2.6 5.8 3 6.4 3.1 19 3.1 16.7 0 24.2 2.2 31.2 9 3.9 3.7 5.1 5.8 6.9 11.8 2 6.5 2.1 7.7.9 12.5-1.5 6.6-5.1 14.9-11.2 25.9-2.6 4.7-4.7 9.8-4.7 11.2 0 2.6-.1 2.6-7 2.6-5.5 0-7-.3-7-1.5 0-.8 1.6-2.1 3.5-2.9 4-1.7 4.1-2.4 1.9-9-1.5-4.4-1.5-8.3.1-13.4 1.4-4.2-1.3-2.2-3.1 2.3-1.6 4.3-1.6 4.9 0 10.7.9 3.3 1.5 6.1 1.4 6.2-4.5 1.9-6.3 3.5-6.3 5.7 0 2.4 0 2.4-5.3 1.4-3.9-.7-5.2-1.3-5-2.5.2-.8 1.4-1.7 2.8-1.8 5.6-.8 5.7-1.4 2.8-16.2-1.3-6.3-1.4-6.5-4.3-6.5h-3l-.7 10c-.4 5.5-.9 11.8-1.1 14l-.4 4-6.2.3c-6 .3-6.2.2-5.9-2 .2-1.3 1.3-2.7 2.6-3.3 2.8-1.3 2.8-2.8-.4-9.5-1.8-3.7-2.8-7.8-3.2-12.8-.2-3.9-.8-7.2-1.2-7.2-1.2 0-2.2 8.7-1.5 12.3.4 1.8 1.8 5.6 3.1 8.5l2.4 5.4-2.5 3c-1.4 1.7-2.4 3.7-2.1 4.4.4 1.1-.7 1.4-4.9 1.4-3 0-5.5-.4-5.5-.9 0-1.2 2.2-2.8 4.5-3.3 3.2-.6 1.9-7.9-2.8-15.7C42 77.8 37 65.9 37 61.6c0-.7-1.5-2.3-3.2-3.6-1.8-1.3-6-5.3-9.3-8.9-3.3-3.6-8.2-8.6-11-11.2-5.4-5.2-5.6-6.5-.6-4.8 4.6 1.6 4.8.6.7-3.2-2-1.8-3.5-3.7-3.3-4.2.3-1 8.8-1.8 18.8-1.7 3.8 0 6.1-.5 6.9-1.5 1.6-2 5-1.9 7.9.1zm34.2 63.6c.4 2.4 1 6 1.4 8 .7 3.6.7 3.8-2 3.8-2.5 0-2.7-.2-2.1-3.1.3-1.7.6-5.6.6-8.7 0-6.3 1-6.3 2.1 0z" />
  <path fill="currentColor" d="M49.723 106.878c-1.514-.086-3.007-.322-3.414-.54-.314-.168-.281-.553.092-1.067.718-.992 2.001-1.787 3.708-2.299 1.699-.51 2.15-1.217 2.15-3.376 0-1.532-.274-2.933-.989-5.057-.907-2.695-1.943-4.817-4.283-8.765-5.015-8.465-9.326-18.668-9.846-23.307-.065-.582-.187-1.219-.27-1.415-.229-.535-1.698-2.02-3.204-3.236-2.652-2.141-5.735-5.123-9.567-9.251-1.267-1.364-4.743-4.915-7.724-7.89-6.077-6.066-7.005-7.107-7.005-7.858 0-.59 1.437-.397 4.251.57 1.152.395 2.299.58 2.64.425.742-.338.173-1.203-2.586-3.934-2.387-2.363-3.313-3.502-3.313-4.08 0-.425 1.824-.886 4.741-1.2 2.933-.317 4.973-.414 10.805-.512 3.183-.054 6.136-.147 6.561-.207 1.895-.264 2.84-.613 3.49-1.286 1.321-1.372 2.942-1.78 5.008-1.261 2.479.622 4.659 2.48 4.699 4.005.007.254-.027.789-.075 1.19-.083.687-.073.737.172.909.333.233 1.63.24 3.077.015 3.985-.62 5.396-.303 10.955 2.458 3.719 1.847 5.203 2.417 7.07 2.711 1.805.285 4.371.399 9.041.4 5.141.002 10.115.154 12.844.392 8.673.756 14.029 2.614 19.006 6.593 1.508 1.206 4.598 4.31 5.502 5.526 1.453 1.955 2.492 4.332 3.806 8.712 1.341 4.466 1.501 5.243 1.501 7.276 0 1.683-.066 2.09-.876 5.347-1.568 6.308-4.64 13.473-10.127 23.625-2.567 4.748-3.442 6.533-4.5 9.175-.779 1.948-.985 2.694-1.091 3.96-.19 2.254-.227 2.267-6.499 2.268-5.11 0-6.475-.139-7.112-.73-.429-.397-.369-.891.184-1.52.63-.715 1.48-1.265 3.318-2.146 1.925-.924 2.403-1.265 2.742-1.96.522-1.071.332-2.356-.93-6.272-1.096-3.404-1.228-4.153-1.23-6.996 0-2.745.12-3.585.904-6.284.313-1.076.503-1.954.513-2.37.015-.638.006-.663-.277-.695-.884-.103-2.619 2.647-3.706 5.877-.624 1.852-.727 2.479-.66 4 .05 1.132.15 1.645.803 4.158.957 3.68 1.578 6.263 1.656 6.89l.061.497-1.645.796c-1.754.848-3.165 1.805-3.747 2.54-.619.78-.822 1.391-.9 2.703-.092 1.555-.202 1.688-1.357 1.656-.875-.025-4.468-.656-6.19-1.089-2.043-.512-2.917-1.213-2.564-2.054.35-.836 1.529-1.522 2.886-1.679 1.223-.142 2.554-.508 3.155-.867.471-.283.654-.482.921-1.006.31-.605.337-.755.374-2.027.055-1.928-.195-3.798-1.264-9.447-1.12-5.923-1.646-7.947-2.252-8.68-.525-.635-1.06-.746-3.6-.746-1.98 0-2.13.014-2.13.2 0 .403-.788 11.363-1.163 16.172-.588 7.537-.932 11.344-1.042 11.522-.092.148-8.741.587-10.106.513-1.166-.063-1.767-.288-1.871-.702-.127-.507.036-1.647.328-2.284.408-.89 1.332-1.81 2.393-2.381 1.625-.875 2.112-1.733 1.864-3.287-.215-1.356-.56-2.24-2.731-7.021-1.449-3.188-2.416-7.148-2.774-11.354-.385-4.517-.603-6.15-.967-7.247-.628-1.895-1.63.997-2.02 5.835-.16 1.981-.074 5.205.165 6.174.5 2.027 1.849 5.544 3.908 10.195.796 1.798 1.448 3.318 1.448 3.377 0 .06-.633.87-1.407 1.801-1.652 1.99-2.358 3.019-2.81 4.096-.281.668-.321.88-.271 1.433.068.757-.078.981-.77 1.175-.833.233-3.725.34-5.877.218z" />
</svg>
