<svg xmlns="http://www.w3.org/2000/svg" version="1.0" viewBox="0 0 128 128">
  <path d="M58 4.4c-1.9.7-4.8 2-6.5 2.9-1.6.9-5.2 2.7-8 4-2.7 1.3-7.9 5-11.4 8.1-5.2 4.8-6.8 5.7-9.5 5.4-2.7-.3-3.1-.7-3.4-3.5-.2-2.4.3-3.9 2.1-5.5 1.3-1.3 2.6-3.1 3-4C25 10 22.7 7 20.7 7c-2.7.2-8.2 3.8-11.1 7.3-2.5 3.2-3 4.7-3 9.2 0 5 .3 5.8 3.8 9.4 2.1 2.2 5.1 4.5 6.7 5.1 2.9 1.2 10.9 1 14.4-.5 1.6-.6 1.8-.6.8.6-2.1 2.1-1.6 9.6.7 11.9 1.1 1.1 2 2.8 2 3.7 0 1 .7 3.1 1.6 4.8.8 1.6 1.8 5.2 2 8 .3 2.7 2.1 8.8 3.9 13.5 3.2 8.1 3.4 9.1 3.1 19.5-.2 10.1-.4 11.3-2.9 14.9-4.9 7-2.9 10.1 6.4 10.1 8.9 0 9.3-.7 10.3-17.5 1.8-26.7 1.5-25 4.2-25 2.2 0 2.4.3 1.9 2.2-.4 1.3-1.1 2.7-1.6 3.3-1.2 1.3-1.1 10.2.1 12.5.8 1.4.6 4.8-.6 11.7-1.7 9.6-1.7 9.7.5 11.4 2.7 2.2 10.9 2.3 13.4.1 1.1-1 1.7-3 1.7-6.1 0-3.5.3-4.2 1.2-3.3 2.4 2.4 7.6 1.4 11.4-2.2 3.5-3.3 3.7-3.9 4.1-10.8.2-4 .8-8.6 1.3-10.2.6-1.6 1.3-5.9 1.6-9.5.3-3.6 1.2-7.3 2-8.1 1.2-1.2 1.4-.2 1.4 7.3 0 6.1.5 9.8 1.6 11.9.9 1.8 1.5 4.9 1.3 7.7-.7 12.9 2.8 18.7 11 17.7 2.4-.3 4.8-1.1 5.3-1.8 1.2-1.9 1-6-.5-8.8-4.8-9.5-5.4-13.1-4.3-28 .9-12.5 1.2-14.1 3.5-23.5 3.4-13.4 2.6-27.7-1.9-33-.9-1.1-2.9-4.1-4.4-6.7-2-3.6-4.1-5.6-9-8.3-7.2-4-13.1-4.6-22.8-2-5.3 1.3-6 1.3-10-.5-5-2.3-8.9-2.4-13.8-.6zm14.7 4.3c2.8 1.5 3.5 1.6 7.4.2 2.4-.7 7.8-1.4 11.9-1.4 6.8 0 8 .3 12.7 3.3 2.9 1.9 5.5 4.2 5.8 5.3.3 1 2.3 4.2 4.3 7.1 3.3 4.9 3.6 6 4 13.9.3 6.7-.1 10.4-1.8 17-2.2 8.1-4.8 30.6-4.4 38 .1 2 1.5 7.1 3.3 11.4 1.7 4.3 3.1 8.3 3.1 9 0 1.7-6.8 2.9-8.5 1.5-1.7-1.4-2.8-7.2-2.6-14.2.1-3.3-.4-6.9-1.2-8.5-.8-1.5-1.7-7.2-2-12.7-.5-9.7-.5-9.9 2.4-13.9 2.8-3.8 3.7-6.7 2.2-6.7-.5 0-1.9 1.9-3.3 4.1-1.4 2.3-3.8 5-5.5 6.2-4.2 2.9-4.1 2.9-4.9 12-.4 4.5-1.2 9.3-1.9 10.7-.7 1.4-1.3 5.5-1.2 9.2 0 4.4-.4 6.8-1.1 6.8-.7 0-1.4.9-1.7 2-.6 2.4-5.1 3.6-8.3 2.1L79 110l3.5-6.6c3.2-6 3.5-7.3 3.5-15.1 0-6.2-.3-8.4-1.2-8.1-.7.3-1.5 1.5-1.8 2.8-.3 1.3-1.1 2.5-1.8 2.8-1.5.5-1.5.2.3-4.1 1.7-4.2 2.1-14.7.4-13-.5.5-1 2.1-1.1 3.4 0 1.3-1.1 6.2-2.4 10.9-4.2 15.7-4.8 19.9-3.7 24 .5 2.2 1 6.3.9 9.1l-.1 5.2-4.8.2c-2.6.2-5-.1-5.3-.6-.3-.5.2-4.9 1.1-9.8 1.2-6.4 1.4-9.5.6-10.8-1.6-3.1-1.5-9.5.3-13.6 2.7-6.1-.1-9-7.1-7.1-2 .5-2.2 1.4-2.8 9.7-.5 8.1-.9 14.3-1.9 27.6-.2 2.8-.8 3.7-3 4.4-2.5.8-9.6.2-9.6-.9 0-.2 1.3-2.9 2.9-6 2.8-5.2 3-6.2 2.9-16.7 0-6.2-.3-11.7-.7-12.2-1.9-2.6-6.1-14.9-6.1-18 0-1.9-.9-5.7-2-8.5s-2-6.4-2-7.9c0-2-.6-3-2-3.4-1.5-.4-2-1.4-2-3.6 0-3.9 5.6-15.8 8.1-17.4 1.9-1.2 2.6-3.7 1.1-3.7-.4 0-3.2 2.5-6.2 5.5-8.6 8.7-16.4 9.7-23.4 3.2C8.7 27 8.1 23.6 11.2 18c2.4-4.2 8.2-8.9 9.5-7.7.3.4-.6 2-2 3.6-3.6 4.3-4.4 8.7-2 11.3 4.8 5.3 9.6 4.2 18.8-4.5 4.4-4.2 7.4-6.1 11.4-7.2 2.9-.9 5-1.9 4.7-2.2-.4-.4 1.7-1.7 4.6-3 6-2.6 11.5-2.5 16.5.4zm10.7 82.5c-.9 5.2-2.6 10.2-3.9 11.8-.7.8-1.5 2.2-1.8 3-1 2.8-.6-4.5.7-10.3 1-5.2 2.6-7.6 4.8-7.7.4 0 .5 1.5.2 3.2z"/>
  <path d="M90 10.9c0 1 .7 2.4 1.5 3.1.8.7 2 3 2.7 5.2 1 3.3.9 4.1-.3 4.9-2.7 1.7-6.4.8-10.9-2.6-8.2-6.4-13.4-9.5-15.7-9.5-3.4 0-2.8 1.4 1.1 2.8 1.9.7 5.6 3.2 8.3 5.5 6.2 5.5 12.1 8.1 16.2 7.2 5.6-1.2 6.6-6 2.6-12-1.5-2-2.4-4-2.1-4.3.3-.2 2.2.8 4.2 2.3 11.2 8.6 6.1 22.6-8.3 22.5-5.8-.1-7.7-1.1-14.2-7.3-2.7-2.6-5.2-4.7-5.5-4.7-3.5 0 6.3 11.2 11.8 13.5C92.6 42.2 107 34.6 107 24c0-6.8-7.9-15-14.5-15-1.8 0-2.5.5-2.5 1.9z"/>
  <path fill="currentColor" d="M64.176 6.348c-4.3.093-8.446 1.742-12.028 4.044-.408.211-.625.596-.71 1.022-.93.82-2.234 1.107-3.367 1.572-2.696.876-5.431 1.801-7.726 3.52-4.227 2.993-7.557 7.103-11.986 9.822-2.26 1.437-5.104 2.59-7.752 1.601-1.808-.698-3.264-2.11-4.424-3.627-1.374-2.244-.668-5.081.531-7.254 1.08-2.213 3.037-3.853 4.032-6.11.245-.366.053-.897-.43-.863-1.129-.132-2.08.685-2.997 1.222-2.28 1.699-4.334 3.762-5.869 6.164-1.41 2.348-2.642 5.091-2.093 7.894.54 2.842 2.717 4.984 4.751 6.879 2.549 2.29 5.886 3.93 9.381 3.728 3.739-.043 7.123-2.031 10.028-4.214 3.3-2.622 6.022-5.898 9.367-8.464.448-.5 1.21.192 1.004.728-.21 1.33-1.3 2.215-2.298 2.99-2.065 2.27-3.375 5.1-4.707 7.834-1.176 2.624-2.337 5.307-2.852 8.15-.1 1.261-.217 2.656.418 3.8.744 1.122 2.563.953 3.071 2.282.548 1.278.3 2.731.655 4.062.805 4.228 2.87 8.108 3.5 12.38.271 1.912.355 3.869.918 5.737 1.346 5.011 3.08 9.962 5.46 14.568.493 1.78.369 3.66.507 5.493.135 5.153.349 10.326-.062 15.469-.27 3.474-2.238 6.495-3.686 9.582-.6 1.326-1.388 2.597-1.805 3.991.005.694.944.731 1.429.909 2.831.585 5.849.82 8.648-.042 1.23-.346 2.183-1.391 2.373-2.66.41-2.686.476-5.417.721-8.123.644-8.306 1.066-16.63 1.731-24.932.224-1.644.186-3.402.966-4.905.598-.89 1.81-.907 2.735-1.214 1.339-.245 2.737-.229 4.098-.093 1.44.33 2.646 1.677 2.543 3.196.14 2.65-1.55 4.929-1.95 7.503a23.664 23.664 0 0 0-.141 7.691c.246 1.743 1.426 3.249 1.321 5.054-.136 4.306-1.227 8.5-1.796 12.758-.194 1.718-.55 3.45-.435 5.182.189.74 1.17.73 1.779.85 2.816.233 5.651.026 8.464-.169.248-.724.067-1.622.151-2.412.15-4.217-.023-8.47-.988-12.591-.777-3.632.037-7.36.756-10.943 1.49-7.01 3.686-13.85 5.116-20.874.462-1.896.268-4.014 1.403-5.685.192-.36.574-.175.638.164.394 1.487.177 3.082.216 4.614.006 3.301-.755 6.556-2.002 9.602-.295.881-.814 1.79-.676 2.739.843.203 1.647-.278 2.081-.986 1.038-1.354.958-3.344 2.34-4.478.264-.296.754-.248.833.174.525 1.965.41 4.061.535 6.09.046 3.038.014 6.103-.424 9.105-.66 3.394-2.565 6.384-4.099 9.441-.81 1.56-1.683 3.095-2.436 4.682.544.47 1.358.647 2.006.998 2.32 1.14 5.274 1.174 7.479-.248.875-.532 1.326-1.476 1.633-2.403.29-.708.945-1.135 1.625-1.396.721-.9.626-2.173.781-3.257.342-4.157-.166-8.464 1.267-12.452 1.455-4.183 1.697-8.653 2.159-13.024.263-2.109.25-4.303 1.04-6.305.982-2.155 3.361-3.028 4.913-4.691 1.761-1.58 3.234-3.44 4.494-5.437.888-1.235 1.641-2.642 2.834-3.616.567-.246.884.58.706 1.031-.722 3.006-2.97 5.29-4.476 7.915-1.276 2.146-.98 4.736-.99 7.121.214 5.095.46 10.235 1.608 15.22.46 1.87 1.432 3.608 1.519 5.568.493 5.411-.171 10.989 1.414 16.27.412 1.295 1.024 2.962 2.546 3.234 1.99.182 4.075.199 5.95-.595.724-.272 1.83-.752 1.577-1.727-.861-3.454-2.323-6.724-3.54-10.062-1.102-2.995-2.192-6.05-2.677-9.21-.16-4.449.026-8.938.48-13.38.718-7.434 1.624-14.865 3.071-22.194 1.077-4.94 2.598-9.859 2.55-14.964.073-4.054.023-8.14-.645-12.148-.713-3.81-3.343-6.821-5.313-10.035-1.05-1.515-1.837-3.162-2.71-4.773-1.867-2.315-4.368-4.033-6.877-5.587-2.178-1.354-4.652-2.339-7.25-2.336-4.012-.094-8.05-.146-12.024.51-2.2.257-4.317.913-6.436 1.525-1.24.41-2.572.224-3.727-.38-2.273-1.066-4.512-2.358-7.053-2.645a16.422 16.422 0 0 0-2.695-.176ZM92.38 9.12c3.798-.006 7.186 2.299 9.72 4.949 2.847 2.863 5.045 6.72 4.75 10.879-.317 4.48-3.467 8.252-7.11 10.609-2.751 1.738-5.966 2.9-9.209 3.123-2.465.103-4.992.157-7.357-.662-3.56-1.011-6.372-3.585-8.976-6.092-1.884-1.963-3.832-3.987-5.023-6.47-.242-.458-.408-1.267.307-1.378 1.422.767 2.542 2.003 3.768 3.042 3.049 2.7 5.81 5.869 9.487 7.741 2.823 1.35 6.063 1.301 9.114 1.078 4.416-.438 8.886-2.829 10.87-6.937 1.093-2.109 1.216-4.576.84-6.883-.732-3.3-2.781-6.183-5.403-8.269-1.349-1.066-2.764-2.155-4.41-2.707-.574-.119-.528.647-.323.968 1.219 2.86 3.594 5.157 4.187 8.273.434 1.93.113 4.243-1.514 5.537-1.612 1.34-3.771 1.769-5.81 1.574-2.879-.247-5.53-1.64-7.987-3.098-3.994-2.482-7.24-5.992-11.321-8.352-1.685-1.15-3.739-1.61-5.39-2.774-.34-.19-.57-.743-.07-.888 1.953-.741 4.018.202 5.724 1.135 4.496 2.45 8.479 5.68 12.6 8.687 2.323 1.582 5.055 3.143 7.975 2.736 1.155-.213 2.595-.644 3.043-1.858.235-1.767-.45-3.51-1.024-5.151-.625-1.735-1.621-3.322-2.827-4.695-.701-.966-1.248-2.347-.586-3.46.462-.589 1.277-.641 1.955-.657z"/>
</svg>
