<svg xmlns="http://www.w3.org/2000/svg" version="1.0" viewBox="0 0 128 128">
    <path d="M88 16.7c-1 1.2-1.1 1.8-.2 2.1.7.2 1.2 1.3 1.1 2.5 0 2.2 0 2.2-.9.2-1.3-3.5-3.5-4.7-6.2-3.6-4.1 1.6-4.6 5.1-.7 5.1 1.6 0 3.7 3.6 2.6 4.6-.2.2-1.7-.2-3.3-1.1-3.7-1.9-4.1-.7-1.5 4.3 1.8 3.5 1.9 4.5.8 8.8l-1.2 4.9-6.5.7c-3.6.3-9.4.9-13 1.3-3.6.4-8.5.2-10.9-.3-5.5-1.3-11.2.5-15.9 5-5.6 5.5-6 12.5-1.2 20.3l2.2 3.6-2 2.2C28.8 80 27 88 27 96.1c0 7.6 1.2 9.9 5.1 9.9 2.7 0 2.9-.2 2.2-2.7-1.2-4.2-.8-10.6.9-13.7 1.4-2.8 1.4-2.7 4 6.1 1.4 4.8 2.9 10.1 3.2 11.7.6 2.3 1.1 2.7 2.9 2.2 1.2-.3 2.7-.6 3.4-.6.8 0 .3-2-1.4-5.6-3.2-7.1-4.2-16.9-2-21 1.4-2.8 1.8-2.9 8.6-3 8.2-.1 7.7-1.3 5.6 13.6-1.4 9.7-1.4 10.8.1 14.2 1.4 3.1 2.2 3.8 4.6 3.8 3.3 0 3.2.2 1.2-3.9-1.1-2.3-1.4-4.5-1-7.2.9-5.4 4.7-16.9 5.6-16.9 1.3 0 3.1 6.1 3.7 12.9.8 8.1 3.8 12.1 9 12.1 3.5 0 3.5 0 2-2.3-2.6-4-4.7-12.8-4.7-19.7 0-5.5.4-7.2 2.5-10 1.4-1.9 3.2-5.5 3.9-8.1.8-2.5 2.4-6.5 3.5-8.8 1.2-2.2 2.7-6.7 3.4-9.9 1.1-4.5 1.8-5.8 3.4-6 1.2-.2 2.8-1.1 3.7-2.1 1.5-1.7 1.4-2.1-.9-5.5-1.4-2-2.5-4.7-2.5-5.9 0-2.9-1.5-5.1-2.8-4.3-.7.4-.9-.5-.5-2.9.4-2.6.1-4.1-1.2-5.5-2.2-2.4-2.6-2.4-4.5-.3zm3.5 8c-.6 5-.4 5.6 2 8.1 4.4 4.4 4.9 6.1 2.2 7.1-3.2 1.2-4.3 2.9-5.1 7.6-.4 2.2-1.9 6.5-3.3 9.5s-3.1 7.5-3.9 10c-.7 2.5-2.5 6.1-3.9 8-2.1 2.8-2.5 4.5-2.6 10.4v7.1l-1.3-4.7c-1.6-5.8-3.3-8-6-7.6-2.5.4-5.2 5.5-6.2 11.5-.3 2.4-1 4.3-1.4 4.3-.4 0-.3-1.9.2-4.3 3.1-14.9 2.7-15.6-8.5-15.4-8.1.2-8.1.2-10.5 3.7-2 3-2.2 4.3-1.8 10 .5 6.5.5 6.5-.5 1.5-1.7-8.3-4.5-9.8-7.9-4.3-1.3 2.1-2 5.1-2 8.3 0 3.6-.3 4.6-1.1 3.8-1.7-1.7 1.7-18.7 4.2-20.9 2.5-2.2 2.4-4.1-.6-8.9-4.4-7.1-2.8-15 3.8-18.8 1.4-.7 6.6-1.2 14.2-1.3 15.9-.1 26.6-1.3 28.7-3.1 2-1.8 4.2-11.1 3.2-13.7-.5-1.2-.1-1.9 1.5-2.3 1.1-.3 2.1-1 2.1-1.5 0-1.8-3-6.7-4.7-7.7-1.6-.9-1.6-1 .3-1.1 1.2 0 2.8 1 3.6 2.2 2 3 5.2 1.8 4.6-1.7-.3-1.4-.1-2.2.4-1.8.6.3.7 2.8.3 6zM79.9 104c0 .3-.6-.4-1.4-1.4-.8-1.1-1.5-3.6-1.4-5.5 0-3.5.1-3.4 1.4 1.4.8 2.7 1.4 5.2 1.4 5.5zm-35.6-.5.6 3-1.4-3c-.8-1.7-1.4-3.9-1.4-5v-2l.8 2c.4 1.1 1.1 3.3 1.4 5zm17.4-.3c-.2 1.3-.4.3-.4-2.2s.2-3.5.4-2.3c.2 1.3.2 3.3 0 4.5z"/>
    <path fill="currentColor" d="M29.922 99.198c-.371-.44-.452-1.152-.37-3.276.14-3.681 1.35-9.777 2.751-13.862.699-2.036 1.23-3.014 2.157-3.965 1.04-1.067 1.386-1.804 1.386-2.945 0-1.405-.451-2.537-2.158-5.41-1.57-2.642-2.293-4.668-2.552-7.158-.469-4.495 1.616-8.862 5.42-11.355 1.214-.796 1.978-.994 5.02-1.3 2.826-.284 5.06-.384 11.075-.494 3.211-.058 7.066-.158 8.566-.22 9.218-.388 15.873-1.282 18.243-2.453.953-.471 1.372-.991 2.066-2.569 1.632-3.709 2.552-9.347 1.895-11.618-.121-.42-.191-.887-.156-1.037.115-.484.588-.852 1.469-1.146 1.033-.344 1.957-.885 2.175-1.275.24-.43.03-1.27-.695-2.78-1.2-2.495-2.657-4.411-4.052-5.33-.507-.334-.92-.649-.92-.7 0-.165.323-.227 1.184-.227 1.476 0 2.525.663 4.199 2.653 1.328 1.578 3.188 1.58 3.96.004.267-.548.297-.718.267-1.5-.091-2.343-.08-2.52.156-2.52.145 0 .29.145.436.436.192.385.217.648.212 2.237-.004 1.13-.1 2.633-.26 4.037-.373 3.296-.246 4.43.64 5.717.194.282.992 1.186 1.773 2.009 2.612 2.75 3.473 4.008 3.473 5.076 0 .49-.042.585-.418.943-.23.219-.66.488-.955.597-1.168.436-2.282 1.1-2.963 1.767-1.126 1.104-1.693 2.491-2.36 5.776-.55 2.704-1.622 5.827-3.314 9.652a117.23 117.23 0 0 0-3.72 9.493c-1.339 3.927-2.184 5.672-4.25 8.768-2.171 3.253-2.418 4.54-2.433 12.675-.007 3.734-.026 4.195-.154 3.764-.08-.27-.47-1.645-.866-3.055-1.504-5.353-2.506-7.252-4.32-8.19-.708-.366-1.92-.369-2.66-.005-2.334 1.15-4.569 5.846-5.573 11.715-.29 1.687-.732 3.217-1.042 3.6-.673.831-.569-1.313.265-5.438 1.104-5.459 1.434-7.828 1.343-9.645-.122-2.467-1.03-3.555-3.434-4.114-1.63-.379-11.12-.286-13.23.13-1.644.323-2.422.948-3.874 3.11-.99 1.472-1.636 2.77-1.863 3.745-.275 1.183-.314 3.398-.11 6.238.1 1.38.204 3.05.23 3.71l.05 1.2-.48-2.182c-.814-3.702-1.158-4.86-1.871-6.28-.74-1.473-1.654-2.288-2.568-2.285-1.605.004-3.902 2.756-4.909 5.88-.53 1.644-.755 3.256-.862 6.177-.124 3.395-.33 4.045-1.02 3.225zM79.807 104.042c-.166-.086-.49-.44-1.138-1.242a4.176 4.176 0 0 1-.574-.917c-.534-1.107-.9-2.571-.981-3.927-.023-.383.006-2.619.037-2.894.012-.1.034-.23.05-.286.025-.087.035-.101.072-.096.137.02.418.873 1.045 3.18.07.26.21.754.31 1.099.647 2.247 1.262 4.696 1.262 5.025 0 .08-.017.092-.083.058zM61.477 103.696c-.063-.151-.112-.608-.146-1.361-.025-.575-.012-2.717.02-3.135.047-.617.112-.977.179-.99.088-.017.187.51.267 1.414.033.37.046 1.891.02 2.344-.054.955-.19 1.794-.292 1.794-.011 0-.033-.03-.048-.066z"/>
    <path fill="currentColor" d="m44.291 105.182-.766-1.645c-.598-1.29-1.095-2.82-1.308-4.019-.1-.567-.101-.586-.11-1.813a35.042 35.042 0 0 1 0-1.157c.005.005.194.47.418 1.032a34.168 34.168 0 0 1 1.523 4.762c.102.432.818 3.998.807 4.024a37.75 37.75 0 0 1-.564-1.184z"/>
</svg>
