<svg xmlns="http://www.w3.org/2000/svg" version="1.0" viewBox="0 0 128 128">
  <path d="M86.5 4c-.3.5-1.7 1-3 1-3.4 0-5.5 2.6-5.6 6.8 0 7.2-.8 15.8-2.2 22.7l-1.3 7-6 3c-3.3 1.6-8.2 4.9-10.9 7.2-2.8 2.3-7.6 5.1-10.7 6.3-3.1 1.1-7.2 3.2-9.2 4.5l-3.5 2.4-.3-2.7c-.2-1.8-1-2.8-2.4-3-2.9-.4-5.3 2.7-6 8-.5 3.7-.1 5.6 2 10.1 1.4 3 3.8 6.9 5.2 8.7l2.7 3.2-4 3.6c-3.7 3.4-4 4.3-4.8 10.7-1 8.8-1 12.1.2 16.5.8 3.4 1.1 3.5 6.1 3.8 4.7.3 5.3.1 6.1-2 .7-1.7.4-3.2-1-5.6-1-1.8-1.9-4.3-1.9-5.6 0-3.4 2-8.6 3.3-8.6 1.5 0 9.7 8.1 9.7 9.6 0 1.9 3.3 7.3 4.9 7.9 2.1.8 8-1.4 9.1-3.5.7-1.4-.2-3.2-4.3-8.6-2.9-3.8-5.7-7.5-6.1-8.2-1-1.6 10.6-13.2 13.2-13.2 1 0 2.4-.6 3.1-1.2 1-1.1 1.1-.6.7 2.2-1.7 10.3-1.6 15.3.5 18.7 1.8 2.8 2.6 3.3 6 3.3 2.7 0 4.2-.6 5.1-1.9 1-1.7 1.4-1.8 3.4-.5 2.5 1.7 7.2 1 9.1-1.4 1-1.1.9-2.1-.3-4.3-.8-1.6-1.8-2.9-2.3-2.9-1.5 0-2-9.3-.9-15.5.6-3.3 2.3-9.6 3.9-14.1 2.6-7.7 2.7-8.7 2.1-19.7l-.7-11.6 2.9-.8c5.5-1.6 6-10.3.8-12.6-4.3-1.9-5-3.5-4.5-9.9.4-4.3.2-6.4-1.1-8.3C91.9 3 87.7 2 86.5 4zm5 4.1c.4 1.2.4 4.4.1 7.3-.7 5.6.4 7.7 5.7 10.9 4.6 2.9 3 7.4-2.7 7.9-2.3.2-2.6.6-2.1 2.8.2 1.4.6 7.7.7 14 .2 10.5-.1 12.1-2.5 18-5.1 12-5.8 26.1-1.6 31.4 2.5 3.2 2.4 3.6-.9 3.6-4 0-4.9-2.5-6.1-15.5l-.9-11 2.9-5.1c3.1-5.5 3.4-6.4 2.1-6.4-1.5 0-7.2 9.7-7.2 12.2 0 1.4-.7 4.7-1.5 7.4-2 6.6-2 16.3 0 17 2.6 1.1 1.7 3.4-1.3 3.4-4.3 0-5.2-2.9-4.1-13.6.5-4.9 1.1-9.9 1.4-11.2.7-2.7.1-2.7-4.1-.2-1.8 1.2-4.7 2.3-6.6 2.5-1.8.2-3.4 1-3.7 1.7-.2.7-2.5 3.4-5.2 5.9-2.7 2.6-4.9 5.6-4.9 6.7 0 1.1 2.5 5.2 5.5 9.1 3.1 4 5.3 7.6 5 8-.2.5-1.4 1.1-2.4 1.4-2.2.5-4.3-2-5.4-6.5-.6-2-6.5-8-10.5-10.4-.2-.2 1.4-1.9 3.6-3.8 4.5-4.1 7.5-9.6 6.6-12-1-2.6-2-1.9-3.2 2.3-.8 2.4-3.1 5.6-6.5 8.9-3 2.7-6.1 6.6-7 8.5-2.1 4.3-2.2 10.7-.2 13.3 2.2 2.9 1.8 4.4-1.3 4.4-2.3 0-2.9-.6-3.9-3.8-.8-2.6-.9-5.1-.3-7.7.5-2.2 1-5.5 1-7.3 0-2.5 1-4.4 4-7.4 2.2-2.3 4-4.9 4-5.9s-1.3-3.3-2.9-5.2c-1.6-1.8-3.3-4.5-3.6-6-.4-1.4-1.3-3.1-2.1-3.8C27 71.9 28.3 62 31 62c.6 0 .8.5.4 1.1-.3.6 0 2.3.7 3.7.7 1.5 1.4 2.8 1.5 3 0 .1 1.7-1.3 3.7-3.2 2-1.9 5.4-4 7.4-4.7 6-1.9 11.5-4.9 15.4-8.4 2-1.8 6.6-4.7 10.3-6.4 4.6-2.2 6.7-3.9 7.1-5.4 2.2-10.6 2.9-15 2.9-19.9.1-6.8 2.2-10 3.2-5 .7 3.7 2.4 4.3 2.4.9s-2.4-7.2-4.3-6.9c-1.1.2-1.5-.2-1.1-1.3.3-.8 1.2-1.5 1.9-1.5 1.7 0 5.5 4.7 5.6 6.9 0 .9.5.3 1.1-1.2 1.1-3 .4-6.2-1.2-5.2-1.1.7-1.4-.8-.3-1.8 1.3-1.4 3.2-.7 3.8 1.4zM80.2 97.2c.2 2.5 0 4.4-.4 4.1-.5-.2-.7-3-.7-6.1.1-6.2.6-5.3 1.1 2z" />
  <path fill="currentColor" d="M32.34 120.877c-.85-.104-1.231-.299-1.734-.886-.673-.787-1.467-3.144-1.786-5.302-.248-1.686-.163-3.157.33-5.652.54-2.74.703-3.905.885-6.366.164-2.205.285-2.749.87-3.904.43-.849 1.448-2.142 2.893-3.677 2-2.124 3.393-3.961 3.987-5.26.214-.467.266-.726.226-1.138-.103-1.076-1.306-3.137-3.115-5.339-1.002-1.22-2.102-2.842-2.62-3.863-.185-.364-.543-1.26-.795-1.991-.558-1.617-1.06-2.538-1.888-3.467-.346-.388-.724-.918-.84-1.18-.912-2.062-.611-6.807.585-9.226.57-1.154 1.415-1.799 1.968-1.503.27.144.279.336.05.995-.203.58-.143 1.308.197 2.422.26.854 1.923 4.303 2.074 4.303.123 0 2.019-1.613 3.267-2.78 2.654-2.483 5.597-4.315 8.636-5.377 5.514-1.927 9.743-4.182 13.381-7.134 2.4-1.948 3.239-2.588 4.428-3.381 1.927-1.286 4.19-2.57 7.276-4.129 3.153-1.592 4.551-2.452 5.636-3.467 1.127-1.055 1.172-1.167 1.92-4.89 1.7-8.469 2.109-11.425 2.31-16.745.137-3.654.357-5.093.997-6.523.727-1.621 1.442-1.216 1.992 1.128.503 2.149 1.029 3.28 1.588 3.42.63.158.951-.606.951-2.259 0-2.203-.84-4.44-2.213-5.897-.772-.818-1.27-1.054-2.23-1.057-1.064-.004-1.287-.295-.913-1.191.197-.471.741-1.075 1.174-1.302.164-.085.487-.155.717-.154 1.558.008 5.015 4.182 5.458 6.59.169.914.352.872.884-.198.794-1.596 1.096-3.802.7-5.119-.304-1.008-.786-1.286-1.614-.93-.635.273-.875.172-.875-.369 0-.75.823-1.724 1.671-1.978 1.259-.377 2.537.87 2.843 2.774.14.874.14 4.319-.002 5.678-.218 2.097-.245 4.577-.06 5.457.466 2.212 1.677 3.674 4.702 5.679 2.76 1.829 3.51 2.724 3.612 4.316.045.707.016.876-.24 1.4-.535 1.095-1.837 2.043-3.338 2.432-.363.094-1.212.244-1.886.332-1.302.171-1.815.36-2.02.744-.132.246-.1 1.01.113 2.682.387 3.05.711 12.34.638 18.302-.08 6.572-.248 7.446-2.531 13.174-.544 1.365-1.25 3.275-1.57 4.245-2.506 7.605-3.352 15.892-2.206 21.61.517 2.581 1.155 4.07 2.537 5.922 1.153 1.545 1.398 1.982 1.355 2.423-.052.542-.535.666-2.405.617-1.262-.032-1.573-.076-2.04-.289-1.74-.792-2.566-2.757-3.3-7.851-.394-2.74-.66-5.39-1.224-12.215l-.495-5.99 1.927-3.397c3.286-5.796 3.99-7.289 3.72-7.883-.105-.231-.203-.279-.573-.279-.37 0-.532.08-.958.47-1.601 1.463-4.753 6.688-5.921 9.815a7.72 7.72 0 0 0-.514 2.244c-.186 1.964-.413 3.004-1.825 8.364-.32 1.22-.64 2.958-.888 4.85-.27 2.066-.274 6.872-.006 8.325.26 1.405.715 2.337 1.266 2.592 1.716.796 1.955 2.096.53 2.886-.529.293-.632.31-1.937.31-1.216 0-1.446-.031-1.96-.263-1.16-.525-1.848-1.636-2.176-3.515-.217-1.246-.214-4.743.008-7.338.385-4.524 1.208-11.404 1.596-13.347.444-2.23.255-2.574-1.13-2.053-.56.21-1.224.569-3.504 1.888-2.05 1.187-3.757 1.808-6.172 2.247-2.263.411-3.25.92-3.85 1.984-.546.967-1.905 2.515-4.307 4.907-3.926 3.91-5.755 6.41-5.592 7.645.157 1.188 2.493 4.977 5.754 9.333 2.862 3.823 4.686 6.714 4.686 7.426 0 .56-1.819 1.504-2.898 1.504-1.765 0-3.382-1.975-4.482-5.474-.508-1.616-.838-2.197-2.118-3.731-2.065-2.478-6.274-6.257-8.296-7.45l-.397-.234.193-.335c.106-.183 1.01-1.109 2.011-2.056 3.295-3.12 4.288-4.224 5.749-6.397 1.999-2.973 2.793-5.563 2.196-7.159-.459-1.228-1.106-1.677-1.676-1.162-.36.325-.835 1.36-1.375 2.998-1.053 3.194-2.466 5.17-6.99 9.777-5.765 5.871-7.267 8.244-8.061 12.734-.322 1.819-.32 4.39.002 5.929.283 1.345.609 2.124 1.327 3.167.74 1.075 1.112 1.855 1.187 2.485.06.505.04.563-.316.919-.555.555-1.723.781-3.14.608z" />
</svg>
