<svg xmlns="http://www.w3.org/2000/svg" version="1.0" viewBox="0 0 128 128">
  <path d="M91.1 18.4c-.6.7-.9 2.1-.5 2.9.5 1.3-.2 1.2-3.4-.5-3.4-1.9-4.2-2-5.6-.9-3 2.5-1.5 5.4 4.7 9 4.6 2.7 5.5 3.6 4.3 4.3-.9.5-1.6 1.6-1.6 2.3 0 2.4-3.6 1.7-9.2-1.7-4.7-2.9-6.1-3.3-12.8-3.3-6.3 0-8.4.5-13.4 2.9-5.7 2.9-6.5 3-21 3.2-17.2.2-21.2 1.4-26.2 7.9-2.7 3.6-2.7 3.7-2.1 15.1.4 6.9.2 13.6-.4 16.5-.8 3.7-.7 5.8.2 8.6.8 2.4 1.2 7.3 1 13-.3 8.1 0 9.7 1.9 12.8 2.3 3.7 5.5 5.1 8.9 4 3-.9 3.6-4.1 1.2-7.1-1.6-2.1-2.1-4-2-8.8l.1-6.1 1.9 6.5c1 3.6 2.7 7.6 3.7 9 3 4 10.3 4.6 12.2 1 .8-1.4.2-2.7-2.5-6-1.9-2.3-4-6-4.6-8.3-.9-3.5-.8-4.9 1-9.2 1.1-2.7 2.5-6.2 3-7.8L31 75l3.9 2.5 3.9 2.6 10-1.2c7.9-1 10.4-1 11.5-.1 2.2 1.9 4 13.1 3.2 20-.7 6.1.5 10.1 4.3 14.4 1.9 2.2 8.1 2.4 10.8.3 1-.8 3.3-1.5 5.1-1.5 3.2 0 6.3-2.1 6.3-4.3 0-.6-1.2-2.3-2.6-3.8-2.2-2.3-2.6-3.7-2.7-9.2-.1-3.6.1-6.9.6-7.3.4-.4 3 0 5.8 1 6.8 2.5 9.2 1.4 10.8-5.1.7-2.6 2.7-9.3 4.5-14.8 3.4-10.7 3.8-11.1 9.3-8.3 3 1.5 6.9-.2 8.5-3.7.9-2.1.8-3.2-.5-6.1-.9-1.9-1.7-4.5-1.7-5.7 0-1.2-.7-4.5-1.6-7.2-.9-2.8-1.8-5.6-2-6.3-.5-1.9-3.4-2.7-5.5-1.4-1.5 1-2.9.1-9.4-5.8-7.7-7-10.3-8.2-12.4-5.6zm9.7 7c3.2 3 7 6.5 8.6 7.7 2.6 2 2.9 2.1 3.8.6 1.2-2.3 2.8-2.2 2.8.1 0 1.1.7 3.3 1.5 5 .9 1.7 1.5 4.5 1.3 6.4-.1 1.8.6 4.5 1.5 5.9 3.4 5.2-1.2 7.8-7.7 4.4-2.4-1.3-3.2-1.3-4.1-.3-1.9 2.1-7.1 15.8-9 23.6-.9 4-2.1 7.4-2.5 7.7-.5.3-3.2-.4-6-1.5s-5.7-2-6.4-2c-2.1 0-3.8 7.7-3.1 14 .5 4.3 1.3 6.4 3.1 8.1 2.9 2.7 2.3 3.9-2 3.9-2.9 0-3.4-.4-4-3.1-.3-1.7-.6-5.5-.6-8.4 0-6.4-2.6-20.5-4-21.9-.7-.7-1 .6-1 3.8 0 2.7-.5 8.9-1.2 13.8l-1.2 8.8 3.2 4.5c1.8 2.5 3.2 4.8 3.2 5.1 0 .3-1.6.4-3.6.2-3-.2-4-.9-5.6-3.8-1.5-2.9-1.7-4.7-1.2-10.7.9-9.9-1-18.6-4.5-20.9-2.3-1.6-3.6-1.6-12.5-.6-10.5 1.1-11.2 1-17.4-3.4-2.2-1.6-2.2-1.6-4.3 3.2-1.1 2.7-3 6.8-4.1 9.2-3.1 6.6-1 15.7 5 21l2.5 2.2h-3.5c-2 0-4-.6-4.6-1.3-.6-.7-2.3-5.4-3.7-10.4l-2.7-9.2 2.5-4.3c1.4-2.4 2.8-5.4 3.2-6.8.4-1.4 1.4-3.3 2.3-4.3.8-.9 1.2-2 .9-2.3-1.3-1.3-4 2.2-8.4 11-3.8 7.7-4.6 10.1-5 16.7-.5 6.9-.3 8.1 1.7 10.9 2.5 3.5 2.2 4.5-1.3 3.6-3.8-.9-5.1-5.3-4.4-14.9.3-4.5 1.2-9.9 2.1-11.9 1.7-3.9 2.1-14.7.7-18.3-.5-1.2-1 1.4-1.4 7.3-.6 10.2-2 14.5-3 9.4-.3-1.7-.2-4.5.4-6.4.6-2 .7-8.1.3-15.1-.8-13.8-.2-15.6 6.3-19.4 4-2.3 5.2-2.5 19.6-2.7 14.3-.2 15.7-.4 20.8-2.8 3-1.5 7.1-3 9.1-3.3 4.7-.9 12.9 1 16.5 3.8 1.5 1.2 4.9 2.4 7.7 2.8 2.8.4 6.7.9 8.6 1.3l3.5.7-3.2-1.7c-3.1-1.7-4.9-4.1-3.8-5.2.3-.3 1.1 0 1.7.6.7.7 2.3 1.2 3.7 1.2 2.5 0 2.5 0-.9-3.5-1.9-1.9-5.8-4.9-8.7-6.7-4.4-2.7-6.6-4.8-4.9-4.8 1.2 0 12.3 6.4 14.8 8.5 5.9 5 4.7-.5-1.2-5.9-2.2-2-4-3.8-4-4.1 0-1.6 2.9.2 7.8 4.9zm-26.1 75.3c-.2 1.6-.4.5-.4-2.2 0-2.8.2-4 .4-2.8.2 1.3.2 3.5 0 5z"/>
  <path fill="currentColor" d="m 12.581383,111.59562 c -2.238208,-0.64063 -3.4600176,-2.29969 -4.1345269,-5.61414 -0.3754769,-1.84505 -0.3701377,-8.263801 0.00964,-11.585299 0.5083838,-4.446312 1.1180551,-7.486556 1.9603479,-9.775656 1.0061,-2.734282 1.407607,-5.827449 1.407711,-10.844869 8.1e-5,-3.875644 -0.201699,-5.8651 -0.724436,-7.142621 -0.196263,-0.47965 -0.20769,-0.484732 -0.377803,-0.167996 -0.316435,0.589171 -0.626905,2.879474 -0.943562,6.960548 -0.4583207,5.906836 -0.6804868,7.80127 -1.1585295,9.878899 -0.5102114,2.21744 -1.1177171,2.613476 -1.667297,1.086922 -0.2584088,-0.717767 -0.302063,-1.229324 -0.2997989,-3.513126 0.00225,-2.267885 0.054217,-2.869817 0.3428756,-3.971361 C 7.2379917,75.983476 7.3866401,74.752388 7.5108143,72.643325 7.6858769,69.669934 7.663931,68.687493 7.174432,57.584726 6.8694491,50.667134 7.4440877,47.605913 9.4612155,45.402553 10.780175,43.96182 14.191738,41.768761 16.416943,40.931197 c 2.538478,-0.95548 4.271309,-1.096161 16.897266,-1.371815 5.617912,-0.122652 11.02284,-0.296636 12.010948,-0.386632 3.65643,-0.33302 5.345432,-0.824245 9.609918,-2.794916 6.015252,-2.779724 9.453367,-3.511684 13.800009,-2.937966 4.327424,0.571182 7.971435,1.806177 10.621443,3.599721 2.823157,1.910733 4.92928,2.568734 10.991922,3.434129 3.16847,0.452273 6.29694,0.97835 8.324582,1.399846 0.210024,0.04366 -0.419351,-0.362351 -1.398612,-0.902244 -2.951321,-1.627143 -4.405843,-2.89192 -4.942849,-4.298051 -0.253261,-0.663154 -0.259421,-0.782443 -0.05894,-1.141282 0.338131,-0.605218 0.867326,-0.586348 1.71535,0.06117 1.275355,0.973807 1.963939,1.198407 3.883143,1.266594 1.700176,0.0604 1.718377,0.0574 1.718377,-0.283957 0,-0.241914 -0.696041,-1.036626 -2.329356,-2.659565 -2.63819,-2.621431 -5.067926,-4.521402 -9.574362,-7.486827 -2.907156,-1.913031 -4.898192,-3.574238 -4.898192,-4.086774 0,-0.708954 1.008207,-0.426075 3.896085,1.093153 4.314288,2.269618 8.936881,5.101752 11.617627,7.117794 1.03399,0.777607 2.197508,1.535096 2.585598,1.683309 0.65609,0.250562 0.72333,0.251764 0.95797,0.01713 0.22133,-0.221336 0.22871,-0.341619 0.06,-0.978716 -0.23801,-0.898809 -1.1643,-2.483417 -2.188575,-3.744004 -0.426214,-0.524547 -2.113861,-2.260261 -3.750329,-3.857142 -2.507565,-2.446905 -2.966962,-2.963262 -2.92175,-3.28401 0.12763,-0.905453 1.476798,-0.373845 3.831245,1.509612 0.817536,0.653993 3.120162,2.704574 5.116939,4.556845 5.73985,5.32444 8.40507,7.569243 9.57993,8.068774 0.65959,0.280448 0.97858,0.08608 1.75522,-1.069503 0.77064,-1.146633 1.3013,-1.548518 1.85816,-1.407229 0.53545,0.135857 0.71715,0.540161 0.89845,1.999183 0.16135,1.298443 0.68689,2.9526 1.72727,5.436669 0.71444,1.705829 1.0239,3.292516 1.0239,5.249813 0,2.517882 0.52754,4.695764 1.5671,6.469578 0.83853,1.430796 1.07583,2.200994 1.00022,3.246367 -0.0792,1.095425 -0.39854,1.599782 -1.34869,2.130334 -1.56673,0.874845 -4.16964,0.523274 -7.31164,-0.987572 -2.13486,-1.026563 -2.78827,-1.198234 -3.47252,-0.912339 -0.67844,0.28347 -1.29223,1.173977 -2.4228,3.515036 -2.45693,5.087554 -5.80515,14.589787 -7.419273,21.055838 -0.782741,3.135601 -1.275776,4.778176 -1.852257,6.170892 l -0.458383,1.107399 h -0.732381 c -0.919578,0 -2.688822,-0.508388 -6.144898,-1.765723 -3.715571,-1.351742 -5.41021,-1.826182 -5.903378,-1.652743 -1.217339,0.428114 -2.32807,3.504353 -2.789812,7.726563 -0.210626,1.925961 -0.09043,6.150847 0.222982,7.837805 0.632157,3.402629 1.178586,4.591699 3.022505,6.577239 1.497603,1.61263 1.837594,2.29303 1.445115,2.89203 -0.406765,0.6208 -1.606992,0.87065 -3.901453,0.81216 -1.704863,-0.0435 -2.027765,-0.0927 -2.392105,-0.36517 -1.283214,-0.95945 -1.615531,-2.57697 -1.896619,-9.231612 -0.277272,-6.564275 -0.752113,-10.643716 -1.914746,-16.449911 -0.587616,-2.934556 -1.4667,-6.141092 -1.875501,-6.841058 -0.35196,-0.602638 -0.799688,-0.603828 -0.973419,-0.0026 -0.07282,0.252028 -0.194619,2.039141 -0.270654,3.97136 -0.207786,5.280281 -0.513071,8.347193 -1.678002,16.85737 -0.337671,2.466781 -0.613946,4.652351 -0.613946,4.856841 0,0.23309 0.780789,1.46595 2.093055,3.30492 2.180228,3.0553 4.169475,6.13559 4.169475,6.45633 0,0.29875 -0.389227,0.37198 -1.959987,0.36877 -3.132707,-0.006 -4.618062,-0.45658 -5.810069,-1.76082 -0.867128,-0.94878 -2.200196,-3.51986 -2.57009,-4.95692 -0.327361,-1.27182 -0.349127,-4.22097 -0.06144,-8.324582 0.51382,-7.329235 -0.238235,-13.408685 -2.142945,-17.323101 -0.937997,-1.9277 -1.861285,-2.925055 -3.415187,-3.689157 l -1.067116,-0.524734 -2.980616,0.0096 c -2.168966,0.007 -3.958941,0.12007 -6.57331,0.415343 -10.853496,1.22582 -11.995466,1.038464 -17.632243,-2.892826 -1.893126,-1.320332 -2.424061,-1.508052 -2.905005,-1.027108 -0.337397,0.337398 -1.115834,1.909933 -2.198971,4.442182 -0.498707,1.165918 -1.703692,3.882342 -2.677746,6.036498 -2.097237,4.638117 -2.380288,5.615467 -2.489568,8.596288 -0.09293,2.534884 0.149233,4.214128 0.955019,6.622434 1.313512,3.925783 2.898627,6.084443 7.400396,10.078113 l 0.534606,0.47427 -2.138424,-8.5e-4 c -2.436914,-9.7e-4 -4.138683,-0.25499 -5.214375,-0.77834 -0.669804,-0.32587 -0.80373,-0.48378 -1.36508,-1.60946 -0.342327,-0.68647 -1.00934,-2.40398 -1.482248,-3.81667 -0.757533,-2.262942 -4.386985,-14.440313 -4.386985,-14.719016 0,-0.05867 0.697324,-1.301083 1.549608,-2.760915 1.791995,-3.069415 3.417356,-6.358037 4.080628,-8.256408 0.617774,-1.768152 1.104037,-2.711172 2.152033,-4.173492 1.262879,-1.762157 1.46772,-2.535205 0.723354,-2.729861 -1.321722,-0.345639 -3.807152,3.05424 -7.440255,10.177701 -2.929213,5.743339 -4.246527,9.017528 -4.869622,12.103472 -0.429045,2.124891 -0.806252,6.659814 -0.825826,9.928399 -0.01545,2.58044 0.0073,2.81541 0.370552,3.82333 0.214119,0.59416 0.909932,1.86246 1.557521,2.83901 1.539835,2.32202 1.864945,3.27096 1.262075,3.68377 -0.289431,0.19819 -1.815645,0.10328 -2.780594,-0.17292 z" />
</svg>
