<svg xmlns="http://www.w3.org/2000/svg" version="1.0" viewBox="0 0 128 128">
  <path d="M61 21.1c-.6 1.1-1 3.4-.8 5.2.3 2.8 0 3.2-2.7 3.7-1.6.4-5.2 1.6-7.9 2.8-3.3 1.5-6.9 2.2-11.1 2.2-7.3 0-12.5 2.5-17.5 8.2-5.9 7-6.8 11.2-7.1 36.5-.2 12.5 0 23.4.4 24 1.1 1.7 8.2 1.7 9.5 0 .5-.6 1.2-4.4 1.4-8.2.3-3.9 1-8.1 1.7-9.3 1-1.8 1.5-2 3.5-1.1 2 1 2.5 2.2 3.5 9.7.7 4.8 1.7 9.2 2.3 9.9 1.3 1.6 10 1.7 11.6.1 1.8-1.8 1.5-4.6-.8-7.5-2.4-3-2.5-6-.4-8.8 1.5-2 1.5-2 2.7 0 2.4 4 3.5 8.1 3.6 13 .1 2.8.6 5.6 1.3 6.3 1.7 1.7 7.7 1.5 11.2-.3 1.5-.8 4.1-1.5 5.5-1.5 1.7 0 4.3-1.3 6.5-3.3l3.8-3.2.5-12.7c.7-14.6 1.5-16.5 7.1-14.9 4.2 1.2 9.8-.4 13.2-3.7 1.5-1.5 4.5-3.9 6.6-5.5 3.3-2.2 4.3-3.7 5.3-7.7 1.5-6 .8-11-1.8-13.5-3.4-3-5.5-1.6-6.1 3.9-.5 4.9-3 7.9-3 3.6 0-1.3-.8-2.4-2-2.7-1.8-.5-1.8-.7-.3-2.9 1.4-2.2 1.4-2.6-.1-4.9-.9-1.4-2.6-2.5-3.7-2.5-1.6 0-1.9-.3-1.1-1.3.5-.6 1.5-3.8 2.2-7 .9-4.5.9-6.1 0-7.2-1.9-2.3-6.9-1.8-10.6 1-2.8 2.2-3.7 2.4-5.5 1.4-1.2-.6-3.8-.9-5.9-.6-2.6.3-4.4-.1-6.1-1.4-3.3-2.5-7.5-2.4-8.9.2zm7 2.4c1.5.8 3 2 3.2 2.6.2.7 1.1.7 3.1-.2 2.2-1 3.4-.9 6.8.4l4.2 1.7 3.4-3c1.8-1.7 4.2-3 5.3-3 1.7 0 1.9.5 1.3 3.2-.9 4.9-2.1 7.8-3.3 7.8-1.5 0-1.2 2.7.6 4.9 1 1.1 2.4 1.6 3.5 1.4 2.4-.7 2.6 2.8.4 4.7-.8.7-1.5 2.1-1.5 3.2 0 1.6.5 1.9 2.5 1.6 2.5-.5 3.6 1.4 1.5 2.7-.5.3-1 1.1-1 1.6 0 .6.4.7 1 .4.5-.3 2-.1 3.2.6 1.9 1 2.5.8 4.6-1.6 1.9-2.2 2.3-3.6 1.8-6.3-.5-3.4-.5-3.4 1.4-1.7 1.1 1 2 2.8 2 3.9 0 3.9-2.8 10-5.1 11.5-1.3.8-4.3 3.2-6.6 5.3-4.4 4-9.2 5-13.3 2.8-1.4-.8-2.5-.4-5 2l-3.2 3-.2 12.1-.2 12.2-3.3 2.9c-2.6 2.3-3.9 2.8-6 2.3-1.4-.4-2.7-.8-2.9-.9-.5-.5 5.1-8.6 6-8.6 2.1 0 .5-5.6-2.7-9.1-1.9-2.2-3.5-4.5-3.5-5.3 0-1.1-1-1.3-4.2-.9-2.4.3-4.4.7-4.6.8-.1.1.9 2.8 2.3 6 1.7 3.8 2.4 6.7 2 8.4-.3 1.5.1 4.4 1 6.5 2.1 5 1.4 6.6-2.9 6.6h-3.4l-.4-6.3C55.2 91.5 46.6 73 43.3 73c-1.8 0-1.6 1.5.3 3 2.9 2.5 3.6 5 2.4 8-.7 1.6-1.8 3.1-2.6 3.4-2.4.9-1.8 9.1.8 11.6 2.7 2.5 1.4 4.3-2.8 3.8-2.7-.3-3-.7-4.1-6.8-.6-3.6-.9-7.5-.6-8.7.4-1.8-.2-2.6-2.8-4-3.9-2.1-8.3-6.2-9.1-8.3-.3-.8-.9-1.1-1.4-.7-.4.4 0 2.1 1 3.8 1.6 2.7 1.6 3.2.3 4.7-.8.9-1.5 2.4-1.5 3.2 0 .8-.4 3.6-1 6.2-.5 2.6-.7 5.9-.4 7.3.4 2.2.1 2.5-2.2 2.5-3 0-4.3-3.4-3-7.8.4-1.5.7-9.6.5-18-.2-13.5 0-16 1.9-21.8 3.9-11.6 10.3-16.7 20.8-16.3 3.8.1 6.8-.4 9.1-1.5 1.8-1 5.8-2.6 8.7-3.6l5.4-1.7 3.4 3.3c3.8 3.7 4.6 4.1 4.6 2.1 0-.8-1.8-3-4-5.1-3.7-3.4-5.1-7.2-3.3-8.9.9-.9 1-.9 4.3.8zm-1.2 62.6 3.3 3.6-2.5 3.8-2.6 3.8v-4.9c-.1-2.7-.7-6-1.5-7.4-1.5-2.7-2.1-5.1-.7-3.5.4.6 2.2 2.6 4 4.6z"/>
  <path d="M75 48.8c-3.8 3.8-3.9 7.9-.5 11.6 1.3 1.4 3.1 2.6 4 2.6 2.3 0 1.8-1.5-.9-3-4.3-2.2-4.3-7.5-.1-11 1.5-1.2 1.6-1 1 2.2-.8 4.4.2 8.5 1.8 6.9.7-.7.7-1.4-.1-2.4-1.2-1.4-.5-5.7.8-5.7.5 0 .7-.8.6-1.8-.5-2.8-3.4-2.5-6.6.6z"/>
  <path fill="currentColor" d="M94.208 21.82c-1.994.161-3.676 1.458-5.175 2.676-1.28 1.071-2.518 2.19-3.776 3.286-2.307-.854-4.524-2.019-6.937-2.55-.93-.114-1.897-.144-2.816-.038-1.24.415-2.442 1.237-3.787 1.173-.42-.26-.525-.855-.965-1.144-1.614-1.413-3.544-2.46-5.546-3.212-1.18-.356-2.169.893-2.375 1.932-.365 2.25.993 4.343 2.374 5.993 1.726 2.129 4.007 3.817 5.393 6.21.235.452.383 1.226-.108 1.537-1.15-.412-1.958-1.444-2.88-2.208-1.573-1.414-2.984-3.023-4.66-4.314-2.255.609-4.505 1.39-6.728 2.155-2.7.926-5.31 2.085-7.889 3.301-2.492 1.066-5.14 1.273-7.812 1.28-2.617.106-5.293-.039-7.821.772-3.952 1.017-7.347 3.646-9.65 6.975-2.702 3.892-4.343 8.432-5.42 13.02-.946 4.207-.648 8.54-.697 12.816-.025 6.811.146 13.647-.255 20.44-.086 2.366-1.165 4.694-.587 7.073.285 1.582 1.533 3.15 3.256 3.144.85-.005 1.918.134 2.546-.557.28-.87-.003-1.836.067-2.735-.046-2.32-.042-4.653.5-6.914.471-2.116.693-4.277 1.057-6.404.22-1.366 1.21-2.4 1.99-3.488.754-1.12-.13-2.401-.615-3.428-.56-1.235-1.404-2.447-1.453-3.84-.02-.596.798-.545.943-.062.871 1.69 2.135 3.132 3.53 4.41 2.195 2.12 4.806 3.725 7.412 5.28.818.497 1.489 1.425 1.209 2.435-.272 3.858.277 7.732 1.023 11.512.385 1.4.503 3.14 1.777 4.066 1.25.706 2.77.575 4.156.586 1.067.027 2.423-.71 2.278-1.93-.374-1.535-1.903-2.39-2.494-3.824-1.167-2.367-1.348-5.16-1.002-7.7a2.855 2.855 0 0 1 1.569-2.198c1.48-1.222 2.361-3.065 2.796-4.903.45-2.157-.565-4.37-2.166-5.799-.746-.858-1.785-1.558-2.191-2.649-.118-.8 1.01-.985 1.537-.608 1.56.93 2.442 2.608 3.434 4.073 3.123 5.222 5.499 10.866 7.238 16.689a27.78 27.78 0 0 1 1.185 6.81c.146 1.693.249 3.393.366 5.082.517.322 1.24.088 1.828.167 1.704-.098 3.621.2 5.12-.797 1.157-.876.876-2.536.498-3.738-.728-2.271-1.795-4.515-1.822-6.931-.104-1.753.328-3.555-.21-5.294-.936-3.743-2.92-7.123-4.025-10.805 2.166-.52 4.386-.772 6.606-.95.683-.035 1.707.016 1.78.9.452 1.739 1.734 3.11 2.795 4.509 1.96 2.322 3.899 4.915 4.286 8.017.067.612.099 1.558-.683 1.708-1.224.609-1.923 1.893-2.772 2.91-1.245 1.772-2.564 3.54-3.419 5.54-.14.625.798.662 1.184.852 1.323.437 2.7.865 4.107.606 1.825-.372 3.15-1.844 4.555-2.957.89-.83 1.92-1.56 2.704-2.473.143-8.068.28-16.135.418-24.203 1.844-1.665 3.513-3.564 5.605-4.929.908-.641 2.027-.198 2.9.263 2.389 1.131 5.244 1.103 7.696.191 3.665-1.354 6.252-4.406 9.293-6.709 1.536-1.27 3.411-2.22 4.456-3.994 1.746-2.7 2.972-5.823 3.173-9.052.142-2.105-1.253-3.97-2.815-5.228-.285-.253-.973-.731-1.134-.109-.058 2.032.79 4.066.203 6.066-.666 1.727-1.933 3.166-3.303 4.372-.627.6-1.568.587-2.286.168-1.077-.429-2.212-1.12-3.41-.921-.358.006-.822.39-1.132.144-.184-1.096.992-1.67 1.608-2.367.615-.581.552-1.633-.17-2.096-1.015-.593-2.276-.19-3.384-.234-.675.186-1.256-.571-1.042-1.207-.086-1.133.417-2.224 1.147-3.048 1.011-1.065 2.032-2.447 1.755-4.017-.085-.803-.808-1.475-1.641-1.325-1.02.024-2.087.07-2.938-.604-1.297-.946-2.167-2.512-2.309-4.11-.075-.566.272-1.31.964-1.213 1.009-.421 1.4-1.595 1.838-2.511.886-2.315 1.314-4.78 1.715-7.217.152-.766-.399-1.541-1.195-1.57a2.402 2.402 0 0 0-.375-.025zM79.562 46.48c1.195-.082 1.896 1.157 1.877 2.215.051.54-.18 1.151-.774 1.235-1.04.739-1.187 2.167-1.271 3.344-.077 1.179.429 2.276 1.067 3.23.424.692-.217 1.666-.952 1.73-.877-.584-.889-1.863-1.016-2.774-.217-2.197.29-4.378.505-6.563.11-.396-.195-.962-.649-.671-2.572 1.509-4.473 4.494-4.078 7.546.204 2.095 1.84 3.688 3.613 4.629.695.506 1.621.98 1.88 1.85-.437.87-1.658.563-2.344.188-2.711-1.49-4.99-4.258-5.185-7.44.016-2.85 1.884-5.347 4.03-7.044.96-.726 2.056-1.436 3.297-1.475z"/>
</svg>
