<svg xmlns="http://www.w3.org/2000/svg" viewBox="0 0 128 128">
  <path d="M97 60q-1.4-.3-2.4-1.4c-1.2-1.2-1.7-2.7-2.4-5.9a24 24 0 0 0-5.4-11 14 14 0 0 1-2.4-3.7c-1.8-4.3-1.6-9.8.5-13a7 7 0 0 1 6.8-3.1 8 8 0 0 1 6 5.8q1 2.7 3.3 6.2c.8 1.2 1.5 3 1.6 3.8q-.2 1.7-2.3.3a21 21 0 0 0-3.5-2.6q-2.2-1.3-2.5-.7A20 20 0 0 0 96.6 45c1 2.1 1.3 3 1.4 5.2s.5 3 1.6 4.5c1.9 2.3 2 4.6.5 5.3a6 6 0 0 1-3 .1" fill="currentColor"/>
  <path d="m68.7 111.2-2.4-1.4c-2.7-1.7-3.6-2-4.6-1.6l-1.5.9c-1.7 1-3 1-3 .4q0-.8 2.6-3.7c1-1 2-2 2.3-2.5.4-.7.6-.6.6-1.5q-.1-1-.6-2.6l-.3-3.2c0-1.6 0-1.7-.5-1.7s-1 1-2 3.8c-2.2 5.5-6 11.4-7.2 11.4q-.7-.1-.8-1.7 0-1 .5-2.2c.7-2 1-2.2.3-2-.5.2-1.3 1.5-1.9 2.9-.7 1.7-1.7 2.8-2.2 2.5q-.8-.5-.4-3.8l.3-1.8q-.2-.2-.8 1c-.5 1-1.7 2.2-2 2.2-.6 0-1-1-.3-2.9q.9-2.4.7-3.2-.4-.9-1 1.4c-.5 1.4-1.5 2.1-1.8 1.6s-.1-2.2.5-4.5c.6-2.5.7-2.5.6-2.8-.2-.2-.2 0-1.3 1.4q-1 1.1-1.4 1.2c-.3-.2.1-5.3.7-7.6q.8-2.7 2-4.6 1.2-1.6.7-1.5l-1 .4q-2.4.7-1-1.7l1-1.7q.9-1.4.7-1.7 0-.2-.6-.5c-.8-.6-.8-1.3.1-4 .6-1.6.7-2 .5-2.4-.4-.3-1.3 0-4.4.8-4 1-5 1.2-6.5 1.2q-3.8 0-3-4.5l.3-1.9q0-1-.8-1.3-.7-.2-1.3-.6a5 5 0 0 1-2-2l-.7-.9q-.8-1.2-1-3.2l-.5-1.9c-.2-1 0-2.5.3-3.5.9-2.4.9-2.3.3-2.6q-1-.3-1.1-4.4 0-4.3 1.2-5.6c.6-.7.6-1 .5-2.8q0-1.8.2-2.6a9 9 0 0 1 2-3.7q1-1.1 2-1.2c.6-.1.6-.2.5-1.3q-.2-1.7.3-2.6.6-1.3 3.4-4 4.3-4.3 5.5-4.1 1.2-.2 3.3-2c1.8-1.7 2.2-1.8 6.5-1.8 5-.1 7.9.3 10 1.4q1.9 1.1 4.8 1.9c2.6.7 3.6 1.4 4.3 2.6q.4.7 1.4.9 1.6.4 3.3 3.5 1.2 2.4 1.7 3c.2 0 .9.3 1 .7.8 1.5 2 6 1.2 6.2l-.7.1-.9.4c-2 .9-4.2-.1-6.9.8-4.3 1.4-6.5 3-8.6 6.2-2.2 3.3-3.7 7.2-3.5 9.6 0 1.6 0 1.1 1.2-1.6q1.6-3.7 2.7-5.7c1.4-2 4.3-4.5 7-5.8a24 24 0 0 1 14.2-1.9c2.3.9 5.4 4.5 7.4 8.5.9 1.9 1.1 3 1.6 5.3.8 3.3 1.6 5.1 3 6.6q1.3 1.3 3.1 1.7c.8.2 1.4 0 4.4-.2q2 0 2.5 1.2c.2.7.3 5 .2 7.6-.2 6.2-2.3 10.1-7.8 15.4a82 82 0 0 1-13.5 10.8c-.8 1-.8 1.7.2 3.8.5 1 .8 1.3 1.5 2 1.3 1.4 2.6 1.7 4.5 1.7 1 0 3.2.4 4 .8q1.6.6 1.7 1.4c0 .4-.8.6-4.7.4-1-.1-1-.2-1 0q0 .3.8 1.2c.5.7.8 1.5.7 1.5l-1.7-.3c-1.3-.5-2.5-.9-5.5-1.6l-1.8-.7-1.3-.4q-.8-.1-2.6 1.3c-1.9 1.6-2.8 1.8-5 1.4-1.2-.3-1.2-.4-1.5-.2l-.3.3.3 1.3c.5 2 .4 2.4-1.3 1.5zm5.4-4.7c1.2-.6 3-2.5 4-4.4A6 6 0 0 0 79 99q0-1-.3-1.3l-.8-.5-3.8-.3a21 21 0 0 1-5.7-.5q-.6-.2-1.2-.9-1-1.3-1.5-.3c-.4.5-.4 2.8 0 5.6.5 3.6.8 4.5 2 5 .9.6 3 1 4.6 1 1 0 1.2 0 1.8-.3" fill="currentColor"/>
  <path d="M43.1 14.8c-.4 0-2 .1-2.2 1-.3 2.1-1.6 1.5-3.2 2.1A22 22 0 0 0 27 28c-.5 1.9.4 2.8-2.6 4.7a10 10 0 0 0-2 6.4c.2 1.8-.2 2.3-.9 3.4-2.4 3.8 0 8.9 0 10.4q.1 1-.2 2c-1.7 6.1 1.3 9.7 4.2 13.8 3.3.7 1.8 3.2 1.8 4.6q0 6.4 8.3 5.2l4.7-.7-.6 3.4a52 52 0 0 0-.9 19.1l2.5 5.7c2.3 5.1 4.7 6.2 13.6 5.9.2 0 .2-.5 1.4-.1 4.7 1.6 7.4.4 10.1 1.5 3.5 1.6 4.1 1.6 6.2.2 1.3-.8 3-1.5 3.9-1.5q1.5-.1 2.1-1.4c.4-1.1 1.5-1.1 6.6.2 5.4 1.3 6.2 1.3 7.2 0 .6-.8 1.9-1.7 2.9-2.1 2.1-.8 2.2-4 .3-5.6-.8-.7-3.1-1.5-5.3-1.8-5.2-.8-7.1-3.6-3.3-4.8a35 35 0 0 0 7.4-5.8c3-2.9 6.4-5.9 7.6-6.7 1.5-1.1 2.5-3.4 3.4-8.1a29 29 0 0 0-3-22.2c-.8-1.6-1.4-4.1-1.4-5.5s-.7-3.6-1.5-4.6c-2.1-2.8-1.9-3.1 1.8-3.1 2.9 0 3.2-.3 3.5-3.3a9 9 0 0 0-1.7-6c-1.1-1.6-2.3-4-2.6-5.5-.9-3.4-6.2-6.7-10.8-6.7-5.4 0-8.7 4.4-8.7 11.8q0 6-1 4.2a9 9 0 0 1-1-3.9c0-1.3-.8-3.3-1.7-4.3-5.8-6.2-9-8.7-12.1-9.3-1.9-.4-4.4-1.3-5.6-2-2-1.3-13.4-1.8-16.5-.7m15.4 3.6c1.1.8 3.5 1.7 5.3 2.1s3.6 1.3 3.9 2.1q.6 1.3 1.9 1.4c.7 0 2 1.3 2.9 2.9s1.8 3.1 2.3 3.3 1.1 1.9 1.5 3.9c.5 3.2.3 3.6-1.2 3.2-2.7-.7-9.5 1.4-12.6 3.9A21 21 0 0 0 56.1 54q-.2 3.3 1.7-1.6c2.3-5.6 4.1-7.8 8.4-10.3s12.7-3.8 15.6-2.2a21 21 0 0 1 8.3 12.8q1.9 9.9 9.2 9c3.4-.5 3.7-.3 3.8 2.1.7 11.1-.8 15.1-8.1 21.9-3.4 3.2-8 6.9-10.1 8.2-3.2 1.9-3.8 2.7-3.3 4.5 1 3.4 3.5 5.6 6.5 5.6 3.2 0 5.9.9 5.9 1.9 0 .4-1.5.5-3.2.3-3.1-.5-3.2-.4-1.8 1.3q2.2 2.4-.5 1.1c-1.1-.5-3.1-1.1-4.5-1.4s-3-.8-3.6-1.3q-1-.7-3.3 1.2-2.2 2.2-4.7 1.5c-2.2-.6-2.5-.4-1.9 1.4.8 2.6.3 2.5-4.3-.4-3.4-2.1-3.9-2.2-6-.8-3.6 2.4-3.8.5-.2-2.8 2.4-2.3 3.1-3.6 2.6-5.3-.3-1.2-.6-3.2-.6-4.5 0-3.4-1.4-2.6-2.9 1.5-2.2 6-6.3 12.5-7.3 11.5-.5-.5-.5-2 .2-3.6q1-2.8-.1-2.1c-.5.4-1.4 1.8-1.9 3.1-1.4 3.5-3 3-2.4-.9.5-3.1.5-3.1-.8-.9-1.8 2.9-3 1.8-1.7-1.5.5-1.4.7-2.8.4-3.1q-.5-.4-1.2 1.6t-1.3 1.7c-.5-.3-.4-2 .1-3.8 1.2-4.3 1.1-4.6-.8-2.2-1.4 1.9-1.5 1.7-.9-2.9.3-2.7 1.3-6.1 2.2-7.4 1.5-2.3 1.5-2.5 0-1.9q-3 1.2-.1-3 1.7-2.1.3-2.5c-.8-.3-.9-1.2 0-3.6 1.3-3.7 1.4-3.6-5.7-1.7-6.6 1.7-8.5.8-7.5-3.7.5-2.4.2-3-1.5-3.5a4 4 0 0 1-2.6-2.7q-1.6-1.8-1.7-4.3c-.6-2-.8-3 0-4.8q1-2.4.2-2.5c-1.4 0-1.3-8.7.1-9.6.6-.3.9-1.8.6-3.3-.5-2.6 2.1-7.1 4.1-7.1q1-.2.5-2c-.4-1.4.8-3.2 4.1-6.3 2.5-2.4 4.6-4 4.9-3.7s2.2-.7 3.3-1.8c1.5-1.7 2.5-2 7.6-2 3.5 0 7.2.5 8.3 1.2m36.2 5.1a8 8 0 0 1 2.7 4c.3 1.3 1.7 4.1 3.1 6.1 2.9 4.2 2.3 6.5-.9 3.6a17 17 0 0 0-4-2.6c-1.7-.6-1.8-.3-1.3 3.9.4 2.5 1.4 5.6 2.3 6.9a9 9 0 0 1 1.2 4.8 6 6 0 0 0 1.4 4.2c2.6 2.9 2.3 5.6-.6 5.6q-5 0-6.2-6.8-1.3-7-5.9-12.2c-2.9-3.2-4-9.1-2.5-13.6 1.8-5.2 6.3-6.9 10.7-3.9"/>
  <path d="M65.6 99.7c.8 6.1.8 6.1 4.9 6.9 2.9.5 3.8.2 5.9-2.2 1.4-1.6 2.6-3.9 2.6-5.2 0-2-.5-2.2-5.4-2.2-3 0-5.8-.5-6.1-1-1.6-2.6-2.6-.7-1.9 3.7m9 2.6c-1.3 2.2-5 1.8-5.4-.5-.3-1.3.4-1.6 3.1-1.5 3 .2 3.3.4 2.3 2"/>
</svg>
