<svg xmlns="http://www.w3.org/2000/svg" version="1.0" viewBox="0 0 128 128">
  <path d="M81.35 20.9c-5.2 3.25-8.7 10.2-8.1 16.15.45 4.65.3 4.95-1.85 4.95-1.25 0-2.55.45-2.9 1-.35.55-2.6 1-5 1-6.4 0-15.15 4.1-31.4 14.85C10.15 73.3 7.65 76.15 13.95 79.8l2.95 1.65-1.95 3.15c-2 3.25-1.75 6.4.55 6.4.7 0 1.8.65 2.5 1.5 2 2.4 3.75 1.8 9.05-3.15l5-4.65L36 86c2.55.85 6.65 1.1 11.9.75l8-.55.5 2.65c.9 4.4.9 11.55.05 13.55-2.4 5.75 12.3 11.55 18.1 7.15 1.1-.85 3-1.5 4.3-1.5 1.5-.05 2.55-.8 2.85-2.05.3-1.1 1.35-2 2.4-2 2.1 0 4.3-3.45 3.55-5.5-.9-2.3-7.25-4.75-10.55-4-2.65.55-3.15.25-4.65-2.65-3-5.7-3.55-8.85-1.65-8.85 7.1-.05 22.3-12.7 26.7-22.2 4-8.55 3.3-12.85-3.25-19.95-3-3.25-2.25-3.8 6.55-4.7 8.7-.85 10.05-4.3 3.4-8.5-2.15-1.4-4.85-3.75-5.95-5.25-2.7-3.75-12.05-4.6-16.9-1.5zm15.4 5.1c1.95 2.2 4.1 4 4.8 4 .65 0 1.75.65 2.45 1.5 1.05 1.3.7 1.5-2.45 1.5-11.55 0-16 3.35-11.15 8.45 7.55 8.05 8.05 10.5 3.7 18.05C88.05 70 78.3 78.1 69.55 80c-2.8.6-3.05.95-2.85 4.3.4 6.05 5.25 14.95 7.75 14.2 5.75-1.85 7.2-1.85 5.05-.1-1.9 1.55-1.8 1.6 2 1 2.9-.45 3.7-.35 2.95.45-1.2 1.35-15.25 1.75-16.45.55-.5-.5-1.55-3.5-2.4-6.65-2.25-8.55-3.75-10.55-2.95-3.75 1.35 11.2 2.2 12.45 8.95 12.8 7.6.4 9.7 2.2 2.6 2.2-5 0-7.05 1.35-3.45 2.3.95.25.25.5-1.6.6-2.75.1-5-.7-10.05-3.65-.2-.1.1-.8.65-1.5 1.4-1.7-.2-17.65-1.95-19.4-1-1-3.35-1.1-9.95-.55-8.15.7-14.95 0-14.8-1.6.6-5.45 7.2-9.55 26.45-16.35 17.9-6.35 23.2-13.7 13-17.95l-3-1.25 4-.6c4.15-.55 5.85-3.1 3.6-5.35-3.05-3.05 1.25-13.2 6.8-16.2 4.95-2.7 8.9-1.9 12.85 2.5zM71.5 48.65c.85.3 1.8 1.7 2.15 3.15 1 4-2.7 6.3-19.45 12.15C35.7 70.4 33.45 71.7 31.9 76.9 30.65 81.1 20.85 92 20.15 90c-.2-.65.65-2.25 1.9-3.55 1.25-1.35 1.95-2.75 1.6-3.15-.4-.4-1.75.55-3 2.15-1.25 1.55-2.8 2.65-3.45 2.45-.65-.25 1.05-2.85 3.8-5.9 6.55-7.35 6.15-9.05-1.3-5.45l-3.2 1.55 2.85-2.6c3.95-3.55 2.55-4.4-1.8-1.1C15.6 75.9 14 76.7 14 76.2c0-1.05 6.45-6.3 10-8.2 1.4-.75 7.55-4.65 13.7-8.7 17.45-11.5 25.2-13.95 33.8-10.65z"/>
  <path fill="currentColor" d="M88.79 21.87c-1.847-.012-3.59.785-5.185 1.644-3.265 1.998-5.43 5.39-6.788 8.895-.686 1.912-1.144 4.049-.594 6.051.334 1.202 1.676 1.895 1.714 3.212.05 1.392-1.294 2.287-2.45 2.738-1.743.595-3.611.676-5.411 1.016-.262-.069-.653.236-.318.43 2.373 1.174 5.176 1.882 6.89 4.02.975 1.178 1.113 2.88.327 4.18-1.372 2.542-3.885 4.164-6.276 5.636-6.47 3.763-13.756 5.717-20.645 8.543-4.224 1.726-8.459 3.546-12.25 6.116-2.23 1.547-4.41 3.661-4.82 6.472-.148.51.083 1.043.575 1.258 1.464.717 3.137.87 4.741 1 4.122.187 8.253.015 12.36-.34 2.074-.084 4.216-.346 6.245.236 1.164.395 1.424 1.748 1.72 2.782.962 4.043 1.363 8.208 1.502 12.354-.011 1.383.093 2.81-.328 4.147-.25.697-.948 1.277-.843 2.064 2.543 1.445 5.135 2.978 8.031 3.582a13.68 13.68 0 0 0 3.94-.095c.308-.015.434-.443.1-.532-.652-.333-1.588-.355-1.966-1.06.528-.721 1.563-.731 2.369-.884 2.216-.32 4.504-.078 6.707-.556.438-.017.745-.57.32-.844-1.02-.693-2.325-.74-3.505-.95-2.371-.37-4.807-.244-7.143-.834a4.699 4.699 0 0 1-3.24-3.025c-1.133-2.975-1.378-6.177-1.782-9.308-.094-1.226-.327-2.49-.097-3.701.372.172.493.71.686 1.058 1.665 4.132 2.348 8.6 4.15 12.684.2.683.888.964 1.533 1.058 2.702.426 5.456.306 8.18.244 2.225-.136 4.504-.184 6.644-.865.403-.181 1.08-.53.911-1.063-.423-.366-1.086-.137-1.597-.162-1.581.082-3.136.525-4.72.5.62-.748 1.531-1.252 2.033-2.093.169-.52-.561-.584-.901-.487-1.889.252-3.658 1.021-5.52 1.38-1.01-.105-1.69-1.012-2.326-1.702-2.116-2.68-3.485-5.91-4.374-9.184-.49-1.881-.711-3.867-.48-5.797.303-1.093 1.597-1.256 2.524-1.512 3.843-.862 7.416-2.651 10.617-4.919 6.413-4.505 11.59-10.683 15.21-17.614.867-1.782 1.818-3.673 1.668-5.716.127-1.917-.902-3.658-1.916-5.2-1.616-2.417-3.792-4.38-5.55-6.682-.79-1.05-1.215-2.64-.364-3.779 1.072-1.384 2.829-1.96 4.467-2.376 3.305-.772 6.738-.615 10.118-.868.439.003 1.156-.273.92-.83-.57-1.142-1.703-1.992-2.923-2.332-.987-.157-1.688-.987-2.428-1.593-1.957-1.728-3.588-3.881-5.835-5.27-1.245-.739-2.667-1.211-4.129-1.13-.166-.001-.331.002-.497.003z"/>
  <path fill="currentColor" d="M64.327 47.18c-4.902.085-9.521 2.071-13.815 4.272-7.17 3.684-13.727 8.403-20.537 12.686-2.63 1.723-5.346 3.291-8.016 4.947-2.696 1.816-5.318 3.798-7.538 6.184-.203.308-.739.72-.478 1.124.5.23 1.037-.214 1.488-.4 1.886-1.069 3.467-2.677 5.517-3.437.24-.085.705-.116.516.256-.592 1.185-1.685 2.013-2.6 2.94-.723.704-1.53 1.327-2.209 2.074.01.463.567.035.786-.034 2.292-1.022 4.487-2.34 6.963-2.875.402-.104 1.178-.066 1.038.554-.37 1.427-1.378 2.571-2.249 3.72-1.998 2.521-4.373 4.778-5.983 7.586-.226.367-.475 1.173.166 1.258.98-.066 1.71-.875 2.415-1.478 1.131-1.024 1.935-2.475 3.36-3.134.264-.151.53.005.402.313-.634 2.261-3.07 3.512-3.544 5.85-.132.413.223.888.669.732 1.304-.44 2.275-1.506 3.276-2.404 2.594-2.578 4.957-5.416 6.883-8.53.885-1.386 1.322-2.98 1.978-4.471 1.185-2.46 3.72-3.879 6.084-4.996 5.72-2.595 11.71-4.5 17.607-6.64 4.74-1.736 9.577-3.35 13.964-5.892 1.488-.926 3.182-2.126 3.416-4.007.144-1.493-.48-2.991-1.39-4.148-.948-.951-2.356-1.162-3.592-1.53a18.372 18.372 0 0 0-4.577-.52z"/>
</svg>
