<svg xmlns="http://www.w3.org/2000/svg" version="1.0" viewBox="0 0 128 128">
  <path d="M69.7 7.7c-1.3 1.2-.7 4.3 1.4 8.6l2.1 4.2-2.1-2c-1.2-1.1-3.1-3-4.3-4.3-2.5-2.6-6.6-2.9-7.5-.5-.4.9.3 3.4 1.7 5.7l2.3 4.1-3.1-2.9c-1.9-1.7-3.7-2.6-4.6-2.3-2.2.9-2 5.4.5 8.5l2 2.6-2 .8c-1.7.6-2.1 1.6-2.1 5.7 0 2.7-.4 5.3-1 5.6-1.8 1.1-1.1 4.5 1.3 5.4 2.8 1.1 4.1.6 9.6-3.6 5.4-4 10.4-4.4 15.4-1.1 1.9 1.3 4.3 2.8 5.3 3.4 3.2 1.9.6 2.9-6.4 2.5-3.7-.2-9.6-.3-13.2-.2-11.1.3-21.1.3-31-.1-9-.3-9.8-.1-14.2 2.5C13 54.4 8.7 59.6 9.4 62.9c.3 1.4 1.2 5.5 2 9.1l1.5 6.5-3.4 3.1-3.4 3.1v14.7c0 13.2.2 14.9 1.9 16.6 2.5 2.5 6.8 3.6 8.9 2.3 1.6-1.1 1.7-1.2.5-15.3-.4-4.7-.1-7 .9-8.4 1.3-1.8 1.4-1.7 2.4 1 4.5 11.9 8.7 22.1 9.6 23.2.6.8 2.6 1.2 5 1 4.9-.4 6.3-3 4-7.4-.8-1.6-2.6-6-4-9.8-2.2-6.2-2.3-7.4-1.3-11.8.7-2.6 1.3-4.8 1.5-4.8.1 0 2 .7 4.1 1.6 3.1 1.3 5.8 1.5 12.9 1l9.1-.6 2.2 8.8c1.3 5.2 2.2 12 2.2 16.4 0 5.6.4 7.9 1.6 8.8 1.8 1.6 17.1 1.7 18.6.2.8-.8.7-2.4 0-5.5-1.1-4.3-.9-34.3.2-35.4.3-.3 2.6-.7 5.2-.9 5.9-.5 11-3.8 12.5-8.3.6-1.8 2.9-5 5-7.1 2.2-2.1 4.4-5.1 5-6.6.5-1.6 2.4-3.8 4.2-4.9 2.8-1.8 3.2-2.6 3.3-6.5.2-6.4-1.5-8-8.7-8h-5.7l1.5-3c1.6-3.4 1.2-6.7-1.4-10.6-2.3-3.5-7.9-3.4-9.5.2-1.1 2.2-1 2.8.7 4 1 .8 1.4 1.4.8 1.4-.6 0-1.8.2-2.5.5-.9.4-1.7-.6-2.3-2.7-1.1-3.8-4.9-5-6.9-2.3-1 1.5-1.3 1.4-3.3-.7-1.1-1.3-2.6-4.1-3.3-6.3-2.2-7-5.8-12.5-8.4-12.5-1.2 0-2.6.3-2.9.7zm6.1 7.5c1.2 2.9 2.4 7.2 2.7 9.5.4 2.4 1.6 5.3 2.7 6.5 2 2.3 2 1.8.1-2.9-1.5-3.9 2 .2 3.7 4.3 2.1 4.7 2 4.7 4.4 3.8 1.8-.7 2.1-3.6.6-6.5-.8-1.5-.7-1.9.4-1.9 1.9 0 3.3 6.7 1.7 8.3-1.5 1.5-1.4 2.4.5 3.1 2.1.8 6.4-1.9 6.4-3.9 0-.8.5-1.5 1-1.5.6 0 1 .5 1 1.1 0 .8.5.8 1.5-.1.8-.7 1.5-1.8 1.5-2.6 0-.7-.7-1.9-1.5-2.8-2.1-2.1-1.9-3.5.6-2.9 4.7 1.3 4.3 8.7-.5 11.9-1.4.9-2.3 2-2 2.5.3.5 4 .9 8.2.9 8.4 0 12 1.3 9 3.1-2 1.1-2.4 3-.7 2.7 2.7-.6 1.7 1.9-1.3 3.3-2.1.9-3.5 2.5-4.3 4.8-.6 1.8-2.5 4.5-4.1 6-3.5 3-6.4 7.3-6.4 9.5 0 2.1-5.3 5.6-8.4 5.6-1.5 0-4.2.6-6 1.4-3.3 1.4-3.4 1.6-3.9 8.3-.8 9-.3 30.4.6 32.4.7 1.3.3 1.5-2.3 1.1-3.6-.5-3.8-1.1-4.3-14.2-.4-9.1-3-20-4.9-20-1.1 0-1 2.4.7 10 .8 3.6 1.4 9.7 1.5 13.5 0 3.9.5 7.6 1.1 8.2 1.5 1.5.3 3.3-2.2 3.3-2.7 0-3.9-3.7-3.9-11.9 0-3.9-.8-9.4-1.9-12.7-1-3.3-2.2-7.4-2.6-9.2l-.7-3.2-5.1.7c-9.6 1.5-17 .9-21.1-1.5-2.1-1.3-4.1-2.1-4.3-1.8-.8.7-2.5 7.8-3 12.1-.5 4.4 3.5 17.5 6.3 20.6 1.9 2.1.5 3.2-2.6 2.1C30.8 115 22.7 94 23.5 88.7c.3-2 .2-3.7-.3-3.7-.4 0-2.6 1.8-4.7 4-3.9 4-4 4.3-4.3 12.4-.3 5.2.1 9.2.8 10.6 1.7 3.2-.1 4.6-3.2 2.6-2.4-1.6-2.5-2-2.6-14.9V86.5l3.5-3.7 3.6-3.7-2-8.8c-1.2-5.2-1.7-9.5-1.2-10.4.4-.9 3.4-3.3 6.5-5.5 5.2-3.6 6.1-3.9 12.3-3.8 3.6 0 9.9.4 13.9.9 5.1.5 9.4.4 14.2-.5 5.6-1.1 8-1.1 12.9 0 6.4 1.3 13.7.8 16.6-1.4 1.7-1.2 1.7-1.4 0-3.9-2.7-4.2-11.6-8.7-17.3-8.7-4 0-5.7.6-9.2 3.2-2.4 1.8-4.9 3.7-5.6 4.3-.7.5-1.6.6-2 .2-.4-.4.1-1.3 1.1-2.1 1.3-.9 1.5-1.5.6-2-1.6-1-.4-2.5 1.7-2 1.9.5 8.1-4 7-5.1-.4-.4-2.3-.2-4.3.5-2.7.9-4 .9-4.8.1-.8-.8-.8-1.1 0-1.1.7 0 2.4-.5 3.8-1l2.7-1-3.2-4c-1.7-2.2-3-4.5-2.8-5.1.2-.6 2.1.9 4.1 3.4 2.4 3 4.3 4.4 5.2 4 1.7-.6 2-3.9.5-4.8-1-.6-5-7.8-5-9 0-.3.4-.5.9-.5s1.8 2 3 4.4c1.1 2.5 2.5 4.7 3.1 5.1 1.3.8 1.3-.1 0-2.6-.8-1.3-.7-1.9 0-1.9.6 0 1.4 1 1.9 2.3.5 1.3 1.6 2.9 2.5 3.6 2.7 2.2 3.1-1.4 1-7.8-2.6-7.8-2.7-8.1-1.6-8.1.5 0 1.9 2.4 3 5.2z" />
  <path d="M67.5 31c-.8 1.3 3.9 3.4 5.9 2.7.9-.4 1.6-1.3 1.6-2.2 0-1.7-6.5-2.2-7.5-.5zM78 33.9c0 1.1 6.3 5.2 6.9 4.5.6-.5-4.9-5.3-6.1-5.4-.5 0-.8.4-.8.9z" />
  <path fill="currentColor" d="M72.444 120.868c-1.567-.271-2.536-2.03-3.028-5.492-.225-1.582-.283-2.502-.4-6.339-.177-5.834-.62-8.505-2.415-14.53-1.255-4.215-1.779-6.152-2.31-8.542-.234-1.048-.45-1.93-.483-1.963-.031-.031-1.663.168-3.626.442-6.679.936-9.758 1.159-13.169.954-4.293-.259-6.831-.875-9.363-2.275-2.572-1.423-3.955-1.98-4.329-1.745-.312.197-.668 1.051-1.177 2.825-.847 2.95-1.778 7.66-1.902 9.621-.278 4.39 3.234 16.165 5.888 19.743 1.125 1.517 1.245 1.719 1.245 2.097 0 .76-.72 1.053-2.04.83-1.212-.205-1.828-.563-2.546-1.48-2.818-3.603-7.32-14.745-8.802-21.785-.43-2.041-.552-3.45-.407-4.677.245-2.082.096-3.605-.354-3.605-.526 0-3.18 2.293-5.37 4.639-2.265 2.426-2.81 3.308-3.19 5.158-.385 1.882-.71 9.045-.551 12.143.148 2.88.321 3.843.99 5.5.562 1.395.6 2.145.137 2.664-.431.483-.98.534-1.982.185-.878-.305-2.183-1.123-2.62-1.643-.673-.8-.953-1.769-1.164-4.025-.073-.787-.144-5.606-.179-12.162l-.057-10.86 2.023-2.122a3664.02 3664.02 0 0 1 3.556-3.725l1.534-1.604-1.178-5.205c-1.765-7.795-2.036-9.32-2.129-11.985l-.06-1.709.337-.496c.462-.68 1.911-1.948 4.221-3.692 3.283-2.478 5.66-3.994 7.178-4.58 1.563-.603 2.086-.673 5.466-.735 4.213-.078 9.347.185 14.518.743 6.037.652 10.25.529 15.708-.459 5.326-.963 7.11-.978 11.648-.094 2.87.559 4.502.759 6.877.841 4.913.172 8.904-.686 10.97-2.357.846-.685 1.01-1.004.828-1.616-.157-.53-1.35-2.394-2.084-3.257-1.61-1.891-5.425-4.37-8.894-5.776-3.01-1.22-4.736-1.62-7.331-1.698-2.326-.07-3.508.065-4.973.562-1.772.603-3.179 1.518-7.646 4.974-2.542 1.967-2.908 2.213-3.438 2.312-.471.089-.96-.139-1.006-.47-.06-.415.493-1.195 1.305-1.843 1.226-.978 1.28-1.271.384-2.098-.692-.64-.795-1.054-.358-1.45.42-.38.921-.482 2.003-.408.909.061 1.073.04 1.773-.224 1.953-.739 4.686-2.79 5.33-3.997.07-.133.127-.395.127-.582 0-.264-.063-.365-.282-.448-.67-.255-2.075-.044-4.385.656-2.916.884-3.791.844-4.75-.217-.506-.56-.439-.664.512-.78.38-.047 1.128-.212 1.66-.368 1.053-.306 4.389-1.486 4.507-1.593.04-.036-.72-1.058-1.691-2.27-2.662-3.329-4.172-5.697-4.21-6.604-.013-.283.022-.336.2-.305.598.104 2.067 1.446 3.64 3.325 1.843 2.203 2.938 3.27 3.972 3.869 1.075.621 1.975.318 2.555-.862.27-.552.311-.762.307-1.574-.006-1.077-.246-1.685-.831-2.101-.19-.136-.569-.549-.842-.92-1.202-1.631-3.628-6.102-4.065-7.493l-.204-.646.257-.208c.582-.47.99-.168 2.099 1.556.37.576 1.116 1.94 1.656 3.032 1.527 3.084 2.546 4.588 3.327 4.912.706.292.829-.18.367-1.41a13.187 13.187 0 0 0-.644-1.407c-.666-1.212-.74-1.733-.264-1.858.615-.16 1.237.552 2.133 2.445.979 2.066 2.199 3.518 3.312 3.943.456.174.544.178.801.036.16-.089.376-.333.482-.544.299-.594.261-2.336-.087-4.064-.348-1.725-.478-2.174-1.76-6.077-1.182-3.6-1.516-4.81-1.467-5.319.03-.314.079-.363.385-.393.31-.03.4.033.787.551 1.01 1.351 2.202 3.967 3.28 7.2.808 2.42 1.216 3.979 1.75 6.68.608 3.085 1.533 5.29 2.882 6.87.809.949 1.21 1.262 1.386 1.086.154-.154-.075-.928-.97-3.266-.459-1.199-.7-1.983-.679-2.205l.034-.345.578.586c1.112 1.126 2.283 3.135 3.835 6.58.83 1.843 1.352 2.733 1.718 2.929.366.196 1.28.06 2.101-.313 1.191-.54 1.636-1.354 1.633-2.987-.002-1.22-.207-2.073-.823-3.417-.635-1.384-.707-1.718-.407-1.879.719-.385 1.454.052 2.029 1.205.555 1.113.857 2.345.933 3.801.08 1.554-.07 2.322-.58 2.952-1.077 1.328-1.278 1.953-.816 2.54.25.317 1.175.784 1.76.888 1.245.22 3.513-.726 4.855-2.025.72-.698 1.037-1.259 1.15-2.038.099-.67.31-1.102.653-1.326.481-.316 1.121.149 1.233.895.04.263.145.539.235.613.398.33 1.93-.97 2.54-2.156.606-1.177.232-2.356-1.297-4.093-.88-.998-1.38-1.896-1.278-2.298.154-.617 1.429-.663 2.638-.096 2.171 1.018 3.09 3.693 2.278 6.626-.559 2.015-1.796 3.712-3.635 4.982-1.473 1.018-2.215 2.079-1.767 2.526.497.497 4.212.881 8.547.885 5.631.004 9.406.728 9.515 1.825.038.39-.238.69-1.29 1.398-1.195.806-1.746 1.877-1.23 2.393.219.22.309.232 1.148.164.773-.062.939-.045 1.097.113.253.253.235.454-.088 1.007-.418.712-1.261 1.379-2.705 2.138-2.102 1.105-3.198 2.293-4.039 4.379-.55 1.364-1.043 2.308-1.755 3.36-.863 1.276-1.473 1.967-3.58 4.06-3.129 3.11-5.009 6.01-5.276 8.137-.052.414-.199.956-.326 1.205-.567 1.111-2.31 2.565-4.273 3.565-1.472.749-2.253.969-4.107 1.156-2.46.248-4.601.83-6.661 1.81-2.224 1.057-2.492 1.732-2.94 7.39-.433 5.46-.56 13.481-.336 21.113.208 7.087.488 10.595.955 11.947.277.801.279.83.079.982-.155.117-.413.141-1.033.095-1.246-.093-2.722-.378-3.189-.616-1.575-.804-1.97-2.76-2.326-11.526-.145-3.574-.366-6.26-.726-8.82-.722-5.138-1.801-9.516-2.91-11.81-.89-1.837-1.958-2.115-2.152-.56-.14 1.126.219 3.57 1.208 8.21.982 4.607 1.49 9.108 1.712 15.185.113 3.08.216 4.231.514 5.725.204 1.028.315 1.306.729 1.834.802 1.023.543 2.077-.657 2.683-.475.24-1.516.37-2.116.266zm12.52-82.504c.252-.657-4.206-4.715-5.878-5.35-.61-.233-1.263.382-1.099 1.035.169.67 2.969 2.839 4.965 3.845 1.31.66 1.887.795 2.012.47zm-11.356-4.718c.751-.388 1.3-1.132 1.428-1.939.067-.42.043-.481-.332-.835-.623-.588-1.577-.845-3.372-.908-4.153-.148-5.31 1.512-2.15 3.082 1.604.798 3.538 1.06 4.426.6z" />
</svg>
