<svg xmlns="http://www.w3.org/2000/svg" version="1.0" viewBox="0 0 128 128">
  <path d="M97.6 37.7c-.4.4-9.6 1-20.4 1.3-24 .7-25.2 1.1-37.8 13.2l-8.6 8.3H19c-10.2 0-12.1.3-13.9 1.9-4.5 4.1-1.8 8.9 7.7 13.3 7.6 3.5 15.9 3 23.1-1.5 2.8-1.7 5.1-3 5.1-2.8 0 .2-1.3 2-3 4.1a11 11 0 0 0-3 7.9c.1 4.4 1.1 6.2 5 8.9 2.8 1.9 12 2.3 15.1.7 2.6-1.4 2.5-5-.2-5.7-1.6-.4-1.7-.8-.7-1.4 2.1-1.3 2.5-1.1 3.8 2.1 1.7 4.1 5.7 6 12.8 6 4.3 0 6.6-.5 8.3-1.9 2.1-1.6 2.7-1.7 4.3-.5 2.2 1.6 5.6.2 5.6-2.2 0-.9.8-2.9 1.7-4.4l1.7-2.9 3 3.5c4.3 4.9 11.4 6.2 19.8 3.8 4-1.2 3.2-7.1-1.1-8l-4.4-1.1c-.9-.2-3.3-2.8-5.1-5.7-3.2-5-3.3-5.6-2.4-9.8 1-4.1 1.4-4.5 5.8-6.1 2.6-.9 6.2-1.7 8-1.7 2.5 0 4.1-.8 6.2-3.2 1.5-1.7 2.8-3.9 2.8-4.7 0-1.9-8.8-9.7-12.5-11.1-3-1.2-13.8-1.4-14.9-.3zm17 5.4c2.2 1.7 4.7 3.7 5.8 4.4 1.8 1.3 1.8 1.4 0 3.9-1.5 2.1-2.5 2.5-4.8 2.1-2.6-.5-7 1-13.6 4.4-.8.4-1.8 2.4-2.2 4.4a55.6 55.6 0 0 1-9.9 19.1c-2.2 2.7-3.9 5.8-3.9 7-.1 2.1-.1 2.1-2-.2-1.5-1.8-1.7-2.8-1-4.2a9 9 0 0 0 1-3.9c0-2.5-5.3-11.4-6.2-10.5-.4.3-3.1.9-6 1.3-5.3.6-5.3.6-5.6 4.3-.6 7.4 5 13.4 10.3 11 3.3-1.5 3.4-1.5 3.1.4-.4 2.7-3.7 4.4-8.5 4.4-8.1 0-8.7-.5-13.1-9.6a31 31 0 0 0-5-8.4c-1.4 0-1.2 2.1.5 5 2 3.5 1.9 3.5-2 5.9-4.3 2.5-4.4 4-.5 4.7 4.8 1 3.4 2.4-2.4 2.4-10.3 0-13.8-6.7-7.6-14.5 1.7-2.1 3-4.6 3-5.7 0-2.4-2.8-3.5-4.9-2-9.5 6.8-17.5 7.9-26.1 3.4-6.4-3.2-8-5.3-6-7.7 1.2-1.5 2.6-1.6 9.7-1 13.4 1.1 15.1.5 24.1-8.5C52.7 43.2 54.2 42.6 74 42.3c9.1-.2 18.5-.7 21-1.2s7-.9 10.1-1c4.9-.1 6.1.3 9.5 3zm-12.7 32.6c2.5 4.9 5.3 7.4 9.3 8.2 4.4.9 4 2.4-.8 3.3-5.5.9-10.6-.6-13.2-4.1a18.8 18.8 0 0 1-2.2-3.5c0-.7 4.1-7.6 4.6-7.6.2 0 1.2 1.7 2.3 3.7zm-22.5.7c1.6 3.1 1.6 7.9-.1 6.3-.3-.4-1.4-.2-2.5.4-2.6 1.4-5.3.3-6.6-2.7-2.2-4.7-1.6-6.2 2.6-6.7l4.2-.5c.3-.1 1.4 1.4 2.4 3.2z"/>
  <path d="M106 43.5c-1.4 1.7-1 4.7.9 5.3.9.3 1.1-.2.6-1.7-.5-1.5-.2-2.1.9-2.1.9 0 1.6.4 1.6 1 0 .5.5 1 1 1 1.8 0 1.1-2.9-.9-4-2.5-1.3-2.6-1.3-4.1.5z"/>
  <path fill="currentColor" d="M46.8 91c-1.8-.2-3.9-.7-5.2-1.5a7 7 0 0 1-3.1-3 7.7 7.7 0 0 1-.3-4.7 17 17 0 0 1 2.7-5.3c2.2-2.9 3-4.7 3-6-.1-1-.4-1.5-1.3-2-.5-.2-.8-.3-1.6-.3-1 0-1 .1-3.2 1.5A32 32 0 0 1 27 74.6a25 25 0 0 1-7.7 0c-2-.5-4.1-1.3-6.5-2.5-5-2.5-6.8-4.2-6.6-6a3.9 3.9 0 0 1 2.6-2.8 34 34 0 0 1 7 0c9.7.9 12.7.7 16-.9 2.3-1.1 3.7-2.3 10.1-8.5 6-5.8 7.8-7.2 10.7-8.7 3.8-2 7.1-2.5 16.7-2.8 18-.5 22.1-.8 26-1.4 4.5-.7 11.7-1.1 14-.8 1.6.3 3 1.1 5.7 3.2l4.3 3.3c2.2 1.6 2.6 2 2.4 2.6-.2.6-1.4 2.4-2.2 3.3-1 1-1.8 1.2-3.6 1-1.8-.2-3.3 0-5.5.7a37 37 0 0 0-9 4.2c-.6.9-1 1.7-1.7 4-2 6.9-5 12.6-9.4 18.5-3 3.7-4 5.7-4.3 7.7a5 5 0 0 1-.2 1.2c-.2.2-.6-.2-1.6-1.4s-1.6-2.4-1.6-3l.4-1.6c1.4-3.1 1.3-4.4-.7-8.2-1.8-3.5-3.8-6.3-4.4-6-1 .3-3.6.9-6.5 1.3-3.4.4-4.1.7-4.6 1.3-.6.9-.7 5.2-.2 7.3.3 1.3 1.5 3.5 2.2 4.4 1.9 2.1 4.5 3.1 6.7 2.5a8 8 0 0 0 2-.8c1.4-.6 2-.7 2.2-.3a6 6 0 0 1-.3 2c-.7 2-3.3 3.3-6.8 3.5-2.5.2-6.4 0-7.6-.4-2.6-.8-4.1-2.9-7.2-9.5-1.4-3-2.5-4.9-3.8-6.7-1-1.3-1.4-1.5-1.7-1-.4 1 0 2.4 1.4 5 .7 1.2 1 2 1 2.4.1.8 0 .8-.5 1.4L52 83.6a12.3 12.3 0 0 0-3.5 2.7c-.7 1.2-.2 1.6 3.2 2.4 1.2.3 2 .7 2.2 1 .4 1-3 1.5-7 1.2zm61-42.4-.2-1.2c-.5-1.8-.3-2.4.8-2.4 1 0 1.5.3 1.7 1 .2.8.7 1.1 1.3.9.8-.3.8-1.6-.2-2.9a7 7 0 0 0-3.2-1.8c-.5-.1-.6 0-1.2.5-.4.3-.9 1-1.1 1.4-.8 1.5-.5 3.5.7 4.4.6.4 1.2.4 1.3 0z"/>
  <path fill="currentColor" d="M105 87.4c-4.6-.9-7.3-2.8-9.5-6.9l-.6-1 .6-1c1.2-2.5 3.7-6.5 4-6.5.3 0 1 1.2 2.5 3.8 1.4 2.5 2.2 3.7 3.5 5 1.8 1.8 2.5 2.1 7 3.4l1.5.7c.3.3.4.4.2.8s-1.1.9-2.7 1.3c-1 .3-1.8.3-3.7.4a34 34 0 0 1-2.8 0z"/>
</svg>
