<svg xmlns="http://www.w3.org/2000/svg" version="1.0" viewBox="0 0 128 128">
  <path d="M28.4 33.8c-2.3 1.5-2.3 4.2 0 6.9 1.3 1.6 3.1 5 4 7.6l1.6 4.9-3.5 4c-7 8.3-8.2 17.5-2.8 21.8 1.4 1.1 3.1 2 3.7 2 2.1 0 4.8 5.8 3.7 7.8-1.4 2.7.9 5.6 5.6 6.9 4.5 1.2 45.2.9 53.5-.4 8.2-1.3 12.4-5.9 8.4-9.2-.7-.6-1.6-3.2-2-5.7-2-14.6-14.6-25.9-30.1-27.2-5.5-.4-6.5-.7-6-2.1.4-.9 1.1-3.7 1.7-6.4 1-4.2.9-5-.9-7.5-1.2-1.7-3.1-2.8-4.9-3-4-.3-10.5 3.7-12.8 7.9l-1.9 3.5-4.6-4.9C35.2 34.4 31 32 28.4 33.8zm8.5 6.8c2.9 2.6 6 6.3 7.1 8.3l1.8 3.6 2.6-5.7c2.6-5.9 5-8.2 9.9-9.3 3.1-.8 5.7.8 5.7 3.4 0 1-.7 4.1-1.5 6.9-1.3 4.1-2.5 5.9-5.6 8.2-2.2 1.6-4.6 3.1-5.2 3.3-.7.2-.9.7-.6 1.1.3.3 2.8-.5 5.5-1.9 7.7-3.9 16.1-3.5 25.3 1.1 9.5 4.7 14.5 11.5 15.8 21.1.3 2.7 1.2 5.6 2.1 6.5 2.1 2.5.2 4.5-5.1 5.1-2.3.3-6.5.9-9.4 1.3-2.9.3-6 .3-7 0-1.7-.7-1.7-.8.1-2.2 1.1-.8 3.2-1.4 4.8-1.4 1.5 0 2.8-.5 2.8-1 0-2.1-7-1.1-9.3 1.4-2.1 2.2-3.1 2.3-18.4 3-10.1.4-16.3.4-16.3-.2 0-1.2 2.5-2.2 5.6-2.2 1.3 0 2.4-.5 2.4-1 0-1.5-5.1-1.2-8.4.5-3.5 1.8-5.3 1-3.1-1.5 1.6-1.8 1.5-2.1-1.5-6.4-2-3-3.8-4.6-5.2-4.6-1.6 0-1.9-.5-1.6-2.5.5-2.1.2-2.5-1.3-2-4.4 1.4-1.2-9 4.7-15.5l3.6-3.9-1.6-5.5c-.9-3-2.7-6.8-4.1-8.4-2.2-2.6-2.4-4.2-.4-4.2.4 0 3 2.1 5.8 4.6z"/>
  <path fill="currentColor" d="M78.716 93.63c-.71-.152-1.567-.628-1.567-.87 0-.322 1.161-1.278 2.128-1.752 1.093-.536 2.394-.849 4.056-.976 1.456-.11 2.252-.354 2.574-.785.19-.256.198-.321.066-.595-.272-.562-.771-.749-2.113-.79-1.452-.045-3.008.238-4.433.806-1.38.55-1.86.85-2.897 1.812-1.39 1.287-2.21 1.64-4.619 1.991-4.385.638-24.322 1.39-28.079 1.06-1.519-.133-1.85-.235-1.746-.534.385-1.097 2.996-1.978 5.896-1.987a4.08 4.08 0 0 0 1.177-.23c1.115-.417 1.2-1.096.193-1.541-.424-.188-.73-.228-1.718-.224-2.066.006-3.811.422-6.113 1.455-2.586 1.16-3.874 1.26-3.874.302 0-.445.306-.995 1.083-1.947 1.292-1.581 1.218-1.966-1.018-5.288-1.566-2.326-2.355-3.328-3.37-4.276-.917-.858-1.653-1.218-2.74-1.34-1.386-.155-1.648-.63-1.328-2.409.255-1.414.23-1.92-.103-2.138-.253-.166-.326-.166-.977-.003-1.27.32-1.784.185-2.089-.543-.201-.482-.193-1.817.017-2.836.476-2.305 1.972-5.605 3.805-8.393 1.06-1.612 2.186-2.989 4.417-5.4 1.027-1.11 1.867-2.084 1.867-2.165 0-.345-1.9-6.579-2.36-7.741-1.07-2.704-2.167-4.709-3.478-6.354-.928-1.165-1.583-2.363-1.583-2.895 0-.477.29-.806.818-.925.557-.125.904.07 2.714 1.526 4.024 3.238 7.338 6.604 9.633 9.784.384.532 1.183 1.924 1.776 3.094l1.079 2.128.268-.6c1.558-3.484 3.266-7.125 3.738-7.966 1.991-3.547 4.042-5.262 7.48-6.257 2.04-.59 3.266-.61 4.516-.074.65.279 1.437 1.018 1.76 1.655.552 1.09.453 2.182-.555 6.15-1.206 4.743-2.138 6.661-4.243 8.73-1.45 1.424-4.79 3.782-6.74 4.758-.897.449-1.074.61-1.074.983 0 .454.275.551 1.046.37 1.058-.246 2.172-.683 4.22-1.654 4.084-1.937 6.663-2.64 10.36-2.827 7.422-.374 17.366 3.568 23.418 9.282 4.16 3.927 6.636 8.921 7.603 15.33.497 3.297 1.156 5.407 2.074 6.636.894 1.197 1.07 1.801.74 2.547-.418.944-1.563 1.64-3.478 2.112-.594.147-3.608.616-6.7 1.044-5.516.762-5.67.777-8.347.816-1.5.022-2.932-.003-3.18-.056z"/>
</svg>
