<svg xmlns="http://www.w3.org/2000/svg" version="1.0" viewBox="0 0 128 128">
  <path d="M35.2 1.7c-1.9.7-4.7 6.9-7.3 16l-2.4 8.2-2.7-2.9c-3.2-3.6-3.8-3.6-7.1-.8-2.3 2.1-2.5 2.9-2.3 8.3l.3 6-5.1 3c-6 3.5-6.9 6.3-3.3 9.9 1.6 1.6 4.1 2.6 7.5 3.1 3.7.5 5.2 1.1 5.2 2.2 0 3.1 9 15 19.5 25.8l10.7 11-.1 5c-.2 13.3-1.4 21.8-3.2 23.6-3 3-2.4 5.7 1.4 6.4 4.3.8 8.5-.9 9.7-4 .5-1.4 1.2-5.8 1.6-9.8.9-10.4 1.8-10.6 3.6-.8 1.1 5.9 1.1 6.2-1 7.7-2.7 1.9-2.8 4-.3 5.4 3.6 1.9 7.2 1.1 10.3-2.2 3.3-3.6 3.4-5.4.3-16.2-1.1-3.8-1.5-7.4-1.1-10.1l.7-4.1h8.2c4.5.1 9.6-.3 11.2-.7 2.9-.7 3.3-.5 5.3 3.2C96 97 97 99.5 97 100.4c0 2.7-6 13.8-9.2 17.2-1.7 1.8-2.8 4-2.6 5 .5 2.6 5.2 4.1 8.8 2.7 1.8-.7 3.2-.7 3.8-.1 1.7 1.7 8.6 1.7 11.4 0 3.2-1.9 4.3-4.3 6.2-14.2 3.1-15.9 3.1-16.4-.3-21.4l-3.2-4.5 3.8.2 3.8.2.9-7c1.4-11.2 1-15.1-2.1-19.8-4.3-6.4-10.7-9.2-20.8-9-32.6.5-48.4 1.1-51.1 1.7-2.1.5-3.3.4-4.1-.6-1.7-2-6-10-6.8-12.7-.7-2.2-.6-2.3 3.4-1.6 2.5.4 4.7.3 5.4-.4 1-.8 2.3-.4 5 1.4 6 4.1 11.5 2.7 8.8-2.3-.8-1.6-.6-2.1 1.4-3 1.4-.7 2.5-1.8 2.5-2.5s1.6-2.1 3.6-3c3.1-1.5 3.5-2.1 3-4.2-.5-1.8-.1-2.7 1.3-3.5 2.6-1.3 3.6-4.7 2-6.6-1-1.2-2.3-1.4-5.1-1-3.5.6-3.8.4-3.8-1.7C63 6.8 61.2 5 58.5 5c-1.2 0-2.6-.5-3.2-1.1-.6-.6-2.1-.9-3.4-.7-2.2.3-2.4.8-2.4 5.8-.1 5.7-3 14.4-4.6 13.4-1.5-.9-1-4 1.1-6.7 2.4-3 2.6-6.5.4-7.4-.9-.3-3.1-2.1-5-4C38 1 37.5.7 35.2 1.7zM38 6.4c0 2 .4 2.3 2.2 1.8l2.2-.5-2.3 2.9c-2.6 3.3-1.3 4.4 2.5 1.9 1.4-.9 2.8-1.4 3.1-1.2.5.6-5.5 6.7-8.3 8.3-1 .7-1.6 1.5-1.1 2 .4.4 1.3.2 1.9-.4 2-2 2.8-1.4 1.8 1.3-.8 2.2-.7 2.5 1.1 2.5 1.1 0 1.7.4 1.4 1-.3.5-1.7 1-3.1 1-1.4 0-2.3.4-1.9.9.3.5-.3 1.2-1.2 1.4-1 .3 0 .5 2.3.6 5.2.1 8.6-2.8 12-10.6 1.9-4.3 2.4-6.7 2-9.5-.6-3.8.6-5.3 1.8-2.2.5 1.2 1.3 1.4 3.2 1 2.6-.7 2.7-.6 2.1 3.3-.5 3.8.6 5.7 1.6 2.8.2-.6.8-.9 1.2-.5.4.4.2 1.4-.5 2.3-2.2 2.7-.4 2.7 2.8 0 3.1-2.6 5.2-3.2 5.2-1.5 0 .5-.3 1-.7 1-1 0-7.3 5.6-7.3 6.4 0 .3 1 .6 2.3.7 2.1.1 2.1.1.2.7-3.4 1.1-6.8 4-6 5.1.4.7-.3 1.1-1.7 1.1-1.3 0-3.4.3-4.7.7l-2.4.6 3.4 2.8c4.8 3.9 2.9 4.8-2.3 1-3.9-2.9-10.7-4.4-9.3-2.1.4.6-.5.7-2.4.4-1.7-.4-4.7-.3-6.7 0-3.2.7-3.5.9-2.2 2.4.8.9 2.9 4.7 4.7 8.4 4.2 8.8 7.2 11.2 12.6 10.2 3.4-.6 28.7-1.5 50.5-1.7 8.3 0 14.9 2.7 17.8 7.6 2.5 3.9 2.8 7.3 1.5 17.2-.9 6.7-1 6.9-2.3 4.3l-1.3-2.7-1.8 2.4c-2.5 3.1-2.4 5.3.6 9.7 2.4 3.6 2.5 4.1 1.5 10-3.3 19.5-4.7 22.6-10.7 22.6h-3.6l2.6-2.2c3.4-2.7 4.4-5.8 5.3-15.2.5-5.4.4-7.5-.4-7-.6.3-1.3 2-1.7 3.6-.4 1.7-2.2 5.3-4.1 8.1-1.9 2.8-3.7 6.1-4 7.4-.6 2.4-4.1 4.5-7.4 4.5-2.6 0-2.5-.5.5-3.8 3.5-3.8 9.5-15.5 9.5-18.6 0-1.5-1.4-5.1-3.1-8.2-2.4-4.1-3.6-5.4-4.8-4.9-5 2-11.4 2.7-17.7 2-3.8-.4-7.1-.7-7.3-.6-.3 0-.6 3-.9 6.6-.3 4.8.2 8.5 1.7 13.4 1.2 3.8 2.1 7.6 2.1 8.5 0 2.5-3.7 5.6-6.8 5.6h-2.7l2.4-1.9c2.1-1.6 2.3-2.4 1.8-6.7-.3-2.7-1.3-7-2.2-9.4-.9-2.5-2-5.9-2.4-7.5-.5-1.9-1-2.5-1.3-1.5-.3.8-1.1 3.1-1.8 5s-1.8 7.5-2.5 12.3c-1.2 9.2-2.1 10.7-6.4 10.7-2.3 0-2.3-.1-.7-1.9 2-2.2 3.4-11.6 3.8-24.8.2-7.7 0-8.7-1.7-9.7-1.1-.6-6.4-5.7-11.8-11.2C27.7 66 21 56.5 21 52.5c0-2-.6-2.3-6.2-2.9-5.6-.7-8.6-2.3-8.8-4.8 0-.3 2.4-2 5.4-3.7 6.3-3.5 7.2-4.6 5.5-6.7-1.6-2-.2-3.1 2.1-1.6 2.8 1.7 2.5 0-.5-2.8-1.4-1.3-2.5-3-2.5-3.9 0-1 1-.4 2.9 1.7 3.6 3.9 4.9 4.2 2.3.4-3-4.3-3.4-5.2-2.3-5.2.6 0 1.8 1.4 2.6 3.1 1.2 2.1 2.2 2.9 3.7 2.7 2.5-.4 3-1.3 5.7-10.3C34.7 5.9 38 .3 38 6.4zm64.5 111.2c-2.3 3.6-3 2.3-.9-1.8 1-1.8 1.9-2.7 2.2-2 .2.7-.4 2.4-1.3 3.8z" />
  <path d="M28.8 29.7c-1 .2-1.8.9-1.8 1.5s1 .8 2.3.4c1.2-.3 2.8-.6 3.5-.6.7 0 1-.5.7-1-.6-1-1.7-1.1-4.7-.3zM102 89.6c0 2.5 3.5 6.4 5.7 6.4 1.3 0 1-.7-1.3-3.3-1.6-1.7-3.2-3.6-3.6-4.2-.5-.5-.8 0-.8 1.1z" />
  <path fill="currentColor" d="M46.801 123.903c-.671-.11-.637-.247.374-1.457 1.08-1.291 1.657-2.798 2.32-6.052 1.09-5.35 1.854-15.416 1.745-23.012-.064-4.445-.15-4.742-1.705-5.842-.436-.31-1.404-1.105-2.15-1.77-1.819-1.619-9.493-9.233-11.663-11.572-7.57-8.159-12.894-15.52-14.28-19.745-.163-.497-.326-1.33-.38-1.94-.18-2.055-.527-2.245-5.202-2.846-1.416-.182-3.021-.426-3.567-.543-2.226-.476-4.077-1.25-5.064-2.119-.552-.486-1.206-1.679-1.147-2.094.067-.476 2.226-1.959 5.99-4.115 4.669-2.675 5.986-3.912 5.558-5.22-.074-.224-.385-.778-.692-1.233-.48-.713-.558-.902-.562-1.375-.004-.498.025-.562.317-.704.444-.215 1.21-.027 2.187.536.875.505 1.659.794 1.9.702.569-.219-.19-1.495-1.936-3.257-1.874-1.89-2.748-3.186-2.748-4.072 0-.935.722-.467 3.072 1.994 2.236 2.342 3.433 3.225 3.433 2.534 0-.373-.505-1.255-1.984-3.461-2.28-3.404-2.562-4.048-1.8-4.122.626-.06 1.406.838 2.752 3.167.659 1.139 1.438 2.014 2.063 2.317.642.31 1.724.308 2.565-.007 1.589-.594 2.271-1.958 4.298-8.585 2.715-8.882 4.739-13.992 6.144-15.516.843-.915 1.16-.504 1.29 1.668.046.795.137 1.579.201 1.742.241.616.758.665 2.55.245.668-.156 1.267-.267 1.332-.246.064.022-.415.708-1.065 1.526-1.346 1.69-1.863 2.459-2.09 3.103-.24.68-.206 1.048.118 1.26.529.347 1.559.017 3.389-1.086 1.804-1.087 3.28-1.658 3.28-1.269 0 .927-5.024 5.916-7.994 7.937-1.004.684-1.627 1.406-1.577 1.827.019.152.17.378.338.502.279.207.35.215.823.088.285-.076.734-.322.998-.546 1.198-1.016 1.386-1.136 1.728-1.102.315.03.338.064.369.535.023.352-.1.921-.413 1.907-.246.773-.447 1.55-.447 1.728 0 .47.372.664 1.399.73.98.064 1.43.202 1.582.487.344.643-.98 1.26-3.036 1.417-.667.05-1.404.172-1.638.27l-.426.18.076.508c.069.458.046.541-.226.825-.166.173-.545.395-.841.494-.296.098-.52.233-.499.3.073.217.658.307 2.397.37 1.461.053 1.868.03 2.811-.165 3.856-.797 6.692-3.857 9.516-10.27 1.329-3.016 1.912-4.878 2.127-6.794.108-.956.097-1.41-.067-2.908-.201-1.838-.174-2.699.107-3.37.311-.746.858-.35 1.56 1.132.429.901.773 1.195 1.527 1.303.403.058.92-.016 2.841-.406.82-.167 1.146-.036 1.247.503.04.213-.037 1.206-.173 2.234-.384 2.898-.195 4.856.48 4.981.292.054.68-.357.958-1.013.419-.986.86-1.291 1.248-.863.41.452.118 1.38-.863 2.754-1.589 2.226.151 2.041 3.085-.327 3.38-2.727 5.237-3.333 5.237-1.708 0 .577-.22.904-.666.994-.77.154-3.083 1.968-5.462 4.285-1.583 1.542-1.966 2.07-1.696 2.34.247.246 1.362.493 2.646.585l1.154.083-1.198.418c-.658.23-1.551.594-1.984.81-1.85.924-3.66 2.386-4.154 3.356-.228.447-.233.578-.046 1.33.123.496-.277.656-1.908.767a35.96 35.96 0 0 0-2.176.21c-.806.118-4.42.966-4.656 1.09-.085.046.605.68 1.81 1.668 3.093 2.536 4.224 3.695 4.224 4.33 0 .19-.06.21-.529.164-.77-.074-1.92-.673-4.101-2.136-1.061-.712-2.44-1.537-3.064-1.833-2.945-1.396-6.063-1.996-6.703-1.29-.175.194-.182.265-.058.574.265.66.248.68-.58.717-.417.018-1.242-.044-1.833-.138-1.24-.198-4.176-.227-5.678-.057-1.151.13-2.93.578-3.414.86-.427.248-.478.632-.146 1.097 1.127 1.58 1.489 2.136 2.24 3.442.472.818 1.503 2.778 2.292 4.354 2.909 5.812 3.904 7.422 5.694 9.21 1.2 1.198 1.876 1.647 3.171 2.106.91.322 2.716.392 4.33.168 4.377-.61 21.89-1.273 42.888-1.627 9.7-.163 11.424-.09 14.663.632 7.002 1.559 11.472 5.63 12.753 11.616.168.785.2 1.432.193 3.97-.007 2.566-.054 3.42-.308 5.567-.699 5.918-1.178 8.655-1.515 8.655-.195 0-.692-.828-1.483-2.47-.46-.953-.878-1.718-.931-1.699-.124.044-2.084 2.652-2.643 3.517-1.504 2.326-1.204 4.538 1.09 8.063 1.254 1.926 1.782 2.839 2.085 3.603.265.668.287.853.278 2.27-.01 1.634-.3 3.58-1.527 10.254-1.868 10.16-3.34 14.34-5.595 15.887-1.214.832-2.45 1.062-5.445 1.014l-2.001-.033 1.768-1.488c1.687-1.42 2.56-2.342 3.221-3.404 1.124-1.805 1.91-4.92 2.478-9.826.523-4.52.698-8.43.414-9.26-.4-1.171-1.424.143-2.23 2.863-.8 2.704-1.938 4.955-4.57 9.043-1.826 2.835-3.06 5.11-3.53 6.51-.362 1.07-.698 1.654-1.313 2.28-1.523 1.547-3.743 2.458-6.073 2.493-1.46.022-1.927-.134-1.831-.612.087-.435.521-1.04 1.71-2.386 2.493-2.818 4.672-6.242 7.064-11.096 2.642-5.361 3.295-7.577 2.818-9.563-.422-1.758-1.967-5.35-3.16-7.346-1.937-3.241-3.082-4.535-4.016-4.535-.194 0-.843.178-1.442.395-.598.217-1.74.563-2.537.768-4.796 1.232-9.328 1.435-16.246.727-1.789-.183-3.748-.348-4.354-.367l-1.1-.035-.139.552c-.17.683-.527 3.914-.7 6.339-.288 4.073.172 7.872 1.506 12.424 1.606 5.482 2.251 8.14 2.251 9.282 0 2.136-2.985 4.876-5.89 5.406-.36.066-1.268.12-2.017.12H60.63l1.645-1.313c1.78-1.421 2.126-1.795 2.45-2.651.531-1.396.067-5.792-1.107-10.48-.19-.757-.886-2.99-1.547-4.96-.662-1.971-1.431-4.377-1.71-5.347-.678-2.363-.972-2.952-1.352-2.717-.146.09-2.044 5.308-2.412 6.63-.656 2.357-1.51 6.874-2.247 11.883-1.245 8.466-2.026 9.764-5.95 9.889-.697.022-1.416.016-1.598-.015zm61.402-27.928c.69-.263.142-1.203-2.254-3.861a113.645 113.645 0 0 1-2.28-2.619c-.57-.682-1.108-1.24-1.195-1.24-.358 0-.523.512-.47 1.462.04.743.12 1.059.436 1.735.924 1.976 2.819 3.87 4.427 4.426.658.227.94.248 1.336.097zM29.625 31.58a34.472 34.472 0 0 1 2.32-.427c.742-.11 1.424-.261 1.515-.337.393-.326.057-1.146-.61-1.49-.7-.363-3.667.012-4.847.612-.898.457-1.327 1.352-.824 1.72.298.218 1.329.185 2.446-.078z" />
</svg>
