<svg xmlns="http://www.w3.org/2000/svg" version="1.0" viewBox="0 0 128 128">
    <path d="M81 19.5c0 .4.7 2 1.6 3.6 1.7 3.4 1.3 5.9-1.1 5.9-1.4 0-1.4.2 0 2.4 1.6 2.4 1 3.7-2.3 4.7-.9.3-1.4 2.5-1.5 6.5l-.2 6.1 3-.8c4.8-1.4 6.2-1.1 10 2.2 3.9 3.4 4.7 5.6 1.4 3.9-1.7-1-2.1-.8-2.6 1-.5 1.7-1 2-2.7 1.4-1.1-.3-6.4-.8-11.6-1.1-5.2-.2-17.5-.8-27.3-1.2-19.7-1-23.5-.5-26.8 3.7-2.1 2.7-2.3 7.9-.5 12.3.4 1-.7 3.5-2.9 6.7-3.2 4.7-3.5 5.7-3.5 12.4 0 6 .4 8 2.5 11.3 1.3 2.2 2.5 5 2.5 6.2 0 1.5.6 2.3 1.8 2.3 3.4 0 4.1-1.3 3.2-5.5-.5-2.2-.9-5.4-.9-7 0-2.5.5-1.8 3.4 4.2 3.1 6.6 3.7 7.3 6.3 7.3h2.9l-1.9-5.7c-2.4-6.9-1.8-11.8 1.8-18.1 1.9-3.2 3-4.2 4.2-3.7 1 .3 3.6 1.1 5.9 1.8 3.7 1 4.6 1.8 8.2 8.1 4.7 8.3 6.1 11.8 6.1 15.2 0 2 .5 2.4 3.1 2.4h3.2l-.5-7.9c-.3-5.2-1.2-9.2-2.6-12.2-2.8-5.7-2.1-6.1 1.6-.7 1.6 2.4 4.2 5.4 5.7 6.8 2.9 2.7 6.5 9 6.5 11.5 0 1.6 4.8 4 5.9 2.9.3-.3.6-3 .6-5.9 0-4-.6-6.1-2.2-8.4-1.4-1.8-2.3-4.5-2.3-6.6 0-3 .8-4.3 5.1-8.3 8.6-8 10.4-8.4 19.6-5.2 3.2 1.1 6.8 2 8.1 2 2.3 0 2.4-.3 1.9-3.7-.4-2.1-2-5.7-3.7-8.1l-3.1-4.3 2.6-3c2.3-2.8 3.2-4.9 2.1-4.9-.3 0-2.1 1-4.2 2.2-3.6 2.1-3.7 2.1-5 .3-2-2.7-1.8-3.8 1.4-6.6l2.7-2.4-4.5-.5-4.5-.5-.3-4.9c-.2-3.5.2-5.3 1.5-6.8 1.7-1.9 1.7-2 0-2.9-1.2-.7-1.7-2.3-1.7-5.6 0-3.9-.2-4.4-1.7-3.8-3.8 1.6-7.2 1.7-9.5.1-2.2-1.6-4.8-2.1-4.8-1.1zm13 7.9c0 1.4.5 2.8 1.1 3.2.8.4.8.9 0 1.7-.6.6-1.1 3.7-1.1 6.8 0 4.8.4 6.1 2.3 7.6 1.5 1.2 2.1 2.6 1.9 4.6-.2 2 .5 3.6 2.7 5.8 1.7 1.7 3.1 3.2 3.1 3.5 0 .2 1.4 2.3 3 4.6 1.7 2.2 3 4.9 3 5.9 0 1.7-.3 1.6-5.5-.2-10-3.5-13.3-2.5-23.2 6.9-4.9 4.5-5.3 5.2-5.3 9.6 0 3.1.7 5.6 2 7.4 1.1 1.5 2.3 4.6 2.6 6.7l.5 4-2.1-4.4c-1.1-2.5-4-6.6-6.3-9.1-2.3-2.6-5.5-6.3-7-8.4-3-3.8-5.2-4.3-7-1.5-.7 1.2-.4 2.8 1.1 6 1.2 2.4 2.4 6.4 2.7 8.9l.7 4.5-2.5-5.2c-1.4-2.8-4.1-7.5-6-10.5-3.2-5-3.8-5.4-10.2-7.2l-6.8-1.9-2.9 3.3c-4.4 5.4-6.3 12.3-4.9 18.2.6 2.7 1.1 5.5 1.1 6.1-.1 2.2-2.9-3.8-3-6.1 0-1.3-.7-3.7-1.6-5.3-3.2-6.4-7.8-.5-5.7 7.4 1.1 4 1 5.7-.3 4.4-1.2-1.1-2.7-8.4-3.1-14.9-.4-6.3-.3-6.9 3.1-11.8 4-5.9 4-5.8 2.4-11.1-1.5-5.2 0-8.5 4.4-9.6 3.5-.9 54.3 1 58.9 2.2 1.7.4 2.9.2 3.8-.9.7-.8 1.9-1.2 2.7-.9 1.8.7 4.4-1.4 4.4-3.7 0-1-2-3.6-4.5-5.9-3.5-3.2-5.2-4.1-8-4.1-3 0-3.5-.3-3.5-2.3 0-1.3 1.1-3.4 2.6-4.7 1.7-1.7 2.3-3.1 1.9-4.7-.3-1.2-.1-2.5.5-2.8.5-.3 1-1.5 1-2.6 0-1.5.7-1.9 3.5-1.9 3 0 3.5.3 3.5 2.4z"/>
    <path fill="currentColor" d="M80.914 105.103c0-.07-.632-1.416-1.405-2.992-2.1-4.282-3.658-6.581-7.111-10.503-2.748-3.12-4.877-5.674-6.783-8.138-.95-1.227-2.176-2.36-3.03-2.802-1.25-.643-2.358-.432-3.315.632-.752.836-.89 1.203-.885 2.342.005 1.165.179 1.725 1.395 4.49 1.003 2.282 1.578 3.914 2.07 5.88.38 1.517 1.212 6.45 1.146 6.795-.02.1-.177-.135-.351-.526-2.62-5.85-8.36-15.752-10.485-18.088-1.197-1.315-2.584-2.091-5.185-2.9-1.542-.48-9.039-2.58-9.21-2.58-.125 0-2.435 2.571-3.325 3.701-3.345 4.247-5.201 9.644-4.994 14.522.052 1.238.163 2.045.51 3.71.869 4.181 1.119 5.903.878 6.052-.193.12-.67-.54-1.258-1.741-.813-1.658-1.33-3.279-1.528-4.794-.282-2.152-.63-3.294-1.555-5.113-1.21-2.377-2.587-3.335-3.89-2.704-1.346.651-2.281 2.709-2.434 5.354-.086 1.494.09 2.937.624 5.147.904 3.73.798 4.962-.328 3.828-1.454-1.463-3.03-9.984-3.236-17.487-.069-2.513.041-3.445.561-4.744.41-1.025.76-1.604 3.035-5.022 3.367-5.06 3.468-5.456 2.359-9.33-.674-2.354-.866-3.39-.867-4.697-.003-1.9.445-3.157 1.512-4.243.71-.721 1.706-1.307 2.797-1.642 1.138-.35 4.037-.47 9.493-.39 19.915.29 45.812 1.541 49.955 2.413 1.7.357 2.793.142 3.637-.718.778-.792 1.481-1.142 2.224-1.107 1.976.094 2.226.078 2.76-.186 1.105-.543 2.146-1.945 2.317-3.117.115-.784-.345-1.7-1.69-3.37-1.41-1.75-4.214-4.36-5.916-5.507-1.75-1.18-2.56-1.429-5.055-1.556-1.02-.053-2.036-.148-2.257-.213-.587-.17-.93-.637-1.025-1.391-.201-1.612.638-3.383 2.54-5.358 1.014-1.054 1.575-1.858 1.857-2.662.129-.366.145-.688.077-1.502-.198-2.37-.112-2.848.618-3.463.408-.343.752-1.3.867-2.413.109-1.046.286-1.385.85-1.622.561-.236 2.472-.358 3.867-.246 1.819.145 2.086.403 2.208 2.124.14 1.978.503 2.98 1.257 3.48.27.179.435.372.435.51 0 .29-.245.758-.535 1.02-.28.254-.608 1.28-.857 2.678-.149.837-.184 1.727-.183 4.534.002 3.265.018 3.547.243 4.355.381 1.365.613 1.692 2.334 3.294.505.47.823.886 1.083 1.415.367.744.37.758.433 2.717.059 1.778.092 2.033.343 2.637.43 1.034 1.1 1.934 2.594 3.478 2.084 2.155 2.6 2.75 2.906 3.352.153.303.925 1.503 1.715 2.666l2.121 3.123c.72 1.06 1.64 2.831 1.928 3.711.21.642.221 1.604.023 1.875-.27.368-1.211.167-4.723-1.012-4.252-1.427-5.565-1.764-7.713-1.983-2.956-.3-5.73.494-8.712 2.496-1.963 1.317-3.754 2.827-7.567 6.376-4.63 4.31-5.075 5.111-5.074 9.154.001 3.482.559 5.653 1.995 7.77.849 1.251 1.662 3.11 2.201 5.03.266.945.88 5.162.768 5.273-.03.03-.054-.003-.054-.072z"/>
</svg>
