<svg xmlns="http://www.w3.org/2000/svg" version="1.0" viewBox="0 0 128 128">
  <path d="M60.5 26.1c-2.2.6-8 1.4-13 1.8-8 .7-10 1.4-18 5.5C20.1 38.3 15 42.9 15 46.5c0 2.4-6.1 13.1-9.1 15.8C4 64.1 2 68 2 70c0 .5.7 1.6 1.6 2.4 1.4 1.4 1.8 1.4 4.5 0 1.6-.8 3.5-2.7 4.2-4.2.6-1.5 1.9-3.8 2.9-5.1l1.8-2.4v4.1c0 3.1-.5 4.5-2.2 5.6-1.4 1-2.4 3.1-2.9 6.3-.4 2.6-1.3 7.9-2 11.6l-1.3 6.8 2.9 2.5c5.6 4.8 13.7 1.5 9-3.6-1.6-1.8-1.6-2.2-.1-6.8 1.3-3.7 2.7-5.7 6-8 3.9-2.8 4.3-2.9 3.9-1.2-.3 1.2.1 2.8 1 3.8.8.9 2.2 3.3 3.1 5.2.8 1.9 3.1 5.3 5.1 7.5 3.3 3.6 4 3.9 8.8 4 7 0 7.4-2.1 1.3-8.3-5.4-5.4-6.2-7.4-4.7-11 1.1-2.5 1.6-2.7 8.4-2.9 4-.1 8.2-.5 9.4-.8 1.8-.4 2.5.3 4.7 5.1 1.5 3.2 2.6 7.5 2.6 9.9 0 7.3 1.6 10.3 6.2 11.6 4.7 1.2 8.8.5 8.8-1.6 0-.7.8-1.6 1.8-1.9 3.9-1.3 6.5-5.3 6.4-9.8-.1-2.3-.5-5-.8-6-.7-2.4 2.1-2.4 5.3.1 1.3 1.1 4.5 2.3 7.1 2.7 2.6.4 5.6 1.3 6.7 2 2.9 2.1 6.9 1.7 9.2-.8 3.2-3.7 3.4-4.4 1.6-8.4-.9-2.2-1.9-6.2-2.2-8.9-.5-4.4-.9-5-2.8-4.8-1.8.2-2.3-.4-2.9-3.1-.6-3.3-1.2-11.5-1.3-16.8-.1-2.9-4.5-8.8-6.6-8.8-.8 0-1.8.8-2.4 1.7-.8 1.5-1.5 1.2-5.6-2.6-7.1-6.6-13.5-9.1-24.6-9.6-5.2-.2-11.2.1-13.4.6zm26.9 4.8c2.3 1 7 4.3 10.5 7.4 6.6 5.7 8.1 6.2 8.1 2.5 0-2 .1-2.1 2-.3 1.1 1 2 3.1 2 4.9 0 11.3 1.9 21.8 4.1 23.2.6.3 1.7 0 2.6-.8 1.4-1.2 1.6-1 1 1.7-.6 3.2 1.1 10.6 2.6 11.6.6.4 0 1.7-1.2 3-2 2.1-2.4 2.2-5.4 1-1.7-.7-5-1.7-7.2-2.2-2.2-.5-5.6-1.8-7.5-2.8-1.9-1-5.2-2.2-7.4-2.5-3.5-.7-3.8-.6-3.1 1.1.4 1 .9 4.6 1.2 8 .6 6.1.5 6.2-2.8 8.2-3.6 2.2-4.9 2-3-.3.7-.8 1-2 .7-2.5-.4-.5-.2-1.2.4-1.6 2-1.2 1-5.3-2.2-9.3-1.8-2.3-3.6-4.1-3.9-4.1-.4-.1-.9 3-1.3 6.8-.7 7.3.8 12.5 4 13.8 2.2.8 1.7 2.3-.8 2.3-2.7 0-4.3-1-5.1-3-.4-1.1-.6-1-.7.5-.3 4-1.9-1.6-2-7 0-3.2-1.1-7.3-3-11.5-3.3-7.3-2.3-7-15.7-5.6-5.1.6-7.3.5-7.3-.3 0-2.3-1.6-.9-4.2 3.7l-2.7 4.8 2.4 4.2c1.3 2.3 3.9 5.6 5.7 7.3l3.3 3.1-3.7-.5c-4.5-.7-7.7-3.9-11.8-12-2.4-4.6-2.7-6.2-2-8.3 1.6-4.1 1.2-4.5-2.7-2.5-8.4 4.3-11.9 7.7-13.7 13.1-1.5 4.7-1.5 5.4-.1 8.2.8 1.7 1.5 3.2 1.5 3.3 0 .1-1.1 0-2.5-.3-1.6-.3-2.5-1.1-2.5-2.2 0-1-.5-2-1-2.2-.7-.2-.7-2 .1-5.3.6-2.8 1.3-6.8 1.6-9 .3-2.3 1.5-5.1 2.9-6.6 2.3-2.4 2.4-3 1.8-9.8-.4-3.9-1-7.4-1.4-7.6-.8-.5-6.9 8.5-8.2 12-.5 1.1-1.7 2.6-2.8 3.3-3.6 2.2-2.3-.9 3.5-8.7 3.2-4.4 6.2-9.7 7.1-12.7 1.8-6.2 2.7-7.1 13.2-12.3 6.7-3.4 9.6-4.2 16-4.7 4.2-.4 10-1.3 12.7-2 6.6-1.8 22.3-1 27.9 1.5zm-4.4 56c0 1-.7 2.6-1.5 3.7-1.3 1.8-1.4 1.5-1.5-3 0-4.2.2-4.7 1.5-3.6.8.7 1.5 2 1.5 2.9z"/>
  <path d="M92.5 43.9c-1.1 3.5 2.2 12.7 4 10.9.2-.2-.2-2.2-1-4.3-1.7-5.1-.5-6.6 3.2-3.9 4.6 3.4 5.3 3.6 5.3 2 0-1.8-4.6-5.2-8.2-6.1-2.1-.5-2.7-.2-3.3 1.4zM110 74.5c-2.6 2.7-2.1 4.6.6 2.4 1.5-1.2 1.6-1.1 1 .9-.5 1.3-.3 2.2.3 2.2 1.5 0 2.5-4.5 1.4-6.5-.8-1.3-1.2-1.2-3.3 1z"/>
  <path fill="currentColor" d="M79.197 99.789c-1.486-.296-2.66-1.196-3.28-2.517-.435-.923-.467-.972-.63-.972-.159 0-.236.296-.41 1.564-.124.898-.164.979-.393.79-.572-.476-1.273-4.42-1.427-8.028-.166-3.919-.994-7.074-3.135-11.95-1.447-3.295-1.88-4.092-2.645-4.869-1.055-1.072-1.457-1.186-4.15-1.179-1.58.005-2.934.087-4.91.299l-4.856.52c-1.17.125-2.865.235-3.765.246-1.442.017-1.689-.007-2.073-.2-.401-.2-.442-.261-.498-.75-.115-1-.704-1.014-1.582-.037-.91 1.01-2.053 2.864-4.674 7.577l-.742 1.332 1.23 2.16c2.792 4.898 4.753 7.421 8.376 10.775.905.837 1.635 1.532 1.622 1.543-.074.064-3.975-.542-4.622-.719-3.312-.906-6.029-3.567-9.038-8.851-1.286-2.258-3.027-5.818-3.436-7.028-.322-.95-.37-1.232-.371-2.182-.002-1.033.028-1.18.564-2.739 1.16-3.372.74-3.602-3.089-1.69-5.894 2.941-9.587 5.76-11.731 8.951-1.49 2.217-3.076 6.814-3.09 8.954-.008 1.167.11 1.527 1.413 4.326.563 1.21 1.023 2.228 1.023 2.265 0 .255-2.738-.243-3.57-.65-.816-.4-1.119-.84-1.24-1.805-.125-1-.515-1.863-.958-2.125-.784-.463-.768-1.428.095-5.557a174.747 174.747 0 0 0 1.462-8.109c.302-1.934.773-3.519 1.437-4.84.54-1.075.91-1.604 1.921-2.753 1.388-1.576 1.726-2.487 1.726-4.658 0-3.042-.8-9.772-1.392-11.724-.28-.919-.507-.932-1.338-.077-1.904 1.958-5.818 7.982-7.038 10.83-.52 1.218-1.044 1.984-2.011 2.944-1.226 1.216-2.712 1.895-2.894 1.32-.212-.666 1.559-3.672 4.699-7.977 3.232-4.43 5.845-8.766 7.167-11.894.267-.63.686-1.795.932-2.589.93-3.004 1.55-4.185 2.904-5.547 1.523-1.53 3.648-2.812 9.556-5.763 7.087-3.54 9.449-4.279 15.55-4.868 4.952-.479 10.105-1.257 13.313-2.01 3.447-.81 5.358-.989 10.53-.986 3.85.001 5.607.09 8.675.436 3.404.384 6.875 1.12 8.532 1.81 2.53 1.053 6.234 3.608 10.678 7.364 4.576 3.868 6.008 4.878 7.13 5.029.927.124 1.202-.375 1.312-2.389.041-.765.106-1.422.144-1.46.163-.163.605.146 1.546 1.08.753.75 1.089 1.178 1.34 1.71.742 1.577.904 2.506.907 5.214.006 5.874.942 13.563 2.138 17.577.458 1.538 1.233 3.166 1.691 3.551.648.545 1.724.313 2.938-.634.872-.68 1.077-.775 1.168-.54.04.106-.042.87-.182 1.7-.21 1.239-.243 1.736-.19 2.788.188 3.733 1.364 7.966 2.56 9.21.34.356.378.45.32.807-.036.221-.227.676-.425 1.01-.445.754-2.185 2.53-2.721 2.78-.597.277-1.43.231-2.44-.134-3.909-1.413-4.722-1.666-9.165-2.847-1.845-.49-3.904-1.278-6.439-2.46-3.375-1.576-5.068-2.14-8.008-2.672-3.11-.562-3.402-.448-2.855 1.106.469 1.335.88 4.071 1.32 8.774.48 5.141.319 5.582-2.725 7.415-2.102 1.267-3.644 1.863-3.87 1.496-.111-.178.179-.772.693-1.42.852-1.073 1.128-2.014.825-2.808-.255-.668-.154-.962.553-1.61.478-.438.63-.664.77-1.146.424-1.458-.214-3.733-1.735-6.183-1.273-2.051-4.842-6.122-5.291-6.035-.104.02-.25.16-.322.313-.196.409-.64 2.933-.92 5.231-.326 2.68-.351 6.55-.054 8.345.607 3.668 1.75 5.66 3.885 6.762 1.416.731 1.719 1.21 1.097 1.733-.591.497-1.952.634-3.412.344zm33.434-20.094c.73-.694 1.25-2.672 1.15-4.372-.097-1.667-.863-2.93-1.635-2.696-.78.237-2.979 2.502-3.562 3.669-.35.7-.427 1.263-.204 1.486.346.346 1.16.02 2.51-1.01.437-.332.832-.605.877-.605.152 0 .085.513-.19 1.463-.15.517-.273 1.186-.273 1.485 0 .974.625 1.248 1.327.58zm-16.27-24.701c.422-.226.244-1.336-.655-4.089-.904-2.765-1.107-4.317-.66-5.05.602-.987 1.592-.646 4.8 1.655 3.455 2.477 4.214 2.664 4.183 1.028-.041-2.169-6.401-6.303-9.704-6.307-1.07-.002-1.78.854-2.027 2.442-.408 2.626 1.15 8.155 2.782 9.872.505.53.882.663 1.282.449z"/>
</svg>
