<svg xmlns="http://www.w3.org/2000/svg" version="1.0" viewBox="0 0 128 128">
  <path d="M83.5 15.9c-3.1.5-4.1 1.1-4.3 2.8-.3 2.3 3 5.3 6 5.3 1.1 0 2.3 1.1 2.9 2.6 1.3 3.6.5 4-2.6 1.6-3.3-2.6-5.1-2-6.7 2.4L77.6 34l-7.1.1c-3.8 0-15.3.3-25.4.5-17 .4-18.7.6-23.2 2.9-6.1 3.1-7.7 5.6-9.1 13.9-.9 5.5-.8 7.9.5 13.5 2.4 9.9 2.2 14.3-.8 17.9-1.5 1.8-2.5 4.2-2.5 6 0 1.7-.7 5.7-1.5 8.8-1.2 4.7-1.3 6.5-.3 9.3 1.8 5.2 2.7 6.1 6.3 6.1 4.6 0 6.5-.9 6.5-3 0-1.1 1-2 3-2.3 2.3-.5 3-1.2 3-3 0-1.3-.9-3.2-2-4.2-3.1-2.8-2.6-7.9 1.2-12.7 7.6-9.3 6.9-8.9 11.9-7.1 4.3 1.5 15.1 1.4 25-.3 4.1-.7 3.8-1.6 4.2 14.3.1 5.6.7 10.6 1.2 11.1.6.5 2.9 1.4 5.3 2.1 3.7 1 4.7 1 6.7-.3 3.5-2.3 4-5.1 1.5-9.3-1.6-2.8-2-4.7-1.6-8.7.3-2.8.5-5.6.5-6.3.1-.6 1.7-1.7 3.6-2.3 3.3-1.1 9.5-8.2 9.5-10.9 0-.6 1.3-1.1 2.9-1.1 1.7 0 4.2-1 5.7-2.4 2.4-2 2.8-3.2 3.1-8.2.1-3.2.9-7.2 1.7-8.9.8-1.6 1.7-4.2 2-5.6.4-1.7 1.6-3.1 3.6-3.9 3.7-1.5 6.4-6.3 5.6-9.6-.5-1.7-.2-2.4.8-2.4 1.7 0 2.8-2.4 2-4.4-.6-1.5-12.2-5.6-15.9-5.6-1.2 0-3 .6-4 1.4-1.6 1.2-2.1 1-3.9-1-2.3-2.6-7.7-3.6-14.1-2.5zm12.1 4.2c.8.6 1.7 2.9 2 5.1.8 4.6 2.2 4.5 3.8-.2 1.4-4.3 3.5-4.7 11.6-2.3 7.3 2.1 7.9 3.7 1.1 2.8-4.8-.6-5-.6-6.5 2.4-1.7 3.1-1.2 6.1.9 6.1.7 0 2.4-1 3.9-2.1 3.1-2.5 4.1-2 3.2 1.6-.4 1.6-2 3.1-4.3 4.3-3 1.4-4 2.6-5 6.1-.7 2.4-1.8 5-2.4 5.8-.7.8-1.2 3.7-1.1 6.6.1 5.5-1.8 9.7-4.3 9.7-1.2 0-1-.5.5-2 1.1-1.1 2-3 1.9-4.3-.1-2-.2-1.9-1.4.8-.8 1.6-1.4 2.4-1.5 1.7-.1-2.6-1.8-1-5.4 5-6.1 10.5-8.1 12.1-14.6 12-3.7-.1-3.8 0-4.4 4.5-.3 2.5-.6 6.9-.6 9.6 0 4.4.5 5.6 3.2 8.4 3.8 4 3.1 5.1-1.9 3.2l-3.8-1.5-.3-8.9c-.1-5-.3-11-.5-13.4l-.2-4.3-6 .6c-17.6 1.9-20.3 1.9-25.6.1l-5.3-1.7-2.6 3C19.6 91 16.5 94.9 15.2 97.8c-1.7 3.5-1.8 3.3 2.6 10 1.4 2.1 1.3 2.2-2.3 2.2-2.9 0-3.6-.3-3.3-1.8.2-.9-.2-2.2-.9-2.7-.9-.8-.9-2.1-.2-5.5.6-2.5 1.3-6.5 1.6-8.9.3-2.4 1.6-6 3-8 2.3-3.3 2.5-4.3 1.9-10.7-.3-3.9-1.1-8.4-1.7-10-1.2-3.2-.5-13.1 1.2-16.8.6-1.2 2.9-3.5 5.2-4.9 3.7-2.4 5.2-2.7 14.2-2.9 5.5-.1 11.8-.2 14-.2 2.2.1 10.1-.2 17.5-.6 9-.5 13.7-.4 14.1.3.4.5 1.5.7 2.5.3 1.8-.7 1.8-.9-.3-2.3-1.3-.9-2.3-2.6-2.3-3.9v-2.3l3.6 2.4c3 2 4 2.3 5.1 1.3 3.1-2.5-1-11.8-5.2-11.8-3.4 0-4-1.8-.8-2.3 4-.7 9.2 0 10.9 1.4zm-18 68c-.6 6.1-.5 7.5 1.3 10.5 3 5 2.6 6.1-.9 2.4-3.2-3.4-3.6-6.2-2.4-15.4 1.1-7.6 2.7-5.5 2 2.5zm-55.5 13.5c2.5 2.3 2.4 3.4-.5 3.4-3.9 0-4.9-2.2-3.4-7.2 1.2-4.3 1.2-4.3 1.6-1.2.2 1.8 1.2 4 2.3 5z"/>
  <path fill="currentColor" d="M14.131 109.883c-1.766-.141-1.908-.281-1.886-1.857.018-1.334-.116-1.737-.838-2.511-.255-.274-.527-.688-.604-.92-.2-.606-.072-2.541.273-4.148.535-2.487 1.132-5.681 1.418-7.584.418-2.788.571-3.499 1.09-5.074.608-1.847 1.362-3.423 2.348-4.91.9-1.358 1.419-2.343 1.694-3.22.286-.91.335-3.633.114-6.286-.421-5.049-.872-7.733-1.965-11.691-.315-1.141-.42-2.735-.357-5.43.105-4.536.807-8.748 1.772-10.639.657-1.287 2.6-3.135 4.93-4.69 1.789-1.192 3.18-1.88 4.514-2.233 2.625-.694 5.457-.821 23.398-1.046 7.305-.091 10.775-.208 18.006-.605 1.68-.092 4.896-.196 7.147-.232 4.483-.07 6.005.024 6.598.407 1.266.817 2.02.848 3.517.144.57-.268.751-.511.625-.84-.037-.096-.573-.55-1.191-1.006-1.196-.884-1.842-1.623-2.329-2.666-.248-.533-.285-.77-.323-2.114-.036-1.25-.018-1.498.103-1.424.081.05 1.245.816 2.586 1.704 3.278 2.17 4.057 2.526 5.099 2.33.59-.11 1.48-1.034 1.744-1.81.276-.809.254-2.47-.047-3.618-.57-2.173-1.493-3.852-2.905-5.28-1.26-1.276-1.81-1.556-3.306-1.686-1.267-.11-1.571-.174-2.12-.449-.807-.404-.745-.935.159-1.349 1.884-.863 6.982-.859 9.972.008 1.765.511 2.417.987 3.035 2.217.478.949.739 1.819 1.147 3.818.535 2.63.9 3.397 1.61 3.397.299 0 .468-.084.73-.361.409-.435 1.012-1.645 1.479-2.966.725-2.054 1.307-2.946 2.259-3.458.762-.411 1.661-.567 2.808-.486 3.21.226 11.266 2.705 12.217 3.758.195.217.194.227-.076.403-.395.259-2.314.231-4.675-.067-1.038-.13-2.378-.24-2.979-.245-1.765-.01-2.153.292-3.29 2.568-.869 1.738-1.056 2.389-1.063 3.691-.004.942.023 1.09.308 1.608.35.638.94 1.011 1.6 1.011.689 0 2.38-.929 4.35-2.39 1.214-.9 1.879-1.232 2.383-1.19.35.03.416.084.559.46.145.382.142.542-.024 1.512-.101.597-.285 1.31-.407 1.587-.572 1.294-2.012 2.613-3.957 3.626-1.702.886-2.402 1.361-3.097 2.104-.884.947-1.225 1.653-2.154 4.464-.855 2.585-1.665 4.532-2.223 5.343-.714 1.039-1.128 3.138-1.126 5.708.006 4.97-.859 8.303-2.558 9.87-.62.57-1.084.77-1.795.77-.958 0-.892-.24.478-1.732 1.34-1.46 2.033-2.943 2.03-4.348 0-1.007-.103-1.559-.286-1.559-.086 0-.508.726-.98 1.688-.457.928-.992 1.874-1.19 2.1l-.357.413-.07-.436c-.135-.858-.204-.98-.577-1.016-.233-.023-.463.05-.692.218-.826.606-2.46 2.952-4.853 6.963-4.038 6.77-6.065 9.153-8.693 10.22-1.23.5-1.94.598-4.944.678-3.377.09-3.515.128-4.007 1.11-.671 1.34-1.29 7.59-1.29 13.036 0 4.468.366 5.485 3.009 8.347 1.343 1.455 2.074 2.386 2.356 3.001.258.56.256.74-.011.981-.473.428-2.147.02-5.676-1.383-1.05-.418-1.964-.817-2.03-.888-.118-.124-.176-1.636-.482-12.404-.058-2.071-.158-4.87-.222-6.22-.259-5.505-.388-7.851-.435-7.892-.028-.024-1.621.117-3.542.313-14.049 1.433-15.379 1.55-18.714 1.648-2.437.072-4.4-.057-6.05-.398-1.085-.224-2.206-.557-6.063-1.8l-2.564-.825-.265.303c-3.42 3.914-9.758 11.455-12.226 14.543-3.074 3.847-4.104 5.393-5.309 7.966-.62 1.326-.638 1.39-.64 2.292-.001.84.035 1.003.39 1.746.415.869 1.16 2.098 2.869 4.735 1.152 1.778 1.278 2.067 1.015 2.33-.293.293-2.257.405-4.276.243z"/>
  <path fill="currentColor" d="M80.15 102.878c-.514-.37-1.46-1.263-2.282-2.157-1.515-1.647-2.312-3.22-2.638-5.205-.434-2.643.168-9.951 1.078-13.094.557-1.923 1.025-1.89 1.294.09.148 1.094.06 4.627-.176 7.023-.207 2.106-.213 4.6-.013 5.644.193 1.009.565 1.932 1.286 3.194 1.537 2.689 2.16 3.992 2.16 4.52 0 .296-.284.29-.709-.015zM20.463 104.866c-2.327-.42-3.2-1.913-2.745-4.692.174-1.061 1.135-4.605 1.445-5.327.152-.356.182-.377.256-.184.046.12.167.8.27 1.513.374 2.605 1.047 4.055 2.693 5.806.593.63 1.152 1.289 1.242 1.464.178.345.21.742.077.952-.263.415-2.078.677-3.238.468z"/>
</svg>
