<svg xmlns="http://www.w3.org/2000/svg" version="1.0" viewBox="0 0 128 128">
  <path d="M62.75 7.05c-2.95 1.75-2 3.5 4 7.45C81.3 24.1 90.1 32 88.55 34.2c-1.1 1.6-1.15 2.55-.25 4.55 1.6 3.5-1.15 5.25-8.25 5.25-3.3.05-8.4 1.05-12.55 2.5-8.1 2.9-15.1 3.15-24.35.95-6.9-1.6-11.2-1-18.15 2.55-5.6 2.85-6.95 5.1-11.05 18.35-2.1 6.85-5 14.75-6.4 17.55C3.3 94.25 3.9 99.85 9.5 104.8c3.7 3.25 4.5 4.55 4.5 7.4 0 6.85 2.45 9.8 8.3 9.95 2.85.05 6.9.25 9 .35 6.15.35 8.6-3.45 4.6-7.1-4.85-4.35-5.5-14.05-1.45-22.85 1.4-3.1 2.55-6.15 2.6-6.85.05-2.2 2.7-4.95 3.5-3.65C43 86.05 61 89 69 86.8l2.5-.7v14.2c0 21.45.8 23.2 10.5 22.5 6.15-.45 7.15-2.55 3.6-7.65-2.75-4-2.8-4.15-2.1-14.45.75-11.1.9-11.6 4-13.3 2.3-1.3 20-20.35 20.6-22.25.35-1 1.15-.9 3.5.45 7.95 4.55 13.6-5.7 7.4-13.4-1.7-2.15-3.3-5.2-3.6-6.8-.3-1.6-1.55-4.05-2.85-5.4-1.25-1.4-4-5.9-6.15-10-4.45-8.7-18.9-24.45-21.9-23.85-4.7.9-4.1 3.5 2.55 11l6.45 7.3-7.15-5.7C73.8 8.75 66.2 5 62.75 7.05zM81 18.45c3.55 2.55 10 8.05 14.3 12.2 4.3 4.2 8.05 7.35 8.35 7 1-.95-6.35-13.05-11.3-18.75-2.6-2.95-5.65-6.5-6.8-7.85l-2.05-2.4 3.35 2.3c5.2 3.6 14.05 14.85 17.85 22.7 1.9 3.95 4.3 7.95 5.35 8.9 1.1.95 1.95 2.8 1.95 4.1 0 1.3 1.6 4.15 3.6 6.3 5.75 6.4 3.2 12.1-3.9 8.7-3.7-1.75-6.65-2.15-6.8-.9-.3 3.4-1.85 5.6-9.7 14.05-4.9 5.35-9.9 9.85-11.05 10-2.35.35-2.65 1.3-3.75 11.7-1.25 12.15-1 15.85 1.4 19.2 1.2 1.7 2.2 3.4 2.2 3.75 0 1.25-7.5.05-7.6-1.2-.1-.7-.25-1.35-.35-1.5-.15-.15-.4-7.2-.65-15.75-.5-19.7.75-17.85-12.15-17.25-11.8.55-18.85-1.3-22-5.75-2.1-3.05-2.75-2.55-6.25 4.75-1.75 3.7-3.75 7.85-4.5 9.25-3.5 6.8-3 18.1 1.05 22.9 3.1 3.65 3.05 4.1-.3 4.05-4.95-.1-7.65-4.9-6.95-12.3.55-5.6-.35-9.95-1.7-8.55-2 2-1.75 14.85.35 17.8l2.2 3.1H22.2c-3.9 0-5.7-4.1-4.85-10.75.35-2.6.25-6.25-.3-8.05-.8-2.85-.55-3.95 2-7.95 1.6-2.55 2.95-5.2 2.95-5.85 0-.7.5-1.4 1.1-1.6 1.85-.6 1.3-8.5-.95-14.1-2.8-6.9-6.85 8.35-7.5 27.95-.1 2.85-.55 5.55-1.05 6-.5.5-.65-.1-.35-1.45.5-1.95.3-2.2-1.5-1.65-1.5.5-1.9.3-1.5-.7 1.95-4.7 2-5.45.35-3.4-2.3 2.8-3 1.25-1.1-2.45 1.65-3.2 1.2-5.7-.55-2.95-1.95 3.05-.85-.15 2-5.75 2.6-5.15 9.4-25.3 9.05-26.85-.2-.95 4.8-5.3 7.8-6.8 4.6-2.35 8.8-2.65 15.9-1.15 9.7 2.1 16.95 1.85 22.3-.65 2.75-1.25 7.45-2.3 12-2.6 4.15-.3 8.7-1.1 10.2-1.9 1.5-.75 3.6-1.35 4.75-1.35 2.4 0 2.7-1.8.6-3.4-.8-.6-1.75-2.45-2.15-4.1l-.75-3 3.75 2.85c2.05 1.55 4 2.6 4.25 2.3 1.8-1.75-12.35-15.5-24.45-23.7-4.25-2.9-8.15-5.7-8.7-6.2-2.25-2.2 9.5 4.45 15.5 8.7zM20.55 82.7c-1 5.3-1.9 3.1-1-2.4.45-2.65 1-3.95 1.2-2.95.25 1 .15 3.45-.2 5.35z"/>
  <path fill="currentColor" d="M83.832 8.795c-.42.353.341.746.492 1.078 3.21 3.906 6.691 7.586 9.804 11.571 3.125 4.143 6.018 8.507 8.39 13.127.385.894 1.01 1.934.945 2.868-2.333-1.429-4.244-3.443-6.276-5.26-5.682-5.387-11.464-10.737-17.957-15.145-4.157-2.705-8.368-5.364-12.833-7.535-.405-.13-.996-.554-1.353-.164.067.594.827.833 1.21 1.224 5.885 4.312 12.055 8.252 17.629 12.975 4.565 3.88 9.108 7.869 12.895 12.518.702.994 1.658 1.988 1.804 3.247-.068.442-.643.016-.878-.053-2.476-1.332-4.595-3.214-6.89-4.818-.577-.006-.121.735-.113 1.06.607 2.372 1.15 5.04 3.17 6.652.585.525 1.309 1.679.484 2.3-1.03.585-2.276.274-3.365.691-2.055.55-3.934 1.654-6.045 1.995-5.205 1.113-10.636.842-15.755 2.426-2.804.786-5.413 2.217-8.297 2.697-3.076.581-6.241.443-9.357.286-4.267-.28-8.403-1.563-12.66-1.988-2.821-.12-5.75-.251-8.431.8-3.863 1.29-7.167 3.879-9.92 6.822-.583.534-.756 1.305-.784 2.06-.968 4.359-2.51 8.564-3.898 12.808-1.8 5.371-3.777 10.679-6.314 15.753-.61 1.44-1.424 2.834-1.776 4.363.126.51.658.04.79-.221.551-.591.875-1.508 1.64-1.85.283.38.072.993.019 1.43-.41 2.072-1.955 3.826-1.97 5.983.035.628.795.711 1.175.326.813-.578 1.416-1.387 2.132-2.07-.354 1.608-1.241 3.054-1.572 4.662-.049.651.78.619 1.204.466.68-.084 1.411-.514 2.072-.267.148 1.049-.542 2.125-.246 3.184.417.512.985-.26 1.076-.672.856-2.927.688-6.023.932-9.033.458-6.873 1.065-13.792 2.811-20.47.545-1.755 1.015-3.652 2.235-5.08.494-.637 1.3-.133 1.522.468 1.192 2.428 1.787 5.09 2.199 7.751.153 1.924.316 3.878-.015 5.795-.183.506-.478 1.063-1.028 1.207-.656.485-.9 1.274-1.051 2.035-1.135 3.229-3.42 5.885-4.791 8.998-.76 1.762-.215 3.678.184 5.451.426 2.342.243 4.747.094 7.103-.288 2.864-.438 6 1.057 8.581.796 1.33 2.27 2.322 3.864 2.183 1.006-.012 2.036.114 3.029-.054.293-.423-.423-.833-.569-1.231-1.095-1.514-2.221-3.065-2.487-4.954-.711-3.828-.805-7.783-.335-11.635.207-1.108.358-2.434 1.29-3.182.475-.037.612.638.761.981 1.148 4.21-.22 8.604.493 12.884.347 2.552 1.644 5.134 3.941 6.44 1.642.748 3.603 1.089 5.348.518.721-.297.38-1.203.023-1.655-1.273-1.87-2.986-3.5-3.729-5.68-1.534-3.851-1.644-8.051-1.289-12.132.298-2.55 1.002-5.048 2.157-7.34 1.575-3.285 3.166-6.564 4.747-9.846.992-1.783 1.718-3.743 3.035-5.314.367-.52 1.144-.659 1.558-.094 1.192 1.465 2.341 3.045 3.993 4.047 3.764 2.316 8.287 2.919 12.625 3.093 4.431.202 8.878-.252 13.287-.323 1.384.02 3.111.042 3.922 1.36.947 1.604.852 3.566 1.025 5.356.332 8.348.367 16.72.846 25.068.058 1.027.28 2.054.525 3.03.934 1.074 2.495 1.15 3.79 1.488 1.19.214 2.454.287 3.64.05.66-.223.39-.976.115-1.395-1.307-2.44-3.333-4.59-3.689-7.432-.445-3.021-.191-6.099-.048-9.134.365-4.473.787-8.949 1.5-13.382.267-1.126.405-2.502 1.387-3.256.891-.384 1.89-.565 2.653-1.22 4.682-3.63 8.626-8.093 12.63-12.433 2.182-2.513 4.594-4.942 6.039-7.982.528-1.023.555-2.21.985-3.257.53-.445 1.336-.197 1.976-.165 2.643.37 4.86 2.125 7.52 2.448 1.445.183 3.262-.23 3.845-1.733.842-2.275-.288-4.717-1.6-6.571-1.618-2.225-3.73-4.21-4.618-6.88-.331-1.33-.376-2.787-1.22-3.937-.916-1.29-2.077-2.384-2.855-3.775-2.605-4.166-4.44-8.773-7.236-12.83-3.497-5.25-7.41-10.276-12.046-14.573-1.569-1.404-3.329-2.594-5.12-3.686l-.093-.001z"/>
</svg>
