<svg xmlns="http://www.w3.org/2000/svg" version="1.0" viewBox="0 0 128 128">
  <path d="M95.2 23.7c-.6 1-1.3 4.1-1.6 6.8-.6 4.3-1.3 5.4-4.2 7.4-1.9 1.3-4.6 3.7-5.9 5.3-4.1 4.8-9.3 6.1-22.3 5.3-19.1-1.2-32.6 3.4-36.7 12.5-1.1 2.4-3.6 5.1-6.9 7.4C9.3 74.1 7.9 76 7.3 82.7c-1 12.1 3.4 14.9 10.2 6.3 2.2-2.8 4.3-5 4.7-5 .4 0 .7 3.6.6 8-.2 10.3 1 12 9.2 12 6.8 0 8.9-1.6 7.4-5.8-.6-1.7-1.8-2.8-3.2-3-1.3-.2-2.6-1-2.9-1.9-.8-2 1.4-8.8 3.4-10.4 1.5-1.3 1.5-1.2 0 1.8-2.3 4.3-2.1 6.2.7 9.2 1.3 1.5 3.3 4.4 4.5 6.5 2.6 5 3.6 5.6 9.2 5.6 6 0 8.1-1.6 7.7-6-.3-3.1-.6-3.5-3.6-3.8-2.6-.3-3.6-1.1-5.2-4.3L48 88l2.3-4.6 2.4-4.7 10.6-.1c10.4-.1 10.6 0 11.8 2.4.6 1.4 1.5 6.1 1.9 10.5.9 9.1 2.1 12.9 4.5 13.9 2.6 1 12.4.7 14.6-.4 1.2-.7 1.9-2.1 1.9-3.9 0-3.3-1.4-4.8-5-5.3-2.5-.3-2.5-.4-2.5-10.5V75.1l3.5-3.6c2-2.1 4.6-6.5 6-10.3l2.6-6.7 7.8-.6c6.1-.4 8.2-.9 9.2-2.4 3-4.1 2.1-5.6-8.9-14.4-3.7-2.9-5.7-5.3-6.1-7.2-1.3-6.8-7.1-10.5-9.4-6.2zm6.3 7.3c.9 2.8 2.6 5.7 3.8 6.5 1.2.8 3.3 2.4 4.7 3.5 1.4 1.1 3.9 3.1 5.5 4.5 4.3 3.4 2.3 4.9-6.7 5.2-4.3.1-7.6.7-8.3 1.5-.7.7-2.3 4.4-3.5 8.1-1.5 4.8-3 7.4-5.1 8.9C88 72.1 87 75.7 87 86.9c0 10.3.7 12.1 4.7 12.1 1.6 0 2.3.6 2.3 2 0 1.8-.7 2-5.5 2h-5.4l-1.5-5.2c-.8-2.9-1.6-7.6-1.8-10.3-.1-2.8-.8-6.1-1.5-7.5-.7-1.4-1.3-3-1.3-3.6 0-.8-3.3-1.1-10.2-1-5.7 0-12-.3-14-.7-3.1-.6-3.7-.5-3.2.6.3.8-.8 4-2.5 7l-3 5.6 2.7 5.3c2.3 4.4 3.3 5.4 6 5.8 1.8.3 3.3.8 3.2 1.2v1.8c0 .5-2 1-4.4 1-4.2 0-4.5-.2-7.1-4.8-1.5-2.6-3.5-5.5-4.3-6.5-1.3-1.5-1.3-2.4 0-8 1.5-6.1 1.4-9.2-.3-6.6-.5.8-.9 1-.9.6 0-.5-1.9.9-4.2 3.1-3.8 3.7-4.2 4.5-4.6 10-.4 5.7-.3 5.9 2.2 6.6 1.5.4 3.1.4 3.6.1.6-.4 1 .3 1 1.5 0 1.9-.5 2.1-5.2 1.8l-5.3-.3-.3-8.9c-.3-8.1-.1-9.1 2.1-11.5 4.3-4.9 4.8-5.7 3.9-8.1-.8-2.2-1-2.2-2.8 1.6-1.3 2.7-3.5 4.7-6.9 6.7-2.8 1.6-6.1 4.4-7.4 6.3-3.3 4.8-5.1 4.5-5.1-1.2 0-6 .7-7.1 8.9-13.7 3.8-3.1 8-7.5 9.3-9.8 1.5-2.8 3.8-4.8 6.8-6.4 6-3 16.9-4.9 22.8-4 7.1 1 17 .6 21.1-1.1 2-.8 5.8-3.7 8.5-6.4 2.7-2.8 5.7-5 6.8-5 1 0 1.8-.7 1.8-1.8.1-2.5 1-9.5 1.5-11 .8-2.2 2.3-.4 4 4.8z" />
  <path fill="currentColor" d="M48.73 102.765c-1.56-.346-1.91-.748-4.639-5.347a68.29 68.29 0 0 0-3.615-5.45c-.486-.657-.95-1.376-1.028-1.6-.334-.941-.147-2.444.847-6.799.939-4.112 1.241-6.855.804-7.292-.286-.287-.64-.065-1.243.78-.462.648-.828.919-.828.614 0-.589-1.927.848-4.509 3.36-2.597 2.53-3.328 3.587-3.821 5.53-.354 1.396-.63 4.392-.644 6.988-.013 2.527.085 2.91.863 3.357 1.153.664 3.895 1.048 4.937.693.32-.109.555-.132.671-.067.4.223.555 1.903.238 2.57-.241.51-.605.642-1.918.698-.996.043-8.153-.276-8.258-.368-.02-.018-.14-3.125-.267-6.905-.355-10.6-.343-10.668 2.455-13.88 2.004-2.3 2.938-3.512 3.387-4.392.378-.741.416-.894.408-1.653-.007-.665-.08-1.019-.356-1.72-.8-2.033-1.055-1.927-2.57 1.066-1.695 3.353-2.985 4.66-7.23 7.333-3.412 2.148-5.87 4.26-7.421 6.375-3.066 4.183-4.436 4.303-4.859.425-.153-1.41-.071-4.122.162-5.334.518-2.692 1.894-4.441 6.462-8.21l2.646-2.183c1.733-1.429 6.122-5.774 7.206-7.134.754-.946 1.369-1.845 2.275-3.324.694-1.132 2.848-3.275 4.185-4.162 3.71-2.464 9.732-4.291 16.983-5.154 2.217-.263 6.208-.27 7.994-.013 5.64.81 13.882.63 18.448-.403 1.72-.39 2.909-.859 4.153-1.638 2.247-1.408 4.368-3.146 7.492-6.138 2.865-2.744 4.76-4.082 6.122-4.322.367-.064.827-.224 1.023-.354.564-.375.71-.827.85-2.605.275-3.502 1.057-8.83 1.451-9.883.196-.523.534-.922.781-.922.047 0 .286.181.53.402.744.672 1.43 2.089 2.475 5.11.63 1.822 1.503 3.674 2.3 4.882.671 1.017 1.204 1.593 1.942 2.096 1.656 1.129 5.913 4.459 9.007 7.045 2.656 2.22 3.272 3.054 2.874 3.89-.475.996-2.74 1.58-7.054 1.82-4.343.24-5.64.345-6.853.552-1.711.293-2.66.62-3.117 1.078-.73.73-2.02 3.71-3.56 8.23-1.73 5.072-2.854 7.034-4.993 8.703-3.315 2.589-4.387 5.203-4.822 11.758-.14 2.107-.139 10.058.001 11.864.311 4.01.956 5.482 2.662 6.07.255.087 1.047.2 1.76.25 1.527.106 1.954.297 2.237 1.004.225.563.226 1.456.002 1.927-.386.815-1.206.933-6.464.934l-4.157.001-.218-.744c-.561-1.912-1.34-4.687-1.54-5.485-.578-2.313-1.247-6.258-1.448-8.544-.41-4.68-.781-6.422-1.874-8.82-.527-1.157-.993-2.5-.993-2.861 0-.407-.58-.682-1.874-.89-.394-.062-3.892-.159-7.773-.214-8.76-.124-11.982-.291-14.939-.775-1.956-.32-2.45-.36-2.798-.228-.297.114-.311.148-.227.533.162.747.076 1.546-.284 2.637-.56 1.699-1.066 2.77-3.13 6.624-1.067 1.992-1.94 3.686-1.94 3.766 0 .176 2.642 5.342 3.556 6.953 1.257 2.215 2.257 3.286 3.516 3.764.308.118 1.162.333 1.898.48 1.411.28 2.164.508 2.577.779.23.151.25.244.25 1.215v1.05l-.507.225c-.28.124-.937.294-1.461.38-1.167.189-4.349.19-5.198.003z" />
</svg>
