<svg xmlns="http://www.w3.org/2000/svg" version="1.0" viewBox="0 0 128 128">
    <path d="M31.5 29.2c-1.5 1.8-3.2 4.5-3.8 6.1-.9 2.8-.9 2.8-3.1.9-2.2-2.1-6.7-4.5-10.3-5.6-2-.6-2.1-.5-1.4 2.2.5 1.6 1.8 5.1 3 7.7C17.4 43.8 18 47.3 18 52c0 8.1 1.5 10.2 5.5 7.6 8.9-5.9 18.8 5.1 20.2 22.4.5 6.3.4 6.6-2.6 9.4-1.7 1.7-3.1 3.3-3.1 3.8 0 .4 2.5.8 5.5.8h5.4l1.1-3.8c1.9-7.2 3-14.5 3-19.8V67h14l1.5 3.7c.9 2.1 3.1 5.4 5 7.3 6 6.2 6.9 11.2 2.9 16-1.5 1.7-2.5 3.2-2.3 3.4.2.2 2.1.6 4.1 1 3.5.6 3.9.4 5.7-2.5 1-1.7 2.4-5 3.1-7.4 1-3.6.9-4.7-.5-7.5-2.2-4.2-1.3-4.9 1.4-1.2 1.3 1.9 2.1 4.5 2.1 7.2 0 3.3.4 4.3 1.9 4.7 3.2.8 3.2 3.9 0 6.9-1.6 1.5-2.9 3-2.9 3.3 0 .4 2.6.4 5.7.1 5.4-.5 5.8-.7 6.6-3.6.6-2.2.4-4.8-.8-9-1-3.2-2-9.2-2.2-13.2l-.5-7.3 3.4 2.1c3.6 2.2 8.2 2.6 12.3 1 3.2-1.2 2.6-2.5-1.6-3.4-3.9-.7-7.7-4.8-14.6-15.3-3-4.6-6.3-8.7-7.3-9.3-1-.5-7.2-1-13.7-1-7.3 0-14.1-.6-17.6-1.5-3.2-.8-9.4-1.5-13.7-1.5h-8v-5.4c0-5.7-.7-8.6-2-8.6-.5 0-2 1.5-3.5 3.2zm3.7 12.5c.7.9 3.7 1.3 8.9 1.3 4.3 0 10.4.7 13.6 1.5 3.5.9 10.3 1.5 17.8 1.5 6.6 0 12.5.4 13.2.8.7.4 3.1 3.7 5.4 7.2 2.3 3.6 6 8.7 8.3 11.4l4.1 5-4.2-2.4c-3.5-1.9-4.5-2.1-5.8-1-2 1.6-2.1 14.4-.1 19.1 2.1 5.2 2.9 9.9 1.7 9.9-.6 0-1.1-1.1-1.1-2.5s-.9-3-2-3.7c-1.4-.9-2-2.4-2-4.9 0-4.5-5.6-11.6-8.3-10.6-2.7 1-3.1 3.6-1.4 7.3 1.6 3.2 1.6 3.7-.4 9-1.2 3-2.3 5.4-2.5 5.2-.2-.3.1-1.8.8-3.4 1.8-4.8.2-9.9-4.7-15.4-2.4-2.7-4.6-5.9-5-7.2C70 64.9 68.2 64 60 64c-5 0-8.1.4-8.7 1.2-.6.7-1.3 4.9-1.6 9.3C49 84.8 47.1 93 45.3 93c-1 0-1-.6.3-2.5 1.3-2 1.6-4 1.1-9.3-.8-9.8-3.9-17.2-9.2-22.1-3.8-3.5-5.1-4.1-8.9-4.1-2.5 0-4.8.4-5.1 1-1.5 2.4-2.4.5-2.7-6.3-.2-3.9-1.2-8.9-2.1-11l-1.8-3.8 2.3 1.2c1.3.6 3.3 2.1 4.5 3.2 3 2.7 4.8 1.7 7.5-4l2.3-4.8.3 5c.2 2.7.8 5.5 1.4 6.2zM98 98c0 .5-.5 1-1.1 1-.5 0-.7-.5-.4-1 .3-.6.8-1 1.1-1 .2 0 .4.4.4 1z"/>
    <path fill="currentColor" d="M97.694 95.727c-.36-.41-.53-.942-.63-1.963-.12-1.235-.192-1.514-.59-2.298-.302-.597-.913-1.267-1.888-2.068-.98-.806-1.546-2.392-1.556-4.358-.006-1.383-.407-2.84-1.237-4.499-.973-1.946-2.426-3.861-3.815-5.03-1.893-1.594-3.237-1.705-4.648-.384-1.49 1.393-1.445 3.426.153 6.933.989 2.168 1.103 2.898.712 4.528-.578 2.405-3.334 9.112-3.745 9.112-.217 0 .018-1.095.615-2.866.713-2.114.851-2.82.852-4.34.002-3.673-1.64-7.162-5.456-11.595-1.469-1.706-2.333-2.822-3.334-4.303-.978-1.447-1.383-2.223-1.833-3.504-.966-2.754-2.196-4.001-4.523-4.587-1.599-.403-2.877-.495-6.809-.495-3.8.001-5.505.11-7.038.448-1.18.261-1.556.496-1.859 1.158-.517 1.133-1.073 4.682-1.414 9.023-.335 4.261-.637 6.827-1.155 9.821-.933 5.393-2.13 8.512-3.269 8.512-.25 0-.65-.232-.65-.376 0-.22.426-1.1.862-1.78 1.224-1.908 1.487-2.953 1.476-5.865-.018-4.753-.862-10.147-2.228-14.24-1.79-5.363-4.163-9.025-8.05-12.425-3.114-2.724-4.112-3.162-7.42-3.258-2.17-.062-3.651.067-4.791.42-.578.178-.743.29-1.095.744-.503.648-.843.863-1.105.699-.686-.432-1.094-2.353-1.329-6.258-.2-3.332-.58-6.073-1.209-8.73-.469-1.981-.796-2.894-1.757-4.903-.472-.987-.845-1.83-.829-1.875.053-.144 3.273 1.646 4.34 2.413.57.41 1.49 1.135 2.043 1.61.554.477 1.313 1.03 1.687 1.228 1.587.847 2.864.273 4.37-1.965.497-.737 3.53-6.756 3.74-7.419.08-.253.09-.256.164-.054.043.119.11.904.151 1.744.221 4.613.778 7.9 1.514 8.934.677.95 2.866 1.3 8.974 1.432 5.33.116 9.42.569 13.804 1.529 4.437.971 8.7 1.317 18.169 1.473 5.866.096 8.333.199 10.694.445 1.708.178 1.95.265 2.527.905 1.02 1.132 3.094 4.016 5.12 7.123 2.584 3.961 5.661 8.106 9.303 12.53 1.383 1.68 2.5 3.068 2.483 3.084-.016.017-.98-.514-2.14-1.18-3.686-2.114-4.814-2.61-5.926-2.61-.566 0-.77.053-1.178.312-.678.43-.925.78-1.23 1.748-1.079 3.425-1.049 11.17.06 15.78.13.54.518 1.72.862 2.621 1.163 3.053 1.834 5.636 1.925 7.419.065 1.266-.045 1.691-.438 1.691a.646.646 0 0 1-.426-.19zM96.787 98.987a.492.492 0 0 1-.415-.417c-.03-.163.004-.319.113-.533.196-.382.41-.649.688-.855.163-.12.371-.198.466-.173.081.023.148.095.216.238.086.178.136.435.138.704a.802.802 0 0 1-.02.24c-.092.365-.422.677-.818.773a1.16 1.16 0 0 1-.368.023z"/>
</svg>
