<svg xmlns="http://www.w3.org/2000/svg" version="1.0" viewBox="0 0 128 128">
  <path d="M25.1 16.9c-4.2 5-4.9 7.7-3.1 11.2.7 1.3.7 4.5-.2 10.6-2.3 16.2-.9 28.6 3.9 35.7 1.5 2.3 3.8 7.7 5 12 2.7 9.7 1.9 16.6-2.2 18.4-2.8 1.3-4.3 5.6-2.6 7.6 1.6 1.9 18.5 2.1 20 .3 2-2.5 7.1-17.9 7.1-21.6v-3.8l6.7-.6c6.1-.5 6.9-.3 8.2 1.6.9 1.2 3 3.6 4.8 5.2 2.8 2.6 3.2 3.5 2.7 6.2-.3 1.7-1.8 4-3.5 5.2-3 2.3-3.8 5.8-1.7 7.9 1.3 1.3 8.6 1.6 10.5.4.7-.4 2.4-3.4 3.8-6.6 1.9-4.3 3-5.6 4.1-5.2.9.3 1.8.6 2 .6 1.2 0 .1 4.3-1.6 6-2.3 2.3-2.6 5-.8 6.8 1.6 1.6 10.3 1.5 11.7-.2.6-.7 1.4-4.7 1.7-8.9.6-6.9.9-7.5 2.5-6.7 1 .6 2.9 1 4.4 1 2.9 0 11.5-4.1 13.4-6.4 1.5-1.8.5-5.6-1.5-5.6-.8 0-2.2-.4-3.2-.9-.9-.5-3.8-1.7-6.3-2.5-5.6-2-11.5-7.8-16.8-16.6-5-8.4-9.9-11.5-20.1-13-10.7-1.6-18.1-3.8-20.8-6.3-2.9-2.7-7.1-8.4-5.4-7.3 1.7 1 4.2-1.1 4.2-3.4 0-1-1.5-3.1-3.4-4.7-1.8-1.5-4.1-4.5-5.1-6.6-1-2.2-2.8-4.4-4.1-4.9-1.2-.6-2.8-2.4-3.5-4-1.5-3.5-3.5-5.8-5.4-5.8-.7 0-3.2 2.2-5.4 4.9zm8.3 2c1 2.1 3.1 4.8 4.6 6 1.6 1.1 3.1 3.3 3.5 4.8.3 1.6 2 3.7 3.7 4.8 4.4 2.8 4.8 4.7.9 3.9-3.7-.8-3.7-.5-1 4.7C49.6 52 54.9 55 70.7 57.6c13.9 2.2 15 2.9 22.9 15.1 5.9 9.1 13 14.9 19.8 16l3.9.6-2.9 1.3c-2.7 1.2-2.7 1.2-.6 1.3 1.3.1 3.2-.4 4.3-.9 1.1-.7 1.9-.7 1.9-.1 0 .5-2.1 2.1-4.7 3.6-3.9 2.1-5.6 2.5-8.8 2-5.3-.8-10.1-4-13.3-8.7-1.4-2.2-2.8-3.5-3-2.9-.5 1.4 3 7 6.2 10 2.7 2.6 3.3 6.5 2 14.3-.6 3.6-.8 3.8-4.5 3.8-4.3 0-5-1.3-1.9-3.2 1.5-1 2-2.4 2-5.4 0-3.9-.2-4.3-4-5.8-2.2-.9-4.2-1.6-4.4-1.6-.2 0-1.4 2.6-2.6 5.8-3.1 7.6-3.7 8.2-7.6 8.2-4 0-4.7-2.6-1.1-3.9 1.8-.7 2.8-2.4 4-6.8 1.2-4 1.4-5.9.6-6.2-2-.6-7.9-6.3-9.5-9.1-1.6-2.6-1.9-2.7-5.8-1.8-2.2.5-6.2.8-8.9.6l-4.7-.3v5c0 2.9-1.2 8.7-2.8 13.5-2.9 8.5-2.9 8.5-6.5 8.8-4.1.4-5-1.5-2-3.9C40.9 105 43 99.7 43 96c0-4.6-1.7-3.6-2.4 1.4-.9 5.5-7 13.6-10.3 13.6-3.1 0-2.9-1 .7-4 4.5-3.8 5.6-11.1 3-20-1.1-3.7-2-7.2-2-7.8 0-.6-1.3-3.1-3-5.4-4-5.7-6.6-19.7-5-27.2 1.3-6.6 1.6-17.1.6-21.6-.7-3.1-.6-3.3.7-1.8 2.1 2.7 3 2.2 2.3-1.4-.4-2.2-.1-3.7 1-5 2.4-2.5 2.9-2.3 4.8 2.1z" />
  <path fill="currentColor" d="M92.103 112.848c-2.375-.377-2.537-1.277-.49-2.712 1.934-1.355 2.297-2.165 2.397-5.344.111-3.573-.234-4.48-2.057-5.4-1.25-.63-5.952-2.427-6.354-2.427-.218 0-1.056 1.795-2.406 5.156-2.6 6.475-3.567 8.039-5.302 8.573-.303.094-1.097.198-1.764.233-2.572.132-4.313-.682-4.082-1.91.111-.595.796-1.185 2.074-1.784 1.494-.701 2.001-1.215 2.787-2.826.966-1.98 2.334-6.81 2.443-8.624.08-1.327-.014-1.544-.827-1.928-1.687-.797-5.308-4.087-7.723-7.015-.316-.384-.998-1.34-1.514-2.123-1.215-1.847-1.473-2.033-2.797-2.02-.587.004-1.466.121-2.323.308-3.372.736-6.318.926-10.52.68-1.642-.095-3.146-.195-3.344-.22l-.358-.047v3.02c0 3.216-.103 4.41-.613 7.109-.732 3.866-1.939 8.01-3.777 12.962-.87 2.342-1.476 3.299-2.368 3.734-.747.365-2.064.537-3.693.482-1.523-.051-2.136-.283-2.397-.91-.289-.69.076-1.393 1.357-2.609 1.401-1.33 2.15-2.453 3.069-4.6a20.508 20.508 0 0 0 1.31-4.341c.267-1.495.205-4.132-.112-4.773-.41-.83-.96-.497-1.482.898-.124.332-.4 1.466-.612 2.521-.446 2.218-.783 3.213-1.735 5.125-2.085 4.186-5.618 8.12-7.884 8.778-.716.209-1.932.145-2.46-.128-.701-.362-.261-1.18 1.457-2.706 2.384-2.117 3.36-3.358 4.174-5.311.853-2.046 1.212-4.084 1.213-6.884 0-3.144-.369-5.351-1.658-9.912-.94-3.323-1.488-5.478-1.64-6.438-.154-.986-.941-2.532-2.416-4.748-1.437-2.16-1.818-2.839-2.535-4.513-2.27-5.303-3.682-13.013-3.515-19.183.053-1.956.12-2.61.503-4.851a78.681 78.681 0 0 0 1.08-14.774c-.079-3.28-.186-4.415-.629-6.67-.372-1.895-.407-2.395-.163-2.301.09.034.517.483.95.997 1.326 1.575 2.055 1.943 2.366 1.197.201-.48.202-1.06.002-2.319-.286-1.807-.31-2.379-.135-3.212.221-1.05.522-1.606 1.328-2.451.914-.958 1.452-1.337 1.898-1.337.611 0 1.042.579 2.254 3.029.633 1.279 1.383 2.61 1.784 3.164 1.025 1.417 2.233 2.783 3.005 3.397 1.654 1.316 3.024 3.166 3.532 4.77.69 2.18 1.853 3.6 4.353 5.315 1.532 1.051 2.801 2.27 2.918 2.8.18.825-.604.957-3.033.511-3.093-.568-3.179-.24-1.043 3.97 1.935 3.817 3.069 5.499 5.014 7.442 1.504 1.5 2.86 2.49 4.743 3.458 3.88 1.994 8.01 3.116 17.089 4.644 7.204 1.211 9.288 1.745 11.72 3.001 1.386.716 2.474 1.56 3.834 2.972 1.506 1.564 2.681 3.145 5.558 7.48 1.289 1.94 2.714 4.027 3.168 4.636 4.968 6.677 10.713 11.15 16.126 12.558.546.142 1.922.398 3.057.57 1.135.17 2.028.345 1.984.387-.043.042-1.03.505-2.19 1.03-1.162.524-2.204 1.023-2.316 1.109-.306.234-.06.338.99.418 1.57.121 3.61-.307 5.126-1.075.693-.352 1.37-.363 1.435-.024.1.523-2.981 2.76-5.688 4.128-3.247 1.642-4.853 1.942-7.8 1.456-2.1-.346-3.606-.837-5.457-1.778-2.803-1.424-5.418-3.68-7.309-6.305-1.597-2.217-2.142-2.897-2.602-3.248-1.746-1.332-1.066 1.428 1.202 4.879 1.058 1.608 2.203 3.028 3.706 4.595 1.65 1.721 2.266 2.794 2.696 4.702.543 2.405.314 6.865-.57 11.111-.301 1.446-.552 1.896-1.25 2.242-.5.248-.684.27-2.37.296-1.005.015-2.08-.013-2.39-.062z" />
</svg>
