<svg xmlns="http://www.w3.org/2000/svg" version="1.0" viewBox="0 0 128 128">
  <path d="M93.2 2.2c-.65.65-1.2 1.75-1.2 2.4 0 .65-1.1 3.15-2.5 5.55-1.35 2.4-2.5 5.65-2.5 7.3 0 1.6-.95 3.95-2.1 5.15l-2.15 2.25-3.35-2.15C76.8 21 76 19.8 76 17.45c0-3.15-2.2-7.05-5.2-9.25-1-.75-1.8-1.9-1.8-2.65 0-4.2-5.9-4.15-8.65 0-2.2 3.4-1.05 6.75 2.85 8.5 3.4 1.5 4.85 4.95 3 7.25-3.1 3.8-.1 15.2 4.3 16.3 3.4.85 3.55 6.35.25 8.05-1.25.65-4.45 2.3-7.15 3.75-4.05 2.15-6.3 2.6-12.45 2.6-9.55 0-21.1 6.15-24.7 13.1-2.6 5-1.55 24 1.45 25.85.55.35.5 2.7-.1 6.05-1.6 8.7-.6 22.45 1.85 25.75 2.55 3.45 6.8 4.15 8.5 1.4 1.2-1.95 1.25-1.95 3.7-.05 2.9 2.25 5.45 2.45 7.45.45 1.45-1.4 1.2-6.55-.3-6.55-1.05 0-3.8-7.65-4.6-12.75-.55-3.6-.25-4.85 1.9-8 1.4-2.05 3.1-5 3.8-6.5C51.25 88.2 51.7 88 57.55 88h6.2l.75 5.25c.45 2.9.9 10.25 1.1 16.3.35 12.85 1.35 16.4 4.65 16.5 1.25.05 4 .25 6.15.45 5.75.6 7.95-.9 7.1-4.85-2.3-10.1-1.4-32.1 1.55-37.6 2.75-5.1 4.05-9.25 3.9-12.65-.1-2.15.55-5.95 1.5-8.4 1.2-3.3 1.6-7.3 1.45-14.9l-.15-10.35 2.95-1.25c5.3-2.25 6.75-11.15 2.7-16.9-2.25-3.25-1.65-5.25 2.1-7.45 4.35-2.6 4.5-5.15.4-8.55C96.5.7 95 .4 93.2 2.2zm5.4 3.95c1.55 1.75 1.65 2.25.45 2.65-5.05 1.75-7.45 7.95-4.6 11.75 1.9 2.5 1.9 3.45.15 3.45-2 0-7.6 4.85-7.6 6.6 0 2.1.85 1.7 3.65-1.6 2.4-2.8 6.35-4.1 6.35-2.05 0 2.8-2.3 6.1-5.3 7.5l-3.4 1.65.5 9.95c.4 8.55.15 10.8-1.75 16.05-1.45 4-2.05 7.2-1.65 9.3.4 2.1.1 3.9-.85 5.15-.8 1.05-1.5 2.75-1.5 3.7C83 81.2 82.6 82 82.1 82c-2.65 0-4.05 33.05-1.65 39.75.65 1.85.45 2.25-1.2 2.25-3.05 0-3.6-2.95-4.2-22-.35-10.9-.95-17.4-1.55-17.25-1.2.3-1.3 32.45-.15 36.45.75 2.35.6 2.6-1.25 2.1-2.6-.65-2.9-1.95-3.55-16.3-.3-6.35-.8-14-1.15-17.05l-.55-5.5-8.6.1-8.6.15-4.45 7.8c-5.15 9.15-5.3 14.2-.6 24.15 2.8 5.9 2.7 7.1-.45 5.45-2.35-1.25-5.65-9.5-6.7-16.65-1.75-12.05-3.9-8.8-3.2 4.85.25 5.05.8 10.05 1.25 11.05.65 1.5.4 1.8-1.1 1.5-4.55-.9-6-22.95-2-30.65 1.8-3.45 2.15-10.75.6-11.7-.6-.35-1 1-1 3.45 0 4.95-2.45 5.6-3.4.9-3.6-18.15 5.15-28.7 24.9-29.9 7.9-.5 9.65-.95 14.15-3.8 2.85-1.75 5.75-3.1 6.45-2.95.9.2 1.55-1.5 2.05-5.2.75-5.85-.1-8-3.15-8-2.2 0-3.65-1.7-4.55-5.25-.95-3.85 2.25-3.7 6.05.25 3.35 3.5 4.5 3.8 3.8 1-.75-2.8-5.05-6-8.05-6-1.95 0-2.3-.35-1.7-1.75 2.65-6.15 1.6-8.8-5.1-12.8-1.5-.9-1.55-1.3-.35-3.25 1.7-2.7 3.25-2.9 2.45-.3-.45 1.4-.05 2.1 1.4 2.6 3.3 1.05 6.05 5.4 6.05 9.55 0 2.9.45 3.95 1.95 4.45 1.1.35 3.15 2 4.55 3.7l2.6 3.1 3.35-3.65c1.8-2 3.75-3.65 4.25-3.65s.9-2.3.85-5.1c-.05-4.5.3-5.4 3.15-7.95 1.8-1.55 2.8-3.15 2.25-3.45-1.15-.75-1.25-2.5-.1-2.5.45 0 1.7.95 2.75 2.15z"/>
  <path fill="currentColor" d="M95.694 3.84c-.985.112-1.007 1.398-.519 2.035.213.47 1.015.825.576 1.407-1.238 2.065-3.486 3.322-4.689 5.42-.883 1.91-.587 4.096-.754 6.136-.127 1.263.066 2.64-.53 3.804-.893.539-1.751 1.17-2.495 1.918-1.822 1.69-3.442 3.678-5.201 5.37-2.197-2.404-4.108-5.324-7.2-6.662-1.016-.284-1.469-1.323-1.542-2.29-.217-2.276-.242-4.652-1.288-6.744a11.08 11.08 0 0 0-3.612-4.215c-.827-.554-1.898-.746-2.62-1.435-.365-.484-.305-1.034-.1-1.58.123-.642.54-1.68-.227-2.073-.846-.132-1.429.753-1.924 1.303-.616.905-1.376 1.845-1.51 2.962.162.88 1.19 1.21 1.805 1.73 2.205 1.46 4.78 3.007 5.608 5.676.745 2.468-.574 4.904-1.291 7.233-.26.576.193 1.151.776 1.222 1.127.161 2.302.103 3.371.577 2.204.863 4.174 2.444 5.397 4.478.429.76.521 1.646.495 2.502-.856.043-1.428-.803-2.052-1.266-1.87-1.632-3.493-3.855-6.009-4.508-.9-.295-1.942.294-2.035 1.262-.114 1.502.508 2.955 1.091 4.307.667 1.437 1.972 2.73 3.644 2.759 1.13-.004 2.394.399 2.862 1.524.738 1.844.43 3.87.292 5.784-.242 1.711-.404 3.502-1.203 5.067-.383.69-1.28.377-1.88.73-3.445 1.21-6.291 3.622-9.663 4.983-3.697 1.37-7.735 1.24-11.619 1.674-5.84.534-11.828 2.033-16.552 5.662-3.859 2.927-6.303 7.444-7.099 12.182-.472 2.649-.353 5.366-.205 8.04.283 1.938.45 3.932 1.127 5.782.323.725.9 1.8 1.851 1.58.984-.49 1.135-1.771 1.313-2.74.229-1.538-.134-3.228.628-4.653.312-.312.571.408.666.61.64 2.13.381 4.383.087 6.551-.236 1.812-.914 3.481-1.645 5.147-1.672 4.275-1.9 8.934-1.862 13.474-.064 4.249.354 8.54 1.606 12.613.51 1.389 1.057 3.065 2.5 3.742.575.173 1.39.354 1.858-.118.244-.794-.375-1.571-.452-2.358-.72-3.752-.892-7.602-1.081-11.417-.064-3.308-.214-6.674.428-9.919.111-.271.143-.854.491-.87.722.783.85 1.948 1.145 2.93.82 3.646 1.166 7.398 2.34 10.962.979 3.052 2.031 6.166 3.898 8.804.856 1.06 2.12 2.017 3.535 1.996.818-.214.537-1.273.37-1.857-1.435-4.335-3.966-8.272-4.824-12.786-.516-3.007-.5-6.165.557-9.069 1.27-3.96 3.6-7.46 5.58-11.095l1.795-3.152c2.658-.228 5.34-.138 8.006-.225 2.98-.04 5.98-.099 8.951-.095 1.183 9.92 1.528 19.913 2.115 29.885.225 2.36.21 4.804 1.015 7.06.554 1.539 2.343 2.156 3.848 2.019.558-.367.177-1.19.1-1.708-.844-3.315-.712-6.753-.893-10.147-.113-7.097-.104-14.21.117-21.3.138-1.806.15-3.645.581-5.41.599 2.287.626 4.687.84 7.04.6 8.404.496 16.85 1.284 25.243.276 1.976.356 4.123 1.476 5.845.756 1.071 2.381 1.294 3.493.7.633-.566.103-1.508-.007-2.19-1.286-4.81-1.123-9.888-1.162-14.862.032-7.216.205-14.484 1.47-21.587.273-1.003.323-2.18 1.06-2.962.568-.214 1.007-.674 1.097-1.294.22-1.493.642-2.973 1.54-4.21.704-1.068 1.165-2.306 1.065-3.603.016-1.582-.398-3.115-.118-4.685.55-4.677 3.154-8.91 3.41-13.653.163-6.202-.143-12.405-.493-18.596 2.237-1.209 4.814-2.057 6.465-4.104 1.266-1.497 2.296-3.415 2.182-5.425-.12-1.007-1.34-1.062-2.101-.816-2.386.621-4.145 2.483-5.702 4.283-.587.531-1.104 1.321-1.906 1.501-.365-.437-.184-1.152-.07-1.67 1-1.693 2.553-3.009 4.069-4.217 1.125-.863 2.425-1.573 3.863-1.718A.89.89 0 0 0 96 22.79c-.75-1.831-2.392-3.268-2.547-5.333-.294-3.579 2.1-7.13 5.421-8.39.548-.197 1.457-.615 1.09-1.347-.873-1.501-2.116-2.848-3.632-3.714-.198-.093-.414-.177-.637-.165Z"/>
</svg>
