<svg xmlns="http://www.w3.org/2000/svg" version="1.0" viewBox="0 0 128 128">
  <path d="M34.1 30.2c-5.1 4.1-5.7 5.2-4.5 8.2.5 1.2 2.1 1.6 6.5 1.6H42v3.7c0 2.1-.9 6.7-2 10.1-4.2 13.5-1.3 22.1 9.1 26.7 4.3 2 5.8 5 3.9 8.4-.6 1.2-2.1 2.1-3.3 2.1-2.9 0-4.7 1.8-4.7 4.7 0 3 3.7 4.5 10.4 4.1 5.1-.3 5.1-.3 5.2-3.8.1-2 .7-4.7 1.4-6 1.2-2.3 1.3-2.3 2.6-.5 1.9 2.6 1.8 3.8-.6 5.3-3 1.8-2.6 6 .6 6.8 2.7.7 9.9-1 12.2-2.8 1.9-1.6 1.4-4.9-.8-5.5-1.1-.3-2-1.3-2-2.3 0-1-.2-2.5-.5-3.2-.9-2.3 9.3-5.2 15.5-4.5 4.2.5 5.4.3 7-1.3 1-1 2.9-2 4.2-2.2 1.6-.2 2.4-1.1 2.6-3 .3-2.3-.4-3.1-6-6.2C87.5 65.5 64.6 56 61.4 56c-1.6 0-3.9-.3-5.2-.6-2.1-.6-2.2-1-1.6-5.5 1-7.6-1.3-16.7-5.2-20.7-4.6-4.7-8.6-4.4-15.3 1zm12.6.3c3 2.1 4.5 8.2 4.7 18.5l.1 8.5 4 .8c11.6 2.3 17.3 4 20.6 6.2 1.9 1.4 4 2.5 4.7 2.5 1.8 0 17.8 7.6 18.6 8.9.9 1.4-1.4 1.4-5 .1-3.4-1.3-4.2-.6-2.1 1.8 2.6 2.8 2.1 3.1-3.9 2.5-5.1-.5-15 1.6-17.7 3.8-.4.3-.5 2.9-.1 5.7.5 3.8 1.1 5.1 2.6 5.5 1.1.3 1.7 1 1.4 1.6-.4.6-1.3.8-2 .5-.8-.3-1.7-.1-2.1.5-.3.6-2 1.1-3.7 1.1-2.5 0-2.8-.2-1.8-1.4.6-.8 1.8-1.2 2.6-.9 2.1.8 1.8-5.1-.3-8.8-2.5-4.1-6.2-3.6-8.5 1.1-1 1.9-1.6 4.5-1.4 5.8.3 1.9-.1 2.2-3 2.2-1.8 0-3.9-.3-4.8-.6-2.6-1-1.8-2.4 1.5-2.4 2.6 0 3.3-.6 5-4.6 1.9-4.2 1.9-4.7.5-6.9-.9-1.4-3.1-3.2-4.9-4.1-10.8-5.6-12.8-11.2-8.6-23.6 2.4-7.4 2.9-15.6.8-16.9-.8-.5-3.8-.9-6.6-.9-2.9 0-5.3-.2-5.3-.5s1.7-2 3.8-4c4.1-3.8 7.5-4.4 10.9-2z" />
  <path fill="currentColor" d="M64.97 98.827c-.194-.056-.382-.15-.418-.208-.137-.221.505-1.103 1.095-1.505.6-.41 1.21-.538 1.812-.384.985.252 1.357-.117 1.56-1.548.277-1.952-.51-5.296-1.741-7.407-.547-.936-1.627-1.992-2.416-2.36-.519-.243-.8-.3-1.47-.301-.715-.001-.931.049-1.559.358-1.7.837-3.267 3.201-4.144 6.256-.25.867-.286 1.21-.295 2.712-.01 1.896-.04 1.993-.711 2.273-1.219.51-6.113.13-7.525-.583-.482-.243-1.09-.827-1.09-1.048 0-.178.447-.556.86-.729.231-.096 1.03-.208 1.892-.265 1.713-.112 2.007-.162 2.546-.435.926-.469 1.602-1.507 2.87-4.406 1.726-3.949 1.78-4.616.534-6.56-1.083-1.687-2.832-3.132-5.67-4.684-5.795-3.169-8.55-6.038-9.62-10.02-.26-.967-.286-1.252-.289-3.211-.005-3.012.327-4.757 1.796-9.44 1.346-4.295 1.983-7.439 2.22-10.969.244-3.635-.286-6.018-1.466-6.59-.872-.422-2.863-.676-6.146-.785-4.361-.145-5.512-.266-5.512-.576 0-.229 4.33-4.434 5.347-5.192 1.137-.848 2.669-1.64 3.654-1.888.87-.22 2.193-.218 3.055.003 1.682.432 3.447 1.76 4.31 3.244 1.128 1.935 1.89 4.67 2.365 8.49.37 2.975.46 4.723.552 10.722.048 3.14.107 5.722.131 5.741.025.019 1.707.368 3.738.777 10.631 2.14 15.675 3.535 19.158 5.296.53.267 1.608.916 2.396 1.442 1.772 1.182 3.159 1.86 4.249 2.073 1.55.305 6.339 2.364 11.737 5.045 4.559 2.265 6.397 3.374 6.702 4.044.109.238.091.303-.13.483-.528.427-1.953.215-4.833-.72-1.451-.47-2.057-.616-2.566-.616-.607 0-.677.025-.794.281-.185.406.234 1.188 1.296 2.42.992 1.15 1.261 1.556 1.262 1.904 0 .534-1.032.642-3.87.406-4.276-.356-8.162-.013-12.722 1.125-2.676.667-5.648 1.832-6.357 2.492-.389.361-.468 1.026-.396 3.317.096 3.034.658 5.877 1.39 7.032.251.395.47.577.97.806 1.446.665 1.605.766 1.78 1.132.164.343.16.383-.05.667-.37.498-.93.62-1.852.404-1.007-.236-1.469-.119-2.192.557-.558.522-1.095.738-2.345.943-.804.131-2.623.123-3.098-.015z" />
</svg>
