<svg xmlns="http://www.w3.org/2000/svg" version="1.0" viewBox="0 0 128 128">
  <path d="M30 20c-1.1 1.1-2 2.45-2 3 0 .55-1.25 1-2.8 1-6.65 0-9.6 10.1-3.25 11 4.7.7 6 5.25 3.4 11.9-6.2 15.7.2 31.4 16.8 41.3l5.65 3.4-2.45 2.35c-3.5 3.35-6.35 9.35-5.7 11.9.75 2.85 8.8 2.85 11.25 0 .85-1.05 2.35-1.85 3.35-1.85s2.7-1.5 3.8-3.35c1.75-2.95 2.65-3.45 7.1-4 2.8-.3 6.1-1.25 7.35-2.05 2.15-1.4 2.35-1.35 3.35 1.2 2.3 6.05 2.25 6.65-.85 8.4-6.3 3.6-3.2 7.75 5.3 7.3 6.2-.35 8.7-1.65 8.7-4.5 0-.95.95-2 2.05-2.3 3.5-.9 2.25-5.95-1.7-7.15-8.65-2.55-6-12.95 2.8-11.05C96.6 87.5 105 93.65 105 96c0 2.3 3.6 3.6 5.55 1.95 2.05-1.7 1.8-4.55-.95-12.55-3.3-9.45-5.45-22.6-3.8-23.15 7.75-2.6-10.3-21.4-23.4-24.35-6.25-1.4-27.25 3.05-40.65 8.6-1.6.65-1.75-.1-1.75-8.2 0-5.1-.45-9.35-1.1-10-.8-.8-.65-1.8.6-3.65 3.6-5.55-4.55-9.6-9.5-4.65zm7 1.65c0 .4-.75 1.5-1.65 2.5-1.5 1.65-1.5 2 .15 4.5 1.45 2.15 1.65 3.95 1.15 9.45-1.25 13.05-.1 13.6 16.85 8.45 20.65-6.35 26.65-6.7 35.7-2.25 5 2.45 14.75 12.25 14.8 14.8.05 2.55-30.95 7.3-39.15 5.95-14.25-2.3-16-.3-2.05 2.4 8.95 1.75 30.35-.3 36.3-3.5 2.05-1.1 2.2-.85 4 10.05.7 4.1 2.3 9.9 3.6 12.8 1.25 2.9 2.25 6.25 2.2 7.5-.05 2-.15 2-1.05-.45-1.15-3.25-10.25-9.45-16.2-11-5.95-1.6-12.1 2.65-11.05 7.65 1.35 6.5 3.2 9.5 5.8 9.5 1.35 0 2.75.45 3.1 1 .35.55-.3 1-1.45 1-1.65 0-2.05.65-2.05 3.1 0 2.65-.2 2.95-1.5 1.9-1.2-1-1.6-.9-2.1.4-.35.85-1.05 1.6-1.65 1.6-.55 0-.45-.65.25-1.5 1.65-1.95.55-1.9-2.55.15-1.4.9-2.85 1.25-3.25.85-.4-.45-.15-.95.55-1.2 5.9-2.1 6.25-6 1.55-16.05-1.8-3.85-2.5-4-5.55-.9-1.5 1.45-4.55 2.75-8.6 3.55-5.3 1.05-6.4 1.6-7.3 3.9-.95 2.45-1.15 2.5-1.8.8-.7-1.95-3.8 1.2-5.3 5.4-.45 1.25-.65 1.2-1.25-.3-.5-1.15-.1-2.5 1.15-3.9 1.35-1.55 1.45-1.95.35-1.6-.8.25-2.5 1.95-3.75 3.75-2.85 4.2-3 1.95-.2-2.55 3-4.8 6.65-7 12.95-7.8 7.5-.95 10-1.65 10-2.75 0-.6-2.45-.65-6.25-.2-9.65 1.2-11.2.9-17.4-3.2-17.05-11.3-21-20.45-15.8-36.3 2.05-6.2 2.45-8.55 1.6-9.4-.65-.65-1.15-2.1-1.15-3.25 0-2.9-1.85-4.5-5.2-4.5-1.55 0-2.8-.35-2.8-.8 0-1.55 4.1-4.2 6.5-4.2 1.7 0 2.9-.9 4-3 1.35-2.6 5.5-4.35 5.5-2.35z"/>
  <path fill="currentColor" d="M35.94 20.644c-1.977.144-3.54 1.7-4.594 3.259-.704 1.282-1.71 2.642-3.275 2.84-1.68.125-3.338.612-4.731 1.58-.994.694-2.102 1.472-2.521 2.659-.089.74.891.924 1.432 1.057 1.621.281 3.453-.017 4.867.997 1.039.684 1.653 1.877 1.662 3.104.038 1.48.527 2.923 1.445 4.09.252 1.018.003 2.115-.183 3.142-1.263 5.175-3.524 10.167-3.693 15.565-.188 2.96.027 5.977 1.064 8.779 2.02 5.731 6.507 10.144 11.181 13.825 3.112 2.37 6.305 4.676 9.763 6.516 2.323 1.248 5.012 1.49 7.601 1.315 3.795-.129 7.56-1.014 11.346-.701.246-.015.706.208.367.473-.913.9-2.307.994-3.49 1.303-4.52.97-9.398.89-13.561 3.158-3.295 1.78-5.537 4.986-7.146 8.28-.25.718-.76 1.504-.554 2.285.39.455.918-.193 1.197-.47 1.46-1.713 2.651-3.712 4.49-5.066.267-.153.621-.32.908-.307-.828 1.38-2.41 2.51-2.328 4.281-.027.871.263 1.849.923 2.432.55.087.61-.718.84-1.054.833-2.01 1.84-4.097 3.592-5.439.362-.3 1.026-.566 1.25.04.306.44.42 1.353 1.097 1.318.581-.343.673-1.151 1-1.701.446-1.146 1.102-2.33 2.323-2.782 3.003-1.185 6.328-1.404 9.374-2.539 2.064-.66 3.856-1.93 5.39-3.434.653-.51 1.5-1.439 2.387-.877 1.081.935 1.5 2.382 2.146 3.614 1.282 2.954 2.686 5.993 2.829 9.26.046 1.47-.497 3.08-1.705 4.053-.985 1.003-2.453 1.234-3.548 2.052-.481.468-.085 1.372.603 1.284 2.213-.098 3.76-2.03 5.822-2.524-.214.65-.951 1.306-1.2 2.049-.268.467.223 1.015.708.769 1.133-.409 1.442-1.714 2.093-2.577.96-.037 1.509 1.177 2.467 1.155.644-.275.447-1.185.555-1.743.145-1.078-.069-2.291.5-3.262.77-.96 2.403-.097 3.076-1.2.23-.778-.768-1.19-1.358-1.37-1.346-.434-2.968-.146-4.07-1.197-1.75-1.703-2.343-4.198-3.021-6.451-.437-1.66-.973-3.504-.154-5.145 1.343-2.874 4.56-4.573 7.628-4.591 2.966-.142 5.73 1.242 8.337 2.527 3.422 1.837 6.771 3.97 9.418 6.852.96.985 1.319 2.31 1.917 3.507.198.426.72.121.633-.28.189-2.851-1.012-5.532-1.974-8.147-2.596-6.038-3.656-12.558-4.784-18.99-.357-1.502-.462-3.145-1.293-4.48-.565-.746-1.536-.158-2.18.133-3.978 1.742-8.31 2.41-12.585 3.03-6.859.878-13.81 1.187-20.702.73-3.282-.354-6.541-1.118-9.709-2.043-.81-.307-1.74-.492-2.392-1.092 1.136-.448 2.392-.209 3.577-.201 4.413.246 8.773 1.399 13.223 1.139 8.255-.318 16.47-1.423 24.576-2.996 2.875-.638 5.833-1.146 8.521-2.394.59-.224 1.034-.844.752-1.474-.776-2.027-2.37-3.605-3.769-5.216-3.184-3.346-6.54-6.645-10.57-8.963-3.97-2.123-8.446-3.462-12.981-3.243-6.14.257-12.088 2.001-17.972 3.64-5.184 1.455-10.3 3.255-15.572 4.318-1.596.225-3.31.51-4.846-.126-1.316-.666-1.76-2.303-1.81-3.664-.217-4.07.55-8.13.508-12.212.024-1.75-.597-3.436-1.595-4.858-.51-.843-1.398-1.982-.76-2.99.82-1.184 2.081-2.16 2.448-3.6.102-.731-.56-1.086-1.21-1.011z"/>
</svg>
