<svg xmlns="http://www.w3.org/2000/svg" version="1.0" viewBox="0 0 128 128">
  <path d="M85.6 5.6c-1.9 1.1-4.1 1.4-7 1-11.5-1.8-12.1-1.8-14.1.1-1.1 1-4.9 3.6-8.4 5.7s-7.5 5.6-9 7.6c-1.4 2.1-4.1 4.3-6 5-4.4 1.6-10.9 7.6-15.5 14.3-6.7 9.7-12.4 30.9-10 37.1 1 2.5 3.1 1.9 4.2-1.2.7-1.7 1.1-2.1 1.1-1 .1 1 1.5 4.7 3.2 8.3 2.9 6.2 3.1 7.3 3.5 21.8.7 20.7.4 19.7 6.5 19.7 4.9 0 5.1-.1 4.4-2.2-2.6-7.9-1.4-14.9 3.4-20.7l2.8-3.4.6 10.1c.7 12.8 2.4 16.5 8.1 17 6.3.5 7.1-.2 4.6-4.3-1.8-2.9-2.1-4.6-1.7-9.3.7-9.5 2.8-18.2 4.3-18.2 1.1 0 1.4 2.4 1.4 11.7 0 10 .3 12.3 2 15 1.3 2.2 2.7 3.3 4.3 3.3 1.3 0 5.2.3 8.6.6l6.1.7v-2.7c0-1.5-.5-3.6-1.1-4.8-.7-1.3-.8-5.5-.4-12.5.8-10.5.8-10.5 4-12.4 1.7-1.1 3.7-3.1 4.4-4.5l1.2-2.6 2 2.6c3 3.9 7.4 3.6 8.8-.5.6-1.8 1.1-4.1 1.1-5.3 0-1.2.8-4.1 1.6-6.6 1.1-2.9 1.6-7.3 1.6-12.3-.1-4.2.5-10.5 1.3-14 2.8-11.7 1.2-24.3-4.1-31.8-1.6-2.3-3.6-5.5-4.5-7.2-3-5.7-7.6-7.1-13.3-4.1zm9.2 2.7c1.2 1.4.5 5.7-.9 5.7-.5 0-.9-.5-.9-1 0-.6-.9-1-1.9-1-2.5 0-6.1 4.5-6.1 7.6 0 2.7.3 2.8 3.1 1.4 2.7-1.5 2.4 0-1.1 4.6-2.2 3-3 5-3 8.4 0 4.7-2.1 9-4.4 9-2.5 0-4.6-4.7-4.6-10.2-.1-5.1-.3-5.4-4.1-8.1-4.4-3-4.7-4.3-.8-2.9 4.9 1.8 6.3-1.1 3.3-7-1.4-2.8-1.9-3-5.5-2.5-4.3.6-4.7.2-2.2-2.5 1.7-1.9 7.8-2.5 8.8-.8 1 1.6 11.1 1.2 12.5-.5 1.5-1.8 6.4-2 7.8-.2zm-32.6 6.3c-.3 1.5-.1 2.5.4 2.2.5-.2 2.1-1 3.6-1.7 3.2-1.6 5.8-.2 5.8 3 0 1.5-.6 1.7-3.5 1.2S65 19 65 20.6c0 1 1.8 3.5 4 5.5 3.7 3.4 4 4.1 4 8.9 0 4.4.4 5.6 2.9 8.1 1.6 1.6 3.4 2.9 3.9 2.9 2.2 0 6.2-6.2 6.2-9.6 0-4 2-9.4 5-13.1 2.9-3.8 2.6-5.6-.9-5.1-2.6.4-2.8.2-1.7-1.4 1.3-2.2 4.2-2.4 5-.3.8 2.2 2.3 1.8 3-.8.6-2.1.7-2.1 3.6 1.3 3.6 4.1 4.9 8.1 5.7 17.5.4 4.9.1 8.9-1.1 13.3-.9 3.6-1.5 9.8-1.5 14.5.1 5.3-.4 9.7-1.5 12.6-.9 2.4-1.6 5.4-1.6 6.6 0 8.7-4.3 6.6-10.8-5.1-1.6-3-2.9-3-3.8-.2-.6 2.1-.7 2.1-2 .3-.7-1-1.1-2.2-.8-2.6.3-.5-.1-.9-.9-.9-.9 0-1.7 1.4-2.1 3.4-.6 3-1 3.4-3.3 3.2-2.8-.3-5.2-3.7-5.3-7.4 0-2.5-1.8-3-2.6-.7-.9 2.1-1.9 1.9-3.1-.8-1-2.1-1.1-2.1-2.6 1.5-2.5 6-3.7 4.7-3.7-4.2 0-11.9-1.4-18-7.2-30.8-2.7-6-3.5-12.1-2.1-15.7.4-1.3 11.6-9.5 12.8-9.5.1 0 0 1.2-.3 2.6zM50.3 40.1c4.2 9.3 5.4 14.7 6.3 29.4.8 12.5.9 12.7 5 8.1 2.7-3.2 3.5-3.6 4-2.2.5 1.3.9 1.4 2 .5 1.7-1.4 1.5-1.6 3.9 3.8 1.8 4.4 3 5.3 3.8 3 .3-.9.7-.9 2 .1 1.7 1.5 3.8.8 3.6-1.1-.4-3.4.1-4 1.9-2.4 1.4 1.3 2.1 1.4 3.1.4.9-.9 1.4-.9 2.1.3 1.7 2.7 1.1 4.1-4.1 9.1l-5 4.8.3 12.3c.2 6.8.7 13.1 1.2 14 .7 1.5.3 1.8-1.7 1.8-3.9 0-5.7-6.2-5.7-19.5 0-8.6-.3-10.6-1.2-9.7-.8.8-1.4 5.3-1.6 12.2-.4 9-.1 11.5 1.2 13.5 1.6 2.4 1.6 2.5-.8 2.5-4.5 0-5.6-3.2-5.6-15.8 0-12.4-.8-15.2-4.5-15.2-3.1 0-3.6 1-5.7 11-2.2 10.6-2.3 16.4-.3 18 2 1.7 1.9 4-.2 4-5.1-.1-6.2-4.4-6.3-23.3 0-11.5-.2-13.7-1.5-13.7-1.1 0-1.5 1.1-1.5 3.7 0 3-.8 4.6-3.9 7.9-2.1 2.2-4.6 6.1-5.5 8.7-1.8 5.4-2.1 12.3-.6 13.2 1.8 1.1 1 2.6-1.2 2.3-2.2-.3-2.3-.7-2.9-16.4-.6-15.8-.7-16.3-4.3-24.1-2-4.6-3.6-9.6-3.6-11.8 0-4.9-1.9-4.2-3.9 1.6l-1.6 4.4-.3-3.7c-.4-4.6 5.6-22.2 10-29.5 3.9-6.4 8.9-11.4 14.3-14.2l3.9-2.1 1.2 4.3c.6 2.3 2.3 6.7 3.7 9.8z"/>
  <path fill="currentColor" d="M78.957 42.815c-1.52-.47-2.997-3.154-3.609-6.558-.094-.526-.216-2.036-.272-3.357-.128-3.067-.19-3.675-.454-4.465-.432-1.294-.977-1.848-3.793-3.858-1.99-1.421-3.435-2.726-3.37-3.045.066-.321.947-.216 2.547.304 1.237.402 1.545.461 2.45.47.815.007 1.127-.035 1.457-.199.86-.427 1.216-1.475 1.03-3.03-.213-1.782-1.708-5.198-2.736-6.251-.842-.862-1.255-.927-3.951-.618-2.568.294-3.545.304-3.86.04-.227-.188-.227-.194-.026-.627.112-.24.532-.816.932-1.28.617-.713.867-.91 1.623-1.282 1.439-.707 2.364-.906 4.277-.919 1.916-.012 2.516.136 3.118.77.206.216.579.486.83.599 1.484.671 6.23.714 9.25.083 1.489-.311 2.127-.57 2.69-1.093.88-.816 2.041-1.258 3.597-1.37 2.156-.153 3.873.56 4.403 1.832.585 1.405.108 4.148-.84 4.836-.281.203-.33.207-.598.057-.3-.169-.48-.456-.642-1.032-.226-.797-1.997-1.098-3.189-.544-2.159 1.006-4.461 4.182-4.801 6.624-.053.377-.06 1.115-.018 1.64.14 1.727.466 1.783 3.08.531.641-.307 1.292-.558 1.446-.558.792 0-.029 1.61-2.58 5.059-1.516 2.05-2.368 3.763-2.714 5.455-.117.573-.253 1.928-.315 3.132-.19 3.702-1.043 6.337-2.533 7.835-.836.84-1.564 1.086-2.43.819z"/>
  <path fill="currentColor" d="M97.078 86.539c-1.866-.959-4.289-4.021-7.212-9.117-1.253-2.184-1.686-2.8-2.177-3.104-1.044-.645-1.739.007-2.512 2.36-.16.49-.357.945-.436 1.01-.184.153-.666-.326-1.31-1.303-.678-1.028-.872-1.611-.783-2.362.096-.819-.074-1.02-.857-1.02-.487 0-.612.047-.928.354-.485.471-.933 1.452-1.211 2.65-.439 1.888-.73 2.71-1.09 3.078-.409.419-.81.509-1.963.442-1.564-.09-3.003-1.042-4.091-2.707-.86-1.314-1.29-2.674-1.456-4.592-.107-1.236-.268-1.686-.735-2.053-.678-.533-1.23-.18-1.953 1.247-.656 1.293-1.02 1.598-1.57 1.314-.413-.214-.814-.795-1.524-2.211-.307-.613-.66-1.168-.782-1.234-.373-.2-.769.368-1.576 2.262-1.22 2.86-2.153 4.363-2.648 4.266-.45-.09-.803-1.092-1.011-2.871-.064-.54-.161-3.192-.217-5.893-.137-6.589-.401-9.4-1.26-13.422-.878-4.1-2.562-8.895-5.29-15.058-.611-1.38-1.322-3.075-1.578-3.765-1.81-4.862-2.296-9.68-1.297-12.856.16-.506.334-.755.963-1.368 2.526-2.467 10.91-8.473 11.827-8.473.07 0 .1.125.073.3-.549 3.472-.573 4.16-.158 4.421.125.08.737-.163 2.4-.952 1.226-.582 2.498-1.128 2.826-1.213 1.786-.466 3.298.117 3.995 1.54.23.472.303.804.34 1.553.056 1.15-.062 1.438-.675 1.64-.453.149-.445.15-3.511-.262-2.107-.282-2.621-.066-2.738 1.152-.06.612.22 1.32.932 2.37.701 1.031 1.118 1.496 3.555 3.964 3.303 3.345 3.311 3.364 3.467 7.857.162 4.701.4 5.668 1.826 7.44 1.494 1.854 4.348 4.132 5.167 4.124 1.248-.012 3.584-2.623 4.994-5.582.782-1.643 1.071-2.754 1.195-4.598.302-4.496 1.858-8.334 5.252-12.951 1.07-1.457 1.556-2.464 1.612-3.346.049-.765-.069-.999-.657-1.303-.36-.187-1.62-.2-2.939-.03-1.061.136-1.514.076-1.514-.2 0-.311.838-1.612 1.318-2.045.805-.728 1.802-1.04 2.62-.823.75.2 1.15.576 1.633 1.538.495.984.921 1.348 1.462 1.246.661-.124 1.103-.755 1.592-2.273.332-1.032.534-1.385.792-1.385.177 0 1.82 1.7 2.9 3 3.177 3.826 4.447 7.408 5.244 14.787.673 6.233.5 10.177-.654 14.855-1.128 4.575-1.563 8.737-1.739 16.627-.146 6.574-.308 7.722-1.687 11.948-.948 2.908-1.256 4.355-1.376 6.464-.146 2.555-.468 3.82-1.136 4.446-.375.352-1.17.406-1.734.117z"/>
  <path fill="currentColor" d="M53.444 122.873c-1.05-.188-1.608-.447-2.26-1.05-1.836-1.7-2.611-5.222-2.952-13.41-.065-1.56-.165-6.496-.222-10.967-.077-5.974-.146-8.422-.26-9.232-.247-1.738-.527-2.226-1.279-2.226-.558 0-.812.14-1.034.57-.319.616-.379.983-.478 2.922-.055 1.065-.175 2.2-.271 2.564-.414 1.567-1.283 2.908-3.426 5.281-2.752 3.05-4.84 6.382-5.784 9.233-1.057 3.19-1.629 7.252-1.424 10.118.128 1.793.307 2.274 1.145 3.08.571.55.702.74.702 1.018 0 .68-.789 1.076-1.93.97-1.018-.096-1.394-.312-1.73-1-.645-1.32-.802-3.208-1.304-15.769-.596-14.894-.786-16.01-3.903-22.915-1.119-2.478-1.728-4.04-2.595-6.657-.946-2.855-1.288-4.396-1.412-6.363-.139-2.205-.358-2.803-1.028-2.803-.863 0-1.9 1.858-3.457 6.193-.501 1.395-.942 2.537-.98 2.537-.125 0-.35-3.802-.273-4.607.543-5.613 5.408-19.719 9.194-26.657 2.041-3.74 5.288-7.93 8.262-10.665 2.336-2.147 4.223-3.488 7.103-5.049l2.63-1.423.882-.479.628 2.261c1.09 3.921 2.063 6.691 3.623 10.308l1.414 3.274c3.579 8.28 4.596 13.42 5.553 28.072.327 4.992.539 7.308.78 8.51.214 1.07.317 1.35.612 1.665.6.64 1.333.104 4.032-2.941 1.375-1.552 2.228-2.34 2.722-2.517.267-.095.575.174.805.704.366.842.575 1.071.976 1.071.354 0 .6-.144 1.808-1.063.257-.196.513-.355.57-.355.383 0 1.035 1.17 2.388 4.283 1.329 3.06 1.996 4.18 2.683 4.505.365.174.399.172.671-.024.158-.114.438-.518.622-.897s.416-.734.515-.79c.22-.123.748.132 1.604.775 1.37 1.03 2.843.958 3.387-.164.195-.404.209-.588.145-1.922-.075-1.561-.034-1.936.24-2.21.154-.154.21-.154.57-.004.22.092.682.412 1.026.712 1.484 1.291 2.145 1.384 3.171.447.505-.46.852-.673 1.1-.673.285 0 .846.694 1.302 1.612 1.154 2.327.47 3.51-5.234 9.05-1.728 1.678-3.382 3.268-3.675 3.533l-.534.481.074 3.71c.275 13.776.708 20.794 1.397 22.638.125.333.25.786.277 1.006.045.36.016.42-.285.575-.423.218-1.99.254-2.588.06-2.58-.841-4.022-5.01-4.513-13.039-.059-.96-.136-3.98-.172-6.71-.096-7.403-.273-9.368-.85-9.476-1.05-.197-1.732 3.804-2.034 11.93-.214 5.79-.235 7.242-.125 8.894.19 2.849.453 3.78 1.569 5.549.826 1.31.946 1.635.675 1.833-.335.245-2.593.197-3.47-.074-1.78-.55-2.787-2.299-3.283-5.707-.303-2.082-.403-4.163-.504-10.55-.056-3.51-.15-6.892-.209-7.514-.41-4.339-1.056-5.954-2.678-6.689-.73-.33-2.56-.36-3.353-.056-1.54.594-2.278 2.49-3.848 9.884-1.355 6.384-1.851 10.04-1.846 13.597.003 2.244.03 2.602.244 3.38.276 1 .58 1.504 1.374 2.284.992.974 1.387 2.135.989 2.905-.303.585-1.197.844-2.261.653z"/>
</svg>
