<svg xmlns="http://www.w3.org/2000/svg" version="1.0" viewBox="0 0 128 128">
  <path d="M49 40.8c-3.3.9-19.4 9.3-19.8 10.3-.2.4-.9.6-1.5.4-2-.8-9.1 2.2-10.2 4.1-.6 1.1-1.8 3.1-2.8 4.6-1 1.5-1.7 3.5-1.5 4.5.2 1-.7 2.6-1.9 3.6-3.7 2.9-2.4 7.7 1.9 7.7 1.2 0 1.8.6 1.6 1.7-.3 1.6.6 1.8 6.5 1.8 4.5 0 7.3-.5 8-1.3 1.4-1.8 8.8-5.5 9.4-4.8 1.8 1.7-7 15.5-9.9 15.6-.9 0-3 1.1-4.5 2.4-4 3.5-2.1 5.1 6.5 5.1 6.6 0 6.9-.1 14-5.3 4-3 8-6.5 9.1-7.8l1.8-2.3 2.8 2.9 2.7 2.8L59 88c-1.4.7-2 1.9-1.8 3.3.3 2 .9 2.2 6.3 2.2 3.3 0 6.3.4 6.7 1 .4.5 3.8 1.1 7.6 1.3 6.3.4 7.2.2 9.2-1.9 1.2-1.3 4-4.3 6.3-6.6l4-4.2 2.9 2.4c1.6 1.4 3.9 2.5 5.1 2.5 2.1 0 2.1 0-.2 2.1-2.9 2.7-2.3 4.2 2.3 5.3 4.6 1.2 8.2 0 10.9-3.6 2-2.7 2-2.9.4-6.4-1-1.9-2.2-6.6-2.7-10.3-.5-3.8-1.4-8-1.9-9.4-.5-1.4-.7-2.7-.4-3 1.2-1.3-1.3-5.2-6.7-10.7-9.4-9.3-17.4-11.4-33.1-8.8-6.1 1-7.5.9-10.6-.6-4.1-1.9-10.7-2.8-14.3-1.8zm12.9 4.8c1.9 1.4 3.7 1.5 10.5.9 18.2-1.8 24.8-.2 32.9 8.3 3.9 4 5.2 7.9 7.2 21.7.4 2.7 1.5 6.4 2.6 8.1 1 1.7 1.9 3.6 1.9 4.2 0 1.5-6.9 4.4-8.8 3.7-1.3-.6-1-1 1.6-1.7 2.3-.6 3.2-1.4 3-2.5-.3-1.6-2.1-2.4-8.1-3.7-1.7-.4-3.1-1.6-3.7-3.1-.5-1.4-1.5-2.5-2.3-2.5-.7 0-4.4 3-8.2 6.6-6 5.7-7.4 6.6-11.7 7.1-3.1.4-4.8.2-4.8-.5 0-.6 1.5-1.2 3.3-1.4l3.2-.3-.1-7.5-.1-7.5-6.2-.3c-6.9-.3-8.5 1-5.7 5 1.8 2.5 2.1 6.4.6 7.3-.6.4-.8 1-.5 1.5.7 1.1-2 2-5.8 1.9l-3.2-.1 3.3-1.4c1.7-.8 3.2-1.6 3.2-1.9C66 86.9 56 77 55.3 77c-.3 0-2.1 1.8-4 3.9-1.8 2.2-6.1 6-9.4 8.5-5.1 3.8-6.8 4.6-10.5 4.6-2.4 0-4.4-.5-4.4-1 0-.6 1.1-1 2.4-1 1.7 0 3.6-1.5 6.6-5.3 4.6-5.6 5.5-7.5 6.6-13.2l.7-3.8-4.1.7c-4.3.6-11.1 4-12.4 6-.6.8-.8.7-.8-.2 0-1.7-3.5-1.5-5 .3-1.8 2.2-3.2 1.8-2-.6 1.7-3 .6-5.3-1.9-3.9-1.1.5-2.8 1-3.7 1-1.5 0-1.3-.5.9-2.8 1.5-1.5 2.7-3.5 2.7-4.2 0-3.2 3.5-10 4.9-9.5.8.3 2.2-.2 3.2-1.1 1-.9 2.3-1.3 2.9-.9.6.4 1.8.1 2.7-.7.9-.7 5-3.2 9.2-5.5 6.4-3.5 8.5-4.1 13.6-4.2 4.1-.1 6.8.4 8.4 1.5zm12.8 33c1.7.5 2.2 1.5 2.5 4.8.3 4 .1 4.3-2.9 5.3-3.1.9-3.1.9-1.6-1.4 1.5-2.2 1.5-2.7 0-5.9-1.7-3.5-1.6-3.7 2-2.8z" />
  <path fill="currentColor" d="M29.95 93.877c-1.127-.107-1.971-.289-2.443-.526-.415-.208-.507-.349-.382-.583.174-.324.847-.551 2.09-.705.762-.094 1.399-.24 1.715-.393 1.358-.657 3.012-2.298 5.677-5.63 3.509-4.388 4.621-6.415 5.502-10.023.35-1.434 1.271-6.269 1.206-6.333-.076-.076-5.42.895-6.326 1.148-3.497.98-8.172 3.36-9.666 4.923-.283.296-.65.685-.817.864-.284.307-.308.313-.387.11a2.017 2.017 0 0 1-.092-.56 1.22 1.22 0 0 0-.225-.618c-.343-.436-.78-.56-1.801-.506-1.302.069-2.089.456-3.155 1.554-.936.965-1.663 1.417-1.965 1.223-.337-.216-.237-.967.274-2.08.576-1.254.729-1.87.668-2.704-.058-.812-.321-1.204-.958-1.429-.435-.154-.504-.148-1.147.095-2.205.835-3.245 1.142-4.04 1.193-1.074.07-1.339-.079-1.07-.597.096-.186.66-.87 1.253-1.518 2.343-2.565 3.078-3.763 3.246-5.295.255-2.316 1.794-5.99 3.29-7.851.773-.963.94-1.052 2.004-1.07 1.043-.019 1.643-.264 2.736-1.119.726-.567 1.695-1.036 2.146-1.038.18 0 .538.08.795.178.89.34 1.314.179 3.686-1.401 3.481-2.32 10.56-6.252 13.385-7.435 3.009-1.261 4.624-1.535 9.039-1.535 4.358 0 5.746.267 7.731 1.485 2.251 1.38 3.66 1.464 12.059.718 4.384-.389 6.49-.5 9.45-.499 6.03.003 9.948.743 13.647 2.578 2.676 1.328 4.377 2.62 7.34 5.576 1.684 1.68 2.32 2.398 2.893 3.264 2.234 3.38 3.357 7.393 4.872 17.411.455 3.005.85 4.783 1.496 6.726.455 1.368.626 1.74 2.108 4.575.46.88.918 1.856 1.02 2.17.17.527.17.6.007.914-.654 1.265-5.655 3.428-7.907 3.419-.483-.002-1.298-.373-1.382-.629-.068-.207.59-.558 1.625-.865 2.477-.737 3.3-1.17 3.602-1.896a1.54 1.54 0 0 0 .097-.842c-.228-1.425-1.634-2.208-5.766-3.208a109.46 109.46 0 0 1-2.72-.687c-1.302-.372-2.639-1.524-3.208-2.765-.58-1.265-.67-1.409-1.284-2.032-.979-.994-1.328-.916-3.51.784-1.61 1.255-3.267 2.703-6.063 5.299-5.06 4.697-6.28 5.604-8.532 6.339-1.977.645-6.319.995-7.262.585-.513-.224-.538-.508-.077-.896.618-.52 1.876-.802 4.77-1.07l1.414-.13-.062-1.336c-.033-.734-.09-4.113-.128-7.509-.036-3.396-.082-6.19-.1-6.21-.02-.019-1.392-.104-3.05-.189-6.702-.342-8.843-.139-9.85.935-.295.315-.33.426-.327 1.034.005.81.257 1.413 1.232 2.95 1.058 1.667 1.57 3.208 1.573 4.74.003 1.142-.248 1.806-.945 2.497-.637.633-.747 1.012-.47 1.62.258.566-.383 1.066-1.848 1.44-.99.254-2.904.371-4.99.306l-1.882-.06 1.857-.792c2.624-1.121 4.422-2.112 4.422-2.439 0-.278-1.009-1.398-3.797-4.215-2.967-2.998-5.535-5.417-6.42-6.045-.385-.275-.552-.336-.701-.256-.396.212-1.518 1.322-3.51 3.471-3.593 3.877-7.036 6.926-11.196 9.915-2.883 2.07-4.644 2.983-6.397 3.316-1.065.203-2.894.276-4.07.164z" />
</svg>
