<svg xmlns="http://www.w3.org/2000/svg" version="1.0" viewBox="0 0 128 128">
  <path d="M76.1 35.7c-6.4 6.7-7.9 11.8-5.9 20.8.8 3.6 1.2 6.5.9 6.5-.3 0-2.6-.6-5.1-1.4-2.5-.7-8.1-1.7-12.5-2-9.6-.8-16.6.7-26.7 6.1-7.7 4-9.4 6.1-7.4 8.9 1.2 1.5 1.1 2.2-.1 4.1-1.4 2.1-1.3 2.4 1.4 4.9C29.3 91.7 37 94 55 94c14.8-.1 25.8-1.8 32.6-5.3 6.6-3.4 8.4-5.5 9-11.3.6-5.6-.9-10.9-5.1-16.9-3.1-4.7-2-5.6 4-3.1 5.5 2.3 13.2 2.1 14.5-.3 1.6-3 .1-5.1-4.9-7.3-6.1-2.6-8.1-4.5-8.1-8 0-1.8-1.2-4.1-3.3-6.4-2.6-2.9-4.2-3.7-8-4.1-4.7-.6-4.9-.5-9.6 4.4zm15 .9c1.1 1 2.2 3.5 2.5 5.6.8 4.7 5 9 10.4 10.8 2.2.7 4 1.7 4 2.2 0 1.3-7.1.9-11.7-.7-5-1.7-10.3-1-10.3 1.4 0 .9 1.6 4.1 3.5 7 3.7 5.9 5.2 12.4 3.8 16.7-2.2 6.7-18 11.4-38 11.4-15.9 0-27.1-3.2-32.1-9.2-2.1-2.6-.3-4.6 8.4-10 4.6-2.8 8.3-5.3 8.1-5.5-.6-.6-11.1 3.4-15.1 5.8-2.6 1.5-3.7 1.8-3.4.9.7-2.2 11.7-7.7 18.7-9.6 4.7-1.1 8.2-1.4 13-.9 7.2.8 18.7 4 19.6 5.5 1.2 2 2.5.9 2.5-2.1 0-1.6-.7-6.1-1.6-9.9-1.5-6.5-1.4-7.1.4-11.2 1-2.4 3.3-5.8 5.1-7.7 2.8-2.9 3.6-3.3 6.7-2.8 2 .4 4.5 1.4 5.5 2.3z" />
  <path fill="currentColor" d="M49.943 90.825c-3.31-.156-7.949-.712-10.86-1.303-6.879-1.395-11.588-3.546-14.839-6.777-1.418-1.41-1.753-1.95-1.753-2.827 0-1.866 2.242-3.772 10.419-8.861 4.389-2.732 6.97-4.525 6.832-4.747-.463-.75-10.845 3.202-15.394 5.858-.884.517-2.207 1.14-2.63 1.24-.8.187-.576-.583.43-1.48 2.328-2.076 8.443-5.218 14.274-7.336 4.206-1.527 8.163-2.246 12.355-2.245 2.204 0 3.733.125 6.238.509 5.58.855 12.886 2.793 15.969 4.237.734.343 1.07.588 1.661 1.205.856.893 1.149.974 1.664.459 1.174-1.173.893-4.953-.995-13.412-.684-3.064-.88-4.28-.878-5.457.002-1.182.196-2.027.85-3.693 1.417-3.612 3.64-7.005 6.358-9.704 1.611-1.601 2.325-2.063 3.471-2.248 2.178-.35 6.686 1.123 8.188 2.676.253.261.696.973 1.039 1.668.586 1.188.838 1.976 1.41 4.402.505 2.143 1.724 4.187 3.59 6.017 1.846 1.81 4.008 3.11 6.9 4.145 2.218.794 3.693 1.63 3.693 2.093 0 .452-1.785.769-3.694.655-2.707-.162-5.278-.623-7.7-1.379-2.033-.635-3.34-.883-5.034-.957-2.122-.092-3.662.183-4.62.826-1.066.716-1.152 1.414-.397 3.202.496 1.173 1.69 3.336 3.064 5.548 2.045 3.292 3.527 7.134 4.004 10.38.25 1.703.166 4.412-.173 5.584-.39 1.343-.825 2.039-2.041 3.26-2.014 2.02-4.825 3.56-9.043 4.954-5.663 1.87-12.696 3.043-20.837 3.472-1.868.099-9.666.123-11.52.036z" />
</svg>
