<svg xmlns="http://www.w3.org/2000/svg" version="1.0" viewBox="0 0 128 128">
  <path d="M74.25 10.7c-1.25.25-2.7 1.3-3.25 2.35-.55 1-2.95 2.75-5.35 3.8-5.25 2.3-10.75 7.9-10.5 10.65.15 1.1-1 4.35-2.45 7.2-2.95 5.75-3.5 10.75-1.25 12 1.15.65 1.25 1.65.5 4.8-1.2 5.25-1.2 12.15 0 14.4.95 1.8-.35 3.4-7.75 9.6l-2.3 1.9 2.55-5.45C54.6 50.1 30.3 34.65 16.3 54.05c-1.75 2.45-4.35 5.6-5.75 7-2.95 2.95-3.4 6.9-.8 7.05 8.9.55 15.25-3.35 15.25-9.45 0-2.6 1.6-3.65 5.65-3.65 6.6 0 8.25 5 3.95 11.8C27.55 78.05 22 92.25 22 99.25c0 3.95 6.5 17.15 9.3 18.95 2.05 1.3 36.15.95 37.5-.4 3.45-3.45-1.15-10.8-6.75-10.8h-3.1l2.4-3.75c1.5-2.4 3.35-3.95 5.25-4.35 1.6-.3 4.6-1.3 6.65-2.2L77 95.1l1.45 3.4c.8 1.9 1.75 6.65 2.1 10.55.4 3.95 1.35 7.7 2.15 8.5 1.55 1.55 17.8 2.1 19.85.7 3.75-2.55 2-8.7-3.05-10.8-6.9-2.9-5.15-20.35 2.7-26.55 4.25-3.35 4.15-24.15-.15-29.35-.85-1-.75-1.45.4-1.9.85-.3 1.55-1.2 1.55-1.95 0-.7.9-3.2 2-5.45 3.25-6.75 2.45-10.35-3.1-13.3-1.05-.55-1.9-1.6-1.9-2.25 0-2.55-4.15-9.3-7.9-12.85-3.9-3.7-10.3-4.75-18.85-3.15zm7.7 3.3c2.5.7 3.65.65 4.2-.2.7-1.15 8.85 6 8.85 7.75 0 2.25 4.4 9.45 6.05 9.95 4.75 1.55 2.15 14.85-3.2 16.25-2.4.65-2.35.9.75 5.4 3.65 5.3 4.5 25.45 1.05 24.35-2-.7-7 11.1-7.45 17.55-.7 9.75.4 14.7 3.35 14.7 3.05 0 5.45 1.9 5.45 4.35 0 1.7-.85 1.9-7.85 1.9H85.3l-1.1-7.25c-1.3-8.6-1.5-9.35-3.2-13.25-2.2-5.05-2.45-14.7-.55-18.45 1.75-3.35 1.55-4.8-.5-3.55-2.1 1.3-3.95 7.35-3.95 12.85v5.4l-4.95 2.15c-6.4 2.75-6.4 2.75-5.7-1.65 1.7-10.85-15.6-14.05-23-4.3-1.85 2.45-.35 3.4 2 1.25 12.1-11.05 23.45-2.4 15 11.4-1.6 2.6-4.35 5.45-6.1 6.35-5.7 2.75-4.15 4.25 3.6 3.5 6.45-.65 7-.55 8.5 1.65 2.7 3.8 2.35 3.9-15.1 3.9-17.85 0-18.95-.3-19.85-5.75-.1-.65-1.2-2.45-2.35-3.95-4.15-5.2-2.1-16.7 5.5-30.8 2.1-3.85 4.6-8.6 5.65-10.5 2.15-4 1.7-7.4-1.45-10.75C33.75 50 22 52.3 22 57.35c0 2.55-2.9 7.2-2.95 4.7-.05-1-.55-.75-1.6.75-.85 1.2-2.5 2.2-3.6 2.2-1.9 0-1.9-.2.6-3.1 1.45-1.75 3.3-4.45 4.1-6 4.4-8.45 19.75-9.05 23.95-.95 2.95 5.75 1.65 11.8-5 23.55-6.3 10.95-7.7 18.45-1.7 8.7 1.3-2.1 4.55-5.3 7.25-7.15C48.4 76.4 60 65.25 60 63.75c0-.5-1.35-.6-3-.25-3.65.8-3.9-1.55-1.5-13 .85-3.85 1.5-7.15 1.5-7.3 0-.2-.9-.05-2 .3-2.75.85-2.65-1.75.25-6.4 1.25-1.95 2.25-3.9 2.25-4.25 0-.35 1.25-1.8 2.75-3.2 3.25-3 3.5-4 .75-3.15-6.1 1.95-.4-3.45 7.6-7.15 3.35-1.6 5.9-3.35 5.7-4-.35-1 .45-1.5 3.7-2.25.3-.05 2.05.35 3.95.9z"/>
  <path fill="currentColor" d="M78.124 12.96c-1.202.153-2.416.495-3.486 1.073-.565.277-.625.912-.577 1.457-.442.863-1.42 1.296-2.173 1.854-3.201 1.923-6.739 3.29-9.795 5.477-1.367.961-2.835 1.944-3.738 3.381-.28.454.153.954.647.856 1.223.054 2.34-.649 3.534-.634.363.159-.157.593-.253.808-1.519 1.864-3.501 3.328-4.868 5.315-.773 2.252-2.28 4.173-3.355 6.288-.624 1.318-1.486 2.79-1.099 4.295.408.985 1.673.664 2.473.454.407-.068.956-.33 1.304-.236-.914 5.664-2.605 11.218-2.972 16.968-.001 1.102-.01 2.538 1.004 3.234 1.242.604 2.6-.103 3.88-.032.333.03.935-.066 1.128.282-.624 1.361-1.798 2.388-2.758 3.5-4.648 4.831-9.62 9.378-15.036 13.325-2.916 2.198-5.454 4.902-7.356 8.026-.745.99-1.357 2.183-2.416 2.87-.1-1.357.562-2.679 1.016-3.942 2.915-7.272 7.756-13.65 10.05-21.19.81-2.546 1.075-5.295.648-7.937-.558-2.664-1.866-5.272-4.134-6.874-2.897-2.146-6.644-2.757-10.171-2.463-4.179.377-8.48 2.297-10.772 5.95-1.799 3.144-3.986 6.051-6.27 8.862-.379.404-.271 1.254.395 1.227 1.714.254 3.346-.748 4.424-2.005.459-.441.733-1.172 1.34-1.416.2.349.092 1.273.767 1.187.953-.472 1.394-1.576 1.845-2.482.625-1.286.777-2.738 1.036-4.097.626-1.692 2.362-2.636 3.948-3.253 2.746-.963 5.768-1.166 8.58-.323 2.292.774 3.985 2.759 4.895 4.931.987 2.42.405 5.143-.87 7.332-3.089 6.027-6.615 11.843-9.262 18.087-2.131 5.21-3.975 10.722-3.898 16.417.035 2.458.674 4.947 2.167 6.935 1.014 1.426 2.139 2.87 2.433 4.646.27 1.518.914 3.19 2.456 3.812 2.27.98 4.809.962 7.233 1.143 6.213.178 12.43.038 18.645.005 2.432-.113 4.974.189 7.307-.652.87-.312.885-1.462.36-2.091-.845-1.205-1.565-2.817-3.116-3.22-2.332-.433-4.712.068-7.052.198-1.786.057-3.615.288-5.379-.125-.477-.042-1.055-.525-.6-.987 1.295-1.52 3.406-1.925 4.83-3.322 3.51-3.104 6.237-7.27 7.148-11.906.53-2.661.216-5.712-1.722-7.76-2.068-2.252-5.478-2.617-8.297-1.824-3.176.824-5.845 2.844-8.306 4.93-.59.37-1.307 1.152-2.05.756-.309-.35.076-.916.199-1.284.894-1.446 2.25-2.615 3.565-3.699 4.376-3.042 10.459-3.735 15.258-1.257 2.403 1.233 4.364 3.736 4.352 6.515.172 1.687-.506 3.378-.23 5.067.24.778 1.269.52 1.848.37 3.114-1.136 6.138-2.518 9.181-3.834.283-.632.059-1.451.149-2.154.07-3.404-.053-6.86.885-10.172.58-2.03 1.197-4.271 2.796-5.757.398-.309 1.12-.892 1.557-.41.19.799-.325 1.587-.56 2.33-1.516 2.806-1.86 6.053-1.815 9.194.008 3.936.568 7.922 2.208 11.53 1.846 4.168 2.162 8.781 2.931 13.235.327 2.079.622 4.167.948 6.242.582.304 1.346.091 1.993.176 4.061 0 8.13.051 12.184-.19.867-.099 1.898-.592 1.86-1.608.19-2.227-1.732-4.095-3.796-4.542-1.144-.383-2.643-.014-3.474-1.082-1.316-1.788-1.43-4.086-1.619-6.229-.134-3.687-.05-7.418.707-11.034 1.03-4.185 2.495-8.328 4.72-12.025.509-.68.946-1.623 1.862-1.758.643.111 1.241-.256 1.466-.863.967-2.2.931-4.682.994-7.04-.062-4.78-.537-9.62-2.03-14.183-.746-2.42-2.691-4.224-3.606-6.557-.18-.634.685-.8 1.1-.982 2.05-.477 3.504-2.177 4.43-3.972 1.507-2.98 2.187-6.477 1.534-9.778-.265-1.323-1.118-2.552-2.4-3.054-1.418-.883-2.246-2.422-3.183-3.75-1.194-1.931-2.36-4.015-2.763-6.304-.74-1.663-2.2-2.862-3.456-4.131-1.58-1.388-3.168-2.911-5.18-3.64-.6.252-1.056.994-1.833.854-2.218-.118-4.29-1.165-6.494-1.333z"/>
</svg>
