<svg xmlns="http://www.w3.org/2000/svg" version="1.0" viewBox="0 0 128 128">
    <path d="M57 19.5c-1.8 2.2-.3 5.1 5.5 10.8 7.7 7.7 13.3 10.3 23.3 11.2 4.5.4 8.2.9 8.2 1.2 0 .2-1.2 1.5-2.7 2.9-2.2 2-3.4 2.4-5.8 2-1.6-.4-6.1-.9-9.8-1.2-6.5-.7-6.9-.6-10.7 2.5L61.1 52H43.8c-18.9 0-23.3.7-26.8 4.5-2.4 2.6-2.8 5.6-1.5 12.5.5 2.9.1 4.2-2.4 7.7-2.3 3.2-3.2 5.7-3.7 10.7-.6 5.9-.4 7 2.5 13 1.7 3.6 3.1 7 3.1 7.5 0 .6 1.4 1.1 3.1 1.1 2.6 0 3-.3 2.4-1.8-.4-.9-.9-4.4-1.2-7.7l-.4-6 3.3 7.5c3.1 6.9 3.6 7.5 6.6 7.8 3.7.4 3.7.5 1.7-4.1-2.1-5.1-1.8-12.3.8-18.7 2.4-5.9 2.7-6 9.2-3.7C48 85.1 57 98.3 57 106.5c0 2.1.5 2.5 2.9 2.5 2.7 0 2.9-.3 3.3-4.2.5-5.8-.7-14-2.6-17.9-1.7-3.4-1.2-5.7.6-2.6.5 1 2.9 4.2 5.3 7.1 5 6.1 7 9.7 8 14.4.6 2.7 1.1 3.2 3.6 3.2 2.9 0 2.9-.1 2.9-5.6 0-3.9-.6-6.7-2-8.9l-2-3.3 2.5-4.8c1.4-2.6 2.5-5.5 2.5-6.5 0-1.1 1.8-2.6 5.3-4.3l5.2-2.5.3 2.5c.2 1.3.9 2.4 1.5 2.4.7 0 4-3 7.5-6.7C108 64.7 112 58.6 112 55.6c0-.8.8-2.8 1.8-4.6 1.7-3.1 1.7-3.1-.7-5.1-1.3-1-3.7-1.9-5.5-2-2.8 0-2.3-.4 4.2-3.7 6.8-3.4 9.1-5.9 7.7-8.2-1-1.7-4-1.1-8.8 1.5l-4.5 2.6.1-3.3c.3-4.6-2.7-5-6.3-.7l-2.7 3.3-1.2-2.3c-1-1.8-1.9-2.2-4.1-1.7-2.6.5-2.9.2-3.7-3.2-.6-2.7-1.5-3.8-3-4-1.8-.3-2.4.4-3.1 3l-.8 3.2-3.3-4.7c-1.7-2.6-3.5-4.7-3.9-4.7-2.1.1-3.4 2-3 4.4.5 2.3.3 2.6-1.6 2-1.1-.3-3.9-2.6-6.2-5-4.6-4.9-4.7-5-6.4-2.9zm5 4.1c.8 1.4 3.1 3.9 5.1 5.5 5.8 4.6 10.7 3.5 7.3-1.5-.9-1.4-1.4-3.1-1.2-3.8.3-.7 1.7.7 3.3 3.2 1.5 2.5 3.3 4.8 3.8 5.2 1.9 1.2 3.7-.4 3.7-3.3 0-4.5 1.8-3.4 2.6 1.6.7 4.7 2.6 5.9 5.2 3.3 1-1 1.6-.7 2.8 1 2.1 3 4.5 2.8 6.9-.8 2.5-3.8 3.6-3.8 2.9 0-.9 4.2 1.6 4.8 7 1.6 5-2.9 7.6-3.5 5.7-1.3-.6.8-4.4 2.9-8.6 4.8-9.4 4.3-10.2 7.9-1.7 7.9 4.2 0 5.5 1.2 3.7 3.6-.8 1-1.5 2.7-1.5 3.7 0 2.8-2.9 7.7-7.8 13.5-4.2 5-4.6 5.2-6.3 3.6-1.7-1.5-2.1-1.5-6.1 0-5.7 2.4-9.8 5.4-9.8 7.4 0 .9-1.2 4.1-2.7 7l-2.7 5.4 2.2 3.8c1.2 2.2 2.2 5.4 2.2 7.2l-.1 3.3-1.3-3.8c-.8-2-2-4.5-2.7-5.6-11.4-15.2-12.3-16.2-14.2-15.9-3.5.5-4.2 3.1-2.2 7.4 1 2.2 2 6.6 2.2 9.9l.3 6-1.4-4.2C55 88.2 47.5 81 35.7 77.3c-4.2-1.3-9.6 9.3-9.8 19 0 5.5-.1 5.4-3.4-2.7-1.4-3.7-1.6-3.8-3.7-2.4-1.6 1.1-2.4 2.8-2.8 5.9l-.5 4.4-1.8-4.4c-2.5-6.1-1.5-14 2.4-19.5 3.1-4.1 3.8-9.1 1.9-12.7-1.6-3 .8-7.2 5-8.6 2.2-.7 10.3-1.2 21.3-1.2l17.8-.1 3.9-3.1c4.2-3.4 4.6-3.4 19.1-1.3 4.3.6 4.9.4 8.3-2.7 2.7-2.6 3.5-3.9 3-5.6-.7-2.6-3-3.3-11.2-3.3-7.1 0-11.1-1.6-18.8-7.8C61 26.9 56.9 21 59.3 21c.7 0 2 1.2 2.7 2.6z"/>
    <path fill="currentColor" d="M77.214 103.377a44.01 44.01 0 0 0-2.43-5.738c-.536-1.053-1.217-2.031-3.85-5.524-6.964-9.24-8.746-11.324-10.137-11.855-.43-.165-.59-.172-1.237-.06-2.082.36-3.199 1.528-3.199 3.345 0 .934.296 2.071.976 3.753 1.568 3.88 2.23 7.38 2.458 12.985.036.87.088 1.877.117 2.237.045.565-.094.23-1.016-2.455-1.555-4.528-2.608-6.769-4.512-9.602-1.22-1.816-2.135-2.924-3.746-4.535-1.695-1.695-2.74-2.547-4.861-3.96-2.519-1.68-5.505-3.13-8.787-4.27-1.35-.468-1.732-.559-2.194-.523-2.59.204-5.734 4.585-7.498 10.45-1.008 3.351-1.49 6.79-1.49 10.66 0 1.387-.12 1.889-.394 1.662-.335-.279-1.376-2.596-2.988-6.648-.961-2.417-1.31-2.946-1.94-2.946-.63 0-2.253 1.103-2.91 1.978-.986 1.311-1.408 2.844-1.822 6.615-.134 1.216-.271 2.21-.305 2.209-.07-.002-1.726-4.033-2.086-5.073-.886-2.565-1.196-6.003-.81-8.97.467-3.579 1.588-6.528 3.642-9.578.537-.798 1.17-1.837 1.407-2.309 1.77-3.53 1.93-7.387.43-10.354a5.78 5.78 0 0 1-.408-1.194c-.419-2.024.835-4.58 3-6.116 1.667-1.182 2.88-1.52 6.61-1.844 4.889-.424 8.059-.51 21.94-.598l12.944-.083 2.605-2.073c2.968-2.361 3.38-2.655 4.338-3.104 1.123-.526 2.232-.682 4.323-.61 2.092.071 3.322.21 8.676.976 3.343.478 4.18.563 5.62.567 1.67.004 1.7 0 2.4-.335.983-.469 1.887-1.179 3.531-2.77 2.224-2.155 2.93-3.227 2.929-4.454 0-.718-.327-1.737-.722-2.256-.603-.79-2.031-1.416-3.848-1.686-1.205-.178-4.127-.332-6.364-.335-7.594-.008-11.55-1.627-19.3-7.897-3.232-2.616-6.085-5.8-7.21-8.048-.648-1.295-.594-1.95.16-1.95.73 0 1.747.94 2.682 2.48 1.02 1.677 3.333 4.156 5.347 5.728 2.947 2.3 6.187 3.353 7.54 2.449 1.073-.717.949-1.989-.405-4.16-.767-1.23-1.379-3.094-1.2-3.656a.32.32 0 0 1 .308-.223c.372 0 1.764 1.547 2.694 2.993 2.247 3.497 3.74 5.444 4.408 5.747 1.316.598 2.688-.225 3.176-1.906.09-.308.207-1.224.261-2.037.135-2.02.453-2.72 1.01-2.218.541.49 1.025 1.863 1.462 4.15.503 2.634.988 3.803 1.835 4.42.408.297.515.325 1.122.287.728-.045 1.196-.305 2.416-1.342.951-.81 1.36-.648 2.649 1.046 1.135 1.49 2 2.065 3.11 2.063.911-.001 1.64-.368 2.55-1.281.403-.405.982-1.108 1.288-1.563 1.33-1.98 2.324-2.977 2.79-2.798.29.111.33.93.113 2.327-.458 2.96-.083 3.957 1.529 4.06 1.244.078 3.002-.564 5.527-2.02 1.55-.894 3.832-2.024 4.665-2.31.89-.304 1.555-.315 1.555-.025 0 .33-.811 1.27-1.499 1.736-1.47.997-3.88 2.27-7.6 4.016-5.267 2.473-7.878 4.54-7.672 6.074.167 1.244 1.697 1.764 5.695 1.936 1.436.061 2.534.162 2.94.27 1.898.504 2.18 1.556.89 3.315-.445.605-1.086 1.864-1.259 2.469-.068.24-.172.872-.23 1.403-.339 3.12-2.761 7.25-7.783 13.274-2.568 3.08-3.676 4.187-4.416 4.416-.495.153-.951-.042-1.774-.756-1.034-.898-1.538-1.15-2.295-1.15-1.992 0-7.917 2.68-10.91 4.935-1.01.761-2.27 2.068-2.538 2.632-.108.23-.24.72-.294 1.09-.216 1.516-.938 3.27-3.403 8.274l-1.97 4.001 1.093 1.892c1.306 2.26 1.62 2.878 2.15 4.222.934 2.379 1.286 4.595 1.08 6.82l-.09.967z"/>
</svg>
