<svg xmlns="http://www.w3.org/2000/svg" version="1.0" viewBox="0 0 128 128">
  <path d="M79.5 9c-2.2 1.1-4.3 2.6-4.7 3.4-.6 1.1-1.7.9-5.7-1.1-7.3-3.6-13-3.5-17.7.2-4.9 4.1-6.8 9.2-5.3 15.1 1.3 5.2 6 11.4 9.7 13 2.5 1 2.3 1.1-3.3 1.8C38 43.2 28.9 55.7 30.3 72.1c.3 3.8 1.1 7.8 1.7 9 1.3 2.3 1.2 3.4-1.9 21.9-1.2 6.9-1.9 13.5-1.6 14.7.6 2.8 4.7 4 8.1 2.4 2-.9 2.4-1.8 2.4-5.3.1-2.4.6-7.2 1.3-10.8l1.2-6.5 1.4 6c.7 3.3 1.9 7.6 2.6 9.5.7 1.9 1.6 4.2 1.8 5.1.6 1.9 6.4 3.1 9 1.7 2.2-1.1 2.1-2.8-.3-10.6-3.1-9.9-2.7-13.1 2-17.7 2.9-2.8 4.1-3.5 4.5-2.4.3.8.8 7.4 1.3 14.8l.7 13.5 2.9.7c1.8.5 3.7.4 5-.3 1.2-.6 3.4-1.4 5-1.7 4.5-1 5.1-2.9 3.6-10.9-2.2-11.7.3-26.1 5.9-34.1 3.5-4.9 4.4-9.8 3.2-16-.6-3.1-1.2-7.4-1.4-9.6-.2-3.7.1-4.2 4.3-7 6.2-4.2 9.3-10.3 8.6-17.2C100.5 9.4 90.1 3.6 79.5 9zm15 4.3c7 7 5.2 17.1-4 23.5-2.7 1.8-5 3.7-5 4 .1.4.5 6 .9 12.5l.8 11.8-2.9 4.2c-1.6 2.3-4 7-5.3 10.5-2 5.5-2.2 7.4-1.7 17 .3 5.9.8 11.7 1.2 12.9.5 1.7.3 2.5-1 2.9-2.4 1-3.5-1.3-3.5-7.6 0-3-.5-10.3-1.2-16.2C72 80.6 71.3 78 70.2 78s-1.3.9-.8 4.4c.4 2.5 1.1 10 1.5 16.8.5 6.8 1.2 13 1.5 13.9.5 1 .1 1.9-.8 2.2-3.7 1.5-4.3-.1-4.9-12.6-.5-12.2-2.3-22.7-3.9-22.7-.4 0-.8.4-.8.9 0 .6-2.5 3.6-5.5 6.9l-5.4 5.9.3 7.4c.2 4.1 1.2 9.3 2.1 11.7 2 4.8 1.8 5.4-1.2 4.6-2.3-.6-2.3-.6-5.8-14-2-7.5-2.2-9.8-1.4-13 .6-2.2 1.5-4.3 2-4.8 1.4-1.6 1-2.6-1-2.6-3.8 0-8.6 13.5-9.7 27.2-.7 7.5-.8 7.8-3.2 7.8-2.2 0-2.4-.3-1.9-2.8.3-1.6 1.1-6.8 1.8-11.7.6-4.9 1.7-10.6 2.4-12.6 1.3-3.7 1.1-5.7-1.4-13.9-2.8-9-.7-18.3 5.6-25.1 4.6-5 7.4-6.3 15.6-7.4 5.8-.8 9.2-3.6 11.1-9.4 1.6-4.6 1.4-6.1-.8-6.1-1.7 0-6.1-4.8-5.3-5.7.4-.4 2.1.3 3.7 1.5 3.5 2.6 4 2.7 4 .7 0-2.4-3.7-5.5-6.6-5.5-1.9 0-2.8.8-4 3.5-.7 1.9-1.4 4.3-1.4 5.4 0 2.5 4.7 8.1 6.8 8.1 1.1 0 1.3.3.6 1-1.4 1.4-6.1-.4-9.6-3.7-1.5-1.5-3.5-4.8-4.3-7.4-1.4-4.2-1.4-5.1-.1-8.2 3.4-8.2 13.7-9.4 21.4-2.4l2.2 2.1 3.3-3.1c4.4-4.2 6.6-5.2 11.1-5.3 3 0 4.5.7 7.1 3.3zM64 32.2c0 .4-.4.9-.9 1.3-.9.5-4.1-3.1-4.1-4.8 0-.9 4.9 2.5 5 3.5z" />
  <path d="M83.8 19.7c-2.7 1.7-4.5 5.3-2.6 5.3.5 0 2.1-.9 3.5-2s3-2 3.5-2c1.4 0-1.2 4.3-4 6.6-2.5 2-2.5 2.3-1.3 6.3 1.1 3.7 1.4 4.1 2.8 2.9C88.6 34.5 93 26.7 93 24c0-2.9-2.7-6-5.1-6-.8 0-2.6.8-4.1 1.7z" />
  <path fill="currentColor" d="M31.57 117.7c-.216-.132-.376-.338-.42-.542-.044-.196.084-1.256.315-2.626.5-2.974 1.014-6.348 1.767-11.614.87-6.085 1.548-9.537 2.414-12.293.548-1.747.658-2.379.658-3.803.001-2.006-.4-3.926-1.848-8.834-1.153-3.91-1.491-5.918-1.491-8.861 0-5.01 1.402-9.675 4.155-13.82 1.09-1.643 2.193-2.962 3.886-4.65 2.915-2.906 5.33-4.28 9.103-5.18 1.176-.28 2.08-.441 5.843-1.043 2.074-.331 4.188-1.13 5.61-2.12 1.567-1.09 3.022-2.874 3.937-4.825 1.018-2.173 1.974-5.383 1.974-6.63 0-1.326-.352-1.718-1.714-1.911-1.012-.144-1.723-.593-3.148-1.992-1.795-1.762-2.763-3.438-2.127-3.683.518-.198 2.001.531 4.07 2.003 1.614 1.148 2.537 1.68 2.913 1.68.42 0 .59-.462.537-1.462-.04-.77-.105-1.016-.427-1.62-.208-.39-.71-1.047-1.115-1.457-2.063-2.092-4.93-2.993-6.76-2.124-1.007.477-2.084 2.233-2.863 4.667-.833 2.598-1.032 4.062-.685 5.036.545 1.53 1.76 3.286 3.432 4.957 1.484 1.485 2.26 1.982 3.282 2.102.337.04.68.114.762.165.248.156-.114.67-.678.963-1.252.648-3.864-.147-6.723-2.048-2.345-1.56-4.012-3.537-5.522-6.55-1.157-2.307-2.197-5.72-2.197-7.212 0-1.657 1.088-4.457 2.424-6.234 1.837-2.444 4.527-3.935 7.736-4.29 2.922-.321 6.356.553 9.242 2.355 1.232.768 2.375 1.687 3.75 3.012l1.323 1.276.744-.695 2.489-2.327c3.57-3.343 5.45-4.54 8.013-5.103 1.247-.274 4.252-.346 5.281-.127 1.466.312 2.617.967 4.177 2.375 2.613 2.359 4.302 5.269 4.836 8.33.252 1.444.154 3.833-.215 5.249-.753 2.886-2.251 5.45-4.53 7.75-1.212 1.224-2.178 2.012-4.147 3.382-1.566 1.09-3.378 2.511-3.881 3.043l-.299.315.16 1.929c.197 2.378 1.485 21.639 1.482 22.164-.001.31-.303.815-1.608 2.696-1.967 2.833-2.614 3.91-4.007 6.67-2.503 4.958-3.932 9.106-4.299 12.481-.313 2.875.047 12.534.718 19.27.206 2.073.33 2.92.567 3.86.262 1.037.25 1.786-.033 2.169-.297.4-1.272.8-1.962.804-.488.003-.58-.04-1.003-.465-.946-.953-1.244-2.41-1.38-6.753-.19-6.015-.527-10.374-1.44-18.632-.605-5.467-1.133-7.92-1.86-8.648-.247-.246-.866-.307-1.216-.12-.524.281-.574 1.63-.173 4.698.473 3.618.972 9.084 1.328 14.544.475 7.294 1.281 14.867 1.7 15.965.35.923.007 1.574-1.056 2-3.24 1.297-3.951-.377-4.502-10.579-.385-7.149-.549-9.374-.944-12.832-.715-6.266-1.72-10.662-2.667-11.67-.321-.342-.782-.324-1.07.042-.125.16-.228.399-.228.531 0 .666-2.248 3.386-7.91 9.572-1.652 1.806-3.004 3.32-3.004 3.363 0 1.229.38 8.573.503 9.726.39 3.649 1.193 7.462 2.034 9.662 1.179 3.08 1.354 3.808 1.02 4.221-.175.216-.306.257-.785.246-.606-.014-1.682-.258-2.331-.529-1.06-.442-1.592-1.48-2.643-5.149-.81-2.83-2.923-10.912-3.361-12.86-1.02-4.54-.984-6.867.16-10.186.581-1.684.988-2.528 1.654-3.43.56-.76.74-1.274.615-1.77-.16-.635-1.729-.926-2.675-.496-2.24 1.016-4.863 6.451-6.755 13.993-1.027 4.09-1.582 7.505-2.16 13.276-.734 7.334-.792 7.466-3.271 7.465-.924 0-1.198-.04-1.481-.213zM85.4 37.114c1.128-.825 2.83-2.877 4.233-5.107.99-1.573 2.539-4.68 2.988-5.996.329-.96.373-1.225.364-2.143-.008-.853-.065-1.188-.303-1.804-.804-2.081-2.644-3.817-4.337-4.091-1.221-.199-4.42 1.292-5.946 2.772-2.296 2.225-2.755 4.895-.718 4.176.658-.233 1.827-.956 3.241-2.006 1.45-1.076 2.826-1.832 3.25-1.783.274.032.302.075.29.449-.028.944-1.457 3.14-3.135 4.817-.58.58-1.505 1.475-2.056 1.99-.938.877-1.01.977-1.126 1.546-.1.487-.09.786.044 1.497.187.982 1.162 4.228 1.504 5.004.457 1.037.949 1.233 1.706.68z" />
</svg>
