<svg xmlns="http://www.w3.org/2000/svg" version="1.0" viewBox="0 0 128 128">
  <path d="M29.6 17.2c-1.5 3.2-2.5 4.5-2.5 3.3-.2-2.9-1.4-4.5-3.9-5a8.6 8.6 0 0 1-3.1-1c-1.2-.7-4.1 2.2-4.1 4.1 0 2.1 1.8 5.3 5.1 9.1a21 21 0 0 1 3.9 7.4c1.3 4.6.6 6.6-.9 2.6-1.3-3.4-2-3.7-9.5-4.2-6.1-.4-6.6-.3-8.5 2.2-2.5 3-2.7 6.2-.6 8.9.8 1 1.5 2.8 1.5 4 0 2.7 3 5.4 6.1 5.4 2.2 0 2 .3-1.9 3.7-2.4 2-4.8 4.7-5.3 6-2.3 6.1 6.1 11.9 11.5 7.8 3.5-2.6 6-1.7 11.6 4.1 6.7 6.8 9.2 8 13.2 6 2.5-1.3 5.8-1.3 5.8 0l-2 4.3c-2.2 4.1-2 8 .5 10.1 1.8 1.5.2 7.3-3.2 11.7-3 3.9-2.7 6.4 1 7.7 4.2 1.5 9.4-1.6 10.9-6.6l1.1-3.9 3.2 3.1c5 4.9 9.5 3.3 9.5-3.4 0-2.8-4.2-7.7-8.2-9.4-3.4-1.4-3.6-3.9-.6-7.8 3.4-4.4 3.8-4.5 11.4-3.9a35 35 0 0 0 16.9-2.2c1-.3 2.2 1.3 4 5.2 1.4 3.2 2.5 6.4 2.5 7.1 0 1.9-4.6 11.2-7.5 15.3-2.9 4-3 4.5-.9 6.6 2.5 2.5 8.5 1.6 10.1-1.5 7.8-15.3 11.1-23.5 10.2-25.3-.9-1.7-.8-1.7 1-.7 3.2 1.6 4.8 4.9 6.1 11.7.9 5.3.8 6.6-.7 9.8-2.1 4.4-1 6.9 3.3 7.3 2 .2 3.8-.5 5.8-2.4 2.7-2.6 2.8-2.9 2.1-9.3a196.1 196.1 0 0 0-3.5-21.6 81 81 0 0 0-4.9-5.4l-4.8-5.1 2.4-4.7c1.3-2.6 2.2-5.2 1.9-5.8-.2-.6.5-1.7 1.5-2.3 1-.7 1.9-2.1 1.9-3.1 0-1.9-6.6-7.1-9.1-7.1-.8 0-2.6-.8-3.9-1.7-2.7-1.9-6.2-2-25.5-.9-9.8.6-12.7.4-15.7-.8-4.8-2-14-2-17.8-.1-1.6.9-5 1.8-7.5 2.2-4.1.5-4.5.4-4.5-1.6 0-1.4 1-2.6 2.8-3.4 3.8-1.6 4.2-2.4 4.2-9.1 0-4.7.5-6.4 2.5-8.7 2.5-3.1 2.4-5.4-.3-7.6-1.1-.9-2-.9-3.4-.2-2.3 1.2-2.2 1.3-3.5-2.6-.6-1.9-1.7-3.1-3.1-3.3-1.8-.3-2.6.7-4.6 5zm6.4 3c1.3 4.1 3.9 5.1 4.7 1.8.6-2.2 1.8-2.6 2.9-.9.3.6-.6 2.3-2 3.8-2.2 2.3-2.6 3.6-2.6 8.9 0 5.5-.3 6.4-2.2 7.2-3.4 1.3-11.4 8.7-10.5 9.6.4.4 1.8-.3 3.1-1.5l2.4-2.3.4 2.4c.3 2 .9 2.3 4.8 2.4 2.5.1 6.8-.7 9.5-1.7 6.2-2.3 13-2.4 18.1-.3 3.3 1.4 6.4 1.5 20.8.9 14.3-.6 17.4-.4 20.2.9l6.9 3.3c3.8 1.8 4.2 4 .6 3.6-2.4-.3-2.5 0-1.1 2.7 1.4 2.6-.1 6-5.5 12.7-4.8 5.8-5.4 8.5-3.1 13.8 1.2 2.8.9 3.8-4.3 14.7-5.1 10.7-5.8 11.7-8.3 11.8-3.5 0-3.5-.7 0-5C94 105 98 96.2 98 93a32 32 0 0 0-3-8 30 30 0 0 1-3-8.5c0-3-1.6-3.3-2.5-.6-.9 2.9-6.1 4.2-16.2 4-5-.1-9.7.3-10.6.7a20.7 20.7 0 0 0-7.4 10.7c-.6 3.8.2 4.8 6.6 8.7 3.2 1.9 4.1 3 4.1 5.2 0 1.5-.2 2.8-.5 2.8-1 0-9.7-7.1-14.1-11.5-6-6.1-5.9-6.3 5.1-18.4 5.9-6.5 4.5-8.3-1.7-2.2-3.2 3-4.5 3.8-5.5 2.9-.8-.6-3.3-.8-6.8-.3l-5.5.6-6.3-6c-6.9-6.6-10.1-7.6-14.5-4.5-2.6 1.8-5.8 1.1-7.1-1.5-.8-1.4.2-3 5.5-8.2 3.5-3.5 6.4-6.7 6.4-7.2 0-.4-1.5-.5-3.4-.2-3.9.8-7.6-.8-7.6-3.2 0-1.4.2-1.4 2 .2 1.1 1 2 1.6 2 1.2 0-1.9-1.6-4-4.1-5.3-2.2-1.1-2.9-2.1-2.8-4.2 0-2 .2-2.2.7-1A49.3 49.3 0 0 0 20.1 50c.5 0 .9-.5.9-1 0-.6-.5-1-1-1A36 36 0 0 1 9 37.4c0-2.3 1.4-1.5 3.8 2.1C15.2 43.2 20.4 47 23 47c1.9-.1-2.6-4-4.6-4-1.5 0-4.4-3.8-4.4-5.7 0-.7.5-1.3 1-1.3.6 0 1 .9 1 2s.2 2 .4 2l2 .6c1.2.5 1.6 0 1.6-2.1 0-1.5.4-2.4 1-2 .6.3 1 1.7 1 2.9 0 1.3.7 3 1.6 3.7 1.4 1.1 1.9.9 3.5-1.1 1-1.4 1.9-3 1.9-3.6 0-2.6-3.2-10-5.4-12.4a23.2 23.2 0 0 1-3.5-4.8c-1.4-2.7-.3-5.3 1.2-2.7.8 1.4 1.1 1.5 1.8.4.6-1 .9-.6.9 1.2 0 3.3 2.4 5.6 4.3 4.1.7-.6 1.8-.7 2.5-.3 1 .6 1 1.1-.3 2.1-1.8 1.5-1.9 3.9-.4 9.1 1 3.2.9 4.2-.5 6.4-2.9 4.4-1.2 3.9 3.3-1 2.2-2.4 4.1-5.3 4.1-6.4 0-4.2-1.4-8.3-3.6-10.4-2.6-2.4-3.1-3.8-1.2-3.5.9.2 1.2-.7 1-2.7-.5-3.9 1.1-2.3 2.8 2.7zm-2.1 12.6c-.1 3.3-.2 3.4-.9 1.2-1.2-3.6-1.2-6.2 0-5.5.6.3 1 2.3.9 4.3zm79.5 46.9c5.1 5 5.4 5.9 7.6 22.2 1 7.4.9 8.5-.6 10.2-1.6 1.7-5.4 2.7-5.4 1.4 0-.4.7-2 1.6-3.6 1.3-2.6 1.4-4.2.4-10.1-1.2-7.9-3.3-11.6-8.5-14.8-1.9-1.2-3.5-2.8-3.5-3.6 0-1.2 2.9-6.2 3.6-6.4l4.8 4.7zm-60.4 25c0 3.8-3.9 8.3-7.1 8.3-2.4 0-2.4-.2.5-4.5 1.4-2 2.8-4.9 3.1-6.6.6-2.4.9-2.8 2.1-1.8.8.6 1.4 2.7 1.4 4.6z"/>
  <path fill="currentColor" d="M88.8 113.8c-.4-.1-.5-.2-.6-.7 0-.6.5-1.5 2.3-3.8 3.2-4 6.7-11.3 7.3-15.2.2-.9.2-1.1-.2-2.4-.5-2-1.2-3.8-2.6-6.5a30.2 30.2 0 0 1-3.1-9.3c-.2-1.2-.5-1.7-1-1.7s-.7.3-1.4 1.6c-.6 1.4-1 1.9-2.6 2.6-2.5 1.1-4.9 1.4-13.7 1.6-7.3 0-9.5.2-10.5.7-.3.1-1.2 1-2 1.8-3.2 3.1-5.5 7.5-5.5 10.4 0 2.6.9 3.4 7.7 7.7 1.3.8 2.3 1.7 2.7 2.6.3.6.4.9.4 2.3 0 1.7-.2 2.6-.5 2.6s-2.9-1.8-4.9-3.4c-3.6-3-6.5-5.5-9.1-8.2-3.5-3.4-4.2-4.5-4-6.3.1-2 1.4-3.7 7.5-10.5 3.2-3.5 4.2-4.8 4.8-6.1 1.2-2.5-.7-1.6-4.7 2-2.8 2.7-4.1 3.6-4.9 3.6l-1.1-.4c-1.2-.6-3.4-.7-8.3 0L37 79l-3.5-3.3c-4.1-4-5.4-5-7-6.3-3.7-2.9-6.6-3.3-9.6-1.3-1.6 1-2.5 1.4-3.8 1.4-1.8 0-3.5-1-4.1-2.7-.6-1.5.3-2.6 6-8.5 3.8-4 6-6.4 6-6.7 0-.3-.8-.3-2.1-.2-4 .2-4.4.2-5.4 0-1.3-.3-2.4-1-3-1.7-.4-.5-.4-.7-.4-1.5 0-1.3.2-1.3 1.5-.2 2.2 1.9 2.5 2 2.3 1-.3-1.6-1.8-3.4-3.8-4.6-2.6-1.4-3-2-3-4.4l.1-1.6.5.3a40.5 40.5 0 0 0 11 10.2c1.5 1 1.8 1.1 2.2.4.2-.5-.1-1-1-1.5-2.3-1-7.3-5.6-9.7-8.8-1.3-1.7-1.4-1.9-1.1-2.6.4-1 1.4-.2 3.3 2.4 3 4.2 7.4 7.6 10.2 8 .8.1 1 0 .6-.7a9 9 0 0 0-4.6-3.1c-1-.2-1.9-.9-2.8-2a8.1 8.1 0 0 1-1.8-3.6c0-.6 0-.8.3-1.1.9-.9 1.6-.2 1.7 1.6.2 2 .1 1.9 1.6 2.3 2 .7 2.2.6 2.3-1.6.2-2.1.6-2.8 1.4-2 .4.5.6 1.3.8 2.8 0 1.2.6 2.7 1.2 3.2.4.6 1.5 1.1 1.9 1 .7-.2 2.3-2.1 3.3-4 .4-1 .5-1.1.4-2a29.7 29.7 0 0 0-5.9-12c-1.3-1.5-2.4-3-3-4.3-.4-.8-.5-1.3-.6-2.1 0-1 0-1.2.3-1.5.3-.3.3-.3.6 0 .2 0 .7.6 1 1 .4.6.8 1 .9 1l.7-.6c.8-.9 1-.7 1 1.2.1 1 .3 1.8.5 2.3.4 1 1.4 2 2.1 2 .6.2 1.5 0 1.7-.4.3-.3 1.4-.5 2-.4.5 0 1.2.7 1.2 1 0 .2-.4.7-.9 1.2-1.1 1.3-1.4 1.8-1.5 3.3 0 1.3.3 3.2 1.2 6.6.8 2.8.6 3.7-1 6.2-.7 1.1-1.2 2.2-1 2.4a28.8 28.8 0 0 0 7.9-8.3l.6-1.1v-2a14 14 0 0 0-3.8-9.7c-1.7-1.7-2-2-2-2.6 0-.4.2-.5.5-.5h.6c.9.2 1.2-.6 1-2.7 0-1.6 0-2.1.3-2.1.6 0 1.4 1.4 2.5 4.4.8 2.1 1.5 3.4 2.3 3.8 1 .7 1.9.2 2.5-1.6a5 5 0 0 1 .7-1.5c.6-.7 1.6-.5 2.1.5.4.7-.2 2-2 4.1a8.1 8.1 0 0 0-2.2 3.8l-.3 5.2a31 31 0 0 1-.3 4.8c-.3 1-.8 1.6-2 2.2-2.2 1-5.3 3.4-8 6-2 2.2-2.9 3.5-2 3.5.6 0 1.7-.7 3.4-2.2l1.7-1.5.3 1.6.5 2c.4.6 1.4 1 3.7 1 3.2.1 6.2-.3 10.4-1.7a25 25 0 0 1 18.1-.1c2.6 1 3.4 1 10 1 3.3 0 8.7-.1 12-.3a115.5 115.5 0 0 1 17.2.4 97 97 0 0 1 8.7 4c2.5 1.3 3.4 2.5 2.5 3.3-.3.2-.5.2-2.1.2-1.8 0-1.9 0-2 .4l.7 1.8c.7 1.7.9 2.5.5 3.9a30 30 0 0 1-5.6 9.1c-3 3.8-4 5.4-4.4 7.4-.4 1.8-.1 3.3 1 6.2 1 2.7 1 4-1 8.3-2.6 5.8-6.9 14.6-8.1 16.3-.5.8-1.1 1.5-1.5 1.8-.6.4-.8.4-2 .5-.8 0-1.6 0-1.9-.2z"/>
  <path fill="currentColor" d="M115.3 114c-.4-.4-.4-.4-.2-1l1-2.3c1-2 1.3-2.6 1.5-4a28 28 0 0 0-.7-7c-1.3-8-3-11-8-14.4a13.6 13.6 0 0 1-3.7-3.2l-.2-.9c0-.8 2.3-5 3.3-6l.3-.3 3.8 3.9a65 65 0 0 1 4.4 4.7c1.7 2.6 2.4 5.5 3.8 15.1a39.9 39.9 0 0 1 .9 11.6c-.5 2-2.7 3.5-5.3 4-.4 0-.7 0-1-.3zM45 113c-1.3-.1-1.2-.6 1-3.8 1.8-2.8 2.8-5 3.5-7.3.7-2.5 1-2.8 2.2-1.7.6.5 1 1.6 1.2 3.2.3 1.9 0 3.5-1.2 5.4-1.6 2.8-4.4 4.5-6.7 4.2z"/>
</svg>
