<svg xmlns="http://www.w3.org/2000/svg" version="1.0" viewBox="0 0 128 128">
  <path d="M53 22c-3.4.3-7.7 1.7-11.5 3.6l-6 3.2V22.5l-6.8-.2L22 22l-2.1 4.5c-1.4 3-2.8 4.5-4 4.5-1 0-2.3.9-2.9 2-1.4 2.7.2 5.6 3.5 6.4 2.1.5 2.5 1.2 2.5 4.4 0 2.1-.7 4.7-1.5 5.8-1.5 2-2 7-.9 9.8.8 2.2 9 7.6 11.4 7.6 1.2 0 3.2-1.7 4.8-3.9l2.9-4 2.1 4.8c1.1 2.7 3.4 6 5.1 7.4 1.9 1.6 3.4 4 4 6.6.5 2.3 1.6 5.2 2.5 6.6 2.2 3.3 2 9.4-.4 12.5-2.2 2.8-2.6 7.9-.7 8.5.6.2 5.1.6 10 .8l8.8.5 3.1-4.6c3-4.3 3.1-4.7 2-8.9-.8-2.9-.9-5-.3-6.2.6-1 1.3-4.1 1.7-6.9.9-6.7 3.4-7.3 3.4-.7 0 3 .5 4.7 1.6 5.3 1.4.8 1.5 1.4.4 4.6-.6 2-2.7 6-4.6 8.8-4.6 6.8-4.2 8.2 2.2 8.6 5.7.3 12.3-2.7 12.5-5.6.1-1 .4-.4.8 1.3.6 2.8 1 3 5.6 3.3 6.8.4 9.3-2.2 9.9-9.9.8-10.5 1.9-18 2.7-18.5 1.2-.7 1.1-4.8-.2-6.1-.6-.6-.9-2.8-.7-4.9.2-3.1.9-4.2 3.1-5.2 3.5-1.7 4.7-4.7 4.7-12 0-6.4-1.8-10.2-7.9-16.5-7.3-7.6-8.5-8-21.5-6.6l-11.4 1.3-5.3-2.6c-6.3-3.1-8.5-3.5-15.9-2.8zm-27.8 6c-1.4 2.3-1.6 7-.3 7 .5 0 1.6-1.7 2.4-3.8 1.6-3.9 4.3-6.9 5.3-5.9.3.3-.2 1.9-1.2 3.6-3.2 5.5-.7 5.8 8.7 1 7.5-3.8 9.2-4.3 15.4-4.4 5.1 0 8.4.6 12.2 2.2 5.6 2.5 11 2.8 21.2 1.3 5.6-.8 6.9-.6 10.4 1.1 2.1 1.1 4.2 2.9 4.4 4 .3 1 .9 1.9 1.4 1.9.5 0 2.2 2.1 3.8 4.6 2.3 3.7 2.8 5.7 2.7 10-.1 5.6-2.6 10.4-2.6 5.1 0-4.2-1.3-3.2-3.4 2.6-1.7 4.6-2 8.6-1.5 15.9.1 1.3-.1 4.1-.4 6.3-.3 2.2-.9 7.7-1.3 12.2-.5 5.7-1.1 8.3-2 8.3-.7 0-1.4.5-1.6 1.1-.2.6-1.8.9-3.6.7l-3.2-.3 2.1-4c2.8-5 3.5-14.9 1.3-18.2-.8-1.2-1.4-3.6-1.4-5.2s-.4-3.2-.9-3.6c-.5-.3-1.1 2.7-1.4 6.7-.4 6.5-1.4 10.5-4.9 20.1-1.1 2.8-6.1 5.7-9.9 5.7-2.6 0-2.4-.9 1.1-5.2 5.9-7.1 7.6-14.3 4-16.6-1.7-1-2-1.9-1.5-4.5.9-4.8-1.2-7-5.8-6.2-2.8.6-3.7 1.2-3.7 2.7 0 1.1-.8 5.2-1.7 9-1.3 5.4-1.4 7.8-.6 10.9.6 2.1.6 3.9.1 3.9-.4 0-1.4 1.1-2 2.5-.9 1.9-1.9 2.5-4.5 2.5-1.8 0-3.3-.5-3.3-1 0-.6.4-1 .9-1 1.9 0 3.3-6.1 2.6-11.3-.4-2.8-.7-6.7-.7-8.5.1-2.1-.4-3.2-1.1-2.9-.8.3-1.1 3.1-.9 9.4.3 8.5.2 9.1-2.3 12.1-1.9 2.3-3.5 3.2-5.7 3.2h-2.9l2.2-3.1c1.2-1.7 2.6-5.1 3-7.6.7-3.8.5-5.1-1.6-9.1-1.4-2.6-2.5-5.7-2.5-6.9 0-1.3-1.5-4-3.3-6-1.8-2.1-3.9-5.2-4.7-6.8-1.7-3.7-7-9.5-8.6-9.5-.6 0-1.1 1.2-1.1 2.6-.1 1.6-1.1 3.6-2.8 5.1l-2.7 2.5-1.4-2.1C24.6 61 23 60 22 60c-2.8 0-3.6-4.4-1.6-8.6.9-1.9 1.6-5.7 1.6-8.4 0-4.7-.1-4.9-3.5-6-1.9-.6-3.5-1.6-3.5-2.1 0-.6 1.5-.7 3.5-.3 3.2.6 3.5.4 3.5-1.8 0-4.2 2.1-9.1 3.3-7.9.9.9.8 1.7-.1 3.1zm68.3 63.2c-.4 1.8-1.4 4.4-2.2 5.8-.8 1.4-1.2 1.7-.9.8.3-.9 1-3.5 1.6-5.7 1.3-4.9 2.5-5.5 1.5-.9z" />
  <path fill="currentColor" d="M75.683 103.813c-.955-.418-.53-1.33 2.243-4.809 3.947-4.952 5.974-9.256 5.974-12.685 0-2.047-.572-3.275-1.972-4.232-1.554-1.064-1.807-1.869-1.377-4.388.122-.718.163-1.458.132-2.352-.044-1.224-.07-1.35-.427-2.05-.732-1.434-1.842-1.974-4.018-1.953-1.88.018-3.875.572-4.669 1.295-.401.366-.536.72-.617 1.614-.126 1.388-.585 3.844-1.452 7.771-1.598 7.238-1.681 8.498-.815 12.29.388 1.698.488 2.493.388 3.084-.064.379-.138.48-.444.607-.48.201-1.21 1.145-1.816 2.348-.597 1.184-1.366 2-2.152 2.283-.713.257-2.831.354-3.87.18-.992-.168-1.63-.517-1.677-.918-.046-.402.405-.854.853-.854 1.01 0 1.985-1.951 2.506-5.016.285-1.673.266-5.1-.04-7.497-.328-2.561-.47-4.316-.57-6.998-.07-1.912-.118-2.343-.297-2.703-.256-.517-.473-.663-.843-.57-.9.226-1.135 2.787-.942 10.297.194 7.548.071 8.193-2.073 10.87-1.408 1.757-2.553 2.702-3.855 3.183-.57.21-.936.248-2.74.286l-2.082.043.646-.92c.355-.506.904-1.283 1.221-1.727 2.165-3.034 3.66-7.864 3.536-11.43-.063-1.816-.24-2.354-1.845-5.623-1.726-3.515-2.3-5.083-2.534-6.935-.19-1.504-1.184-3.426-2.775-5.37-2.392-2.922-4.07-5.33-5.228-7.5-.901-1.69-1.739-2.95-3.033-4.56-2.125-2.647-4.682-4.907-5.55-4.907-.649 0-1.01.686-1.18 2.246-.205 1.876-.983 3.546-2.266 4.866a72.562 72.562 0 0 1-1.87 1.79l-1.334 1.24-.703-1.07c-.387-.588-.97-1.332-1.294-1.653-.75-.74-1.907-1.318-2.918-1.458-.414-.057-.883-.188-1.041-.292-1.134-.743-1.656-2.397-1.442-4.566.108-1.1.376-2.046 1.033-3.642.552-1.342.94-2.791 1.284-4.803.203-1.185.244-1.864.25-4.069.011-4.265-.089-4.434-3.3-5.567-2.808-.991-4.264-2.062-3.301-2.428.458-.175 1.906-.124 3.199.11 1.475.27 2.658.29 2.994.054.318-.222.469-.804.47-1.815.002-2.125.573-4.71 1.426-6.456.53-1.084 1.038-1.703 1.399-1.703.234 0 .689.49.88.95.22.525.135.876-.509 2.082-.858 1.608-1.217 3.039-1.23 4.896-.011 1.542.283 2.325.873 2.325.563 0 1.316-1.133 2.41-3.63 1.029-2.347 1.907-3.797 3.071-5.07.86-.94 1.816-1.354 2.163-.935.122.147.115.295-.045.904-.194.74-.393 1.176-1.577 3.442-2.02 3.866-.54 4.591 4.757 2.332.848-.361 3.203-1.476 5.235-2.477 6.437-3.171 8.025-3.672 12.538-3.948a40.842 40.842 0 0 1 6.79.182c2.71.305 4.51.785 7.628 2.032 3.823 1.53 5.882 1.96 9.867 2.064 3.366.088 6.143-.13 11.687-.919 1.69-.24 2.562-.306 4.079-.306 1.792 0 2 .021 2.921.304 2.14.655 4.466 1.98 5.95 3.39.785.746.977 1.037 1.55 2.36.344.795.618 1.105 1.21 1.367.535.236 1.346 1.135 2.57 2.846 1.741 2.436 2.9 4.635 3.373 6.407.982 3.671.385 10.188-1.12 12.235-.553.752-.795.202-.909-2.067-.092-1.843-.25-2.432-.65-2.432-.625 0-1.5 1.59-2.784 5.06-1.556 4.203-1.97 7.901-1.64 14.62.153 3.08.101 4.296-.329 7.772-.35 2.84-.75 6.561-1.16 10.805-.567 5.892-.88 7.831-1.442 8.95-.259.515-.324.56-1.02.7-.389.078-1.228.752-1.228.985 0 .252-.393.492-1.107.676-.772.199-1.844.18-4.299-.072l-1.271-.131 1.352-2.605c1.41-2.716 1.846-3.763 2.303-5.522.647-2.488.934-4.796.94-7.556.008-3.045-.39-5.09-1.278-6.56-.757-1.252-1.38-3.65-1.38-5.302 0-1.307-.484-3.216-.875-3.458-.508-.315-1.038 1.748-1.378 5.372l-.346 3.69c-.271 2.896-.664 5.017-1.497 8.077-.892 3.278-3.108 9.671-3.638 10.498-.484.754-2.012 2.143-3.107 2.824-2 1.244-3.978 1.893-5.973 1.96-.728.023-1.424-.001-1.547-.055z" />
</svg>
