<svg xmlns="http://www.w3.org/2000/svg" version="1.0" viewBox="0 0 128 128">
  <path d="M79.6 4.6c-1.6.8-3.8 1.4-5 1.4-1.2 0-2.7.5-3.4 1.2-1.6 1.6-1.5 9.9.2 12.3.8 1.1 1.9 5.6 2.6 9.9.9 5.3 2 8.7 3.6 10.5 2.2 2.6 2.2 2.7.4 5.1-1.7 2.2-2.8 2.5-12.7 3.1-8 .5-13 .2-19.3-1-16.3-3-24.8-1.4-29.7 5.9-2.9 4.2-3 10.4-.3 21.7l2.1 8.4L16 86c-2.5 3.4-2.4 3.1-2.2 21.8L14 122l2.6 1c3.4 1.3 7.4.2 8.3-2.4.5-1.2.3-3.7-.5-6-.8-2.1-1.4-5.5-1.4-7.5 0-3.3.3-3 3.6 4.4 5.1 11.6 4.6 11 9.5 11 4.2 0 4.4-.2 4.7-3.1.2-2-1.1-5.9-3.7-11.4-2.3-4.6-4.1-9.1-4.1-10.1 0-.9 1.2-4.3 2.8-7.5l2.7-5.9h21.8l1.2 4c1.3 4.6 3.1 15.8 4 25.8.8 8.5 2.5 10 10.3 9 6.4-.7 8.6-3.1 7-7.2-.5-1.4-1.2-9.5-1.5-17.9-.7-17.1-.6-17.4 6.3-25.7C93 65.8 99 57.3 99 56c0-.5 1-1 2.3-1 5.3 0 8.8-6 5.2-9-2.2-1.8-1.9-2.7 2-7.3 2.3-2.7 3.5-5.1 3.5-7.1 0-1.7.9-4.2 2-5.6 2.3-3 2.6-7.8.5-8.6-.8-.4-1.5-1.4-1.5-2.4 0-2.4-2.6-4.3-5-3.7-1.4.4-2 0-2-1.2 0-2.2-3.1-5.1-5.4-5.1-.9 0-2 1-2.5 2.2-.6 1.8-.9 1.9-1.4.5-.8-2.1-5.6-2.2-6.4-.2-.3.9.3 4 1.4 6.9 1.9 5.1 1.9 5.3.1 4.8-1-.2-2.9.3-4.3 1.2-3 2-3.1 1.4-.4-3.1 2.2-3.6 2-6.3-.6-6.3-1.3 0-1.5-.6-1-2.9.9-4-1.9-5.6-5.9-3.5zm1.7 6.7c-2.5 5.1-3.9 14.2-2.4 15.2.7.4 1.1-.5 1.1-2.5 0-3.3 2.5-9.6 4.2-10.6 1.9-1.2 1.9.5-.1 3.7-1.2 1.9-2.1 4.5-2.1 5.8 0 2.1.3 2.3 3.3 1.7 1.7-.4 3.4-1.1 3.5-1.6.4-1.2 3.2-1.4 3.2-.2 0 1-4.1 3.5-6.5 3.9-1.1.2-2.6 1-3.4 1.8-1.3 1.3-1.3 1.7.4 2.9 1.8 1.3 2.1 1.3 3.1.1 1.5-1.9 2.8-1.9 2 0-.6 1.6 2.9 4.5 5.5 4.5 1 0 2-1.1 2.4-2.7.3-1.5 1.5-3.3 2.5-4 1.4-1 1.6-2 1.1-4.5-.4-1.8-1.3-4.2-1.9-5.3-1.9-3.3-4.3-9.8-3.8-10.3 1-1 2.6 1.1 3.6 4.8.6 2.2 1.5 4 1.9 4 1.1 0 2.1-3.5 2.1-7.3 0-1.5.5-2.7 1-2.7 1.3 0 1.1 9.8-.2 10.6-1.2.8-1 7.2.3 8 2.1 1.2 5.1-3.2 5.8-8.7.6-3.9 1-4.9 1.6-3.6.4 1 .5 3.6.2 5.7-.3 2.3-.1 3.8.4 3.4.5-.3.9-1.2.9-2s.7-1.4 1.6-1.4c3.1 0-1.9 6-7.3 8.6-5.2 2.6-9.7 6.4-7.4 6.4.6 0 3-1.2 5.2-2.6 2.8-1.7 4.5-2.2 5.1-1.6 1.5 1.5-2.8 8.1-5.8 8.8-3.1.8-3 2.8.1 6.6 2 2.4 2.3 3.3 1.4 4.4-.6.8-2.3 1.3-3.7 1.2-2.5-.3-3.3.6-7.8 8.7-.9 1.6-3.6 5.2-5.9 8-8.2 9.6-8.5 10.6-8.5 24 0 10.3.9 20.1 2.2 25.4.1.8-.4 1.6-1.2 1.8-2.2.5-4.2-9.5-4.6-22.4-.3-11.2-1-14.6-2.7-14-.7.3-1 1.1-.8 1.8.3.8.8 6.8 1.1 13.4.4 6.6 1.2 13.9 1.9 16.3 1.3 4.9.9 6.2-1.9 6.2-2.3 0-2.5-.6-4.5-16.7C66 92.7 64.1 85 62 82.5c-.6-.8-5-1-13.7-.9l-12.7.3-1.2 3.5c-.7 1.9-2 4.6-3 6.1-2.6 4-1.9 8.7 3 18.7 2.3 4.8 4 9 3.8 9.3-1.2 1.2-4.3.4-4.9-1.3-1-2.8-7.1-15.4-9.3-19.2-1.7-3-1.8-3.7-.6-5.5 1.6-2.4 2.4-9 1.3-10.1-.3-.4-.8-.1-1 .7-.2.8-1.2 3.8-2.2 6.7-1.4 4.2-1.6 7.1-1.1 14 .3 4.8.7 10.3.9 12.2.1 2.5-.2 3.5-1.4 3.8-2.3.4-2.7-2.1-3-17.5-.2-10.8 0-13.5 1.3-15 3.6-4.2 3.8-5.8 1.9-13.5-1-4-2.1-9.4-2.5-12-1.8-12.3 8-16.6 28.3-12.3 7.5 1.6 23.7 1.2 29.9-.7 3.1-.9 8.2-6.3 8.2-8.6 0-.6-.9-1.3-1.9-1.7-2.2-.7-3.5-3.8-5.1-12-.7-3.3-1.8-7.7-2.6-9.8-1.8-4.9-1.8-8.7 0-8.7 1.1 0 1.3.9.9 3.4-.7 4.2 1.3 5.7 2.2 1.7.7-3.3 4.4-8.6 5.3-7.6.3.3-.4 2.4-1.5 4.8zm12.6 17.2c-1.2 1.9-2.5 3.5-3 3.5-1.7 0-.9-3.7 1.1-5.5 1.1-1 2-2.8 2.1-3.9 0-2 .1-2 .9.1.7 1.7.4 3.2-1.1 5.8z" />
  <path fill="currentColor" d="M71.387 120.877c-1.566-.248-1.959-1.823-3.527-14.155-1.15-9.054-2.175-14.706-3.407-18.808-1.042-3.47-2.018-5.399-2.913-5.757-1.571-.628-7.409-.767-19.524-.462-3.541.09-6.448.175-6.46.191-.012.016-.357.995-.766 2.174-.833 2.404-1.917 4.833-2.856 6.4-.894 1.493-1.58 2.918-1.806 3.748-.292 1.075-.264 3.764.056 5.237.613 2.834 1.72 5.662 4.576 11.687 1.308 2.76 2.607 5.789 3.07 7.159.346 1.022.35 1.055.153 1.273-.696.769-3.177.417-4.118-.585-.137-.145-.621-1.127-1.077-2.182-1.86-4.305-6.421-13.656-8.383-17.186-1.88-3.383-2.044-4.026-1.362-5.323 1.24-2.358 1.533-3.172 1.938-5.392.237-1.3.326-3.746.164-4.52-.213-1.018-.722-1.465-1.14-1-.181.204-2.773 7.945-3.162 9.45-.571 2.205-.835 5.015-.726 7.722.097 2.417.676 11.105.955 14.332.397 4.6.118 5.723-1.46 5.875-.506.049-.562.027-.967-.379-1.118-1.118-1.423-4.251-1.68-17.243-.106-5.301-.106-7.315-.002-9.206.205-3.74.436-4.565 1.706-6.095 2.03-2.445 2.628-3.868 2.625-6.242-.002-1.657-.218-2.919-1.217-7.127-1.104-4.652-1.997-8.97-2.447-11.841-.21-1.335-.18-4.113.056-5.182 1.045-4.751 4.577-7.416 10.979-8.284 1.648-.224 5.821-.25 7.938-.05 2.173.205 5.67.732 8.49 1.28 4.602.894 7.077 1.095 13.505 1.096 8.94.002 15.655-.766 18.306-2.094 2.968-1.487 6.91-5.91 7.083-7.948.045-.526.02-.595-.363-1.02-.277-.306-.744-.614-1.424-.938-1.253-.597-1.857-1.226-2.548-2.651-.84-1.735-1.45-3.875-2.48-8.717-1.045-4.906-1.782-7.731-2.751-10.548-1.282-3.728-1.626-6.353-1.012-7.74.12-.27.318-.545.44-.61.247-.133.783-.159 1.06-.052.523.2.623 1.23.325 3.354-.254 1.812-.101 3.127.432 3.716.316.35.66.311 1.033-.114.357-.408.547-.878.965-2.394.815-2.954 3.848-7.465 4.878-7.255.472.097.112 1.555-1.02 4.136-2.127 4.85-3.245 9.409-3.245 13.234 0 2.022.29 2.842.975 2.763.49-.056.676-.618.79-2.37.108-1.664.198-2.224.603-3.748.575-2.162 1.768-4.854 2.73-6.159.58-.786 1.587-1.41 1.93-1.196.49.306.141 1.517-1.013 3.517-1.32 2.29-1.92 3.72-2.213 5.287-.329 1.752-.052 2.834.765 2.987.756.142 3.036-.331 4.607-.956.847-.338 1.117-.537 1.623-1.205.342-.45.878-.673 1.634-.68.665-.006 1.16.262 1.22.661.07.478-1.248 1.611-2.957 2.541-1.16.632-2.24 1.06-3.378 1.34-1.697.416-3.04 1.203-3.98 2.33-.517.619-.603 1.07-.29 1.517.236.337 1.76 1.463 2.4 1.772.747.362 1.03.255 1.915-.723 1.576-1.741 2.46-1.815 1.969-.164-.115.387-.135.66-.067.9.512 1.786 3.33 3.733 5.412 3.74.628.001.787-.042 1.166-.316.562-.407 1.052-1.15 1.294-1.963.611-2.055 1.252-3.12 2.615-4.347 1.135-1.023 1.351-1.457 1.34-2.689-.017-1.817-.914-4.79-2.21-7.331-1.547-3.03-2.966-6.5-3.502-8.563-.343-1.32-.343-1.505-.004-1.687.59-.316 1.37.363 2.134 1.857.493.964.741 1.633 1.295 3.483.409 1.364.966 2.685 1.374 3.257.743 1.044 1.797-.55 2.312-3.496.066-.375.188-1.654.27-2.84.13-1.856.187-2.23.41-2.68.335-.675.69-.764.91-.226.196.476.371 1.634.455 3.012.13 2.152-.323 6.096-.772 6.707-.615.836-.73 1.025-.84 1.383-.185.6-.257 3.57-.11 4.534.171 1.125.514 2.122.834 2.422.395.371 1.131.42 1.757.118.762-.369 1.793-1.56 2.467-2.848.855-1.634 1.366-3.325 1.842-6.087.443-2.577.78-3.804 1.048-3.804.09 0 .25.175.355.388.436.892.529 3.15.242 5.887-.181 1.73-.141 2.87.114 3.218.136.187.16.187.432.009.393-.258.734-.969.847-1.767.148-1.053.66-1.542 1.613-1.542.598 0 .807.18.807.695 0 1.15-2.069 3.612-4.67 5.558-1.545 1.155-1.806 1.317-3.953 2.45-3.836 2.025-7.283 4.594-7.54 5.62-.13.513.009.63.68.574.703-.059 2.479-.898 4.513-2.134 2.376-1.444 4.18-2.253 5.022-2.253.172 0 .451.12.621.266.276.237.307.333.297.91-.03 1.703-2.073 5.046-4.041 6.614-.975.776-1.2.9-2.243 1.249-1.595.533-2.082 1.079-2.007 2.252.073 1.136.76 2.38 2.584 4.678 1.615 2.036 1.88 2.819 1.275 3.772-.601.947-2.036 1.448-4.009 1.401-1.05-.025-1.186-.003-1.766.281-1.135.555-2.201 2.012-4.776 6.526-2.135 3.744-3.977 6.304-8.01 11.135-3.937 4.714-5.143 6.464-6.077 8.82-1.087 2.74-1.398 5.699-1.399 13.285 0 9.734.683 18.687 1.883 24.64.354 1.759.35 2.163-.023 2.638-.242.307-.752.615-1.02.615-.542 0-1.362-1.318-1.922-3.087-1.305-4.12-2.114-10.83-2.446-20.286-.3-8.556-.733-11.774-1.717-12.761-.447-.448-.889-.473-1.361-.075-.468.394-.631.99-.473 1.729.178.83.324 2.062.512 4.327.15 1.798.259 3.496.617 9.592.402 6.84 1.16 12.978 2.035 16.482.45 1.803.609 3.458.394 4.11-.073.22-.3.547-.507.728-.358.315-.461.345-1.707.496-.151.018-.523-.006-.827-.054z" />
</svg>
