<svg xmlns="http://www.w3.org/2000/svg" version="1.0" viewBox="0 0 128 128">
  <path d="M111.2 22.7c-3.3 7.2-8 8.5-11.2 3-1.1-1.9-3.1-4-4.5-4.7-2.2-1.2-2.8-1.2-4.2.3-1.5 1.4-1.5 2-.3 4.2.8 1.4 1.4 4.6 1.4 7.1l.1 4.6-6.5 2.6c-5.8 2.3-7.9 2.5-19.5 2.6-7.1 0-16-.2-19.7-.3A37 37 0 0 0 33.1 44c-9 2.8-12.1 6.1-12.1 12.9 0 2.6.5 5.2 1.2 5.9.9.9.7 1.7-1 3.5-2.6 2.7-2.9 6.2-.7 7.5 1.2.6.3 1.5-4 3.6-3.8 2-5.7 3.6-6.1 5.3a52.3 52.3 0 0 0 4.3 21.7c3.5 4.9 12.3 4.5 15.2-.5 1.3-2.4 1.3-2.9-.2-5.3-1-1.4-2.6-2.6-3.7-2.6-3.3 0-2.7-4.6.8-5.4l4.3-1.2c1.1-.3 2 .5 2.9 2.5a32 32 0 0 0 11.7 10.9c3.2 1.7 10.9 1.5 12.7-.4 2.2-2.1 2-6.7-.2-8.7-1-1-3.2-1.7-4.9-1.7-1.7 0-3.6-.7-4.3-1.5-1-1.2-.4-2.3 3.3-6.5l4.6-5.1 8.9-.2c5.5-.1 9.5-.7 10.4-1.5 1.4-1.1 1.9-.9 3.7 1.4 2.7 3.4 2.6 4.1-.9 8.8-3.6 4.8-3.9 8.9-.8 11 2.8 2 4.7 2 6.9 0 1.6-1.4 1.9-1.2 4.8 3 3.5 5 6.2 6.2 11.6 5.2 6.7-1.3 8-8 1.9-10.1-1.6-.5-3.2-1.4-3.6-2-.4-.5-.8-4.5-.8-8.7 0-7.1.4-8.6 4.4-17a261 261 0 0 0 5-11.5c.4-1.2 1.5-2.5 2.5-2.8 2.1-.6 4.1-4.6 4.1-8 0-1.3.5-2.7 1.1-3.1.6-.3 1-3 .8-6.3-.1-3.1.1-7.3.6-9.4.9-4.4-.6-8.7-3-8.7-.8 0-2.3 1.7-3.3 3.7zm3.1 9c-.3 5.4-.9 10.2-1.4 10.7-.5.6-.9 2.2-.9 3.7 0 6.4-2.6 7.6-7.2 3.2-2-1.9-2.8-2.2-2.8-1.1 0 .8.9 2.3 2 3.3 2.7 2.4 2.1 5-3.6 16.5-4.1 8.2-4.4 9.4-4.4 16.9 0 9.6 1.1 12.4 5.6 14 5.3 1.9 3.9 4.5-2.8 5-3.3.2-3.9-.1-6.3-3.9A76 76 0 0 1 87 87.4a55.8 55.8 0 0 0-4.1-10c-1-1.2-.7-2 1.6-4.4 3.5-3.7 2.4-3.8-5.1-.3a31.6 31.6 0 0 1-14.9 2.9l-9 .2-5.3 6.1a33 33 0 0 0-5.2 7.5c0 2.4 4.9 6 8.3 6 2.7.1 3.2.5 3.5 2.9.3 2.6.2 2.7-4.2 2.7-5.5 0-11.1-3.5-15-9.4l-2.5-3.8 5.9-4.7c3.3-2.5 5.9-4.9 6-5.4 0-1.5-2.2-.5-7.2 3.3a45.6 45.6 0 0 1-9.8 5.6c-9 3.2-9 3.2-9 6.3 0 4.5 1 6.1 3.6 6.1 2.9 0 4.1 2.4 2.4 4.5-1.7 2.1-7.3 1.9-9.3-.3a63.5 63.5 0 0 1-4.7-19c0-1.2 1.2-2.2 3.5-3.1 3.6-1.3 11.5-8.2 11.5-10 0-1.4-1.7-1.4-2.5-.1-.8 1.2-1.6 1.2-3.4.1-1.1-.7-.9-1.4 1.5-3.4 2.6-2.2 2.7-2.7 1.6-5.1-2-4.4-1.5-10 1.1-12.4a40 40 0 0 1 22.3-5.4c2.7.4 10.8.7 17.9.6 12 0 13.6-.3 21-3.1l8-3-.1-6.1c0-3.4-.7-6.8-1.4-7.7-.7-.8-1-1.8-.8-2.1.3-.3 2.2 1.5 4.3 4 3.3 4.1 4.1 4.5 7.1 4.1 5-.6 7.1-2.1 8.5-6 .7-1.9 1.4-3.5 1.5-3.5.1 0 0 4.4-.3 9.7zM84.9 90.3c.1 2.9-.3 4.8-1.3 5.7-2 1.5-4.6.6-4.6-1.7 0-1.7 4-8.3 5.1-8.3.3 0 .6 2 .8 4.3z"/>
  <path fill="currentColor" d="M20.8 104.8c-1-.2-2.2-.8-2.8-1.3-.6-.5-2.4-5.5-3.4-9.6-.6-2.3-1.2-5.6-1.5-8-.2-1.8-.2-2 .1-2.5.4-.8 1.6-1.7 3.1-2.3 3.2-1.3 9.1-6 11-8.8.8-1 .8-1.7.2-2-.6-.4-1.1-.2-2 .8-.7.7-.9.8-1.3.8-1 0-2.7-1-2.7-1.6 0-.6.6-1.4 2.2-2.7 2.3-2 2.5-2.5 1.5-4.9a13.2 13.2 0 0 1-.4-10.3c.8-1.8 1.3-2.2 3.6-3.3A40.7 40.7 0 0 1 49 44.8c3.5.4 8 .5 16.3.5 11.4 0 13.8-.2 17.8-1.5l12-4.4c.3-.1.3-.3.2-4.6 0-5.8-.4-7.8-1.5-9.5-.8-1.3-1-2.2-.2-1.8.6.3 2.2 2 4.1 4.1 2.3 2.7 2.7 3.1 3.8 3.6.7.4 1 .4 2.3.3 3.3-.2 5.6-1 7-2.5 1.2-1 1.6-1.8 2.8-4.7.4-1.2.8-2.1 1-2.2.2-.2-.2 9.5-.7 14.6a19 19 0 0 1-1 5.8c-.6 1.1-.7 1.6-.9 4-.1 2.7-.5 4-1.3 4.8-1.2 1.3-3 .7-6.1-2.1-1.3-1.2-2-1.7-2.3-1.5-.3.1-.2 1 .2 1.8.2.4.8 1.2 1.4 1.8 1.4 1.4 1.6 2 1.6 3.5 0 2-.8 4.4-4.1 11.2a44 44 0 0 0-5 12.3 64 64 0 0 0-.3 10.4c.3 4.7 1 6.9 2.5 8.3.7.8 1.1 1 4 2.3 1.3.6 2.3 1.5 2.3 2.1 0 1.3-2.6 2.3-6.3 2.5-2.1.1-3 0-3.8-.8a23 23 0 0 1-4-6.4 74.4 74.4 0 0 1-4-9.9 54.8 54.8 0 0 0-4-9.5c-.9-1.2-.5-2 2-4.6.9-1 1.6-2 1.6-2.3 0-.6-2.1.1-6.4 2a33.1 33.1 0 0 1-15.7 3.3h-6.1l-2.8.2-3.3 3.8a41.8 41.8 0 0 0-6.8 9.2l-.3.7.3.8c.5 1 1.4 2 2.8 3 2 1.3 3.2 1.8 5.5 2a8 8 0 0 1 2 .4c.8.4 1.2 1.3 1.2 3 0 1.5 0 1.5-.4 1.8-.4.3-.6.4-3.1.4-2.4 0-3 0-4-.4a19 19 0 0 1-8-4.5 29.3 29.3 0 0 1-4.6-5.8L35 87.8l.4-.3 4.7-3.7a36 36 0 0 0 6.9-6.2l-.3-.4c-.5-.5-2.4.5-6.3 3.4-4.9 3.6-7.6 5-13.6 7.2-3.1 1.2-4.7 2-5.2 2.5-.5.7-.6 1.5-.5 3.4.1 2.8.6 4.1 1.7 4.8.2.2 1 .4 1.7.4 2 .2 2.9.8 3.2 2 .3 1.1-.3 2.4-1.4 3.2-1.1.8-3.5 1.1-5.5.7z"/>
  <path fill="currentColor" d="M80.3 96.5c-1.1-.5-1.5-1.7-1.2-3 .5-1.7 2.8-5.5 4.2-7 .6-.6.7-.6.9-.4.6.7 1 6.2.4 8-.4 1.3-.7 1.8-1.6 2.3-1 .4-1.8.5-2.7 0z"/>
</svg>
