<svg xmlns="http://www.w3.org/2000/svg" version="1.0" viewBox="0 0 128 128">
  <path d="M16.7 21.7c-1.6 1.5-.4 3.8 4.6 9.1 5.6 6.1 14.9 17 15.9 18.7.4.6-.4 1.1-2 1-2.1 0-2.7.5-2.6 2 0 2.4 18.4 26.7 22.5 29.7 2.1 1.6 2.8 2.9 2.7 5.3-.1 1.8.3 3.8.8 4.6.5.8.9 3.2.9 5.3 0 3.5.5 4.3 4 6.8 5.4 3.8 8.9 3.4 9.3-.9.3-2.7-.1-3.5-2.2-4.5-2.9-1.3-3-1.6-1.6-5.2 1.8-4.9 6-2.9 6 2.8 0 1.3.7 3.7 1.5 5.4 1.3 2.5 2.5 3.3 7 4.3 6.4 1.4 8.5.8 8.5-2.5 0-2.8-3.3-5.6-6.7-5.6-1.7 0-2.2-.7-2.5-3.2-.4-4.2 1-6.9 5.1-10.4 8.6-7.2 14.5-18.9 14-27.9-.4-6.2 1.5-9.9 4.4-8.3 2.5 1.3 5.2-1.1 4.3-3.9-.9-2.8-8.4-8.5-10.9-8.4-1.2.1-4.6.1-7.5.1-6.2.1-7.4 1.6-4.8 6.4 2 3.7 1.4 6-2.3 9.2-3.6 3.1-12.5 6.4-17.2 6.4-6 0-9.3-2.2-22.9-15.4C24.6 22.8 19.4 19 16.7 21.7zM40.1 42c8.6 8.2 17.3 15.8 19.3 16.9 7.1 4 19.7 1.7 27.9-5.2 3-2.5 4-4.1 4.4-7.4.4-3.4.2-4.4-1.1-4.9-.9-.3-1.6-.9-1.6-1.3 0-.9 12.4-1.1 13-.2.3.3 1.7 1.4 3.3 2.4 3.5 2.2 3.5 4 0 2.4-2.1-.9-2.7-.9-3.1.1-.2.7-1.1 2-2 2.9-1.3 1.2-1.7 3.5-1.7 8.7 0 9.1-3.5 16.6-11.4 24.5-7.8 7.7-8.7 9.8-7 15.2 1.2 3.7 1.9 4.4 4.7 5 6 1.2 5.9 3.2-.2 2.2-4.1-.6-5.2-2.3-7.5-11-2-7.2-8.4-6.6-11.3 1.1-1.7 4.5-1 6.6 2.5 7.9.9.3 1.7 1.1 1.7 1.6 0 1.2-2.4.4-5.8-1.7-2-1.3-2.2-2-1.7-5.4.5-2.6.3-4.4-.6-5.5-.8-.8-1.2-2.8-1.1-4.3.3-2.2-.4-3.4-3.2-5.5-3.2-2.5-23.1-27.3-22.4-28 .2-.2 2.6 1.7 5.3 4.1 5.9 5.4 9.4 7.8 10 7.2 1-.9-20.7-28.6-27.6-35.4-2.1-2.1-3.9-4.2-3.9-4.7 0-1.4 4.7 2.7 21.1 18.3z" />
  <path fill="currentColor" d="M84.892 103.29c-2.097-.317-3.023-.718-4.035-1.75-1.158-1.18-2.065-3.327-3.3-7.81-.763-2.767-1.402-4.168-2.341-5.127-1.908-1.95-4.398-1.86-6.606.237-1.398 1.328-2.407 3.086-3.21 5.593-.667 2.083-.686 3.599-.059 4.75.434.797 1.003 1.243 2.533 1.982 1.534.743 2.06 1.212 2.003 1.792l-.034.347-.716-.008c-.859-.009-2.038-.49-4.012-1.636-2.67-1.55-3.047-2.264-2.66-5.026.389-2.785.43-3.392.295-4.264-.146-.943-.429-1.656-.858-2.166-.699-.83-1.039-2.284-1.029-4.401.004-.804-.043-1.628-.105-1.83-.277-.917-1.032-1.851-2.37-2.93-1.725-1.393-3.7-3.523-7.68-8.28-5.956-7.12-12.432-15.402-14.56-18.618-.963-1.455-1.07-1.741-.527-1.424.575.336 2.604 1.978 4.39 3.552l2.867 2.527c3.563 3.143 6.354 5.085 7.313 5.088.298.001.414-.045.414-.167 0-1.062-5.777-9.05-13.948-19.29-6.302-7.896-10.276-12.547-13.944-16.317-2.414-2.48-3.853-4.289-3.61-4.532.428-.428 3.364 1.987 10.66 8.767 2.818 2.62 3.867 3.606 10.543 9.93 9.717 9.203 17.354 15.815 19.54 16.915 4.599 2.315 11.435 2.272 18.094-.114 1.639-.587 4.73-2.08 6.125-2.96 2.487-1.565 5.362-4.086 6.286-5.51.842-1.297 1.258-2.757 1.494-5.241.153-1.619.087-2.582-.22-3.183-.185-.364-.372-.508-1.16-.895-1.361-.668-1.739-1.223-.97-1.426 1.193-.314 2.535-.395 6.533-.396 5.175 0 5.352.026 6.505.947.454.363 1.527 1.129 2.383 1.701 2.154 1.44 3.086 2.407 2.869 2.975-.135.351-.759.206-3.323-.772-.853-.325-1.604-.39-1.88-.161-.098.082-.343.474-.543.872-.42.833-1.079 1.754-1.964 2.746-1.219 1.366-1.47 2.61-1.62 8.01-.106 3.855-.296 5.572-.875 7.937-1.197 4.886-3.885 9.744-7.987 14.433-.43.49-1.874 2.008-3.21 3.373-4.065 4.148-5.316 5.666-6.227 7.552-.661 1.368-.79 1.905-.786 3.264.009 2.352 1.258 6.14 2.453 7.436.588.638 1.33.975 3.04 1.379 2.848.673 4.33 1.33 4.33 1.92 0 .038-.173.14-.383.229-.494.206-2.487.196-3.918-.02z" />
</svg>
