<svg xmlns="http://www.w3.org/2000/svg" version="1.0" viewBox="0 0 128 128">
    <path d="M10.4 34.9c-4.1 2.5-6 4.9-4.7 6.2C7.2 42.6 16.9 45 21.3 45c3.2 0 4.7.8 9.3 5.1 5.8 5.6 6.3 7 3.7 12.7-1.2 2.7-1.6 6.8-1.7 15.4-.1 11.7-.1 11.8 2.2 11.8 3 0 11.8-8.8 15.2-15.3 1.4-2.6 3-4.7 3.7-4.7 2.7 0 13.2 11.2 16.4 17.5 3.8 7.4 5.4 7.9 8.2 2.5 3-5.7 1.5-14.1-4.9-28.6-.3-.7 1-1.7 3.1-2.4 3.1-1 5.1-.9 13.3 1 5.3 1.1 12.3 3.2 15.6 4.6 4.1 1.7 7.4 2.4 11.2 2.3 3-.1 5.4-.3 5.4-.5 0-1.1-11.8-7-23-11.4-7.4-2.9-15.3-6.6-17.4-8.2-2.2-1.5-6-3.4-8.5-4.2-5.3-1.7-26.6-4.6-34-4.6-6.3 0-14.7-1.8-16.4-3.5-1.9-1.9-8.9-1.6-12.3.4zm12.9 3.7c2.1.8 7.3 1.7 11.5 2 12.5.9 32.4 3.4 36.2 4.6 1.9.6 5.8 2.3 8.5 3.8 2.8 1.6 9.5 4.5 15 6.5 13.3 5 20.9 8.4 20.2 9.1-.3.3-4.5-.8-9.4-2.5-16.8-5.8-29-7.4-33.1-4.5-2.7 1.9-2.8 3.4-.2 8.4 3.1 6 5.1 15 4.4 19.2-.3 2.1-.9 3.8-1.2 3.8-.4 0-1.8-2-3.1-4.5s-5.5-7.5-9.3-11.1c-8.9-8.3-10.8-8.3-15.5-.2-1.8 3.1-5 7.4-7 9.5l-3.7 3.8-.8-8c-.6-6.7-.3-8.9 1.3-13.3 3.1-8.6 2.7-10.1-4.5-17C27 42.8 25.7 42 22.3 42c-2.1 0-6-.6-8.8-1.3l-5-1.4 3-1.6c3.1-1.6 5.5-1.5 11.8.9z"/>
    <path fill="currentColor" d="M74.709 88.552c-.534-.607-1.365-1.888-2.209-3.4-.95-1.705-1.87-3.057-3.252-4.777-2.359-2.937-5.294-6.022-8.194-8.612-3.837-3.426-6.145-4.78-7.883-4.622-1.817.165-3.247 1.604-5.748 5.783-1.755 2.932-4.225 6.397-6.124 8.59-1.142 1.32-4.689 4.948-4.689 4.798 0-.063-.194-2.064-.432-4.447-.582-5.841-.718-8.301-.563-10.153.182-2.18.465-3.35 1.704-7.057 1.336-3.997 1.607-5.122 1.615-6.711.016-2.983-1.244-4.916-6.439-9.885-3.44-3.29-5.016-4.6-6.355-5.281-1.096-.558-1.618-.664-4.043-.821-3.81-.247-6.648-.75-10.823-1.915-1.34-.373-2.47-.71-2.514-.748-.123-.108 3.699-2.037 4.546-2.295 2.146-.653 4.677-.3 8.91 1.247 3.566 1.302 7.194 1.947 14.122 2.51 13.427 1.093 30.155 3.241 34.398 4.42 1.666.462 5.105 1.953 7.995 3.467 4.913 2.573 8.347 4.07 16.205 7.06 11.358 4.325 17.95 7.164 19.396 8.357.503.414.515.54.055.54-.992-.004-3.62-.746-9.466-2.674-9.528-3.142-15.046-4.551-21.224-5.42-1.459-.205-2.241-.246-4.747-.25-2.088-.002-3.2.04-3.656.14-1.898.415-3.196 1.062-4.196 2.089-.705.723-.917 1.202-.965 2.187-.055 1.104.336 2.303 1.567 4.801 1.18 2.398 1.87 4.043 2.56 6.106.957 2.868 1.656 5.842 2.017 8.59.202 1.537.231 4.153.058 5.219-.287 1.77-.864 3.546-1.152 3.546-.077 0-.29-.172-.474-.382z"/>
</svg>
