<svg xmlns="http://www.w3.org/2000/svg" version="1.0" viewBox="0 0 128 128">
  <path d="M61.1 3.9C60.5 5 60 6.7 60 7.7c0 1.4-.3 1.2-1.3-.7-1.5-2.9-4.2-3.7-6.4-1.9-1.2 1.1-1.4 2.6-1 7.1.4 4.9 1.1 6.5 4.1 9.8 2 2.2 3.6 4.5 3.6 5s1.9 2.4 4.2 4.1c3.5 2.5 4.2 3.5 4 5.8-.3 2.1.5 3.5 3.3 5.9 3.1 2.8 3.4 3.4 2.3 5.2-.7 1.1-2.6 2.2-4.3 2.4-1.6.2-6 .9-9.7 1.4-4 .6-8.2.7-10.5.1-2.1-.5-6.4-.9-9.6-.9-5.5 0-6.2.3-10.4 4-2.5 2.2-4.9 4-5.3 4-1.8 0-2.9 6.2-2.7 14.5.2 8.5 0 9.3-2.4 12.2-2.2 2.6-2.7 4.7-3.8 14.2-.6 6.1-1.6 12.3-2.1 13.7-1.4 3.5-1.2 10.8.2 12.2 1.9 1.9 7.6 1.5 8.6-.6.5-.9 1.2-6.5 1.5-12.3.4-6.6 1.2-12.1 2.3-14.5l1.6-3.9 1.9 8c1 4.4 1.8 9.8 1.7 12.1-.3 7.5 5.8 12.6 12.1 10.2 2.6-.9 2.6-2.8.2-7.6-2.3-4.6-4.1-12.2-4.3-18.3-.2-4 .2-4.9 3.2-7.7 3.1-2.8 4.2-3.1 9.8-3.2H57l.2 6.2c.1 3.5.2 9.5.2 13.5.1 8.7 1.7 11.3 7.1 11.3 2.9 0 3.7.5 4.5 2.5.8 2.2 1.5 2.5 6 2.5 6.1 0 7.1-1.5 4.5-6.8-1.4-2.9-1.9-6.9-2.2-18.7l-.3-15 6.5-5.3C92.3 71 96.2 63 94 56.3c-1.7-5.6-2.1-11.3-.7-11.3.7 0 2.6-1.3 4.1-2.9 2.1-2.2 2.7-3.7 2.4-5.6-.4-2.1 0-2.9 2.3-4 1.5-.8 3.7-1.5 4.8-1.5 1.8 0 7.1-5.2 7.1-7 0-.5 1-1.9 2.3-3 1.8-1.8 2.2-3.2 2.2-8.5 0-7-2.2-10.8-5.9-10.3-1.9.3-2.1.9-1.8 5.8l.3 5.5-2.8-5.5c-2.5-4.8-3.2-5.5-5.8-5.5h-3l.4 10.5c.3 10.4.3 10.5-1.6 8.7-3-2.6-4.4-2.1-9.3 3.8-2.5 2.9-5 5.4-5.5 5.4-1.5.1-4.9-5.8-5.5-9.4-.4-2.6-.9-3-3.5-3-1.6 0-3.4-.6-3.8-1.3-.4-.6-1.3-1.2-2-1.2-.8 0-1.2-2.2-1.2-6.7 0-6.6-.1-6.8-2.7-7.1-1.8-.2-3 .3-3.7 1.7zm3.4 8.5c-1.5 7.8-.9 12.2 1.8 14.1 3.4 2.4 3.8 1.8 1.5-2.1-1.5-2.6-1.8-3.8-.9-4.7 1-1 1.1-.9 1.1.8 0 .3.6 1.8 1.4 3.3 1.6 3.2 5.6 7 5.6 5.4 0-.6-.4-1.4-1-1.7-1.6-1-1.2-6.5.5-6.5 1 0 1.3.8.9 2.7-.4 2.3.3 3.7 3.9 7.8l4.4 4.9 5.1-5.3c2.9-3 5.2-6.1 5.2-6.9 0-1.5.2-1.4 1.7 0 1.5 1.6 1.5 1.8-.8 3.7-3.4 2.8-1.6 2.6 3.7-.5 4.6-2.7 4.9-3.4 4.4-10.9-.1-3.1.1-3.7 1-2.9.7.7 1.3 3.5 1.3 6.3.2 5.6.8 6.3 2.4 2.8.9-1.9.6-3.3-1.4-7.3-1.3-2.7-2.9-5.3-3.4-5.8-.5-.6-.9-1.6-.9-2.3 0-2.7 1.8-1.1 4.6 4.3 3.5 6.7 4.3 7.3 6.1 4.8 1-1.3 1.3-3.4.9-6.9-.5-4.5-.4-4.8.9-3.1 2.3 3 1.9 9-.8 12.3-1.2 1.5-2.9 4-3.7 5.6-.7 1.5-2.5 3-3.9 3.3-1.4.4-3.6 1.3-4.8 2-1.3.8-2.3 1.2-2.3.8 0-.9-7.3 3.8-8.7 5.6-2.5 3.1-1.4 4 2.3 1.9 2-1.1 4.1-1.8 4.6-1.7 1.3.5-3 5.8-4.7 5.8-2.9 0-3.6 2.5-2.4 9.6.6 3.8 1.1 8.1 1.1 9.6-.2 4.8-3.9 10.4-10.8 15.9l-6.6 5.4.4 16.2c.4 12.8.9 16.8 2.2 18.7 2.2 3.4 2.1 3.6-1.4 3.6-2.4 0-3-.4-3-2.1 0-1.3-.4-1.8-1.1-1.3-.9.5-1-.1-.5-2.1.6-2.5-1.8-26.5-3-30.4-1.1-3.3-2.3 1-3.4 11.1-.9 8.9-.8 11.3.5 15 .8 2.3 1.5 4.6 1.5 5 0 1-3.9-.3-4.7-1.6-.4-.6-.8-6.5-1-13.1-.5-18.7.4-17-8.8-16.6-7.3.3-8.1.5-12.1 3.8-2.3 2-4.4 4.6-4.7 5.8-.7 4 1.3 15.8 3.8 22 1.4 3.2 2.3 6 2.1 6.2-.8.9-5.6-1.8-5.6-3.2 0-.8-.6-1.5-1.3-1.5-.8 0-1.1-1.2-.9-3.8.2-2-.7-8-2.1-13.3l-2.4-9.6 3.3-3.6C34.9 84.1 36 81 34 81c-.5 0-1 .4-1 .9s-2.2 3.3-5 6.3c-6.3 6.7-8 11.5-8.7 25-.6 10.7-1.4 12.6-4.3 10.8-1.3-.8-1.1-4.7.9-14.1.6-2.6 1.3-7.9 1.6-11.9.5-5.8 1.2-8 3.6-11.2 2.8-4 2.9-4.3 2.4-13.8l-.5-9.8 5.8-4.7 5.7-4.7 7 .7c11.3 1.1 15.5 1 29.3-1.1C76.6 52.5 80 42 74.4 42c-1.3 0-4.4-3.7-4.4-5.2 0-.5 1.3-.2 3 .7 3.8 2 4 1.9 4-1 0-2.2-1-3-6.2-5.4-6.1-2.7-12.4-8.7-15.6-14.8C53.7 13.6 53.6 7 55 7c.6 0 1 1.8 1 3.9 0 2.2.5 4.3 1 4.6.6.3 1-.3 1-1.4 0-1.2.5-2.1 1-2.1.6 0 1 1.4 1 3.1 0 4.7 1.7 2.6 2.4-3.1.8-6.4 1.6-8.5 2.6-7 .4.6.1 3.9-.5 7.4zm2.9 93.6c.4 4.4.3 6-.4 5-.9-1.4-1.5-12.9-.6-11.9.2.2.6 3.3 1 6.9z" />
  <path fill="currentColor" d="M15.786 124.36c-.65-.283-1.035-.629-1.274-1.146-.21-.453-.233-.69-.223-2.27.015-2.174.312-4.276 1.32-9.316 1.061-5.313 1.442-7.95 1.927-13.34.497-5.533 1.132-7.823 2.879-10.385 3.247-4.761 3.353-5.058 3.327-9.35-.013-2.117-.442-11.612-.65-14.397l-.067-.892 3.178-2.579c1.748-1.418 4.34-3.539 5.76-4.711l2.583-2.132.505.063c.277.035 1.993.212 3.812.392 13.363 1.325 17.096 1.274 28.885-.394 3.402-.481 3.97-.609 4.913-1.104 3.652-1.92 5.896-7.792 3.833-10.03-.478-.52-1.194-.819-1.958-.82-.706 0-1.818-.849-2.926-2.234-.784-.98-1.45-2.16-1.509-2.671-.033-.296-.002-.335.291-.368.514-.058 1.07.149 3.137 1.169 1.476.728 2.055.96 2.497.996.529.044.592.023.77-.25.284-.432.357-2.343.121-3.153-.404-1.389-1.341-2.095-5.395-4.062-1.49-.723-3.247-1.65-3.903-2.06-4.868-3.04-9.327-7.654-12.028-12.448-1.033-1.833-1.481-3.754-1.49-6.394-.009-2.207.307-3.363.919-3.363.499 0 .741 1.002.929 3.837.216 3.272.568 4.546 1.28 4.63.446.053.663-.3.784-1.268.144-1.158.266-1.602.538-1.947.713-.907 1.258.23 1.42 2.962.116 1.975.233 2.397.652 2.349.683-.08 1.324-2.157 1.884-6.103.393-2.775.696-4.423 1.002-5.463.219-.74.603-1.425.846-1.505.257-.084.658.464.74 1.013.138.913-.165 3.93-.708 7.063-.55 3.173-.695 4.595-.695 6.78 0 2.193.135 3.138.644 4.49.554 1.471 1.295 2.273 3.126 3.38.909.55 1.764.787 1.787.496.055-.728-.177-1.307-1.382-3.442-1.44-2.55-1.69-3.59-1.072-4.443.351-.485.848-.856 1.012-.755.059.037.107.368.107.735 0 1.342 1.576 4.581 3.235 6.65 1.28 1.598 2.934 3.032 3.495 3.032.718 0 .491-1.098-.403-1.95-.944-.9-1.09-1.327-1.09-3.177 0-1.205.043-1.668.2-2.116.375-1.076.893-1.478 1.55-1.204.527.22.674.657.553 1.644-.053.437-.098 1.34-.098 2.007 0 1.18.01 1.236.418 2.07.46.94 1.564 2.46 2.902 3.994 1.553 1.781 4.917 5.512 4.998 5.543.07.027 5.399-5.482 6.75-6.976 1.36-1.505 2.865-3.528 3.383-4.544.13-.257.237-.674.238-.937.004-1.018.297-.972 1.516.238.922.917 1.196 1.374 1.085 1.815-.037.148-.524.683-1.08 1.187-1.901 1.72-2.405 2.247-2.405 2.512 0 .226.04.247.371.193.587-.095 1.87-.668 3.542-1.58 4.115-2.246 5.323-3.288 5.863-5.058.184-.602.199-1.056.17-5.044-.032-4.53-.007-4.824.412-4.824.783 0 1.476 2.294 1.665 5.513.2 3.417.332 4.756.521 5.327.16.481.237.577.487.606.243.028.362-.054.642-.441.473-.653 1.071-1.942 1.284-2.767.206-.8.11-1.711-.316-3.004-.57-1.73-3.686-7.63-4.657-8.817-.637-.778-.973-1.572-1.03-2.435-.144-2.206 1.118-1.458 3.085 1.829.272.455 1.079 1.918 1.793 3.252 2.888 5.399 3.742 6.161 5.19 4.638a5.637 5.637 0 0 0 1.428-2.7c.192-.914.222-3.32.058-4.744-.211-1.839-.34-3.663-.275-3.872.038-.117.135-.212.216-.212.248 0 1.056 1.103 1.495 2.04.603 1.286.795 2.258.795 4.023-.001 2.874-.701 4.973-2.408 7.222-1.195 1.574-2.69 3.833-3.362 5.078-1.024 1.9-2.409 3.112-4.166 3.646-1.469.448-3.451 1.286-4.742 2.005-1.45.808-1.946.998-2.13.814-.072-.073-.245-.132-.384-.132-.844 0-6.17 3.448-7.873 5.096-.896.867-1.724 2.118-1.908 2.88-.112.466.172.844.634.844.597 0 1.492-.315 2.718-.955 2.2-1.15 4.507-2.025 4.92-1.867.652.25-.726 2.626-2.487 4.288-.982.926-1.786 1.398-2.386 1.399-1.032.002-1.976.596-2.37 1.49-.605 1.371-.574 3.886.1 8.323.75 4.94 1.185 8.985 1.064 9.9-.47 3.563-2.064 6.627-5.405 10.393-1.548 1.746-3.259 3.279-7.906 7.085-3.942 3.228-4.052 3.328-4.052 3.708.001 1.305.459 18.15.552 20.29.304 7.009.637 10.375 1.228 12.404.242.83.604 1.555 1.51 3.026.315.512.63 1.122.7 1.356.115.382.104.448-.11.662-.204.204-.41.248-1.425.305-1.484.084-2.97-.031-3.425-.266-.481-.249-.578-.485-.738-1.793-.077-.628-.202-1.216-.277-1.306-.17-.206-.521-.206-.881 0-.749.428-.862.112-.545-1.515.219-1.119.236-1.445.17-3.32-.24-6.834-1.81-21.7-2.784-26.356-.398-1.903-.743-2.526-1.283-2.318-.724.278-1.69 4.81-2.382 11.184-.572 5.256-.711 7.443-.645 10.107.067 2.72.175 3.272 1.344 6.871.998 3.073 1.219 3.887 1.123 4.136-.15.391-1.621.11-2.966-.568-1.117-.562-1.587-1.032-1.726-1.728-.406-2.034-.77-8.494-.946-16.834-.082-3.862-.252-7.637-.393-8.705-.202-1.526-.65-2.711-1.201-3.181-.38-.324-1.132-.577-1.895-.639-1.041-.083-9.164.353-10.666.574-1.492.219-2.62.583-3.683 1.191-2.756 1.575-6.472 5.293-7.56 7.563-.285.596-.29.643-.28 2.866.01 2.494.175 4.167.76 7.662.88 5.26 1.832 8.73 3.644 13.286.937 2.355 1.595 4.295 1.595 4.701 0 .239-.424.344-.984.245-.732-.13-2.615-1.11-3.435-1.787-.744-.614-1.04-1.067-1.149-1.756-.09-.57-.61-1.139-1.13-1.235-.924-.172-1.056-.612-1.031-3.43.037-4.225-.518-7.402-3.066-17.556l-1.42-5.658 2.039-2.225c2.457-2.681 3.28-3.748 4.01-5.201.713-1.418.831-2.203.397-2.637-.393-.393-1.13-.4-1.547-.015-.16.15-.291.363-.291.476 0 .613-1.868 2.997-5.264 6.72-2.475 2.712-3.87 4.632-4.984 6.857-2.064 4.125-2.861 8.13-3.423 17.209-.492 7.932-.922 10.588-1.879 11.594-.335.352-.474.422-.833.418a2.449 2.449 0 0 1-.796-.163z" />
</svg>
