<svg xmlns="http://www.w3.org/2000/svg" version="1.0" viewBox="0 0 128 128">
  <path d="M18.2 38.2c-.6.7-1.3 3-1.7 5-.4 2.1-1.3 4.2-2.1 4.9-.8.6-1.4 2-1.4 3.1s-1.4 2.7-3.5 3.9c-3.9 2.4-4.4 4.7-1.5 7.4 1.6 1.4 3 1.7 7.7 1.2 5.3-.6 6.1-.3 12.7 3.5 3.9 2.3 7.3 4.3 7.5 4.5.2.2-.1 2.7-.8 5.7-1 4.4-1.6 5.5-3.4 5.8-1.5.2-2.3 1.1-2.5 2.7-.7 4.9 6.3 6.8 11.1 3.1 2.3-1.8 3-1.9 7.7-.8 4.7 1.1 5.2 1 7.1-.9 2.6-2.5 1.8-6-1.6-7.3-2.2-.8-2.3-1.2-1.4-3.9.8-2.2 1.8-3.1 4.6-3.6 3-.5 4-.2 6.1 1.8l2.4 2.5-3.6 4c-3.8 4.2-4.4 6-2.4 8 2.8 2.8 6.5 1.4 10.8-4.1 5-6.3 6.4-7.2 8-5.2 1 1.3.8 2-1.4 4-3.1 2.9-3.3 5-.7 6.5 4.8 2.5 11.1-.4 11.1-5.3 0-3.4 1.6-5.3 3.2-4 4.3 3.6 25.1 5.8 29.9 3.3 1-.6 1.9-2.1 1.9-3.4 0-1.9-1-2.9-4.4-4.6-2.5-1.2-8.7-6.1-13.9-10.9C91.7 54 86.4 50.6 76.6 48c-7.6-2.1-8.5-2.1-23.2-.9C38 48.3 38 48.3 32.8 46c-2.9-1.4-6.7-3.9-8.4-5.7-3.4-3.6-4.6-4-6.2-2.1zm10.6 9.9c7.9 3.5 9.3 3.7 24.2 2.3 12.8-1.2 15.3-1.1 21 .3 9.2 2.2 16.8 6.5 24.2 13.7 7.5 7.3 14.2 12.8 18.3 14.9 2.6 1.3 2.8 1.6 1.2 2.3-3.5 1.3-18.1-.3-23.2-2.5-6.3-2.8-8.2-4.5-11.1-10.4-1.3-2.6-2.9-4.7-3.4-4.7-1.3 0-1.3 1.7 0 2.5.5.3 1 1.7 1 2.9 0 1.3.9 3.5 2.1 5 1.7 2.1 1.9 3.4 1.4 6.9-.9 5.3-2 6.7-5.4 6.7h-2.6l2.8-2.5c4.3-4.1 3.8-6-2.9-11.3-4.6-3.5-7.8-4.4-5.1-1.4 1 1 1.7 2.2 1.7 2.6C73 76.9 63.7 87 62.4 87c-2.2 0-1.7-1.5 2.1-5.4 1.9-2.1 3.5-4.3 3.5-5 0-.6-1.8-2.9-3.9-5-3.3-3.2-4.2-3.6-5.9-2.7-1.1.6-3.3 1.1-4.9 1.1-2.5 0-3 .6-4.6 4.9-2.2 6.3-2.2 7.1.6 7.1 2.8 0 5.1 1.5 4.3 2.8-.6 1-6.2.2-8.6-1.3-.7-.4-1-2.1-.8-4.1.6-4.8-1.4-3.7-2.9 1.5-1.6 5.7-2.9 7.1-6.4 7.1-3.5 0-3.8-1.5-.6-2.4 1.9-.4 2.7-1.8 4-6.6.9-3.3 1.7-6.4 1.7-7 0-.6-3.8-3.5-8.4-6.5C23.2 60 23 60 16.4 60.2c-4.7.2-6.8-.1-7.1-1-.3-.6.2-1.2 1-1.2 2.9 0 7.9-8 9.2-14.7l.7-3.7 2 3.2c1.1 1.9 3.9 4.1 6.6 5.3z" />
  <path fill="currentColor" d="M33.516 87.854c-.597-.113-.97-.279-1.212-.535-.24-.255-.243-.283-.072-.543.257-.392.972-.774 2.076-1.107 2.119-.64 2.725-1.737 4.391-7.943.833-3.102 1.319-5.177 1.32-5.64.001-.29-.127-.467-.774-1.066-1.48-1.371-4.298-3.408-8.49-6.139-4.423-2.881-6.128-3.827-7.889-4.375l-.981-.306-5.017-.018c-2.875-.01-5.309-.067-5.702-.133-1.364-.229-2.028-.726-1.86-1.393.075-.301.618-.61 1.074-.61.718-.003 1.507-.497 2.688-1.686 2.251-2.267 4.352-6.01 5.71-10.174.437-1.344.637-2.212 1.31-5.69l.143-.738 1.037 1.675c1.61 2.6 2.484 3.576 4.426 4.945 1.6 1.129 3.837 2.215 7.01 3.405 3.238 1.214 5.137 1.487 9.724 1.396 3-.06 4.226-.146 11.374-.796 6.025-.549 7.052-.617 10.254-.681 3.677-.074 4.98.017 7.551.527 8.386 1.663 15.44 4.934 22.021 10.21 1.56 1.25 3.034 2.574 5.413 4.86 7.472 7.178 13.506 12.015 17.724 14.207 1.493.775 1.968 1.155 1.797 1.436-.174.288-.66.548-1.422.761-.88.246-5.125.34-7.457.166-5.486-.41-11.318-1.426-14.336-2.5-1.317-.468-4.468-2.062-5.738-2.903-.65-.43-1.573-1.167-2.052-1.636-1.476-1.446-2.159-2.475-4.237-6.38-.953-1.791-1.848-3.174-2.54-3.926-.407-.442-.546-.524-.886-.524-1.126 0-1.231 1.477-.168 2.345.746.608 1.113 1.56 1.244 3.228.116 1.477.947 3.357 2.263 5.121 1.207 1.618 1.516 2.63 1.406 4.612-.178 3.21-1.122 6.465-2.181 7.525-.884.883-1.808 1.122-4.154 1.072l-1.572-.034 1.533-1.36c2.227-1.975 3.245-3.193 3.662-4.38.652-1.853-.334-3.611-3.595-6.415-3.015-2.593-6.178-4.592-7.498-4.741-.928-.105-.76.478.598 2.067.492.577 1.042 1.338 1.221 1.693.308.61.317.666.168 1.023-.742 1.775-7.073 8.857-9.546 10.677-.656.483-.747.518-1.228.472-.638-.062-.858-.23-.858-.66 0-.746.646-1.62 3.79-5.125 1.761-1.963 3.045-3.863 3.045-4.505 0-1.186-5.183-6.783-7.316-7.9-.692-.363-1.583-.323-2.525.113-1.51.7-2.72.975-4.94 1.122-1.637.109-2.209.313-2.732.977-.646.82-1.31 2.351-2.353 5.42-1.301 3.83-1.401 5.011-.462 5.457.221.105.908.214 1.721.273 1.515.11 2.518.377 3.31.88 1.13.717 1.305 1.824.33 2.095-1.525.424-5.88-.383-7.709-1.428-.993-.567-1.184-1.342-1.077-4.369.078-2.186.003-2.817-.35-2.952-.559-.214-1.513 1.155-2.22 3.187-.127.364-.488 1.48-.801 2.48-.663 2.117-1.124 3.17-1.804 4.123-.932 1.307-1.89 1.743-3.926 1.785-.758.016-1.502.005-1.654-.024z" />
</svg>
