<svg xmlns="http://www.w3.org/2000/svg" version="1.0" viewBox="0 0 128 128">
  <path d="M107.7 2.1c-1.4.85-1.65 1.75-1.15 4.1l.65 3.05-4-3.2C96.3.5 92.25 4.8 97.05 12.55c2.25 3.65 2.2 5.7-.05 2.95-1.3-1.6-4.15-2-5.4-.75-.45.4-2.2.75-3.95.75-5.35 0-4.85 4.05 1.25 9.8 7.25 6.9 7.75 13.75 1.15 17.2l-2.8 1.45.5-6.45c.8-9.8-4.65-10.8-7.65-1.4-4.1 12.85-5.45 15-6.4 10.15-1.9-10-3.25-12.75-6.2-12.75-3.4 0-4.6 2.9-3.4 8.25.8 3.8.5 3.9-3.8 1.3-4.4-2.7-6.3-8.85-3.9-12.55 2.25-3.45 1.75-6.9-1.05-7.3-2.1-.3-2.1-.45-.6-3.1 2.95-5.1-.6-8-5.55-4.55-2.65 1.85-2.7 1.35-.55-4.7 3-8.4-2.05-11.35-6.95-4-2.7 4.1-7.05 4.8-9 1.5-3.3-5.6-8.2.5-7.25 9.05.4 3.35.75 8.35.85 11.1.2 4.5.45 5.05 2.7 5.35 3.35.45 5.7 2.7 7.9 7.6 2.65 5.9 5.85 8.35 14.05 10.6 16.95 4.7 12.75 9.25-8.45 9.15-14.9-.1-24.45 2.9-26.55 8.4-1.6 4.25-1.2 14.95.65 16.5 1.8 1.5 1.45 10.95-.5 13.3-1.75 2.1-3.55 24.4-2.1 26.1 1.45 1.7 6.55 2 7.55.45.45-.7 1.05-.7 1.95.05.75.65 3.1 1 5.2.8 4.25-.35 4.05.9 2.7-14l-.6-6.7 4.35-5.05C38.7 96.9 40.1 96 42.75 96H46v7.3c0 4-.55 9.5-1.25 12.25-1.75 7.05-1.2 10.35 2.05 11.55 5.15 1.95 7.45-.25 6.7-6.35-.45-3.65-.2-6.6.9-9.75.85-2.5 1.6-5.95 1.6-7.75.05-9.25 3.35 1.3 4.4 13.9.6 7.85 1.85 9.85 6.1 9.85 4.85 0 6.05-2.6 4.05-8.55-1.8-5.2-2.1-21.85-.55-26 .6-1.45 3.5-5.45 6.5-8.8 4.2-4.7 5.5-6.9 5.5-9.35 0-1.75.5-3.5 1.05-3.85.65-.4.85-2.15.45-4.35-.55-3.45-.35-3.85 3.2-6.15 2.1-1.35 3.95-3.4 4.1-4.55.2-1.55 1.7-2.5 6-3.85 6.95-2.2 15.2-9.7 15.2-13.85 0-4.35 2.1-7.55 5.65-8.75 3.55-1.15 5.55-5.15 3.55-7.15-.55-.55-.8-2.5-.5-4.25.4-2.6.05-3.6-1.95-5.15-1.3-1.05-2.75-3.15-3.1-4.7-1.3-5.1-4.7-7.5-7.95-5.6zm4.15 4.45c.65 1.4 1.15 4 1.15 5.85 0 3.85.85 5 2.55 3.55 2.1-1.7 2.8.85 1.05 3.55-2.15 3.3-2 4.85.4 4.2 3.35-.85 2.25 1.3-1.5 2.85-3.75 1.6-6.5 5.8-6.5 10.05 0 4.85-6.2 9.45-17.75 13.25C82.5 52.7 73.1 57.95 81 55.6c6-1.8 7.25-1.9 6.8-.5-.25.75-1.85 1.8-3.55 2.35-3.35 1-4.5 3.85-3.55 8.7.25 1.4 0 2.9-.6 3.3-.6.35-1.1 1.9-1.1 3.45 0 2.85-5.2 11.1-7 11.1-3 0-6.05 7.75-6.55 16.6-.45 8-.1 11.35 2.1 20.65.55 2.1.3 2.75-.9 2.75-2.25 0-3.65-3.15-3.65-8.1 0-10.15-3.3-22-6-21.7-2.1.25-2.6 1-3.3 4.8-.4 2.45-1.5 7.55-2.35 11.25-.95 4.1-1.35 8.35-.95 10.75.65 4.05.2 4.65-2.2 3.15-1.65-1.05-1.7-3.25-.3-10.05.6-2.95 1.1-8.9 1.1-13.25V93h-5.4c-5.45 0-5.45 0-10.6 6.2l-5.2 6.2.5 7.05c.25 3.9.8 8.05 1.2 9.3.6 1.85.35 2.25-1.4 2.25-1.15 0-2.1-.2-2.1-.4s-.45-4.95-1.05-10.5c-1-9.9-1-10.2 1.5-14.45C29 94.3 29.75 91 28.15 91c-2.7 0-7.65 14.65-8 23.75-.3 8.5-.5 9.25-2.35 9.25-1.75 0-1.95-.45-1.45-3 .35-1.65.9-6.75 1.3-11.25.35-4.55 1.2-9.15 1.9-10.25.65-1.1 1.5-5.6 1.8-10 .35-4.4.9-9.7 1.25-11.75.45-2.45.3-3.75-.45-3.75-.6 0-1.4 2.25-1.75 5-.8 5.95-2.4 5.65-2.4-.5 0-5.45 1.45-9.35 3.75-10.15.95-.3 3.7-1.5 6.1-2.6 3.65-1.7 5.45-1.9 11-1.3 7.8.85 6.85.85 15.35-.2 4.95-.65 7.4-1.5 9.3-3.25l2.5-2.35-2.15-2.35C61 53.3 62 52.45 66 54.5c1.75.9 3.5 1.35 3.85 1 .85-.85-2.75-3.45-5.35-3.95-16.1-2.95-23.4-6.4-25.05-11.85-.95-3.1-6.5-8.7-8.65-8.7-2.05 0-2.45-1.6-.55-2.25.95-.3.85-1.55-.5-5.35-1.8-5.05-2.2-9.05-1.15-11.8 1.1-2.9 1.95-1.65 1.6 2.2-.4 4.3 2.2 11.7 3.8 10.7.55-.35 1-2.8 1-5.5s.45-5.15 1-5.5c.6-.4 1 1.4 1.05 4.7l.05 5.3 3.85-8.1c3.5-7.5 7.3-12.6 5.75-7.8-5.95 18.65-6 21.5-.25 14.9 2.45-2.75 4.7-4.7 5-4.35.35.3-1.4 3-3.9 5.9-5.55 6.5-5.5 9.65.3 16.3 3.15 3.55 5.25 4.1 3.6.9-2.05-3.95-1.85-10.55.45-13.4 2.5-3.05 3.75-1.8 1.6 1.55-3.75 5.7 0 13.65 8.4 17.55 6.15 2.85 6.65 2.5 5.4-3.7-.5-2.7-.75-5.45-.5-6.2.55-1.6 4.15 9.4 4.2 12.7 0 1.95.5 2.25 4 2.25 3.6 0 4-.25 4-2.55 0-1.4.75-3.95 1.6-5.65.9-1.75 2.2-4.95 2.9-7.2l1.3-4.1.1 4c0 2.2-.8 5.9-1.85 8.25-2.3 5-1.9 5.1 5.55 1.6 11.2-5.3 12.65-13.4 3.9-21.8-7.35-7.1-6.95-7.7 1-1.55 6.85 5.3 8.55 4.8 3.55-1.05-4.35-5.05-3.7-6 .95-1.45l4 3.9v-2.75c0-1.55.4-2.55.85-2.25 1.55.95 2.1 6.4 1 9.6-1.55 4.45-.15 5 1.65.7 2.05-5 1.9-9.05-.5-11.2-2.25-2.05-7.25-10.55-6.6-11.25.95-.95 6.6 4.25 8.15 7.5 2.7 5.65 5.3-1.7 3.05-8.5-1-3.1.8-2.85 2.25.3z"/>
  <path fill="currentColor" d="M49.043 124.522c-1.298-.614-1.81-1.281-2.019-2.633-.192-1.237-.009-2.783.916-7.747.786-4.215 1.16-9.888 1.163-17.66l.002-3.527-4.61.042c-5.297.047-5.398.063-6.807 1.052-1.122.788-1.039.694-9.44 10.707l-.506.604.311 4.418c.47 6.66.887 10.228 1.411 12.06.12.418.217.967.217 1.221 0 .593-.29.799-1.228.874-.715.058-2.121-.112-2.285-.275-.052-.052-.288-2.006-.525-4.342l-.757-7.466c-.773-7.61-.672-9.065.817-11.73 2.182-3.906 2.72-5.041 3.107-6.557.38-1.482.258-2.334-.363-2.55-.272-.096-.415-.075-.809.116-1.845.893-4.76 7.967-6.404 15.538-.783 3.607-.996 5.35-1.213 9.93-.274 5.774-.479 6.817-1.415 7.208-.802.336-2.025.128-2.292-.388-.212-.41-.207-.598.058-2.144.387-2.26.77-5.523 1.253-10.678.338-3.61.433-4.427.72-6.165.345-2.091.802-3.894 1.237-4.884.45-1.023.822-2.44 1.139-4.337.343-2.056.417-2.7.775-6.766.413-4.705.8-8.26 1.162-10.694.391-2.627.257-3.764-.444-3.764-.686 0-1.304 1.64-1.863 4.944-.387 2.29-.594 3.13-.935 3.8-.6 1.176-1.125.082-1.291-2.688-.286-4.753.682-9.057 2.427-10.799.464-.463.755-.636 1.654-.982.6-.23 2.466-1.03 4.147-1.776 4.685-2.08 5.324-2.253 8.239-2.241 1.783.007 2.542.07 7.747.642 3.322.365 5.516.258 11.676-.567 4.61-.618 7.075-1.364 8.785-2.658.776-.587 3.164-2.861 3.164-3.012 0-.07-.614-.802-1.364-1.627-1.728-1.9-2.21-2.572-2.225-3.097-.012-.392-.004-.4.439-.433.567-.041 1.435.25 3.195 1.07 1.64.763 2.762 1.117 3.396 1.07.67-.048.778-.278.435-.925-.376-.71-1.61-1.658-3.119-2.397-1.195-.586-1.335-.625-4.379-1.24-8.141-1.643-12.616-2.99-16.529-4.979-3.304-1.679-5.234-3.59-6.205-6.144-.485-1.274-.645-1.588-1.326-2.6-1.996-2.963-5.852-6.355-7.225-6.355-.515 0-1.367-.235-1.644-.453-.421-.33-.381-.852.097-1.272.206-.181.489-.364.628-.406.565-.172.744-.472.744-1.252 0-.811-.312-2.017-1.2-4.638-1.132-3.342-1.56-5.518-1.554-7.911.005-1.723.194-2.723.741-3.918.272-.596.653-1.102.828-1.102.048 0 .174.16.28.355.17.313.193.703.2 3.355.006 2.834.022 3.079.302 4.394.756 3.566 2.052 6.282 3.089 6.476.263.05.391.01.564-.176.464-.498.894-2.88.897-4.965.003-2.993.527-5.819 1.1-5.924.223-.041.495.58.657 1.505.07.393.147 2.41.175 4.528.028 2.101.083 3.852.123 3.892.04.04.83-1.53 1.756-3.492 3.46-7.322 4.618-9.553 6.275-12.08 1.367-2.084 2.132-2.671 1.816-1.394-.071.289-.595 2.017-1.164 3.84-2.55 8.173-3.563 12.145-3.582 14.046-.01 1.103.098 1.354.583 1.354.517 0 1.227-.577 2.898-2.354 3.152-3.352 5.118-5.176 5.579-5.176.631 0-.892 2.34-3.868 5.941-2.268 2.743-3.252 4.355-3.734 6.113-.304 1.108-.26 2.914.095 3.903.738 2.056 2.42 4.505 4.765 6.942 1.543 1.604 2.716 2.404 3.304 2.256.25-.062.267-.107.222-.581-.028-.285-.274-1.01-.554-1.628-1-2.21-1.326-3.803-1.326-6.468 0-2.686.426-4.609 1.365-6.166.437-.726 1.932-2.2 2.333-2.3.986-.247.891.9-.233 2.825-1.056 1.808-1.377 2.677-1.546 4.188-.21 1.876.164 3.799 1.124 5.769 1.72 3.531 4.83 6.267 9.504 8.358 2.18.975 3.152 1.293 3.95 1.293.551 0 .682-.04.909-.281.404-.43.419-1.63.046-3.765-.595-3.417-.718-4.337-.783-5.895-.052-1.237-.036-1.612.073-1.68.09-.055.213.008.341.175.586.76 2.12 5.093 2.914 8.227.558 2.204.664 2.782.775 4.207.135 1.744.376 2.055 1.767 2.28.903.147 3.768.146 4.68 0 1.33-.216 1.505-.47 1.699-2.478.222-2.297.574-3.41 2.202-6.955.904-1.97 1.726-4.153 2.664-7.078l.8-2.495.055 1.785c.03.983.017 2.273-.028 2.868-.175 2.29-.956 5.292-1.98 7.613-1.304 2.954-1.355 3.582-.289 3.582.724 0 1.99-.463 4.773-1.744 3.946-1.817 6.094-3.21 7.969-5.172 2.143-2.241 3.11-4.66 2.944-7.359-.088-1.41-.476-2.73-1.275-4.33-1.023-2.05-2.036-3.307-5.456-6.766-3.076-3.113-4.268-4.434-4.06-4.504.297-.099 1.577.762 5.322 3.579 4.23 3.181 5.827 4.173 6.746 4.19.424.008.449-.01.48-.338.063-.644-.744-1.912-2.753-4.323-1.98-2.376-3.17-4.099-2.972-4.297.29-.29 1.674.837 5.065 4.129l2.7 2.621.07-2.002c.07-2.011.179-2.682.477-2.93.419-.348 1.161.817 1.531 2.402.246 1.053.34 3.934.168 5.113-.07.476-.324 1.545-.565 2.377-.5 1.725-.64 2.818-.4 3.135.634.838 2.328-2.178 3.272-5.824.258-.998.336-1.568.38-2.783.093-2.614-.324-3.847-1.856-5.487-1.086-1.164-1.832-2.145-3.048-4.009-2.157-3.306-3.759-6.51-3.54-7.078.368-.96 4.476 2.347 6.802 5.476.351.471.883 1.317 1.183 1.878.606 1.134 1.263 1.907 1.72 2.021 1.38.347 2.297-1.724 2.297-5.186 0-1.896-.172-3.135-.68-4.902-.417-1.447-.5-1.995-.342-2.288.207-.386.554-.277 1.161.365 1.35 1.428 2.322 4.67 2.339 7.807.01 1.881.258 3.156.72 3.705.432.514.89.462 1.886-.213 1.355-.918 1.927-.71 1.913.694-.01.967-.238 1.573-1.191 3.174-1.867 3.136-1.635 4.338.742 3.845 1.093-.226 1.643-.234 1.816-.025.403.484-.683 1.428-2.957 2.57-.963.484-2.025 1.083-2.362 1.332-1.448 1.07-2.922 2.95-3.622 4.62-.552 1.317-.764 2.237-.925 4.032-.11 1.222-.218 1.824-.427 2.375-1.494 3.955-7.06 7.605-16.6 10.885-4.26 1.465-6.841 2.492-9.743 3.877-2.598 1.24-4.17 2.236-4.17 2.641 0 .29 1.291.092 3.375-.516 4.186-1.221 5.872-1.542 6.288-1.197.22.183.143.647-.186 1.108-.339.476-1.7 1.329-2.744 1.72-2.652.99-3.564 1.836-4.186 3.878-.26.852-.26 3.262-.001 4.747.224 1.286.226 1.745.014 2.56a2.415 2.415 0 0 1-.585 1.096c-.576.624-.87 1.483-1.008 2.934-.074.781-.228 1.555-.434 2.178-.82 2.483-3.058 6.215-4.922 8.207-.774.828-1.172 1.086-1.832 1.185-1.874.283-3.645 3.042-4.967 7.738-1.155 4.104-1.667 9.071-1.551 15.065.081 4.206.487 6.976 1.982 13.543.273 1.2.497 2.34.498 2.532.002.728-.419 1.125-1.189 1.122-.45-.001-1.344-.473-1.73-.913-1.11-1.264-1.768-3.88-1.774-7.051-.008-4.177-.658-9.41-1.689-13.592-1.101-4.468-2.565-7.626-3.766-8.124-.755-.313-2.06.076-2.7.803-.584.667-.795 1.409-1.613 5.69a316.51 316.51 0 0 1-1.412 6.766c-1.342 6.104-1.548 7.395-1.658 10.366-.053 1.444-.022 2.075.18 3.644.257 1.99.24 2.744-.07 3.087-.25.274-.53.25-1.3-.115z"/>
</svg>
