<svg xmlns="http://www.w3.org/2000/svg" version="1.0" viewBox="0 0 128 128">
    <path d="M97.6 27.5c-.8.9-1.8 3.8-2.2 6.5-.4 2.8-1.1 5-1.6 5s-.6-1.6-.2-3.5c.5-2.7.3-3.6-1-4.1-1.1-.4-2.2.1-3.1 1.2-1.3 1.8-1.4 1.8-3.7-.4-1.4-1.2-3.2-2.2-4.1-2.2-3.2 0-1.7 4.2 3.7 10.3 6.4 7.1 6.3 7.3-3 11.8l-6.4 3-16.4-1.5c-21.2-2.1-29.5-2.1-32.4 0-1.5 1-3.2 1.3-5.2.9-2.4-.5-3-.3-3 1 0 2.1 2.5 6.8 4.4 8.4 2.4 2 1.9 5.3-1.5 9.9-2.5 3.4-3 4.9-2.5 7.3.3 1.6-.1 5.8-.9 9.2-2.1 8.9-2 9.7 1.4 9.7 2.5 0 2.9-.4 3.5-4 .7-4.3 2.5-9 3.6-9 .3 0 1 1.9 1.6 4.2.8 3.7 1.3 4.3 3.7 4.6 3.2.4 3.1.7 1.1-5.1-1.7-5.1-1.6-5.4 4.1-13.5 2.3-3.2 3.5-4.1 5-3.7 3.9 1.1 12.1 2.4 17.7 3l5.7.6 3.3 6.6c1.7 3.6 3.4 8.4 3.7 10.7.5 3.6 1 4.1 3.4 4.4 2.5.3 2.7 0 2.7-3 0-1.8-.7-6-1.4-9.3-.8-3.3-1.4-6-1.3-6.1.9-.6 14.4 4.9 16.2 6.6 2.1 2 2.8 2.2 5 1.2 3.4-1.6 3.2-2.3-1.7-5-2.4-1.2-6-3.7-8.1-5.5l-3.9-3.2 2.2-5.6c2.4-6.7 6.4-9.8 16.7-13.1 3.8-1.1 7.2-2.5 7.7-2.9 1.1-1-2.1-4.9-3.9-4.9-1.9 0-4.5-3.5-4.5-6.1 0-1.5 1.2-3.4 3.2-5 3.3-2.8 3.4-5.9.1-5.9-1 0-2.3-1-2.8-2.2-1.3-2.8-2.9-3.3-4.9-1.3zm4.9 6.2c1.4.5 1.2 1-1 3.3-2.4 2.5-2.6 3.1-1.6 6.7 1.1 3.9 3.1 6.5 6.1 7.6 1 .4.7.6-.7.6-7.2.3-18.8 7.6-21.4 13.6-4.1 9.2-4 9.6 4.5 15.1 4.2 2.7 7.6 5.3 7.6 5.7 0 .5-1.2 0-2.7-1.1-1.6-1.1-5.9-3.4-9.6-5.2-6.6-3.1-6.9-3.1-8.2-1.4-1.7 2.3-1.8 2.6-.6 5.6 1.4 3.8 2.4 13.1 1.3 12.5-.5-.4-1.2-2.4-1.5-4.4-.4-2.1-2.2-7-4.2-11L67 74.1l-5.8-.6c-3.1-.3-8.2-1-11.2-1.6-3-.6-6.6-1.3-8-1.6-2.2-.4-3.2.4-6.9 5.3-4.3 5.8-4.3 5.8-3.9 12.9l.5 7-1.6-5c-1.2-3.8-2.1-5-3.6-5s-2.3 1.3-3.8 6.2c-1 3.5-2.3 6.3-2.8 6.3-1.2 0-1.2-.8.7-8.7.9-3.7 1.6-7.7 1.6-8.7-.1-1.1 1.2-3.8 2.8-6 3.7-5 3.8-8.8.4-13-2.5-2.9-2.6-3.1-.8-3.5 1-.2 2.8-1 3.9-1.7 2.5-1.8 8.8-1.8 29.7.1 19.2 1.8 22.7 1.3 30.7-4.6 5.6-4 5.4-6.2-1.4-12.9-5.2-5.2-8-9.7-3.2-5.2 2.8 2.7 5.2 2.8 6.6.4 1-1.6 1-1.6 1.1 0 0 .9-.4 1.9-.9 2.2-1.3.8-.2 4.2 1.9 6.1 3.2 2.9 4.5 1.4 4.5-5.1.1-6.9 1.4-10 2.6-6.5.5 1.2 1.6 2.4 2.4 2.8z"/>
    <path fill="currentColor" d="M19.393 97.822c-.504-.354-.286-2.001.974-7.36 1.12-4.758 1.835-8.548 1.838-9.728.003-1.24.947-3.296 2.732-5.949 1.454-2.162 2.06-3.272 2.524-4.62.332-.966.357-1.136.36-2.51.006-1.672-.116-2.21-.824-3.655-.448-.913-1.076-1.802-2.58-3.647-.953-1.17-1.142-1.56-.882-1.82.086-.087.619-.28 1.183-.432 1.095-.293 2.643-.978 3.841-1.7 1.443-.87 2.994-1.167 6.578-1.26 3.81-.098 10.06.253 19.806 1.114 7.051.624 10.518.906 12.713 1.036 2.607.154 7.294.154 8.73 0 4.712-.506 7.88-1.888 12.876-5.62 3.042-2.271 4.038-3.921 3.495-5.789-.518-1.782-1.508-3.088-5.295-6.986-2.093-2.154-3.488-3.718-4.453-4.989-.682-.898-1.145-1.673-1.094-1.828.059-.176.904.431 2.054 1.477 1.887 1.715 3.012 2.338 4.232 2.343 1.226.004 1.89-.421 2.788-1.784.334-.507.657-.953.719-.99.316-.197.284 1.808-.04 2.449-.106.21-.393.59-.638.843-.398.412-.45.529-.491 1.104-.15 2.077 1.929 5.166 4.167 6.191 1.021.468 1.673.2 2.152-.885.379-.855.53-1.994.641-4.798.181-4.592.464-6.812 1.004-7.888.515-1.025.8-.886 1.61.788.65 1.343 1.452 2.272 2.398 2.776.364.194.714.45.777.567.182.34-.125.834-1.35 2.179-2.346 2.575-2.607 3.003-2.607 4.288 0 1.39.734 3.996 1.634 5.802 1.143 2.295 2.504 3.643 4.691 4.65 1.133.52 1.09.582-.462.686-5.526.369-13.489 4.468-18.29 9.417-1.962 2.021-2.643 3.133-4.17 6.807-1.194 2.872-1.418 3.665-1.429 5.065-.008 1.11.014 1.249.303 1.837.403.821 1.377 1.857 2.625 2.791.545.408 2.489 1.737 4.32 2.954 3.557 2.364 5.919 4.07 6.846 4.948.634.599.693.73.328.726-.372-.003-1.045-.342-2.229-1.123-3.23-2.13-11.603-6.392-14.707-7.487-.663-.234-1.151-.335-1.617-.335-.662 0-.671.004-1.219.574-.721.75-1.575 2.043-1.773 2.682-.214.694-.118 1.301.454 2.892.599 1.661.752 2.202 1.088 3.836.787 3.834 1.145 8.449.707 9.117-.086.131-.15.107-.365-.136-.34-.384-.677-1.286-1.01-2.706-.688-2.926-.867-3.56-1.512-5.347a82.251 82.251 0 0 0-1.362-3.492c-.658-1.548-4.962-10.54-5.14-10.741-.05-.056-1.651-.262-3.558-.459-7.172-.74-10.333-1.212-17.162-2.567-5.304-1.053-5.527-1.075-6.48-.654-.994.44-2.515 2.106-5.196 5.691-2.144 2.868-2.805 3.954-3.294 5.411-.24.72-.252.893-.242 3.755.007 1.963.092 4.053.246 6.04.13 1.671.23 3.145.226 3.274-.005.129-.487-1.214-1.073-2.985-1.205-3.646-1.687-4.736-2.422-5.475-.906-.911-2.021-.979-2.893-.175-.734.676-1.334 2.01-2.452 5.458-1.094 3.369-1.723 4.97-2.322 5.906-.416.651-.612.736-1.027.446z"/>
</svg>
