<svg xmlns="http://www.w3.org/2000/svg" version="1.0" viewBox="0 0 128 128">
  <path d="M25.7 10.8c-2.2 2.4-2.3 10.9-.2 13.9 1.3 1.8 1.3 2.9.3 6.7-1.1 4.1-1 4.7 1.4 8.3 1.7 2.5 2.9 6.4 3.7 11.8 1.4 9.2 7.5 23 12.4 28.2l3 3.2-1.1 7.3c-.6 4-1.4 9.7-1.6 12.7-.4 3.6-1.2 6.2-2.7 7.7-1.2 1.3-1.9 3.2-1.7 4.6.5 3.6 6.5 3.8 10.7.3 2.8-2.5 3.1-3.2 3.2-8.8 0-3.4.4-7.1.8-8.2.7-1.8.8-1.7 1.4.6.4 1.4.9 5 1.3 8 .5 4.6.4 5.7-1 6.2-2.5 1-2 4.6.8 5.8 3.4 1.6 7 .4 9.1-2.7 1.5-2.4 1.6-3.6.7-9.8-.6-3.9-1.4-11-1.8-15.8l-.6-8.7 3.6-.5c11.8-1.9 10.4-2.3 13.1 3.6 1.4 2.9 2.5 5.9 2.5 6.6 0 2.4-4.8 10.7-7.9 13.6-3.5 3.4-4 7-1.2 8.6 4.7 2.5 9.8-.4 13-7.3 1.8-3.9 1.9-4 2-1.4.1 1.8-.8 3.6-2.5 5.2-1.8 1.7-2.5 3.2-2.2 5.2.3 2.4.8 2.8 3.8 3.1 2.6.2 4.3-.4 6.9-2.5 3.2-2.7 3.4-3.2 4.3-12.8.5-5.5 1.4-10.4 1.9-11 1.6-1.7 1-3.7-2.6-7.6-1.9-2.2-3.5-4.8-3.5-5.9 0-1.2 1.9-3.9 4.1-6 3.9-3.7 4.1-4.2 3.6-8.2-.4-3.4-1.4-5.1-4.6-7.9-7.5-6.7-10-7.4-22.7-6.1-12.6 1.4-24.4 1.5-26 .4-.6-.4-1.7-2.4-2.3-4.4-1.1-3.4-1-4.1.8-6.4 2.6-3.3 2.9-10.8.5-12.2-1.5-.8-1.5-1.4.4-6.9 2.6-7.5 1.9-11.6-2.1-12.1-2.8-.3-3.9 1.1-5.1 6.9-.6 2.7-4.1 4.6-5.2 2.8-.3-.5-1.4-.9-2.4-.9-1.5 0-1.9-.9-2.2-4.3-.2-3.4-.7-4.3-2.4-4.5-1.1-.2-2.8.6-3.7 1.6zm3.6 6.4c-.3 2.9 0 4.9 1.1 6.3 1.5 2 1.5 2 1.6-.3 0-1.3.6-2.2 1.5-2.2 1.2 0 1.3.9.9 4.3-.4 3.1-.1 5.3 1 7.5.9 1.8 1.9 3.2 2.1 3.2.2 0 1.2-1.4 2.1-3.1 1.2-2.5 1.4-4 .6-7-.6-2.3-.6-4.1-.1-4.5.8-.5 1.3.9 1 2.8 0 .5.3.8.9.8.5 0 1-.8 1-1.7 0-.9.5-3.3 1.1-5.2.7-2 1.4-4.2 1.6-5 .3-1 .7-1.1 1.4-.4.8.8.5 2.9-1 7.2-1.2 3.4-2.1 6.6-2.1 7.2 0 .5-.9 2.9-2 5.1-2.4 5-2.4 4.9-.6 4.2.7-.3 1.8-1.6 2.4-3 .7-1.3 1.6-2.4 2.2-2.4 1.8 0 1.1 5.7-1.1 8.4-2 2.5-2.1 3.8-.6 9.1.8 2.7 2.9 5.4 4.8 6 2.6.9 15.3 1 20.4.2 16.1-2.5 18.8-2 26.6 5 5.3 4.8 5.1 7.2-.7 12.7-4.6 4.2-4.7 4.4-3.5 7.7.6 1.8 2.2 4.5 3.6 5.9l2.4 2.5-1.3 11.2c-1.4 12.1-2.9 15.3-7.3 15.3-2.8 0-2.9-.7-.3-2.8 2.5-2 3.9-7.6 4-15.4 0-5.6-2.4-12.8-4.3-12.8-.5 0-.6.7-.1 1.7 1.6 3.4 1 10.7-1.2 13.8-1.2 1.6-3.3 4.9-4.8 7.2-1.9 3.2-3.3 4.3-5.1 4.3-3.2 0-3.2-1.3-.1-3.3 3.1-2.1 8.6-12.2 8.6-15.9 0-3.7-5-13.7-7.2-14.4-1.4-.4-18 1.3-18.4 1.9-.6.9 1.7 25.4 2.6 28.4 1.1 3.4 1 4.4-.5 6.7-1 1.4-2.6 2.6-3.6 2.6-2.3 0-2.5-1.5-.4-2.4 2-.7 2-7 0-15-.8-3.4-1.8-8.1-2.2-10.4-.7-3.9-2-5.6-2.5-3.5-.1.5-.8 3.3-1.6 6.3s-1.7 8.4-1.9 12c-.4 4.8-1 7.1-2.6 8.7-2.1 2.3-5.7 3.1-5.7 1.3 0-.6.5-1 1.1-1 1.8 0 3.7-6.3 4.8-16.8 1.5-13.9 1.4-15-1-17-1.1-.9-4.2-6-6.9-11.2-3.5-7-5.2-11.7-6.2-18.2-1-5.5-2.3-9.6-3.7-11.4-2.3-2.9-2.6-5-1.2-7.3.7-1.2 1.3-.7 2.7 2.2 1 2 2.1 3.7 2.6 3.7.4 0 .8-.2.8-.4 0-.9-3.7-8.3-5.8-11.6-2.1-3.4-2.8-8.2-1.6-11.4 1.1-2.9 2.2-.7 1.7 3.6z" />
  <path fill="currentColor" d="M57.692 116.704c-.874-.397-.745-1.105.315-1.733.891-.528 1.182-.787 1.43-1.272.518-1.016.73-3.205.543-5.6-.22-2.821-.497-4.453-1.496-8.82-.833-3.64-1.398-6.29-1.929-9.04-.674-3.49-1.312-5.245-1.985-5.458-.496-.157-.617.155-1.708 4.418-1.567 6.126-2.128 9.236-2.584 14.326-.38 4.238-.69 5.84-1.435 7.387-.976 2.031-3.29 3.776-5.286 3.985-1.14.119-1.759-.458-1.361-1.27.17-.348.274-.42.801-.547.796-.192 1.229-.615 1.769-1.728 1.442-2.97 2.432-7.984 3.407-17.254.588-5.597.7-7.072.712-9.371.016-3.284-.12-3.7-1.754-5.41-1.236-1.29-2.539-3.223-4.567-6.773-4.72-8.262-7.29-14.72-8.443-21.223-1-5.644-1.991-9.297-3.14-11.576a14.778 14.778 0 0 0-.996-1.599c-.952-1.322-1.275-1.898-1.588-2.83-.443-1.323-.351-2.396.319-3.73.39-.776.585-.992.895-.992.382 0 .791.581 1.969 2.796 1.169 2.198 2.008 3.438 2.44 3.602.2.076.389.06.673-.06.36-.15.388-.193.325-.507-.21-1.055-2.851-6.463-4.705-9.634-2.537-4.343-3.192-6.303-3.192-9.556 0-2.142.52-4.2 1.196-4.732l.29-.227.24.28c.422.49.52 1.336.414 3.596-.231 4.936-.04 5.937 1.528 7.965.656.85 1 1.054 1.115.662.031-.106.087-.615.123-1.13.09-1.275.24-1.796.632-2.197.448-.458 1.167-.508 1.574-.11.304.3.35 1.788.12 3.896-.301 2.758-.203 4.287.39 6.073.575 1.735 2.309 4.686 2.753 4.686.432 0 2.214-2.943 2.819-4.655.22-.621.295-1.09.337-2.07.056-1.322.013-1.657-.48-3.75-.406-1.722-.443-3.615-.078-3.98.282-.282.499-.227.775.194.161.247.201.55.21 1.602.014 1.433.073 1.588.65 1.696.786.147 1.184-.454 1.357-2.047.174-1.616.626-3.462 1.51-6.174.444-1.364.91-2.828 1.035-3.252.249-.847.492-1.268.731-1.268.086 0 .328.151.539.336.678.595.732 1.52.221 3.742-.09.393-.655 2.204-1.255 4.024-1.218 3.693-1.569 4.891-1.868 6.374-.286 1.416-.817 2.774-2.381 6.085-1.311 2.775-1.652 3.626-1.532 3.821.094.15.437.108 1.084-.134.826-.309 1.711-1.286 2.497-2.755 1.03-1.926 2.001-2.926 2.585-2.66 1.118.51.854 4.057-.5 6.745-.23.455-.695 1.199-1.035 1.654-1.788 2.392-1.896 3.723-.668 8.23.637 2.339 1.524 3.951 2.965 5.395 1.322 1.324 2.244 1.635 5.74 1.938 2.188.19 11.288.19 13.616 0 .94-.076 3.42-.382 5.513-.68 6.22-.888 6.666-.929 10.033-.932 2.763-.002 3.134.02 4.19.252 2.155.474 4.46 1.571 6.394 3.045 2.564 1.952 5.324 4.548 6.261 5.89.784 1.12 1.05 1.852 1.052 2.88.002 1.956-.742 3.048-4.88 7.167-3.545 3.53-3.704 3.743-3.691 4.961.005.528.117 1.036.425 1.93.944 2.743 2.301 4.893 4.58 7.26 1.108 1.15 1.545 1.677 1.545 1.866 0 .383-1.394 12.304-1.659 14.191-.908 6.457-2.024 9.792-3.709 11.078-.912.697-1.553.874-3.181.88-1.197.003-1.488-.029-1.737-.191-.164-.108-.298-.288-.298-.402 0-.285.545-.91 1.64-1.88 1.341-1.186 2.11-2.472 2.805-4.695 1.042-3.328 1.645-9.47 1.283-13.074-.432-4.311-1.82-8.617-3.26-10.108-.495-.512-.614-.582-.937-.551-.56.054-.662.46-.334 1.34.8 2.138 1.008 3.295 1.008 5.588 0 2.617-.442 5.11-1.241 7.005-.205.486-.816 1.527-1.358 2.313-.542.786-1.602 2.372-2.355 3.524-.753 1.152-1.826 2.79-2.384 3.638-1.956 2.978-3.394 3.866-5.631 3.48-.938-.162-1.254-.352-1.254-.756 0-.506.492-1.067 1.791-2.044 1.652-1.24 2.232-1.875 3.746-4.097 2.574-3.777 4.952-8.948 5.245-11.404.234-1.958-.595-4.763-2.624-8.882-1.49-3.025-2.988-5.28-4-6.024l-.464-.34-2.316.06c-4.047.106-13.958 1.187-15.837 1.727-.38.11-.405.146-.45.637-.277 3.091 1.79 24.689 2.672 27.919l.453 1.654c.294 1.07.314 2.398.049 3.142-.346.968-1.073 2.07-1.933 2.928-1.416 1.413-2.672 1.847-3.83 1.321z" />
</svg>
