<svg xmlns="http://www.w3.org/2000/svg" version="1.0" viewBox="0 0 128 128">
  <path d="M65.8 11.1c-1.4.8-1.8 2.3-1.8 6.4 0 6.1-1 7-2.7 2.5-.8-2.2-1.8-3-3.5-3-3.3 0-4.8 1.8-4.8 5.6 0 1.7-.7 3.7-1.5 4.4-1.8 1.5-2 5.1-.3 6.8 1.5 1.5 5 1.6 6.5.1 1.6-1.6 7.7.6 13.3 4.6 2.5 1.8 6.3 4 8.5 5 3.9 1.6 3.9 1.7 2 3.2-1.6 1.2-3.3 1.3-8.5.7-3.6-.4-10.6-.8-15.6-.8-5.8-.1-9.7-.6-10.6-1.4-.9-.7-4.5-1.5-8-1.9-5.3-.4-7.1-.2-10.5 1.5-8.5 4.4-10.3 9.6-8 22.9l1.5 8.8-2.8 3c-2.6 2.8-2.8 3.8-3.4 14.6-.4 7.2-.3 12.6.4 14.3.9 2.5 1.3 2.7 6.2 2.4 4.9-.3 5.3-.5 5.6-2.9.2-1.4-.4-3.1-1.2-3.9-2-1.6-2.1-9.5-.2-12.9 1.2-2.2 1.4-1.9 3.9 6.2 1.5 4.7 2.7 9.4 2.7 10.6 0 1.4 1.1 2.7 3.4 3.8 7.1 3.3 13.9-2 8.8-6.8-2.6-2.3-6.4-12.5-6-15.8.3-2.5.6-2.6 6.8-2.6h6.5l-.1 8c0 4.4-.4 10.9-.9 14.4-.7 5.7-.6 6.6 1 7.7 2.6 1.9 8.9 1.8 10.6-.2 1-1.2 1-2.2.1-4.8-.7-1.8-1.2-4.3-1.2-5.7 0-2.4 3.8-15.4 3.9-13.3.1.6 1.4 2.8 3.1 4.9 3.1 4 5 9 5.9 16.5.6 4.3.8 4.5 4.8 5.4 8.3 1.7 12.3-1.8 7.9-7.2-1.2-1.5-3.3-5.4-4.5-8.7-1.2-3.3-3.1-8.3-4.2-11-3.5-9.4-3.5-10.8.4-14.2 1.9-1.7 5.2-4 7.3-5.3 2.2-1.2 5.6-4.3 7.7-7 3.5-4.3 4.4-4.9 9-5.5 6.8-.9 8.4-1.9 9.2-5.4.8-3.9-.7-6.6-5-8.7-3.1-1.5-4.9-4.4-2.6-4.4.5 0 2.3-1.4 4-3.2 3.7-3.8 4-7.4 1-11.3-2-2.5-2.6-2.6-6.8-2-2.5.4-5.4 1.4-6.3 2.2-1.7 1.5-1.8 1.4-1.8-2.3 0-2.1-1-5.8-2.2-8.2-2-3.7-2.7-4.2-5.3-4-2.8.3-3 .6-3 4.3 0 2.2.4 5.1.9 6.5l.8 2.5-2.8-2.6c-1.6-1.5-4.5-3-6.4-3.4-4-.9-5-1.9-5-5.7 0-1.7-.8-3.1-1.9-3.8-2.3-1.2-2.2-1.2-4.3.1zm4.3 10.6C71.6 31 74 34.3 74 27.1c0-2.3.5-4.1 1-4.1.6 0 1 2.7 1 6 0 5.7.2 6.1 2.8 7.1 4.8 1.9 7.7 1.6 7.7-.6 0-2.4-3.8-3.3-6.1-1.4-2 1.7-3.1.2-1.6-2.2 1.1-1.7 1-2.5-.3-4.6-2.2-3.2-1.1-4.2 1.8-1.6 2.5 2.4 6.1 4.3 7.7 4.3 1.2 0 .9-7.2-.5-11.8-.4-1.2-.3-2.2.2-2.2 1.6 0 4.3 6.8 4.3 10.8 0 6.2 4.1 11.7 4.8 6.4.4-2.4 1.7-2.9 2.5-1 .3.7.6 0 .6-1.5.1-1.6.5-2.6 1.1-2.2 1.6 1 1.2 4-1 6.8-2.7 3.5-2.5 4 1 2.2 3.8-1.9 5.2-4.7 4.4-8.2-.7-2.5-.6-2.7.9-1.4 3.9 3.1 0 12.1-5.2 12.1-1.1 0-2.3.4-2.6 1-.3.5.1 1 1 1 1.1 0 1.5.5 1.2 1.5-.6 1.5 3.9 5.9 7.3 7 2.2.7 2.5 1.8 1 4.4-.6 1.3-2.6 2.1-6.2 2.5-6.3.8-6.3.8-11.3 7-2.2 2.7-5.5 5.5-7.3 6.3-1.8.7-5 3.1-7.2 5.3-4.6 4.6-5.2 8.7-2.1 14.8 1 2 2.2 5.2 2.6 7.1.9 4.4 6 15.7 7.4 16.5C87 115.7 86 117 83 117c-2.6 0-3-.5-4-4.3-2.2-8.4-3.2-10.7-7.5-17.4-8.7-13.4-9-13.6-10.1-4.5-.4 3.1-1.3 7.4-2 9.6-1.8 5-1.8 8.6.1 11.2.8 1.2 1.1 2.4.8 2.8-2 1.9-6.7-1.5-5.9-4.3 1.2-3.8 1.8-8.1 2.3-16.7l.6-9.1-3.3-.6c-1.8-.4-6.3-.7-10-.7h-6.8l-1.1 3.3c-.9 2.7-.8 4.6.9 10 1.1 3.6 3.2 7.9 4.5 9.5 3 3.6 3 3.7.3 3.9-2.3.2-5.3-1.6-5.3-3.2-.1-2-2.6-10.1-4.6-14.9-1.2-2.7-1.8-5.7-1.6-6.7.7-2.8-.5-2.3-4.2 1.5-4 4.1-5.7 11.2-4 16.3.6 1.8 1.5 3.3 2 3.3s.9.4.9 1c0 .5-1.3 1-2.9 1-4 0-4.4-1.9-3.1-14.2 1-8.9 1.5-10.7 3.7-13l2.6-2.8-1.3-8.7c-1.9-13-1.7-15.1 2.5-19.3 3.4-3.4 3.8-3.5 10.5-3.4 3.8.1 7.5.6 8.2 1.1 3.1 2.5 8.6 3.4 12.7 2.2 3.3-1 5.2-.9 11.5.6 6.4 1.5 8 1.6 10.8.5 5.6-2.3 6.7-3.7 5.5-7.1-.6-1.6-1.7-2.9-2.5-2.9-1.9 0-8.5-3.5-11.9-6.4C66 30.2 56 27.9 56 31.1c0 .5-.7.9-1.5.9-2.1 0-1.9-1.4.5-3.5 1.6-1.4 1.9-2.6 1.4-5.2s-.3-3.3 1-3.3c.9 0 1.6.8 1.6 1.8 0 2.2 2.5 4.7 5.8 5.6 2.1.7 2.2.6 2.2-6.8 0-4.2.4-7.6.8-7.6.5 0 1.5 3.9 2.3 8.7z" />
  <path d="M89 34.9c0 .5-.3 1.6-.6 2.5-.4 1-.1 1.6.9 1.6 2 0 2.9-1.4 2.1-3.4-.7-1.7-2.4-2.2-2.4-.7z" />
  <path fill="currentColor" d="M81.449 116.81c-.62-.186-1.047-.552-1.382-1.185-.377-.713-.604-1.432-1.571-4.99-1.841-6.768-3.005-9.28-7.532-16.261-5.116-7.89-6.667-9.868-7.735-9.868-.811 0-1.16.967-1.651 4.576-.767 5.638-1.335 8.344-2.63 12.54-.663 2.141-.878 3.366-.888 5.045-.013 2.057.255 3.109 1.182 4.63 1.092 1.793 1.358 2.87.8 3.236-1.166.763-2.99.233-4.458-1.297-1.24-1.29-1.424-2.078-.907-3.874.748-2.601 1.338-6.315 1.708-10.744.346-4.161.96-14.25.871-14.332-.122-.112-4.34-.845-5.66-.983-2.264-.237-5.875-.352-10.08-.319l-4.404.034-.648 1.97c-.968 2.942-1.125 4.07-.844 6.098.261 1.89 1.605 6.378 2.636 8.8.62 1.46 1.896 4 2.444 4.866.241.382.932 1.304 1.536 2.049 1.28 1.577 1.647 2.224 1.403 2.468-.188.189-1.221.373-2.097.374-.842 0-1.652-.181-2.495-.561-1.5-.677-2.36-1.593-2.5-2.668-.352-2.706-2.232-8.813-4.47-14.523-1.438-3.666-1.929-5.783-1.669-7.195.23-1.248.147-1.623-.36-1.623-.435 0-1.447.812-3.217 2.579-1.307 1.304-1.961 2.054-2.463 2.823-2.348 3.595-3.398 8.121-2.808 12.1.387 2.6 1.653 5.28 2.594 5.487.7.154 1.023.963.514 1.29-1.03.665-3.587.771-4.713.197-.571-.292-1.016-.913-1.28-1.786-.304-1.014-.278-5.374.053-8.798.638-6.593 1.334-11.082 2.005-12.937.542-1.496.964-2.077 3.441-4.73l1.187-1.271-.656-4.395c-1.437-9.617-1.657-11.44-1.738-14.428-.121-4.408.47-5.922 3.54-9.072 2.778-2.852 3.52-3.247 6.458-3.438 1.792-.116 6.536.033 8.516.268 2.413.288 3.264.52 4.185 1.143 2.284 1.545 5.075 2.332 8.28 2.334 1.726 0 2.563-.119 4.486-.64 1.457-.396 1.531-.404 3.473-.403 2.244.002 2.813.088 7.222 1.096 4.933 1.127 5.368 1.198 7.386 1.206l1.82.008 1.212-.418c1.71-.59 4.367-1.93 5.236-2.641.982-.805 1.382-1.58 1.373-2.665-.008-.906-.343-2.12-.854-3.082-.417-.787-1.354-1.798-1.73-1.868-1.225-.227-2.055-.482-3.25-.999-2.672-1.157-6.422-3.42-8.713-5.258-3.152-2.53-7.09-4.344-10.875-5.01-1.073-.19-2.942-.213-3.546-.045-.607.168-1.09.646-1.228 1.215-.177.726-.662 1.014-1.624.961-1.136-.062-1.435-.478-1.004-1.395.104-.222.775-1.007 1.49-1.746.851-.877 1.382-1.522 1.532-1.86.346-.784.381-1.944.107-3.577-.314-1.873-.307-2.546.029-2.937.221-.257.346-.303.827-.303.99 0 1.493.58 1.661 1.914.295 2.35 2.382 4.346 5.654 5.407 1.558.505 1.848.44 2.134-.472.148-.474.197-1.43.273-5.318.082-4.197.187-6.179.385-7.277.12-.666.302-1.267.384-1.267.15 0 .541.963.874 2.149.38 1.35.936 4.026 1.502 7.222.921 5.2 2.045 8.476 2.944 8.58.268.03.333-.026.522-.453.233-.527.434-2.32.443-3.938.008-1.693.449-3.424.892-3.505.565-.105.968 2.722.98 6.868.014 4.893.252 5.293 3.896 6.55 1.741.6 2.828.823 4.041.83.906.006 1.121-.03 1.593-.269.672-.34.95-.708 1.023-1.352.113-1-.491-1.941-1.542-2.404-.458-.203-.783-.257-1.57-.262-1.206-.007-1.956.214-2.811.83-.737.53-1.406.867-1.729.87-.132.002-.347-.133-.48-.3-.191-.243-.229-.408-.189-.827.047-.49.224-.902 1.026-2.394.273-.508.323-.725.32-1.378-.006-.827-.247-1.434-1.11-2.784-1.122-1.759-1.33-2.79-.56-2.787.496.002 1.287.492 2.501 1.548 1.932 1.682 3.747 2.886 5.403 3.585.977.411 2.072.674 2.357.564.407-.156.547-.812.597-2.804.07-2.836-.26-5.553-1.03-8.476-.41-1.557-.468-2.194-.23-2.52.135-.185.185-.191.51-.057.69.286 1.769 2.047 2.568 4.19.88 2.36 1.256 4.152 1.404 6.694.149 2.554.571 4.377 1.4 6.04.747 1.498 1.483 2.26 2.182 2.26.684 0 .95-.394 1.276-1.893.364-1.667.732-2.296 1.343-2.296.365 0 .845.442 1.07.987.165.397.411.435.545.084.052-.138.149-.838.215-1.556.175-1.914.55-2.518 1.197-1.923.639.588.866 1.807.567 3.048-.2.83-.894 2.212-1.59 3.163-1.414 1.93-2.034 2.928-2.034 3.273 0 .334.007.338.474.286.563-.064 2.21-.787 3.312-1.455 3.184-1.93 4.318-4.626 3.437-8.168-.284-1.141-.345-1.708-.183-1.708.152 0 .917.59 1.419 1.094 2.865 2.882.37 9.85-4.096 11.437-.247.087-.924.201-1.504.252-1.617.142-2.638.683-2.638 1.396 0 .351.398.589 1.177.702.353.05.724.126.825.166.306.122.447.619.327 1.151-.145.648.052 1.251.714 2.183.979 1.377 2.928 3.093 4.648 4.092.409.237 1.225.619 1.814.848 1.82.708 2.233 1.258 1.902 2.53-.222.85-.853 2.035-1.347 2.53-.798.797-2.44 1.343-5.154 1.712-4.303.585-5.457.858-6.634 1.568-.873.527-2.201 1.895-4.132 4.256-3.303 4.04-5.764 6.246-8.528 7.646-2.28 1.156-4.603 2.89-6.85 5.112-2.925 2.894-4.139 5.3-4.143 8.213-.003 2.122.376 3.499 1.836 6.67 1.425 3.092 2.003 4.666 2.653 7.222.863 3.395 2.65 7.96 4.802 12.274 1.469 2.943 2.023 3.776 3.002 4.516.774.583.887 1.266.276 1.665-.662.433-3.157.677-4.082.398zm8.632-77.849c.685-.146 1.353-.7 1.544-1.279.457-1.385-.704-3.67-1.865-3.67-.553 0-.742.23-.828 1.005-.038.34-.2 1.06-.361 1.598-.504 1.692-.488 2.05.101 2.306.437.19.681.197 1.41.04z" />
</svg>
