<svg xmlns="http://www.w3.org/2000/svg" version="1.0" viewBox="0 0 128 128">
  <path d="M29.5 35.3c-1.1.7-2.6 2.1-3.4 3.2-.8 1.1-3.4 3.8-5.7 6-3.4 3.1-4.2 4.5-3.8 6.3.7 2.4 1.3 2.6 9 2.2 2.9-.1 5.4.3 5.8.8.3.5-.5 2.5-1.8 4.3C24 65.9 22 70.3 22 74.7c0 6.5 4.9 11.3 15 14.5 10.4 3.2 30.5 3.2 39.4 0 8.7-3.2 14.7-7.4 22.9-16.1 7.6-8.2 16.3-22.9 15.5-26.7-.5-3-3.1-2.8-12.7 1.1-9.6 3.8-22.3 6.5-30.8 6.5-5.2 0-16.7 2.1-21.3 3.8l-2.5 1v-8.2c-.1-9-1.6-12.6-6.6-15.2-3.3-1.7-8.6-1.7-11.4-.1zm11 3.9c4.3 3.7 5.8 14.7 3.1 21.3-1.7 3.9-1.2 4.2 3 2.1 5.5-2.8 14.9-4.7 26.9-5.6 12.6-.9 22.1-3.2 31.9-7.5 3.2-1.4 6-2.4 6.2-2.3 1 1.1-7.6 15.5-13.3 22.2-12.4 14.5-22.6 19.1-41.8 19.1-8.6-.1-12.6-.6-18.4-2.4-13.9-4.3-16.7-10.8-9-21 5.2-6.9 7.5-11.9 5.9-13.5-.6-.6-4.4-1.2-8.4-1.4l-7.3-.4 6.3-6.4c7.1-7.2 10.3-8.1 14.9-4.2z" />
  <path fill="currentColor" d="M53.857 88.401c-1.933-.044-5.283-.256-6.78-.429-6.332-.73-13.348-3.02-17.42-5.684-1.328-.868-3-2.521-3.613-3.57-1.575-2.694-1.419-5.722.486-9.445.737-1.442 1.452-2.547 3.088-4.777 3.968-5.407 5.883-9.108 5.882-11.37 0-1.337-.304-1.703-1.713-2.067-1.93-.498-4.339-.755-9.918-1.06-2.304-.126-4.239-.245-4.3-.264-.155-.05 7.795-8.03 9.261-9.297 4.4-3.8 7.038-4.356 10.317-2.176 2.13 1.417 3.388 3.17 4.438 6.185 1.626 4.672 1.728 11.085.242 15.192-.199.55-.541 1.484-.761 2.078-.602 1.627-.551 2.173.202 2.173.622 0 .863-.089 3.313-1.214 2.48-1.14 3.966-1.699 6.3-2.369 5.36-1.538 11.656-2.518 21.262-3.31 8.8-.725 15.185-1.872 21.83-3.92 3.226-.994 5.603-1.882 9.674-3.616 2.392-1.018 4.921-1.986 5.623-2.152.287-.067.303-.05.303.32 0 1.403-3.444 7.718-7.618 13.971-3.612 5.412-6.322 8.75-10.456 12.879-4.53 4.525-8.303 7.304-12.948 9.535-5.59 2.684-11.598 3.986-20.079 4.35-2.363.1-3.541.107-6.615.037z" />
</svg>
