<svg xmlns="http://www.w3.org/2000/svg" version="1.0" viewBox="0 0 128 128">
  <path d="M70 6.8c-1.6 1.6-3.2 4-3.5 5.4-.8 3.3 3.1 13.6 6.6 17 1.5 1.5 2.3 3 1.8 3.4-1.7 1-.9 5.5 1.5 7.9 2 2 2.4 3.1 1.9 6-.3 1.9-.6 3.5-.7 3.5 0 0-9.5.3-21.1.6-21 .6-21 .6-27.4 3.8-3.7 1.8-7.7 4.7-9.3 6.7-5.5 6.8-4.7 20.5 1.2 22.4 2.7.9 2.5 2.4-1 6.4-3 3.3-3 3.5-3 14.8 0 12.5 1.4 16.9 5.7 17.9 5.4 1.4 8.1-2.6 4.8-7-1.5-1.9-2.2-11.6-.8-10.2 1.1 1.1 3.3 7.9 3.3 10.3 0 4.3 9.9 7.2 11.9 3.5.7-1.4.6-2.5-.6-4.2-.9-1.3-2.6-4.8-3.8-7.7-1.9-4.6-2.1-6-1.2-10.6.6-2.8 2.1-6.8 3.4-8.9 2.4-3.6 2.5-3.6 5.8-2.2 1.9.8 5.1 1.4 7.2 1.4h3.8l-.7 11.7c-.3 6.5-.9 13-1.3 14.4-.9 3.3 4.3 9.2 7.6 8.7 3.2-.4 4.7-3.3 3.1-5.8-1.6-2.6-1.5-8.5.3-13.5.8-2.2 1.5-5.4 1.6-7 .2-4.9 3.6 6.7 4.4 15.2.9 8.6 3.2 11.6 8.6 11.1 4-.4 5.1-3.5 2.3-6.2-1.3-1.4-1.9-4.7-2.5-15.4-.8-12.4-.7-13.8 1-15.7 1-1.1 2.8-3.7 4-5.8 1.3-2 3.9-5.6 5.8-8 2-2.3 4.9-7 6.6-10.5 2.5-5.4 2.9-7.1 2.4-11.8-.5-4.9-.3-5.7 2-8 2-2 2.4-3.2 2-5.9-.5-2.8-.1-3.6 1.8-4.9 3.1-2 7.5-11.2 7.5-15.7 0-6.3-8.3-12.3-9.7-7C103 8 102 9 100.9 9.3c-2.5.7-2.4 4.1.2 7.8 1.2 1.8 1.8 3.7 1.4 4.7-.6 1.6-.7 1.6-1.6-.1-1.1-1.9-5.9-2.3-6-.5-.2 3.5-1 5.3-3.2 7.6-2.5 2.4-2.5 2.4-5.1.6-1.8-1.4-2.5-2.8-2.6-5.2 0-3.7-2.2-5.2-5-3.4-2.9 1.8-3.1.1-.4-3.5 3.2-4.2 2.8-6.8-.9-6.8-1.8.1-2.3-.3-1.7-.9C77.6 8 77.2 6.2 75 5c-1.7-.9-2.5-.6-5 1.8zm2.5 3.5c-1 1.6-1.4 3.4-.9 5.2l.6 2.6 2.9-3.3c1.9-2.2 2.8-2.8 2.9-1.7 0 .9-.9 2.4-2 3.4-2.7 2.4-2.5 5.1.5 8.7l2.5 3v-2.6c0-1.3.5-2.8 1-3.1.6-.4 1 .7 1 2.5 0 2.2 1 4 3.6 6.5 2 1.9 3.9 3.5 4.4 3.5 1.9 0 8-8.2 8-10.7 0-3.2 1.7-2 2.2 1.5.3 2.3.3 2.3 3.6-.8 3.9-3.9 4-4.9.6-9-1.5-1.7-2.3-3.4-1.9-3.8.3-.4 1.6.5 2.7 2.1 1.1 1.5 2.4 2.7 2.9 2.7 1.2 0 1.2-5.7-.1-6.5-.5-.3-1-1.4-1-2.3.1-1.4.5-1.2 2.1.8 1.7 2 2 3.3 1.5 6.9-.8 5.8-2.8 8.8-10.3 15.1-3.5 2.8-6.3 5.7-6.3 6.3 0 .6 1 .1 2.3-1.1 2.8-2.7 5.7-2.9 5.7-.4S99.1 40 96.3 40c-2.3 0-3.2 1.5-1.3 2.2.6.2 1.4 2.8 1.7 5.8.5 4.8.1 6.4-2.5 11.8-1.7 3.5-4.3 7.6-5.8 9-1.4 1.5-3.7 4.7-5.2 7.2-1.4 2.5-3.5 5.6-4.6 6.8-1.9 2.2-2.1 3.4-1.8 14.5.2 12.9 1.4 19.5 3.7 20.4 2.2.8.8 2.2-1.5 1.6-2.8-.7-3.7-2.8-4.5-10.3-.4-3.6-1.8-9.6-3.1-13.4-1.3-3.8-2.4-7.8-2.4-8.8 0-3.8-1.8-1.5-3.4 4.5-1 3.4-2.2 7.3-2.8 8.7-1.6 4-2.2 15.6-.9 16.4 1.5 1 1.4 2.6-.3 2.6-2.5 0-4.6-4.5-3.7-7.8.5-1.7 1.1-8.4 1.2-14.9l.4-11.8-6.5-.6c-3.6-.3-7.6-1.1-8.9-1.9-2.3-1.2-2.7-1-5 1.9-1.4 1.8-5.1 6-8.2 9.4-7.6 8.3-9.8 16.5-6.4 23.1 1.8 3.4 1.8 3.6.2 3.6-.7 0-2-.9-3-2-1.4-1.7-1.7-4-1.7-12.8.1-10.4.2-10.8 3-14.2 2.4-2.7 3-4.4 3-8 0-5.2-2.2-13.2-3.8-13.8-1-.3-.7 1.4 1.3 9 .5 2.1.4 2.8-.8 2.8-4 0-4.8-12.7-1-17.9 1-1.4 4.8-4 8.3-5.8l6.5-3.2 20.8-.5c13.9-.3 21.3-.9 22.3-1.7.8-.6 1.4-2.4 1.4-3.8 0-1.5.7-3.6 1.5-4.7 2-2.7 1.9-3.4-1-3.4-1.4 0-2.9-.8-3.5-1.9-2.3-4.4-.2-5.5 3.7-1.9 1.9 1.7 2.3 1.8 2.3.6 0-.9-2.5-3.7-5.5-6.3-4.1-3.5-5.9-6-7.5-10.1-2.5-6.8-2.5-7.5.1-10.8 2.6-3.3 3.7-2.7 1.4.7zM33.1 98.2c-1 4.1 1.3 11.7 4.9 16.8l2.1 3H38c-1.2 0-2.7-.6-3.4-1.3-1.3-1.3-5.6-13.8-5.6-16.1 0-1.3 4.2-6.8 4.7-6.3.1.2-.2 1.9-.6 3.9z"/>
  <path fill="currentColor" d="M23.747 119.571c-.967-.524-2.178-1.71-2.574-2.519-.905-1.85-1.04-3.368-1.04-11.695.001-8.438.128-9.817 1.072-11.693.353-.7.684-1.153 2.605-3.558.905-1.133 1.533-2.285 1.826-3.349.78-2.828.431-7.583-.914-12.474-.953-3.465-2.119-5.517-2.899-5.1-.47.252-.283 1.465 1.045 6.802.87 3.493.983 4.358.613 4.692-.56.508-1.594.262-2.308-.549-1.1-1.25-1.711-3.476-1.823-6.642-.128-3.626.485-6.88 1.745-9.257.744-1.403 1.728-2.353 4.167-4.017 1.996-1.362 3.317-2.102 7.365-4.123l3.874-1.934 3.056-.073c24.173-.575 27.13-.667 32.245-1 4.23-.274 6.625-.595 7.576-1.016.896-.397 1.503-1.844 1.694-4.04.181-2.086.633-3.312 1.929-5.236.751-1.117.984-1.684.872-2.13-.11-.441-.593-.612-2.009-.714-1.561-.113-2.305-.37-3.08-1.066-1.21-1.089-2.078-3.846-1.417-4.507.639-.638 2.204.034 4.202 1.802 1.578 1.398 2.217 1.745 2.389 1.3.171-.448.056-1.005-.343-1.657-.84-1.373-2.357-2.934-6.211-6.395-3.676-3.3-5.297-5.883-7.18-11.443-1.061-3.13-1.22-4.174-.826-5.447.606-1.96 4.26-6.042 4.26-4.758 0 .316-.479 1.315-1.18 2.463-.846 1.386-1.058 2.11-1.058 3.62 0 1.051.06 1.5.366 2.761.2.829.405 1.492.454 1.473.048-.018 1.02-1.088 2.158-2.378 2.117-2.4 2.852-3.088 3.24-3.033.17.025.228.128.255.459.061.742-.568 1.816-1.888 3.226-1.46 1.56-1.84 2.274-1.895 3.563-.044 1.035.137 1.779.696 2.871.526 1.026.805 1.412 2.567 3.546l1.577 1.909.071-1.715c.04-.943.128-1.96.195-2.26.178-.79.63-1.667.904-1.754.479-.152.702.52.847 2.555.122 1.7.378 2.466 1.282 3.827.693 1.043 2.471 2.88 4.33 4.473 1.368 1.172 2.071 1.647 2.436 1.647.521 0 1.208-.494 2.484-1.786 1.43-1.448 2.863-3.314 4.009-5.218 1.023-1.702 1.39-2.634 1.558-3.96.154-1.22.216-1.431.447-1.52.601-.23 1.358 1.408 1.686 3.65.077.523.208.974.326 1.118l.198.241.475-.248c.95-.497 4.205-3.725 5.007-4.966.554-.857.674-1.27.625-2.145-.052-.927-.46-1.77-1.516-3.129-1.839-2.367-2.186-2.852-2.499-3.487-.345-.701-.43-1.303-.195-1.387.418-.15 1.299.63 2.762 2.446 1.726 2.14 2.72 2.797 3.176 2.1.643-.98.608-4.399-.058-5.679a3.282 3.282 0 0 0-.57-.745c-.526-.486-.799-1.178-.804-2.041-.006-.99.122-1.092.71-.562.752.678 1.938 2.215 2.345 3.039.544 1.101.674 2.098.502 3.854-.274 2.811-.91 5.25-1.821 6.979-1.605 3.047-3.63 5.173-10.151 10.664-1.572 1.323-3.91 3.63-4.39 4.33-.375.548-.446.932-.19 1.03.268.103 1.071-.378 2.096-1.253 1.956-1.671 2.773-2.113 4.025-2.18.703-.036.8-.015 1.112.248 1.189 1 .419 3.786-1.33 4.81-.744.436-1.353.6-2.625.703-1.305.106-1.688.221-2.155.646-.561.51-.352 1.132.53 1.577.43.218.655.565.976 1.509.978 2.875 1.325 7.923.711 10.35-.94 3.713-5.175 11.525-7.8 14.386-1.72 1.874-3.913 4.896-5.633 7.765-1.87 3.119-3.097 4.91-4.723 6.896-1.599 1.952-1.817 3.661-1.61 12.637.244 10.691.698 15.685 1.72 18.923.563 1.788 1.21 2.737 2.174 3.194.724.343.961.6.874.946-.14.558-1.309.764-2.528.447-2.536-.66-3.458-2.624-4.25-9.051-.656-5.323-1.657-9.747-3.43-15.159-1.463-4.468-2.037-6.666-2.196-8.407-.155-1.697-.503-2.103-1.15-1.342-.712.84-1.4 2.68-2.928 7.831-.748 2.52-1.419 4.586-2.341 7.201-1.002 2.842-1.742 9.66-1.448 13.356.156 1.964.327 2.564.844 2.958 1.204.919 1.052 2.193-.278 2.32-1.15.111-2.353-.852-3.169-2.538-.861-1.78-1.03-3.232-.617-5.293.504-2.506.859-6.334 1.058-11.403.195-4.982.522-15.165.488-15.201-.018-.019-1.832-.202-4.032-.408-6.8-.636-9.223-1.1-11.519-2.206-1.216-.585-2.03-.713-2.614-.411-.476.246-1.074.86-2.185 2.24-1.58 1.963-4.664 5.507-8.117 9.328-4.369 4.833-6.842 9.141-7.84 13.657-.195.882-.239 1.44-.244 3.095-.01 3.008.26 4.11 1.794 7.31.531 1.111.996 2.125 1.032 2.254.189.67-1 .803-2.056.23z"/>
  <path fill="currentColor" d="M37.156 117.85c-.736-.148-1.675-.545-2.15-.908-.282-.214-.61-.634-.869-1.11-1.422-2.614-4.237-10.717-4.914-14.145l-.23-1.16.342-.728c.856-1.83 3.639-5.409 4.206-5.409.15 0 .013 1.142-.371 3.11-.315 1.613-.338 1.875-.292 3.438.057 2 .37 3.67 1.134 6.044 1.023 3.184 2.295 5.678 4.568 8.956.747 1.078 1.359 1.974 1.359 1.991 0 .07-2.377.002-2.783-.08z"/>
</svg>
