<svg xmlns="http://www.w3.org/2000/svg" version="1.0" viewBox="0 0 128 128">
  <path d="M38.1 5.4c-.6.8-1.1 1.8-.9 2.2.1.5-.3 1.9-1 3.1-1.1 1.9-.8 2.6 1.8 5.6 2.6 3 3 4.3 3 9.1 0 3.2-.4 5.6-1.1 5.6-.5 0-1.6 1.5-2.4 3.2-.7 1.8-2.4 4.3-3.8 5.6l-2.4 2.3-2.7-3.1c-1.4-1.7-2.6-4-2.6-5s-.4-2.2-1-2.5c-.5-.3-1-2.8-1-5.4 0-4.1.5-5.2 3.5-8.1 4-3.9 4.3-7.3.9-7.8C27.2 10 26 9 25.7 7.9c-.9-3.4-4.8-2-8.1 3-2.6 4-2.9 5-3 14-.1 8.6.1 10 2.2 12.5 2.2 2.9 2.2 2.9.2 4.3-3 2.1-2.4 4.9 2 9.3 2.2 2.2 4 4.6 4 5.3 0 .7.9 3 2 5.2 1.1 2.1 2.5 5.4 3.1 7.4.7 1.9 3.3 5.6 5.8 8.1 2.6 2.5 6.1 6.6 7.9 9.2 1.9 2.8 4.1 4.8 5.1 4.8 2.2 0 2.9 2.9 3.8 15.6.6 8.7.5 9.2-1.6 10.3-2.3 1.3-2.8 4-.9 5.9.7.7 3.5 1.2 6.3 1.2 4.2 0 5.6-.5 7.5-2.5 2.1-2.2 2.2-3 1.6-9.3-.4-3.8-.4-9.9 0-13.6.6-6.3.8-6.7 2.8-6.1 5 1.6 14.2 1.7 17.9.2l3.7-1.6 2.5 4.9c2.8 5.5 3 7.3 1.4 15.2-.9 4.3-1.7 5.8-3.5 6.7-2.8 1.3-3.1 3.6-.6 5 3 1.6 15.3.7 18.3-1.2 2.6-1.7 2.7-2.1 3.1-14.5.5-12.3.4-12.8-1.8-15.3-1.8-1.9-2.4-3.7-2.4-7 0-5.4.6-6.2 3.1-4.6 2.5 1.6 5.3-.1 5.7-3.6.4-3-3.3-9.3-7.7-12.9-6.6-5.6-11.2-6.3-38.7-6.2l-25.2.2-1.1-2.4c-.8-1.9-.8-2.4.4-2.4 2.6 0 4.8-4.7 4.2-9.1-.4-3 0-5 1.4-7.3 2.7-4.6 3.3-11.2 1.9-19.2C47.3 7.1 41.7 1 38.1 5.4zm6.1 5.7c1.9 3.5 2.2 8.6.8 12.9-.7 2.2-.8 1.9-.9-1.6-.1-3.2-.7-4.6-3.2-6.8-3-2.7-3.4-5.1-.4-2.6.9.7 1.8 1 2.1.7.8-.8-.6-4.7-1.7-4.7-.5 0-.9-.5-.9-1.1 0-2.1 2.5-.2 4.2 3.2zm-21.8.4c-.9 1.3-1.4 3.2-1.2 4.1.3 1.5.7 1.4 3.2-.9 4.3-4 4.6-2.3.3 2.1C21.6 20 21 21.3 21 25c0 3.3-.3 4.1-1 3-2.5-3.9.1-21.3 3-19.5.6.4.4 1.5-.6 3zM19.3 30c1 2.4 1.2 3.1 1.6 5.5.1.5.6.3 1.1-.5.9-1.3 1-1.3 1 .1 0 .8 1.6 3.4 3.5 5.6 1.9 2.3 3.5 4.6 3.5 5.2 0 .6.7 1.1 1.5 1.1s1.5-.5 1.5-1.1c0-.6 1.6-2.9 3.5-5 1.9-2.2 3.5-4.9 3.6-6.2 0-1.2.3-1.6.6-1 .6 1.7 2.3 1.6 2.3-.1 0-.8.9-3.3 2.1-5.7l2-4.4-.4 4.1c-.6 5.4-2.9 10-7.3 14.8-3.5 3.8-4 6.4-.6 3.3 1-1 2.6-1.7 3.6-1.7 1.5 0 1.5.3.2 2.9-.8 1.5-2.6 3.5-4 4.4-2.4 1.6-2.4 1.8-1 4.7.9 1.6 2.1 3.3 2.7 3.7.7.5 12.9.8 27.2.8 22.5 0 26.5.2 29.8 1.7 7 3.2 13.7 10.1 13.7 14 0 2.8-1.6 2.1-3-1.3l-1.3-3.1-2 3.8c-1.1 2.2-3 5.1-4.3 6.6-3.1 3.8-3.7 7.5-2 13.3 1.4 4.4 1.4 5.9 0 13.5-2 10.7-2.4 11.4-6.5 11.8l-3.4.2 2.6-1.5c2.2-1.2 2.9-2.6 3.8-7.8 1.6-9.1 1.4-11.2-1.4-16.5-4.4-8.3-4.6-8.5-9.1-6.1-3.9 2-8.9 2.1-19.5.3l-3.7-.6-.7 9.5c-.4 5.2-.4 11.8 0 14.6.8 5.7-.3 8.1-3.7 8.1-1.8 0-1.8-.1-.4-1.6 1.9-1.9 2.1-9 .5-21.6L55.7 89h-3.2c-4.2 0-6.5-.9-6.5-2.4 0-.7-2.7-4.1-6.1-7.7-6-6.3-11.8-16.6-13.4-23.7-.4-2.1-1.5-3.6-2.9-4.2-2.5-.9-6.1-5.8-5.1-6.8.3-.4 2 .1 3.7 1.1 4.3 2.5 4.6 1.4 1.1-3.6-4.7-6.6-6.3-10.3-6.2-14.4.1-2.2.3-3 .6-1.8.3 1.1 1 3.1 1.6 4.5zm85 62.8c2 2.1 2.1 3.2 1.8 13.4-.3 11.6-1.5 14.8-5.3 14.8-2.4 0-2.3-.8.4-2.9 1.9-1.6 2.1-2.6 1.9-10-.1-4.5-.9-9.7-1.7-11.6-1.5-3.8-1.8-8.3-.6-11.2.5-1.4.8-1 1 1.7.2 1.9 1.3 4.5 2.5 5.8zM54.4 95c.3 2.2.9 8 1.3 13 .5 7.8.4 9.3-1.2 11-1 1.1-2.5 2-3.3 2-1.2 0-1-.6.7-2.2 2.3-2.1 2.3-2.5 1.7-12.7-.3-5.8-.9-11.6-1.2-12.9-.4-1.2-.2-2.2.4-2.2.5 0 1.2 1.8 1.6 4z"/>
  <path fill="currentColor" d="M55.55 120.81c-.18-.12-.193-.1.727-1.168 1.064-1.236 1.467-2.68 1.682-6.03.266-4.135-.182-9.78-1.6-20.166a736.4 736.4 0 0 1-.598-4.433c0-.029-1.338-.078-2.973-.11-3.095-.061-3.892-.16-5.18-.642-.788-.295-1.406-.891-1.509-1.456-.105-.579-.287-.924-1.036-1.963-.908-1.259-2.352-2.965-4.519-5.34-2.213-2.426-3.023-3.383-4.253-5.026a65.347 65.347 0 0 1-5.857-9.385c-1.87-3.633-2.917-6.272-3.757-9.465-.287-1.088-.634-2.13-.842-2.524a5.182 5.182 0 0 0-2.262-2.188c-1.084-.535-1.685-.997-2.709-2.078-1.902-2.01-2.959-4.238-2.201-4.643.395-.212 1.479.164 3.662 1.268 1.614.816 2.212 1.066 2.658 1.109.419.04.6.014.67-.096.37-.583-.324-1.958-2.764-5.483-3.36-4.854-4.93-7.947-5.502-10.847-.28-1.419-.243-5.048.052-5.045.041 0 .264.601.494 1.336.23.735.826 2.369 1.323 3.631.884 2.24 1.233 3.387 1.485 4.88.068.406.17.767.228.802.264.163.654-.112 1.175-.829.306-.42.599-.764.651-.764.052 0 .116.307.141.682.076 1.129 1.12 2.963 2.999 5.272 2.424 2.978 3.723 4.86 3.986 5.777.223.777.746 1.146 1.624 1.146.843 0 1.374-.449 1.562-1.32.128-.592 1.456-2.452 3.253-4.555 2.276-2.666 3.794-5.342 3.796-6.695 0-.22.05-.533.112-.694.092-.242.138-.268.273-.157.089.074.161.19.161.26 0 .253.678.939 1.017 1.029.462.123.918-.043 1.103-.402.081-.159.202-.64.268-1.069.143-.924.604-2.277 1.315-3.857 1.269-2.818 2.57-5.657 2.587-5.64.035.04-.395 4.076-.513 4.822-.388 2.437-1.32 5.113-2.563 7.365-1.203 2.18-2.358 3.739-4.892 6.61-1.07 1.212-1.854 2.305-2.263 3.157-.796 1.658-.021 1.649 1.943-.023 1.32-1.124 2.487-1.689 3.625-1.755.69-.04.875-.015 1.026.136.248.248.177.517-.525 1.97-.986 2.042-2.531 3.812-4.602 5.271-1.636 1.153-1.853 1.563-1.454 2.75.572 1.697 2.412 4.633 3.404 5.431.693.558 7.56.768 29.442.898 18.413.11 21.113.19 24.334.724 2.749.456 5.586 1.859 9.112 4.505 1.75 1.314 4.658 4.137 5.679 5.515 1.696 2.29 2.425 4.222 2.13 5.643-.07.336-.218.693-.33.794-.185.168-.231.17-.53.015-.713-.369-1.428-1.581-2.596-4.402-.354-.854-.683-1.54-.732-1.525-.05.016-.58.96-1.181 2.1-2.142 4.063-3.2 5.763-5 8.036-1.13 1.427-1.826 2.554-2.29 3.713-.613 1.532-.71 2.129-.707 4.344.004 2.279.105 2.899.972 5.948.772 2.712.868 3.28.867 5.127 0 2.157-.333 4.476-1.473 10.282-1.058 5.392-1.586 7.035-2.62 8.157-.557.604-1.258.899-2.583 1.088-1.113.16-3.738.334-3.738.249 0-.027.67-.437 1.49-.91.818-.473 1.714-1.064 1.99-1.312 1.304-1.172 1.91-3.038 2.846-8.77.482-2.954.658-4.662.658-6.382-.001-3.33-.533-4.974-3.214-9.931-2.726-5.04-3.522-5.94-5.135-5.81-.585.046-.996.2-2.637.99-3.282 1.578-4.217 1.768-8.656 1.757-3.911-.01-5.442-.181-13.53-1.514-.87-.144-1.588-.253-1.595-.243-.083.13-.85 11.913-.941 14.466-.132 3.687-.013 7.781.297 10.269.402 3.215.065 5.44-.985 6.489-.668.668-1.228.862-2.615.904-.66.02-1.27-.011-1.357-.069z"/>
  <path fill="currentColor" d="M20.038 27.908c-.756-1.309-.994-3.073-.907-6.722.113-4.77.987-9.33 2.223-11.602.41-.754.958-1.219 1.33-1.13.864.208.743 1.21-.368 3.058-1.014 1.689-1.424 3.464-1.05 4.557.329.965.855.76 3.014-1.176 1.988-1.783 3.145-2.563 3.409-2.3.131.132-.485 1.206-1.197 2.084a51.78 51.78 0 0 1-1.989 2.237c-3.04 3.233-3.395 4.057-3.552 8.239-.121 3.225-.311 3.797-.913 2.755zM44.262 24.525a68.024 68.024 0 0 1-.123-2.155c-.035-.81-.137-1.841-.227-2.292-.316-1.592-1.205-2.96-2.931-4.511-1.334-1.198-2.461-2.729-2.461-3.341 0-.425.588-.208 1.657.613 1.268.973 2.2 1.259 2.538.777.341-.487.133-1.9-.472-3.195-.413-.885-.816-1.337-1.313-1.47-.514-.139-.764-.41-.846-.915-.074-.455.18-.943.49-.943.312 0 1.128.573 1.646 1.154 1.588 1.783 2.91 4.621 3.353 7.194.227 1.318.259 4.405.058 5.62-.28 1.693-1 4.146-1.218 4.146-.05 0-.119-.307-.151-.682zM50.605 120.845c-.224-.228.027-.603 1.258-1.878 1.361-1.41 1.693-1.909 1.955-2.939.455-1.788-.47-17.752-1.295-22.347-.325-1.81-.322-2.153.023-2.497.254-.254.467-.1.813.585.639 1.265.93 2.596 1.302 5.95.862 7.77 1.262 13.373 1.184 16.602-.06 2.47-.226 3.135-1.05 4.209-.56.728-1.663 1.634-2.5 2.052-.517.259-1.538.417-1.69.263zM99.544 120.8c-.674-.287-.346-.908 1.172-2.222.632-.546 1.236-1.093 1.343-1.215.355-.405.749-1.275.908-2.007.353-1.616.286-8.172-.12-11.8-.377-3.36-.769-5.252-1.58-7.638-1.4-4.114-1.512-8.029-.311-10.82.125-.29.268-.529.318-.529.142 0 .295.707.427 1.965.26 2.469 1.203 4.76 2.628 6.383 1.71 1.946 1.925 3.09 1.804 9.548-.244 12.998-.974 16.77-3.504 18.091-.47.246-.705.29-1.691.317-.63.018-1.258-.015-1.394-.073z"/>
</svg>
