<svg xmlns="http://www.w3.org/2000/svg" version="1.0" viewBox="0 0 128 128">
  <path d="M64.4 9.5c-1.5 2.3-1.4 2.8 1.1 8.2 3 6.7 6.3 10.5 12.1 13.9 5.5 3.3 8.3 9.8 6 14.2-.8 1.5-2.1 3.3-2.8 3.8-2.7 2.1-17.6 4.7-28.4 4.9-9 .2-11.9.7-15.5 2.4-8 3.9-11.8 6.5-12.9 8.9-1.1 2.5-.4 8.8 1.1 9.8.5.3.9 1.8.9 3.4 0 2.2-.9 3.6-3.7 5.7-2.1 1.5-4.1 3.2-4.4 3.7-.4.5-1.3 6.7-2 13.9l-1.3 13 2.8 2.3c6 5.2 9 2.4 8.7-8.4-.1-5.2.3-8.3 1.2-9.6 1.2-1.7 1.7-1.2 6.6 6.3 2.8 4.4 5.4 8.8 5.7 9.6.4.9 1.8 2.2 3.3 2.9 2.2 1.2 3 1.2 5.4 0 3.1-1.7 3.5-4.5.8-7.1-2.4-2.4-7.1-10.6-7.1-12.5 0-.8 2.3-3.9 5.2-6.7l5.2-5.2 8.3-.2c8-.2 8.3-.1 9.2 2.3 1.9 5.2 2.3 6.7 3.6 16 1.2 8 1.9 9.9 4 11.7 3 2.7 6.7 3 8.9.7 2.1-2 2-3.1-.4-6.1-1.8-2.3-2-4.1-2-14.7 0-12 0-12.1 2.9-14.8 1.5-1.5 3.4-4.2 4.1-6 .6-1.8 2.5-6 4.1-9.3 1.6-3.3 3.2-8.3 3.5-11.1.6-4.9.8-5.2 4.4-6.3 4.2-1.2 6.2-4.4 4.9-7.9-.6-1.6-.4-3 .7-4.8 1-1.5 1.4-3.6 1.2-5.6-.4-2.2.1-4.1 1.4-5.9 2.4-3.2 2.1-9.7-.5-11.3-1.5-.9-2.2-.7-3.8 1.3-1.7 2.1-1.9 2.1-1.9.4 0-4.2-5.1-5.9-7-2.3-.6 1.2-.8 3-.5 4.1.6 1.8.5 1.9-1.3.8-1.6-1-2.3-1-3.5 0-1.3 1-1.7.9-2.6-.7-1.9-3.7-6.4-3.8-7.4-.3-.2 1 .2 3.3.9 5.1 1.7 3.9 1.4 4.5-1.1 2.6-1.2-.9-2.1-3.1-2.4-6.2-.6-4.7-.7-4.9-3.8-4.9-2 0-3.3-.5-3.3-1.2 0-1.8-3.7-5.3-5.5-5.3-.8 0-2.2 1.1-3.1 2.5zm6.6 6.1c0 .8.7 1.4 1.6 1.4.8 0 1.2.4.9 1-.3.5-.3 1.6.1 2.2.6.9 1 .5 1.4-1.1.7-3.2 2.9-4 2.3-.9-.7 3.9 1.4 7.8 5.2 9.3 5.3 2.3 5.8 2 5-2.3-.3-2-1.1-4.1-1.6-4.7-1.2-1.2-1.2-3.5 0-3.5s4.2 6.5 4.8 10.4c1 6.2 3.5 7.1 7.2 2.4l2.5-3.1-3.5-2.8c-1.8-1.5-3-3.1-2.6-3.5.4-.4 1.3-.2 1.9.4 2.4 2.4 3.8 1.3 3.8-2.9 0-2.8.4-3.9 1.3-3.6.8.3 1.1 2.1.9 5.6-.2 3.1.1 5.1.7 5.1s1.1-1.1 1.1-2.4c0-1.4.5-2.8 1-3.1.6-.3 1 .1 1 1s.5 1.3 1 1c.6-.3 1-1.7 1-3.1 0-1.3.5-2.4 1-2.4.6 0 1 1.5 1 3.4 0 3-.8 4.2-5.5 8.3-3 2.6-5.5 5.4-5.5 6.2 0 .8 1 .4 2.6-1.3 1.5-1.4 3.3-2.6 4-2.6 2.3 0 1.6 3.9-1.2 6.6-2.3 2.4-2.4 2.7-.8 3.8 2.7 2.1 1.3 4.9-3.1 6.2-4 1.1-4 1.1-4.7 7-.4 3.2-2.1 8.6-3.7 11.9-1.6 3.3-3.3 7.2-3.6 8.7-.4 1.4-2.2 4-4.1 5.7L81 83v13.4c0 12 .2 13.6 2.1 16 1.7 2.2 1.8 2.7.6 3.2-1.6.6-5.7-1.1-5.7-2.4 0-3-3.3-19.8-4.7-24.2l-1.8-5.5H51l-5.9 6c-8 8.1-8.1 9.1-1.6 18.9 2.5 3.8 4.5 7.1 4.5 7.2 0 .2-.9.4-2 .4-1.5 0-3.8-2.7-8.5-10-3.6-5.5-6.5-10.4-6.5-10.9s1-1.7 2.2-2.5c1.2-.9 1.9-1.8 1.5-2.2-.7-.8-5.3 2.4-8.7 6.1-2.2 2.3-2.5 3.7-2.8 11.6-.2 4.9-.7 8.9-1.1 8.9-.4 0-1.5-.6-2.5-1.3-1.7-1.3-1.8-2.1-.6-13.5l1.3-12.1 3.9-3.2c5.3-4.2 6-6.3 3.6-12.3-1-2.6-1.6-5.6-1.3-6.6.6-1.9 9-7.6 13.2-9 1.5-.4 8.2-1.1 14.8-1.4 13.4-.6 25.6-3.4 29.1-6.7 3.2-3 5.6-9.5 3.9-10.9-.7-.6-1.6-2.6-1.9-4.5-.6-2.8-1.5-3.9-4.9-5.6-2.3-1.2-5.3-3.1-6.5-4.3-3-2.7-7.2-10.8-7.2-13.8l.1-2.3 1.9 2.4c1.1 1.3 2 2.9 2 3.7z" />
  <path fill="currentColor" d="M21.063 116.506c-1.638-.87-2.302-1.511-2.604-2.516-.228-.756-.2-3.474.063-6.386.266-2.937 1.748-17 1.824-17.31.03-.12 1.156-1.113 2.503-2.204 5.17-4.19 6.277-5.66 6.28-8.324 0-1.208-.244-2.366-.85-4.024-1.158-3.173-1.626-4.906-1.773-6.578-.065-.74-.044-.909.168-1.347.946-1.955 8.997-7.376 12.932-8.708 1.23-.416 7.703-1.073 13.7-1.39 3.182-.169 5.391-.322 7.276-.504 10.345-1 19.084-3.255 22.465-5.794 2.522-1.895 5.043-6.772 5.043-9.757 0-.846-.19-1.35-.733-1.95-.69-.764-1.238-2.152-1.795-4.54-.562-2.413-1.412-3.45-3.984-4.862-6.067-3.331-7.694-4.638-9.933-7.985-1.694-2.531-3.217-5.532-4.009-7.898-.523-1.565-.645-2.406-.532-3.672l.093-1.039 1.166 1.48c1.873 2.38 2.316 3.129 2.572 4.352.083.397.244.826.357.953.262.295.82.53 1.254.53.45 0 .991.289.989.527 0 .105-.08.413-.174.686-.424 1.217.396 2.91 1.12 2.31.087-.073.339-.71.558-1.414.538-1.73.836-2.27 1.488-2.698.355-.232.63-.138.713.243.035.16.077.341.094.402.016.06-.012.432-.064.827-.362 2.742.093 4.792 1.503 6.781 1.157 1.631 3.002 2.764 6.299 3.87 1.407.471 2.093.496 2.475.088.243-.26.266-.372.254-1.24-.032-2.398-1.032-5.926-2.036-7.18a4.085 4.085 0 0 1-.488-.814c-.23-.554-.236-1.655-.01-1.999.593-.906 1.46-.088 2.86 2.699 1.248 2.488 2.011 4.723 2.558 7.493.585 2.962 1.197 4.325 2.21 4.92 1.272.748 2.786-.008 4.77-2.38 1.44-1.724 2.773-3.38 2.773-3.447 0-.032-.856-.743-1.902-1.58-1.046-.837-2.193-1.797-2.549-2.134-.74-.701-1.561-1.8-1.671-2.238-.063-.25-.029-.32.212-.429.444-.202 1.06.042 1.855.736 1.107.966 1.84 1.225 2.5.883.757-.391.988-1.21 1.171-4.163.119-1.908.193-2.494.366-2.883.402-.91 1.097-.734 1.503.38.2.55.218.9.224 4.51.006 4.099.069 4.741.499 5.13.256.233.587.134.859-.257.335-.482.467-1 .57-2.236.15-1.811.667-2.967 1.327-2.967.268 0 .548.528.548 1.035 0 .846.476 1.34 1.043 1.082.541-.247 1.05-1.717 1.054-3.047.002-.746.255-1.786.522-2.143.752-1.007 1.413.67 1.32 3.349-.096 2.756-.71 3.666-5.207 7.717-2.383 2.146-4.382 4.198-5.135 5.27-.45.642-.547.86-.52 1.176.066.79.72.52 2.317-.956 2.089-1.932 3.728-2.98 4.469-2.86 1.224.198 1.443 1.774.516 3.709-.517 1.079-.87 1.564-2.096 2.884-1.35 1.453-1.72 1.984-1.734 2.493-.01.348.056.453.532.846 1.125.926 1.576 1.456 1.756 2.062.556 1.873-1.172 3.52-4.85 4.623-3.31.992-3.445 1.189-4.073 5.945-.336 2.537-.926 5.042-1.829 7.753-.798 2.398-1.053 3.027-2.421 5.973-1.481 3.189-2.362 5.282-2.826 6.72-.56 1.732-.77 2.18-1.6 3.423-.995 1.49-2.1 2.694-4.363 4.75l-1.902 1.73.003 8.777c.002 4.828.05 10.192.108 11.92.185 5.578.432 6.605 2.145 8.93.974 1.321 1.3 1.903 1.252 2.23-.046.307-.5.629-1.067.756-1.176.264-3.841-.638-4.843-1.64-.41-.41-.411-.414-.544-1.788-.36-3.71-2.813-16.455-4.119-21.387-.185-.698-.782-2.645-1.328-4.328l-.992-3.059H61.264l-10.273.001-3.638 3.706c-4.456 4.538-5.677 5.851-6.727 7.233-1.392 1.832-1.894 3.168-1.787 4.758.14 2.082.944 3.704 4.695 9.47 3.098 4.762 4.425 6.95 4.296 7.08-.132.132-.903.27-1.518.273-.875.004-1.456-.321-2.543-1.424-1.192-1.21-2.454-2.887-4.684-6.225-4.211-6.305-7.994-12.552-7.994-13.2 0-.48.68-1.261 2.069-2.372 1.465-1.173 1.977-1.97 1.513-2.355-.72-.597-4.063 1.554-7.365 4.737-3.458 3.334-3.728 4.108-4.1 11.774-.329 6.736-.728 10.06-1.21 10.06-.086 0-.507-.186-.935-.414z" />
</svg>
