<svg xmlns="http://www.w3.org/2000/svg" version="1.0" viewBox="0 0 128 128">
  <path d="M44 24c-2.3 2.3-5.4 12.4-4.6 14.7.4 1.1-.5 2.7-2.7 4.7-4.7 4.3-6.7 12.7-4.3 17.5.9 1.7 2.8 3.7 4.1 4.3 1.5.7 3.5 3.2 4.9 6.4 1.8 3.8 3.8 6.3 7.1 8.6 3.6 2.5 4.5 3.7 4.1 5.3-.3 1.1-.6 3.3-.6 5 0 2.4-.7 3.3-3.3 4.5-2.6 1.2-3.2 2.1-3.2 4.5 0 2.8.3 3 4.2 3.3 5.8.4 8.8-1.7 10.3-7.6.7-2.6 1.6-5 1.9-5.5.4-.4 2.9.7 5.7 2.5l4.9 3.2-3.9.6c-4.5.6-6.7 3.1-5 5.7.9 1.5 2.9 1.8 11.7 2.1 9 .2 10.7 0 12.3-1.5 1.7-1.8 2.2-2 5.6-2.2 3.9-.3 4.5-2.4 4.1-15-.2-9.2-.8-13.4-2.4-17.7C90.7 56.3 80.6 50 67 50c-5.7 0-7.4-.4-9-2-2.4-2.4-2.6-5.6-.5-6.4 2.2-.8 5.5-6.7 5.5-9.7 0-1.5-.9-3.7-1.9-5-1.8-2.2-2.2-2.3-5.2-1.2-2.9 1.1-3.4 1-5.5-1.2-2.8-3-3.8-3.1-6.4-.5zm5.4 4.4c.3 1.3-.1 4.2-.9 6.5-2.1 6 .7 5.6 3-.5 1-2.8 2.7-5 4.1-5.6 2.8-1.3 3-1.2 3.9 2.3.5 2-.2 3.5-3.4 7.3-3.5 4.4-3.8 5.1-2.8 7.5 2.3 5.7 4.1 6.5 14 7.2 19.6 1.3 26.2 9.3 26.9 32.9l.3 10.5-3.9.3c-2.8.2-4 .9-4.3 2.3-.5 1.7-1.5 1.9-10.4 1.9-10.4 0-13.5-1.4-4.9-2.2 2.8-.3 5.3-.8 5.6-1.1 1.4-1.3-.8-3.8-6.1-7.3-7.8-4.9-10.5-4.5-12.6 2-1.8 5.4-4 7.6-7.6 7.6-3.2 0-2.8-1.2 1-3 3-1.4 3.2-1.9 4-8.3.8-7.5.7-7.8-5.4-11.5-3.3-2-4.2-3.4-7.9-11.4-.7-1.4-2.3-2.9-3.5-3.2-1.2-.3-2.8-1.9-3.5-3.5-1-2.5-.9-3.7.5-7.5.9-2.4 3-5.7 4.6-7.2 2-1.9 2.7-3.4 2.3-4.7-.8-2.4 1.4-11.4 3.3-13.2 1.8-1.8 2.9-1.3 3.7 1.9z" />
  <path fill="currentColor" d="M71.607 100.859c-2.531-.127-4.989-.495-5.371-.805l-.24-.194.325-.167c.418-.213 1.601-.472 2.86-.626 4.76-.58 5.148-.64 6.599-1.023.734-.193.897-.28 1.074-.57.294-.482.263-.921-.122-1.69-1.117-2.236-7.54-6.78-11.74-8.305-.87-.316-1.134-.361-2.15-.37-1.057-.01-1.212.015-1.788.298-1.27.624-2.203 2.076-3.236 5.037-1.935 5.55-4.189 7.676-7.917 7.47-1.452-.08-1.925-.362-1.555-.927.281-.43 1.113-.972 2.936-1.914 2.45-1.267 2.893-1.779 3.383-3.912.454-1.975 1.011-6.872 1.011-8.885 0-3.069-.729-4.046-4.963-6.654-2.04-1.258-2.534-1.625-3.435-2.563-1.257-1.31-2.614-3.651-4.557-7.862-.406-.879-.955-1.904-1.22-2.277-.61-.854-1.568-1.714-2.296-2.058-.31-.147-.848-.403-1.196-.57-1.554-.744-2.877-2.515-3.397-4.545-.381-1.492-.259-2.594.56-5.028 1.072-3.187 2.772-5.966 5.266-8.605 1.882-1.99 2.302-2.922 2.012-4.461-.329-1.74.074-4.919 1.033-8.158.813-2.744 1.55-4.257 2.508-5.143 1.476-1.367 2.41-.979 3.13 1.299.49 1.556.33 3.812-.461 6.471-.683 2.294-.922 3.327-.922 3.99 0 .844.128 1.082.58 1.082.787 0 2.078-1.882 3.161-4.608 1.3-3.273 2.625-5.018 4.45-5.862.509-.235 1.138-.484 1.397-.554.966-.26 1.38.22 1.93 2.234.691 2.54.287 3.615-2.83 7.508-4.032 5.037-4.21 5.552-2.955 8.526 1.906 4.512 3.723 5.684 9.868 6.36.848.094 2.238.222 3.086.286 8.725.652 13.389 1.91 17.65 4.759 1.47.983 3.414 2.887 4.484 4.393 1.058 1.487 2.35 4.117 3.034 6.175 1.58 4.751 2.281 9.742 2.561 18.245.242 7.332.29 9.704.2 9.765-.052.034-.974.124-2.049.2-2.482.174-3.327.29-4.2.579-.923.305-1.566.917-1.837 1.75-.263.809-.451 1.076-.924 1.312-.624.311-1.31.441-2.95.56-1.353.097-9.051.124-10.787.037z" />
</svg>
