<svg xmlns="http://www.w3.org/2000/svg" version="1.0" viewBox="0 0 128 128">
    <path d="M79.4 23.5c-.4.9-1.4 1.3-2.8 1-3.3-.8-4.8.8-5.3 5.8-.4 3.7 0 5.5 2 9.1l2.6 4.6-3.2 2.4c-2.6 1.9-4.8 2.4-11.7 2.9-10.5.6-17.6 3.4-22.6 8.9-6.1 6.8-7.5 11.4-8.4 26.7-.4 7.4-.6 14.1-.3 14.8.6 1.4 4.9 2.9 7.2 2.4.8-.1 2 .4 2.5 1.1.8 1.1 4.6 1.6 14.4 2.1l13.3.6-.7-2.2c-1.3-4.3-3.6-5.9-7.6-5.4-2.1.3-3.8.2-3.8-.2 0-.8 10.4-7.1 11.8-7.1.6 0 1.6 2.5 2.3 5.6 1.1 5 1.7 5.8 4.7 7.1 1.8.8 5.3 1.3 7.7 1.1l4.3-.3-1.2-3.5c-.7-2.4-1.9-3.6-3.6-4-2.6-.6-3.7-3.3-3.8-10-.1-3.1.4-3.8 4.3-6.3 3.4-2.2 5.2-4.3 7.2-8.8 1.6-3.2 3.3-5.9 3.9-5.9.7 0 2.2-1.1 3.5-2.4 1.9-2 2.2-3.2 2-8.7C97.8 47.6 96.2 44 92 41c-2.2-1.6-3-2.9-3-5.1 0-7.8-7.6-17.7-9.6-12.4zm4.5 5.1c.6 1.5 1.4 4.6 1.8 7.1.4 3.3 1.4 5.1 3.8 7.1 4.5 3.8 5.5 6.3 5.3 12.9-.3 5.2-.6 5.9-3 7.1-1.7.8-3.5 3.1-4.8 6-2.5 5.6-4.3 7.7-9.4 10.9l-3.9 2.5.6 7c.6 7.4 1.6 9.4 5.7 11.1 2.3 1 2.4 1.1.4 1.4-4.3.8-7.1-1.3-8.3-6.4-2.2-8.7-4.5-9.3-13.8-3.3-6.3 4-7.6 6.3-5.1 8.8.9.9-.2 1.2-4.9 1.2-4.1 0-6.4-.5-7.3-1.4-.6-.8-2.8-1.6-4.8-1.8l-3.7-.3.3-10c.6-19.8 4.1-27.7 14.6-32.9 4.9-2.5 7.5-3.1 14.8-3.4 8.5-.4 9-.6 13-4.2l4.3-3.7-2.8-5.1c-3.9-7.2-3.6-12.3.7-11.5 1.3.3 2.7 0 3-.6 1.1-1.8 2.2-1.3 3.5 1.5zM62.5 102c.8 1.3-1.5 1.3-3.5 0-1.2-.8-1.1-1 .7-1 1.2 0 2.5.4 2.8 1z"/>
    <path fill="currentColor" d="M44.795 101.805c-1.925-.23-3.12-.641-3.89-1.336-.776-.7-2.29-1.317-3.913-1.593-.36-.062-1.452-.172-2.426-.245-.974-.074-1.829-.169-1.899-.212-.197-.122.175-12.03.51-16.305.87-11.082 3.088-17.463 7.614-21.905 1.832-1.798 3.742-3.1 6.84-4.66 4.9-2.469 6.984-2.93 15.06-3.337 6.417-.322 8.135-.688 10.093-2.146.719-.535 6.491-5.483 6.64-5.69.06-.084-.43-1.077-1.354-2.748-3.02-5.464-4.03-8.154-4.03-10.725 0-1.59.413-2.51 1.342-2.986.38-.196.605-.23 1.33-.199 2.936.122 3.224.06 3.875-.82.715-.967 1.31-1.04 2.067-.252 1.144 1.19 2.327 4.819 3.054 9.37.352 2.2.76 3.312 1.7 4.632.464.653 1.135 1.325 3.134 3.14 2.653 2.408 3.763 4.555 4.13 7.99.143 1.329.078 5.059-.114 6.602-.323 2.59-.743 3.265-2.732 4.375-2.02 1.128-3.215 2.675-5.177 6.699-2.772 5.685-3.931 6.93-10.177 10.93-1.469.94-2.698 1.78-2.73 1.864-.06.157.401 5.965.687 8.65.452 4.24 1.066 6.052 2.558 7.54.852.85 1.077.982 4.172 2.439.346.162.628.339.628.392 0 .259-2.34.592-3.59.511-2.212-.143-3.89-1.323-4.982-3.5-.49-.977-.704-1.605-1.411-4.16-1.208-4.36-2.568-6.086-4.791-6.077-1.928.008-4.114.988-8.593 3.851-4.63 2.96-6.424 4.786-6.42 6.534.002.735.235 1.27.916 2.103.98 1.2.688 1.3-3.92 1.341-1.86.017-3.751-.013-4.201-.067z"/>
    <path fill="currentColor" d="M61.51 102.955c-.72-.074-1.627-.41-2.386-.883-.338-.21-.64-.438-.788-.593-.258-.27-.132-.384.488-.447a14.27 14.27 0 0 1 1.425-.001c1.063.115 1.91.457 2.194.887.247.372.279.659.094.836a.561.561 0 0 1-.246.147c-.187.063-.49.084-.78.054z"/>
</svg>
