<svg xmlns="http://www.w3.org/2000/svg" version="1.0" viewBox="0 0 128 128">
  <path d="M48 26.4c-1.9.7-6.1 2.6-9.3 4.1-5.5 2.5-5.9 2.6-7.7 1-2.1-1.9-6-1.2-6 1.1 0 1.7-.1 1.7-3.4.4-1.9-.7-2.9-.6-4.1.6-1.8 1.8-1.9 2.8-.4 5.5.7 1.4.7 2.4 0 3.3-.6.7-1.8 3.2-2.6 5.6-.9 2.4-2.3 5.2-3.1 6.2-2.3 2.5-1 6.5 2.8 8.8 3.5 2.1 5.9 1.9 12.1-1.2 2.8-1.4 5.4-1.8 10-1.6 5.9.3 6.2.4 9.1 4.5l3 4.3-3.2 6.3c-1.8 3.5-3.2 7.4-3.2 8.6 0 1.5 2.6 5.3 7.2 10.3l7.1 7.9 5-.5c2.7-.2 5.1-.7 5.5-1 .3-.3.9-3.2 1.3-6.4.4-3.1 1.5-9.1 2.5-13.3 1.5-6.9 1.9-7.5 3.9-7.1 1.6.3 2.9 2 4.5 6l2.4 5.6-5.2 4.6c-7.1 6.4-6.8 11 .8 11 3.7-.1 5.9-1.7 13.7-10.2l4.2-4.6-1.6-5c-1.4-4.3-1.4-5.3-.3-6.7 1.2-1.4 1.5-1.3 2.7 1.6.7 1.8 3.4 5.4 5.8 8 2.5 2.7 4.5 5.2 4.5 5.7s-1.6 2.2-3.5 3.6c-5.5 4.2-4.2 8.6 2.5 8.6 4.6-.1 6.1-1.3 9.8-8.5 3.3-6.3 3.9-8.9 2.2-10-.8-.5-.8-1.1 0-2 .8-1 .8-3.8.2-9.7-.7-6.4-1.8-10-4.7-15.8-2-4.1-4.7-8.6-5.9-9.8-2.7-3.1-8.2-5.8-13.1-6.8-5.2-.9-11.3-3.3-23-9-10.5-5.2-16.8-6.3-22.5-4zm20.3 6.4c12 5.8 20.3 9.2 22.9 9.2 3.8 0 12.4 4.6 14.5 7.6 4.2 6.2 8.1 16.9 8.7 23.8.5 6.2.4 6.7-.9 5-.8-1-1.5-3.6-1.5-5.7 0-4.8-2.3-4.6-2.8.2-.2 2.3.6 4.7 2.9 8.3l3.3 5.1-3 5.6c-3.4 6.5-4 7.1-7.6 7.1-3.6 0-3.6-1.6.1-3.4 5.7-3 5.5-6.3-.9-13.4-2.8-3.1-5.6-7.1-6.2-8.9C96.4 69.5 94 69 91 72c-2.3 2.3-2.5 4.7-.9 10 1.1 3.7 1.1 3.8-4.8 9.9-4.4 4.5-6.7 6.1-8.6 6.1-3.4 0-3.6-2.7-.4-3.9 3-1.2 7.7-6.7 7.7-9.1 0-.9-1.1-4.3-2.5-7.3-2.2-5-2.9-5.7-6.6-6.7-2.2-.6-4.3-.9-4.5-.7-.8.8-4.4 16.3-5.2 22.1-.4 3.3-1.2 6.1-1.9 6.3-1.9.7-2.6-6-1.9-16.7l.6-9.6-2.9-2.2c-1.6-1.2-3.7-3.9-4.7-6.2-1-2.2-2.1-4-2.6-4-1.8 0-.6 3.8 2.8 8.8l3.6 5.3-3.6 4.6c-2 2.6-3.6 5.2-3.6 5.8 0 .7 1.5 2.4 3.3 3.7 3.4 2.7 6.6 10.8 4.3 10.8C56.8 99 45 85.4 45 83.3c0-1 1.4-4.2 3-7.2 1.7-3 3-6.1 3-7 0-.9-1.6-3.9-3.6-6.8L43.8 57h-7.2c-4.9 0-8.4.7-11.5 2-5.7 2.6-9.7 2.6-11.1 0-.9-1.6-.7-2.6.9-4.7 1.2-1.4 2.1-3.3 2.1-4.2 0-.9.9-3.1 2.1-5 2-3.3 2-4.4.4-8.4-.5-1.3-.3-1.6.9-1.1.8.3 1.8 1.4 2.1 2.5.4 1 1.5 1.9 2.5 1.9 1.4 0 2-.9 2.2-3.3.4-4.1 1.7-4.1 4.1.1 1.6 2.8 1.8 3.8.8 5.9-.6 1.4-.9 2.8-.6 3.2 1.3 1.2 3.5-3.3 3.5-7 0-3.1.4-3.9 2.8-4.8 1.5-.6 5.2-2.2 8.2-3.6 7.2-3.3 11.8-2.9 22.3 2.3zm-10.2 50c-.5 3.9-.8 4.2-2.4 3-1.6-1.2-1.6-1.5.5-4.5 1.3-1.7 2.3-3.1 2.4-3 .1.1-.1 2.1-.5 4.5z"/>
  <path fill="currentColor" d="M54.058 28.216c-3.586-.006-6.9 1.537-10.088 3-2.514 1.18-5.12 2.16-7.62 3.363-1.008.571-1.416 1.732-1.439 2.836-.11 2.446-.318 4.956-1.556 7.112-.36.534-.799 1.452-1.57 1.324-.347-.239-.094-.822-.1-1.183.28-1.72 1.621-3.322 1.051-5.13-.66-2.04-1.799-3.938-3.235-5.527-.412-.55-1.362-.815-1.754-.092-.965 1.65-.456 3.786-1.488 5.404-.824.803-2.33.465-2.98-.413-.843-1.08-1.197-2.577-2.466-3.293-.47-.222-1.16-.65-1.643-.275-.25.56.212 1.184.3 1.743.46 1.43 1.137 2.867.921 4.406-.198 1.942-1.597 3.46-2.38 5.182-.724 1.298-1.104 2.737-1.372 4.185-.606 2.107-2.419 3.565-3.194 5.588-.675 2.296 1.55 4.712 3.857 4.615 2.859.211 5.572-.9 8.145-1.983 3.304-1.349 6.877-1.871 10.426-1.83 2.603-.042 5.21-.06 7.816-.09 2.082 3.2 4.431 6.253 6.202 9.628.416.951 1.212 1.98.753 3.063-1.454 4.455-4.379 8.302-5.722 12.819-.379 1.216.646 2.262 1.21 3.23 2.954 4.16 6.333 8.02 10.002 11.563.782.63 1.5 1.56 2.547 1.712.958-.161.96-1.382.812-2.125-.536-2.517-1.728-4.877-3.21-6.968-1.392-2.056-3.86-3.15-5.036-5.37-.204-.47.343-.948.49-1.415 1.78-3.192 4.238-5.936 6.43-8.84.562-.555-.422-1.114-.613-1.646-2.24-3.433-4.92-6.718-6.203-10.65-.138-.605-.459-1.562.236-1.932.512-.094.758.611 1.057.91 1.34 2.066 2.13 4.48 3.702 6.424 1.409 2.024 3.5 3.42 5.397 4.912-.227 5.89-.843 11.802-.728 17.717.044 2.61-.054 5.343.969 7.798.216.614 1.016 1.312 1.622.733.895-1.055 1.022-2.534 1.353-3.828.691-4.115 1.406-8.225 2.335-12.291.91-3.937 1.74-7.933 3.039-11.755.076-.662.803-.319 1.279-.326 2.058.326 4.148.723 6.005 1.711 1.985 1.229 2.747 3.59 3.718 5.574.96 2.28 2.064 4.556 2.403 7.023.04 1.539-.98 2.831-1.82 4.028-1.711 2.134-3.637 4.207-6.189 5.32-.96.459-2.088 1.296-1.83 2.51.27 1.193 1.708 1.464 2.754 1.482 2.243-.105 4.012-1.729 5.635-3.109 2.59-2.4 5.08-4.926 7.353-7.63.87-1.009 1.451-2.373 1.08-3.711-.602-2.84-1.866-5.704-1.308-8.646.451-1.901 1.966-3.366 3.576-4.365 1.019-.664 2.486-.608 3.292.367 1.212 1.378 1.602 3.264 2.638 4.763 2.09 3.44 4.93 6.317 7.398 9.47 1.13 1.567 2.44 3.346 2.45 5.34.089 1.712-1.223 3.042-2.553 3.911-1.36 1.022-3.182 1.52-4.169 2.98-.25.604.173 1.226.784 1.364 1.27.389 2.664.333 3.965.121 2.147-.424 3.28-2.52 4.26-4.265 1.523-2.803 3.105-5.587 4.432-8.488-.344-.91-1.044-1.698-1.53-2.555-1.672-2.736-3.767-5.375-4.436-8.584-.125-1.836-.255-3.9.897-5.476.213-.336.636-.303.806.049.602.97.537 2.202.618 3.302.128 2.147.537 4.475 2.03 6.121.227.354.874.366.879-.143.181-2.554-.1-5.126-.435-7.658-1.086-6.308-3.317-12.392-6.242-18.071-1.18-2.272-2.51-4.574-4.647-6.08-3.245-2.326-6.86-4.271-10.779-5.157-1.544-.256-3.104-.343-4.585-.895-6.112-2.038-11.932-4.862-17.767-7.582-5.141-2.395-10.398-5.36-16.237-5.326Z"/>
</svg>
