<svg xmlns="http://www.w3.org/2000/svg" version="1.0" viewBox="0 0 128 128">
  <path d="M19 9.5c-1.6 1.7-2.4 3.9-2.6 6.6-.1 2.6-.9 4.7-2.3 6-3.6 3.4-2.8 8 2.4 13.9 2.5 2.8 4.7 6.3 5.1 7.8 3 14.2 8.1 23.1 13.8 24.6 1.3.3 3.8 2.2 5.5 4.1 3 3.4 3.1 3.9 3.1 12.8 0 11.9-1.4 20.1-4.4 25.8-2 3.9-2.2 5.1-1.2 7 2.1 4.3 8.4 3.8 10.3-.8.6-1.5 1.4-4.2 1.7-5.8.4-1.7.9-4.1 1.2-5.5.3-1.4.9-4.5 1.3-7l.8-4.5.7 7.6c.7 6.1.5 8.2-.8 10.7-2.9 5.7-1.6 10.2 3 10.2 2.5 0 6.4-4.3 6.4-7.1 0-1 .5-2.1 1.1-2.5.8-.5.9-2.8.4-7.3-.3-3.6-.8-9.5-1.1-13.1-.2-3.6-.6-8.6-.9-11.2l-.5-4.6 5.7.5c3.8.3 8.1 0 12.2-1.1 3.6-.9 6.7-1.3 7.1-.9.3.5 3 3.6 5.8 6.9 5.7 6.8 6 8 4.1 19.3-.5 3.5-1.9 7.5-2.9 8.9-3.7 4.6-2 8.2 3.7 8.2 4.3 0 6.7-3.8 7.9-12.3l.8-6.2.4 5.4c.2 4.2-.2 6.4-2 9.8-2.3 4.3-2.3 4.4-.4 5.8 2.7 2 6.7 1.1 9.4-2.2 2.2-2.7 2.3-3.3 1.8-13.2-.3-5.7-.6-12.8-.6-15.7 0-4.5-.5-5.9-3-8.7-1.8-2.1-2.7-4.1-2.4-5.3.3-1-.2-2.8-1-3.9-1.2-1.7-1.2-2.6.5-7.1 1.6-4.2 1.8-6 1-9.4-2.5-11.3-18.7-17.5-35.4-13.6-3.8.9-9.6 1.6-13 1.6-6.4 0-13.2 1.6-18.6 4.5l-3.2 1.6-1.4-3.5c-2-4.8-2-4.8 2.5-9.5 2.2-2.2 4.2-5.1 4.6-6.5 1-4.2.1-8-2.3-9.1-1.4-.6-2.3-1.9-2.3-3.2C41 13 36.5 7.1 32.5 7c-4.4 0-6.1 5.1-2.4 7.1 2.2 1.2 2.2 3.3-.1 9.4l-1.1 2.9-2-4.3c-2.1-4.8-2.4-7.2-1-8.7.5-.5.7-2.1.4-3.7-.7-3.5-4.1-3.6-7.3-.2zm5 1.4c0 .6-.4 1.3-1 1.6-1.8 1.1-1 6.3 2 12.7 1.6 3.4 3 6.9 3 7.5 0 .7.5 1.3 1 1.3.6 0 1-.6 1-1.3 0-.8 1.1-4.1 2.5-7.5 3-7.5 3.2-10.8.5-12.4-2.5-1.6-2.6-2.8-.2-2.8 1.9 0 5.2 4.7 5.2 7.6 0 .9-1.2 4.6-2.6 8.1-2.8 7.2-2.8 10.4.1 5.8 3.1-4.9 6.2-8.4 6.9-7.8 1.9 1.9.3 6.5-3.9 11.4C36 38 34 41.2 34 42.2c0 3.2 3.1 9.7 4.9 10.3 1 .3 4.4-.7 7.6-2.1 4.3-2 8-2.8 13.4-3.1 4.2-.2 10.9-1.1 14.9-2 8.9-1.9 15.8-1.3 23.2 2 9.4 4.1 11.2 8.4 7.9 17.9-1.9 5.3-1.9 6-.5 8 1.9 2.6 2 3.8.6 3.8-.6 0-2.1-1.7-3.3-3.7-1.7-2.9-2.3-3.4-2.5-2-.5 2.4 3.5 8.1 7 10.2 1.5.9 3.2 2.4 3.7 3.3.5.9 1.1 8.2 1.5 16.2.7 15.5.3 17-4.2 18.4-2.7.9-2.8-.3-.2-3.7 2.3-2.9 2.4-5.6.9-16.2-.8-4.9-1.6-7.5-2.4-7.5-1.4 0-3 6.2-4.1 15.3-.7 6.3-2.4 9-5.4 8.5-2.2-.3-2.2-.3-.3-2.8 2.1-2.7 4.3-13.1 4.3-20.2 0-4-.7-5.4-6.1-12.4-3.4-4.4-6.5-8.2-6.9-8.7-.3-.4-2.4 0-4.6 1-2.9 1.3-6.6 1.7-14.5 1.7l-10.5-.1.7 5.1c.4 2.8 1 9.1 1.3 14 .3 4.9.8 11 1.2 13.6.4 3 .2 5-.5 5.4-.6.4-1.1 1.7-1.1 3 0 2.5-1.7 4.6-3.7 4.6-1.7 0-1.6-4 .2-6.4.8-1.1 1.5-3.3 1.5-4.9 0-4.3-4.2-27.7-5-27.7-.4 0-1.2 4.4-1.9 9.8-1.1 8.9-3.3 19.5-4.8 23.2-.3.8-.5 2.1-.4 2.7.1.8-.9 1.3-2.4 1.3-3 0-3.1-1.1-.5-6.6 2.7-5.6 4-13.8 4-26.1 0-10.1-.1-10.3-3.2-13.8-1.7-2-4.8-4.5-6.9-5.5-5.2-2.7-7.6-6.2-10-14.4-3.6-12.9-4.1-14.1-8-17.7-2.9-2.7-3.9-4.4-3.9-6.7 0-5.1 1.1-4.4 7.3 4.3 1.1 1.5 2.1 2.4 2.4 2.1.6-.6-3.5-11.5-4.9-13.1-1.3-1.5-.9-5.9.8-8.3 1.6-2.3 3.4-2.9 3.4-1.3z"/>
  <path fill="currentColor" d="M32.548 9.83c-.665-.02-1.809.277-1.61 1.157.453 1.188 1.776 1.69 2.657 2.514 1.27 1.129 1.142 2.983.941 4.5-.858 5.04-3.609 9.51-4.711 14.483.044.59-.402 1.604-1.106 1.219-.71-.758-.613-1.898-1.09-2.79-1.76-4.86-4.606-9.376-5.29-14.571-.033-1.093-.313-2.378.452-3.3.666-.68 1.622-1.443 1.337-2.527-.122-.777-1.114-.809-1.636-.416-2.507 1.607-3.638 4.714-3.64 7.593-.028 1.306.459 2.553 1.227 3.59 1.73 3.302 3.052 6.82 4.137 10.372.128.565.376 1.191.284 1.758-1.137-.519-1.717-1.729-2.486-2.65-1.693-2.239-3.25-4.632-5.328-6.54-.439-.48-1.386-.536-1.576.215-.378 1.366-.326 2.84-.126 4.232.605 2.623 2.89 4.299 4.608 6.19 1.354 1.334 2.571 2.822 3.286 4.6 2.37 5.659 3.365 11.823 5.692 17.512 1.337 3.32 3.54 6.365 6.62 8.258 1.627.962 3.345 1.787 4.797 3.018 2.212 1.812 4.429 3.777 5.845 6.3 1.077 2.275.849 4.862.955 7.326.02 7.752.004 15.604-1.796 23.175-.7 3.29-2.236 6.285-3.498 9.38-.308.988-.865 2.249-.164 3.192.744.718 1.913.41 2.842.476.687-.01 1.627-.264 1.844-.996.122-1.21.185-2.448.66-3.582 2.144-6.648 3.257-13.573 4.3-20.464.604-3.882.926-7.838 1.975-11.629.141-.197.243.602.335.76 1.464 5.765 2.439 11.643 3.417 17.507.423 3.074 1.083 6.183 1.04 9.28-.015 1.913-.801 3.68-1.831 5.247-.862 1.552-1.35 3.52-.678 5.229.415.97 1.692.765 2.458.388 1.65-.83 2.451-2.704 2.505-4.478.048-1.128.397-2.26 1.218-3.072.813-1.225.545-2.813.47-4.197-.726-5.923-1.1-11.88-1.527-17.838-.372-5.25-.991-10.48-1.727-15.689 6.367-.15 12.763.194 19.124-.3 2.414-.168 4.723-.936 6.942-1.857 1.017-.35 2.08-.734 3.158-.588 3.662 4.608 7.428 9.16 10.773 14 1.209 1.735 2.091 3.666 2.104 5.81.165 5.399-.648 10.811-2.059 16.026-.639 2.22-1.395 4.476-2.893 6.278-.25.462-.962 1.2-.376 1.671 1.08.435 2.364.586 3.485.203 1.805-.746 2.516-2.795 2.98-4.535.883-3.795 1.079-7.703 1.889-11.513.518-2.364.906-4.841 2.084-6.978.18-.277.638-.896.924-.367.82 1.148.983 2.618 1.34 3.945.801 3.985 1.35 8.056 1.555 12.118.079 2.148.016 4.482-1.277 6.32-.812 1.386-2.126 2.585-2.44 4.22-.094.789.87.954 1.448.773 1.775-.428 3.857-1.114 4.602-2.961 1.029-2.602.774-5.469.835-8.207a254.44 254.44 0 0 0-1.187-20.59c-.226-1.25-.15-2.663-.893-3.749-1.838-2.236-4.638-3.4-6.525-5.582-1.564-1.703-2.943-3.676-3.693-5.872-.112-.674-.286-1.447.065-2.058.966.734 1.442 1.95 2.144 2.918.862 1.22 1.65 2.638 2.984 3.396.62.255 1.475-.17 1.355-.911-.212-1.992-2.202-3.25-2.453-5.22-.004-2.18 1.02-4.182 1.626-6.238.992-3.194 1.959-6.712.85-10.004-.718-2.153-2.5-3.721-4.26-5.043-3.669-2.319-7.77-3.952-11.999-4.912-5.776-1.293-11.768-.587-17.486.64-5.203 1.036-10.486 1.538-15.777 1.919-3.6.27-7.145 1.132-10.444 2.604-2.425.975-4.862 2.12-7.489 2.4-.973.22-1.597-.672-2.093-1.354-1.553-2.331-2.772-4.941-3.262-7.71-.202-.912.003-1.867.524-2.657 1.752-3.189 4.396-5.749 6.355-8.794 1.19-1.997 2.435-4.266 2.124-6.672-.15-.613-.383-1.411-1.015-1.667-.983.064-1.615 1.016-2.278 1.638-2.241 2.452-3.911 5.342-5.907 7.982-.098.123-.555.557-.58.143.04-1.872.76-3.658 1.32-5.419 1.072-3.083 2.398-6.091 3.19-9.264.443-2.118-.651-4.174-1.757-5.902-.823-1.127-1.756-2.416-3.181-2.769a2.968 2.968 0 0 0-.538-.043Z"/>
</svg>
