<svg xmlns="http://www.w3.org/2000/svg" version="1.0" viewBox="0 0 128 128">
  <path d="M80.5 25.7c-2.7.7-7.3 5.1-9.2 8.7-1.1 2-1.4 4.4-1 7.7l.6 4.7-4.2.4c-4.5.5-19.7 7.6-28 13.1-2.9 1.9-6.9 4-9 4.6-2 .7-4.2 2.1-4.7 3.1s-2.3 2.1-4 2.5c-3.4.7-5 2.9-4.2 5.7.4 1.8 1.2 2 7.6 1.6 7-.4 7.2-.4 14.4 4.3 4 2.6 8.5 5 10 5.3 2.4.6 2.7 1.1 2.7 4.9 0 4.1.1 4.2 3.6 4.5 2.7.2 3.8.9 4.2 2.3.5 1.8 1.3 1.9 12.3 1.7l11.9-.3.9-2.8c1.3-3.6 0-4.8-5.8-5.4-5.8-.7-6.6-3.1-1.6-5.4 6.9-3.1 15.6-11.4 18.9-18 1.7-3.4 3.1-7.5 3.1-9.1 0-3.7-2.5-9.6-5.2-12.5-1.2-1.3-1.9-2.5-1.6-2.8.3-.3 3.3-.1 6.7.3 4.9.7 6.6.6 7.7-.5 2.9-2.9 2.1-4.2-7.9-12.8-5.9-5.1-7.4-5.8-11.5-6.1-2.6-.1-5.6 0-6.7.3zm9.8 3.5c2.3 1.2 4 2.6 11 9.1l4.1 3.8-9.7-.7c-9.3-.6-9.7-.6-9 1.2.4 1.1 1.8 3 3.1 4.4 2.9 3 6.1 9.7 6.2 12.6 0 3.8-5.1 12.3-10.3 17-5.6 5-10.4 7.8-15.4 8.9-2.6.5-3.3 1.2-3.3 3.1 0 1.9.5 2.4 2.6 2.4 2.2 0 2.5.2 1.4 1.5-.7.8-1.9 1.5-2.7 1.5-.8 0-1.1.4-.8 1 .3.5 2.5.7 5 .3 2.4-.3 5.6-.2 7.1.1 7.1 1.8-6.4 3.6-14.5 2-2.2-.5-3-1.1-2.7-2 .4-1-.5-1.4-3.3-1.4-2.2 0-4.4-.6-5.1-1.5-.9-1.1-.9-1.5-.1-1.5.7 0 1.1-1.1.9-2.7-.2-2.2-1.2-3-5.2-4.5-2.7-.9-7.9-3.7-11.5-6.1l-6.6-4.4-5.4 1.4c-3.5.8-5.8 1-6.4.4-.6-.6.6-1.4 3.2-2.1 2.3-.6 4.4-1.7 4.7-2.5.3-.8 2.2-1.9 4.2-2.6 2.1-.6 6-2.8 8.7-4.9 9.2-6.9 23.7-13 31-13 4.6 0 5.4-.7 3.4-2.7-1.9-1.9-1.4-10.8.7-13.6 3.9-5.1 10.1-7 14.7-4.5z" />
  <path d="M57.4 86.2c-.3.4-.2 1.7.1 2.8.5 1.5 1.5 2 4.2 2 2.8 0 3.4-.3 2.9-1.6-.3-.9-.6-1.9-.6-2.4 0-1.1-6-1.9-6.6-.8z" />
  <path fill="currentColor" d="M68.796 97.84c-3.427-.3-5.452-.816-6.156-1.57-.23-.248-.25-.34-.18-.894.136-1.088-.218-1.258-2.916-1.403-2.617-.14-4.09-.462-5.016-1.097-.396-.271-1.167-1.259-1.167-1.495 0-.16.284-.31.786-.416.501-.106.703-.7.697-2.049-.007-1.408-.21-2.09-.838-2.804-.644-.731-1.608-1.254-4.28-2.322-2.634-1.052-6.092-2.78-8.768-4.38-.97-.58-3.496-2.205-5.613-3.61l-3.85-2.557-.67.173-3.042.787c-4.01 1.038-6.812 1.396-7.776.993-1.073-.448.045-1.285 2.81-2.104 2.674-.791 4.206-1.596 4.795-2.517.603-.942 2.1-1.856 4.36-2.659 1.363-.484 4-1.81 5.597-2.814a58.277 58.277 0 0 0 2.701-1.858c3.61-2.64 6.875-4.634 10.941-6.686 6.126-3.091 11.71-5.158 16.358-6.054 1.652-.318 2.167-.37 4.92-.506 2.22-.108 2.722-.196 3.185-.56.508-.4.347-.978-.555-1.993-.812-.916-1.07-1.709-1.272-3.916-.104-1.134-.103-1.812 0-3.087.284-3.48.943-5.666 2.15-7.128 2.266-2.748 5.35-4.588 8.449-5.04 1.097-.161 2.85-.08 3.809.177 2.019.54 4.38 2.09 7.717 5.064 1.867 1.664 9.218 8.46 9.182 8.49-.017.015-1.94-.113-4.275-.284-7.122-.523-9.784-.68-11.797-.694-1.678-.011-1.978.013-2.301.19-.355.192-.37.224-.315.7.117 1.044 1.353 2.963 3.344 5.194 1.117 1.252 2.062 2.583 3.024 4.259 1.743 3.036 3.083 6.617 3.083 8.238 0 2.933-3.173 8.969-7.266 13.818-2.492 2.954-6.805 6.57-10.381 8.706-2.711 1.618-5.55 2.782-8.235 3.374-2.035.45-2.795 1.026-3.017 2.29-.15.85-.041 1.963.236 2.42.375.616.638.708 2.326.811 2.087.128 2.249.23 1.656 1.05-.71.98-1.936 1.751-2.979 1.875-.32.038-.651.14-.737.226-.218.217-.197.732.037.944.485.438 2.55.534 5.02.231 1.122-.137 2.011-.164 3.881-.116 2.542.064 3.01.124 4.066.52.8.299 1.136.598.938.836-.357.43-1.705.803-3.956 1.093-1.639.21-6.98.305-8.71.154zm-4.44-7.081c.508-.274.545-.587.197-1.7a22.216 22.216 0 0 1-.445-1.662c-.087-.416-.23-.767-.348-.857-.856-.645-4.166-1.13-5.548-.811-.834.192-.992.427-.992 1.475 0 2.13.652 3.206 2.205 3.635.9.25 4.428.192 4.932-.08z" />
</svg>
