<svg xmlns="http://www.w3.org/2000/svg" version="1.0" viewBox="0 0 128 128">
  <path d="M20 7.9c-3.8 3.4-4.6 3.7-5.5 2.4-1.6-2.2-5.3-.8-6.1 2.4-1.2 4.7 1.9 9.1 8.9 12.3 3.4 1.7 7 3 8 3 3.2 0 1.8 1.9-3 4-6.2 2.7-7.7 4.2-9.3 9-1.6 5-.4 8.2 4.2 11 3.9 2.3 7.5 2.5 10.2.5 3.1-2.3 4.2-1.8 5.6 2.6.8 2.2 2.5 4.9 3.8 6 2.3 1.8 2.7 1.8 4.8.4 2.2-1.4 2.3-1.4 3.3 2.3.6 2 1.1 4.3 1.1 5 0 .7 1.4 3 3.1 5.1 2.9 3.7 3 4.2 3.4 15.7.3 7.5-.1 14.4-1 19.1-1.6 8.5-1.3 9.8 2.3 11.1 3.4 1.2 7.1-.4 7.7-3.2.4-2.2 1.3-15.1 1.5-22.1.2-3.8.2-3.7 1.4 2 1.2 5.2 1.8 11.6 1.7 16.5 0 6.1 3.1 8.1 11.6 7.3 7.1-.7 12.3-5.6 12.3-11.5 0-1.3 1.8-5.6 4-9.6s4-8.7 4-10.3c0-3.6 2.8-9.5 4-8.3.5.5 1.9 3.4 3.1 6.4 2.8 6.9 3.5 21.6 1.3 26.9-2.9 6.8-.9 11.1 5 11.1 3.7 0 5.6-1.5 5.6-4.4 0-1.2.7-4 1.5-6.4 1.2-3.2 1.3-4.8.4-6.3-.6-1.3-1-7.1-.9-14.8.1-6.9-.1-14.8-.5-17.6-.5-3.4-.2-7 1.1-12.1 1.5-6.2 1.6-7.8.5-11.7-.8-2.5-2.1-5.3-3.1-6.2-1-.9-5.9-2.7-11-4-8.4-2.3-9.8-2.4-15.6-1.3-5.5 1-6.9.9-9.8-.5-1.9-.9-3.7-2.4-4-3.5-.4-1-1.8-2.4-3.3-3.1l-2.6-1.2 3.1-1.9c3.5-2.2 5.1-6.4 3.3-9.1-.6-1-1.1-2.5-1.1-3.3 0-1.8-3.1-2.9-5.4-2-1.1.4-1.6.1-1.6-1.4 0-1.1-.7-2.7-1.5-3.5-1.8-1.8-5.5-1.1-5.5 1.1 0 1.2-.3 1.3-1.2.4-.7-.7-2.2-1.2-3.5-1.2-2.3 0-2.7 1-2.4 5.7.3 2.8-1.6 3.9-2.4 1.3-.3-1.1-1.4-2-2.4-2-1.4 0-1.7-.6-1.3-2.9.5-3.9-2.8-6-6.2-3.8-2.1 1.4-2.3 1.3-3.4-1.5-1.5-4.1-5.1-3.5-7.4 1.2l-1.7 3.5-.1-3.6C29 5.5 27.8 4 25.1 4c-.4 0-2.7 1.8-5.1 3.9zm6.4 3.2c.1 2.9.4 3.4 2.6 3.4 1.9 0 2.9-.8 3.9-3.3 1.9-4.2 3.3-4.1 3 .2-.2 1.9-.1 3.7.2 4.1.3.3 2.3-.6 4.3-2 4.3-2.9 4.6-3 4.6-1.1 0 .8-1.6 2.8-3.6 4.4-2.1 1.8-3.3 3.5-2.9 4.2.5.8 1.1.6 2.2-.7 1.3-1.7 1.4-1.6 1 .7-.2 1.4-.8 3.3-1.2 4.4-1.4 3.4 1.9 1.2 3.6-2.3.8-1.8 2.3-3.8 3.2-4.3 1.4-.7 1.7-.4 1.7 2.2 0 3.5.5 3.6 5 1.4 3-1.5 3.2-1.9 2.7-5.5-.3-2.2-.3-3.9 0-3.9 1.1 0 3.2 3.5 3.3 5.2 0 3.2 1.9 1.9 2.6-1.7.3-1.9 1-3.7 1.4-4 1.2-.7 2 3.4 1.3 6.7-.5 2.5-.3 2.7 1.3 2.1 1.1-.4 2.4-1.3 3-2.1.6-.9 1.6-1.2 2.3-.7.9.5.3 1.7-2 4.1-3.7 3.8-2 4.8 1.9 1.1l2.4-2.2-.4 2.4c-.4 3.2-6 6.1-13.2 6.8-3.1.3-5.6.9-5.6 1.3s2.8 1 6.3 1.2c6.9.6 12 2.5 11.3 4.3-.2.7 1.4 2.4 3.7 3.8 4.3 2.8 8.3 3.3 15 1.8 2.8-.7 5.9-.3 12.6 1.4 4.9 1.2 9.3 2.5 9.8 2.8.6.4 1.6 2.6 2.3 5 1 3.7.9 5.4-.5 10.4-1.2 4.2-1.5 8-1.1 12.4.7 8.7.8 38.5 0 43.1-.5 3.2-1 3.8-3 3.8-3.3 0-4-2.4-2-6.6 2.3-4.9 2.2-18.4-.3-26.3-1.8-5.7-6.2-13.1-7.9-13.1-1.5 0-6.2 9.2-6.2 12.1 0 1.6-1.8 6.2-3.9 10.2-2.2 4-4.2 8.7-4.5 10.6-.6 4.1-4.3 8.3-7.1 7.9-3.1-.5-3-3.5.3-7.2 1.6-1.9 4.2-6 5.8-9.2 2.4-5.1 2.8-7.1 2.8-15.2l.1-9.3-2.9.5C76.4 78.3 75.4 78.9 74 83c-1 2.9-1.1 7.6-.7 17.8.4 7.7.9 14.6 1.2 15.4.5 1.2.1 1.4-1.8 1.1-2.3-.4-2.5-1.1-3.1-8.3-.3-4.3-1-9.1-1.5-10.6-.5-1.6-1.4-5.5-2.1-8.8-1-5-1.4-5.6-2.6-4.4-1.7 1.7-3.3 9.8-4 20.8-.7 10.5-.8 11-3.4 11-2 0-2.1-.3-1.3-6.3.4-3.4.8-12.3.7-19.8-.1-12.3-.3-14-2.3-17.3-1.3-2-2.6-3.6-3.1-3.6-.4 0-1.1-2.3-1.5-5-.4-2.8-1.1-5-1.6-5-.4 0-1.5-2.1-2.2-4.8l-1.4-4.7-1.7 3.9c-.9 2.1-1.6 4.3-1.6 4.8 0 1.7-3-1.3-3.1-3.1-.1-2.7-3.4-7.6-5.4-8-1.1-.2-3.4.5-5.2 1.4-2.7 1.5-3.7 1.6-6 .6-4.4-1.8-5.7-4.5-4.1-8.8 1-2.7 2.5-4.1 6.8-6.4 3-1.6 6.8-4 8.4-5.3l3-2.5-3-.6c-9.6-2.2-13.7-3.9-16.9-6.9-1.9-1.9-3.5-4.3-3.5-5.5 0-2.8 1.4-2.7 2.8.4 1.2 2.6 3.2 3.4 3.2 1.3 0-1.3 2.9-4.8 4.1-4.8.4 0 .5 1.6.2 3.6-.5 2.9-.3 3.6.8 3.2.8-.3 1.4-1.9 1.5-3.9.1-6.1.4-7.1 1.6-6.7.7.3 1.2 2 1.2 3.9zM85 87.5c0 7.5-1.2 11.2-5.8 18.3-2.3 3.6-3.2 1-3.2-10 0-13.4.7-14.9 7.8-15.7.9-.1 1.2 2 1.2 7.4z" />
  <path fill="currentColor" d="M110.636 121.883c-.727-.117-1.04-.247-1.483-.62-1.114-.938-1.05-2.648.212-5.65 1.233-2.93 1.698-6.164 1.692-11.758-.008-6.532-.814-11.919-2.441-16.317-1.212-3.273-3.351-7.301-5.112-9.621-1.125-1.484-1.979-2.125-2.545-1.91-.692.264-2.266 2.54-3.59 5.192-1.462 2.927-2.253 5.179-2.44 6.942-.242 2.278-1.577 5.624-4.623 11.585-2.103 4.116-3.326 7.11-3.759 9.2-.51 2.462-1.483 4.306-3.141 5.954-1.466 1.456-2.856 2.08-4.057 1.823-.771-.165-1.44-.577-1.751-1.078-.209-.336-.256-.56-.25-1.186.013-1.32.638-2.511 2.582-4.922 2.97-3.683 6.183-9.435 7.432-13.304.875-2.71 1.022-4.496 1.124-13.608.071-6.373.066-6.698-.12-6.698-.41 0-2.953.472-5.104.947-6.211 1.371-7.73 2.21-8.855 4.888-1.2 2.857-1.506 6.152-1.307 14.065.145 5.768.71 15.404 1.1 18.798.06.515.192 1.268.293 1.674.26 1.04.17 1.133-1.01 1.046-2.119-.155-2.777-.71-3.192-2.693-.178-.852-.417-3.008-.67-6.036-.417-5.025-.848-7.863-1.65-10.86-.552-2.059-1.296-5.225-1.878-7.993-1.096-5.21-1.457-5.828-2.683-4.602-.817.817-1.546 2.772-2.216 5.94-.909 4.3-1.373 8.18-1.938 16.192-.43 6.096-.668 7.876-1.177 8.782-.38.676-.652.796-1.914.845-1.043.04-1.13.027-1.416-.219-.558-.48-.584-1.51-.123-4.998.6-4.543.886-12.513.792-21.995-.102-10.144-.321-12.28-1.517-14.752-.866-1.791-2.95-4.572-3.688-4.923-.29-.138-.454-.324-.616-.702-.327-.761-.708-2.363-1.083-4.552-.527-3.07-1.03-4.573-1.626-4.86-.212-.1-.45-.438-.802-1.136-.586-1.159-.933-2.165-1.942-5.623-.407-1.394-.773-2.574-.814-2.622-.104-.12-2.325 5.089-2.857 6.702-.24.727-.47 1.555-.511 1.839-.041.284-.14.541-.218.571-.248.095-1.12-.55-1.649-1.218-.697-.883-1.023-1.599-1.17-2.57-.33-2.17-1.955-5.11-3.733-6.757-.782-.724-1.458-1.071-2.086-1.071-1.217 0-3.272.643-5.153 1.612-2.65 1.365-3.58 1.378-6.312.09-3.685-1.737-4.781-4.195-3.534-7.924.544-1.627 1.026-2.426 2.137-3.544 1.133-1.141 2.065-1.782 4.798-3.3 3.672-2.038 6.835-4.044 8.468-5.368 1.839-1.492 2.897-2.438 2.812-2.513-.05-.044-.784-.215-1.633-.38-3.297-.642-7.223-1.677-10.105-2.662-5.132-1.755-8.339-4.076-10.593-7.667-.83-1.323-1.033-2.01-.881-2.991.28-1.805 1.256-1.512 2.403.721.725 1.413 1.318 2.228 1.902 2.615.889.589 1.488.357 1.617-.626.106-.808.346-1.376.93-2.204.763-1.08 1.403-1.773 2.143-2.317.746-.55 1.023-.595 1.176-.193.162.427.129 2.115-.067 3.384-.23 1.49-.256 2.75-.06 2.988.367.44 1.29.103 1.718-.629.539-.919.72-1.986.833-4.893.155-3.992.353-4.902 1.084-4.972.915-.087 1.396 1.138 1.567 3.99.115 1.933.296 2.602.801 2.962.301.215.517.255 1.533.287 2.305.073 2.852-.346 4.305-3.298 1.385-2.813 2.138-3.531 2.646-2.527.174.344.192.702.173 3.307-.014 1.758.022 3.053.09 3.252.102.3.156.33.573.322.666-.014 2.127-.777 4.526-2.36 3.306-2.184 3.66-2.323 3.873-1.527.068.252.093.623.055.824-.133.71-1.115 1.965-2.683 3.429-2.77 2.586-3.675 3.65-3.836 4.51-.086.456.11.896.472 1.061.412.188.867-.104 1.883-1.204.523-.566.99-.991 1.039-.943.23.23-.559 3.768-1.339 6.004-.374 1.072-.418 1.53-.168 1.738.383.319 1.534-.545 2.638-1.979.277-.36.857-1.316 1.287-2.123 1.55-2.906 2.903-4.389 4.007-4.389.52 0 .629.369.722 2.455.113 2.524.245 2.837 1.197 2.837.74 0 1.667-.343 3.77-1.394 1.468-.735 1.932-1.024 2.334-1.454.76-.812.828-1.292.536-3.776-.245-2.078-.304-4.013-.125-4.123.184-.114.73.243 1.215.793 1.09 1.237 1.93 3.095 2.083 4.603.093.917.315 1.478.594 1.505.524.051.939-.345 1.392-1.329.323-.7.489-1.278.95-3.314.227-1.006.741-2.37 1-2.656.565-.625 1.183.256 1.475 2.105.177 1.127.135 2.831-.105 4.203-.12.69-.22 1.515-.22 1.835-.001.507.032.597.263.702.712.324 3.176-.998 4.34-2.329.27-.307.63-.632.803-.72.746-.386 1.759-.029 1.759.62 0 .652-.558 1.461-2.31 3.351-1.267 1.367-1.988 2.418-2.068 3.016-.055.412-.038.451.234.52.71.178 1.982-.643 4.352-2.809.872-.797 1.607-1.429 1.633-1.403.104.104-.427 2.647-.651 3.125-.538 1.145-2.196 2.533-4.112 3.443-2.418 1.149-5.133 1.85-8.765 2.265-2.809.321-5.204.843-5.499 1.198-.413.498 1.6.993 5.444 1.338 5.137.461 8.589 1.243 10.692 2.422 1.079.605 1.516 1.19 1.41 1.892-.062.42.133.813.744 1.507.936 1.062 3.404 2.764 5.246 3.617 3.3 1.528 7.023 1.723 12.172.637 3.54-.746 5.704-.54 12.844 1.226 3.578.884 6.573 1.696 8.583 2.327 1.626.51 1.755.61 2.385 1.863.956 1.905 1.77 4.623 1.987 6.633.201 1.868-.015 3.362-1.044 7.204-1.25 4.673-1.494 7.593-1.108 13.324.304 4.51.4 8.557.463 19.365.079 13.625-.092 20.56-.575 23.38-.33 1.928-.685 2.728-1.359 3.07-.486.247-1.525.352-2.276.232z" />
</svg>
