<svg xmlns="http://www.w3.org/2000/svg" version="1.0" viewBox="0 0 128 128">
    <path d="M85.2 18.2c-.5.7-1.1 2.2-1.4 3.3-.2 1.4-1.2 2.1-3.3 2.3-5.8.6-6.5 4.7-1.6 8.9C80.3 34 81 35 80.3 35c-.6 0-3.1-2.3-5.6-5-4.6-5.1-7.3-6.2-8.3-3.5-1.6 4 7.4 14 16.3 18.3 3.2 1.5 6.7 7.7 5.6 9.6-.3.5-3.4 2.1-6.9 3.7L75 61l-20.4-1.9c-14.8-1.4-21.6-1.6-24.3-.9-7.8 2-8.4 1.5-11.7-9.5-1-3.1-2.6-.8-2.6 3.6 0 6.1 1.6 10.9 5 15.2 3.7 4.7 3.7 6.9.1 12.2-3.1 4.6-3.2 3.6.5 21 1.5 7.1 1.7 7.3 4.6 7.3 2.3 0 2.8-.4 2.4-1.8C27.2 102 26.3 95 27.1 95c.5 0 .9.6.9 1.2 0 .7 1.1 3.7 2.5 6.6 2 4.3 2.9 5.2 5 5.2 3 0 3.1-1.1.4-7-3.3-7.1-3-11.7 1.1-17.7 3.4-5 3.6-5.1 6.2-3.7 1.5.8 3.4 1.4 4.2 1.4 3.3 0 12.5 17.1 12.6 23.2 0 2.4.4 2.8 3 2.8 1.9 0 3-.5 3-1.4 0-2.5-2.8-16-3.9-18.9-1.3-3.2.5-3.8 3.3-1 2.6 2.7 9.4 14.6 10.2 17.9.8 3.2 2 4.4 4.6 4.4 1.8 0 1.8-1.6-.4-12.8-.8-4.4-.7-5.7.6-7.7.9-1.3 1.6-3 1.6-3.7 0-2.3 4.6-12.7 6.6-14.9 2.6-2.9 12.8-7.7 18.2-8.5 2.4-.4 4.6-1.3 4.9-2.1.7-1.8-4.2-6.9-7.3-7.7-1.6-.4-2.4-1.3-2.4-2.9 0-1.8 1-2.6 5-4 5.1-1.8 6.4-3.9 3.8-6.5-.9-.9-.9-1.8 0-3.7 1.7-3.6 1.5-6.2-.4-6.9-2.2-.8-3.7.6-5.9 5.3-1.5 3.4-2 3.8-3.5 2.9-3.6-2.3-6 1.3-6 8.8 0 1.3-.4 2.4-.9 2.4-2.2 0-2-4.1.3-9.4 1.4-3.1 2.3-6.3 2-7.1-.8-2.1-5.1-1.9-6.3.2-1 1.7-1 1.6-1.1-.2 0-1.1.4-3.5 1-5.4 1.5-5.3-1.9-9.4-4.8-5.9zM87 27c-.9 5.1-.9 7.5-.1 8.3 1.3 1.3 3.9-.7 5.2-4.1.5-1.3 1.3-2 1.9-1.7.6.4.4 2-.6 4.3-3.2 7.5-3.4 8.5-2.8 11.8.3 1.8 1.2 3.8 2 4.5 2.7 2.2 4.1.3 4.6-6 .5-7 1.1-8 3.8-6.3 1.1.7 2.1 1.2 2.3 1.2.2 0 1.4-2.3 2.7-5 1.3-2.8 2.8-5 3.3-5s.6.8.2 1.7c-1.5 3.6-1.7 6.3-.6 7.7 1.4 1.7.3 2.5-6.1 4.5-3.4 1.1-3.8 1.6-3.8 4.7 0 2.6.5 3.7 2.3 4.4 1.2.5 3.3 1.8 4.7 2.9l2.5 1.9-3 .7c-6.3 1.4-15.5 5.9-18.5 9-3 3.1-8 13.3-8 16.3 0 .7-.6 2.3-1.4 3.5-1.3 1.9-1.3 3-.1 8.2.8 3.3 1.4 7.3 1.4 9-.1 2.9-.2 2.8-1.4-1-.7-2.2-2.4-5.8-3.9-7.9-1.4-2.1-2.6-4.8-2.6-5.8 0-2.6-5.6-7.8-8.4-7.8-4 0-4.6 1.8-2.7 6.9 1 2.5 2.2 6.6 2.6 9.1.3 2.5.9 5.3 1.1 6.2.3 1 .1 1.8-.4 1.8s-1.2-1.7-1.6-3.9c-.7-4.4-7.8-19.2-10.2-21.2-1.4-1.2-5.6-3-10.5-4.6-1.2-.3-2.7 1-5 4.4-1.8 2.6-3.5 5.5-3.7 6.3-1 3.7-.1 11.4 1.7 15.5 1.1 2.5 1.6 4.5 1.2 4.5-.8 0-6.1-11.1-7.5-15.8-1.4-4.5-2.2-2-2.2 6.7.1 10.3-.6 9.9-2.8-1.7-1.7-8.8-1.3-11.2 2.4-16 2.9-3.6 2.6-8.7-.6-11.5-2.7-2.3-4.7-5.6-5.9-9.7-.5-2-.3-1.9 1.5.9 2 3.1 2.4 3.3 5.8 2.6 5.2-1.1 13.2-.8 32.5 1.1 15.4 1.5 17.1 1.5 20.8 0 2.2-.9 4.6-2.1 5.2-2.6.7-.6 2.4-1.9 4-3.1 2.9-2.2 3.4-4.7 1.5-8.2-1.3-2.5-1.9-3-10.9-9.2-6.4-4.3-11.3-10-10.2-11.7.2-.5 1.7.8 3.2 2.9 3.1 4.3 7.2 6.9 9.5 6 2.4-.9 1.9-3.3-.9-5.1-1.4-.9-2.5-2.5-2.5-3.6 0-2.3.3-2.4 3.1-.8 1.7 1.1 2.2 1 3.5-.6.8-1.1 1.4-2.9 1.4-4.1 0-2.2 1-3.9 1.8-3.1.2.3-.1 3.7-.8 7.6z"/>
    <path fill="currentColor" d="M34.638 105.494c-1.553-2.14-5.266-10.183-6.862-14.866-.792-2.324-1.228-3.01-1.595-2.515-.555.747-.808 3.712-.811 9.497-.002 3.427-.114 5.988-.281 6.423-.302.787-.96-1.332-1.945-6.26-1.33-6.658-1.657-9.416-1.379-11.633.295-2.347 1.108-4.081 3.233-6.894.802-1.061 1.46-2.338 1.755-3.406.148-.537.195-1.094.191-2.292-.004-1.415-.035-1.674-.295-2.455-.477-1.435-.965-2.142-2.596-3.764-2.075-2.065-3.06-3.43-4.166-5.77-.573-1.212-1.432-3.683-1.56-4.486-.07-.443-.06-.475.1-.341.098.081.77 1.024 1.495 2.095.723 1.07 1.533 2.139 1.799 2.373.86.757 1.623.821 4.082.342 3.818-.745 8.71-.821 16.81-.263 4.086.281 6.682.505 15.156 1.308 11.254 1.066 12.999 1.188 15.915 1.112 2.404-.062 3.324-.238 5.288-1.01 1.915-.754 4.896-2.296 5.707-2.953.42-.341 1.45-1.14 2.291-1.774 2.527-1.909 3.36-2.823 3.764-4.132.44-1.424.227-2.776-.75-4.785-1.297-2.663-1.861-3.171-9.122-8.228-1.888-1.315-3.83-2.693-4.315-3.063-2.303-1.753-5.107-4.465-6.415-6.205-1.225-1.63-1.806-3.132-1.414-3.654.142-.188.178-.19.473-.038.482.25 1.737 1.608 2.882 3.118 3.32 4.378 7.268 6.715 9.551 5.652.99-.461 1.493-1.295 1.306-2.163-.2-.93-1.103-2.016-2.406-2.898-.868-.587-1.692-1.5-2.11-2.338-.299-.595-.337-.781-.337-1.613 0-1.866.295-1.871 3.583-.06.75.412 1.26.479 1.742.225.384-.202 1.122-.979 1.481-1.56.621-1.004 1.155-2.76 1.158-3.808.005-1.755.844-3.464 1.522-3.101.196.105.226.223.225.908 0 1.105-.261 3.287-.767 6.407-.737 4.542-.878 6.193-.64 7.482.206 1.12.647 1.575 1.526 1.575 1.342 0 3.089-1.774 4.094-4.159.435-1.031.848-1.645 1.278-1.9.74-.439 1.17.19.958 1.407-.162.93-.47 1.794-1.62 4.543-1.22 2.921-1.929 4.945-2.164 6.188-.429 2.27.286 5.764 1.57 7.669.818 1.214 2.268 1.84 3.174 1.371 1.02-.527 1.693-2.759 2.03-6.73.401-4.734.707-6.172 1.432-6.743.521-.41 1.049-.256 2.93.856.515.304 1.118.629 1.34.721.387.162.41.159.597-.082.107-.137.981-1.804 1.943-3.705 2.128-4.209 3.322-6.093 3.863-6.093.097 0 .235.128.306.284.149.327.053.728-.664 2.772-.543 1.55-.78 2.69-.78 3.755 0 1.183.167 1.797.716 2.632.584.89.61 1.21.14 1.745-.502.573-1.946 1.218-5.01 2.242-4.466 1.492-4.803 1.763-5.02 4.03-.128 1.327.03 3.1.339 3.799.352.796.814 1.186 2.288 1.928.75.378 1.9 1.04 2.554 1.472 1.194.788 4.022 2.902 4.077 3.048.017.043-.352.166-.818.273-4.779 1.097-7.486 2.015-11.596 3.93-4.61 2.147-7.976 4.362-9.497 6.248-2.917 3.615-6.905 11.8-7.328 15.04-.216 1.656-.536 2.488-1.75 4.56-.611 1.042-.8 1.895-.687 3.107.074.783.415 2.54 1.257 6.464.732 3.408 1.107 6.814.931 8.454-.108 1.007-.189.885-.99-1.5-1.146-3.408-2.24-5.714-4.066-8.576-1.594-2.499-2.398-4.269-2.697-5.935-.187-1.04-.446-1.64-1.114-2.577-1.53-2.146-4.412-4.475-6.234-5.038-1.471-.455-3.484-.133-4.24.677-.947 1.016-.781 2.714.654 6.692 1.263 3.501 2.069 6.533 2.479 9.33.127.87.425 2.55.661 3.732.493 2.465.523 2.916.215 3.194-.309.28-.499.152-.871-.586-.355-.702-.625-1.61-.992-3.322-.579-2.702-2.525-7.502-5.25-12.948-2.215-4.425-3.76-6.952-4.886-7.995-1.118-1.035-4.917-2.78-9.312-4.277-1.645-.56-1.857-.57-2.645-.11-.539.314-1.797 1.596-2.566 2.616-1.42 1.882-4.053 6.079-4.567 7.278-.959 2.236-.751 8.09.456 12.855.205.81.72 2.357 1.144 3.437 1.05 2.672 1.455 4.201 1.114 4.201-.06 0-.26-.208-.445-.463z"/>
</svg>
