<svg xmlns="http://www.w3.org/2000/svg" version="1.0" viewBox="0 0 128 128">
  <path d="M35.5 26.8c-2.2.2-4.8 1.1-5.8 2-2.9 2.6-10.4 13.5-10.9 15.7-.3 1.6-1 1.9-3.6 1.7-4.1-.4-5.8.9-7.3 5.6-.6 2-1.8 4.4-2.6 5.3-1.8 2.1-.8 9.2 1.6 11.3 1 .9 4.7 1.8 9.2 2.2 4.6.4 8.1 1.3 9.2 2.3 1.3 1.1 4 1.6 8.4 1.7 4.3.2 6.9.7 7.4 1.6 1.8 2.7.9 10.2-1.6 14.3-2.4 3.9-3.3 8.9-1.7 9.8.4.3 4.6.8 9.4 1.2 7.8.6 8.8.5 10.6-1.3 1.1-1.1 2.3-3.9 2.6-6.3 1.7-10.8.8-9.9 9.4-9.9 4.3 0 9.3-.5 11.2-1 2.9-.8 3.7-.7 4.8.7 1.7 2.3 1.5 5.9-.4 8.8-.8 1.3-1.4 3.6-1.2 5.2.3 2.7.5 2.8 7.8 3.6 4.1.4 8.5.5 9.6.2 2.1-.5 6.1-7.1 5.1-8.2-.3-.3.3-2.1 1.4-4 1.4-2.4 1.9-5.2 1.8-9.1 0-3.2.2-7.2.6-9 .7-3.1.9-3.2 5.6-3.2 4.4 0 5-.3 6.5-3.1 3.3-6.5-.4-9.9-6.7-6.2l-2.8 1.7-6.1-6.7c-5.1-5.5-7-6.9-11.3-8.1-18.5-5.3-22.8-6.9-26.7-9.7-5.7-4.1-13.7-6.9-19.9-6.9-2.7 0-5.2-.4-5.5-.9-.8-1.2-3.5-1.7-8.1-1.3zm4.9 4.8c-.6 2.5-.5 2.5 1.6 1.4 3-1.6 12.4-.7 17.5 1.7 2.2 1 6.9 3.5 10.5 5.5 5.9 3.2 13.4 6.2 18.6 7.2 8.3 1.8 15.6 6.2 18.1 10.9.8 1.8 2.1 3.5 2.7 3.9 1.6 1.1 7.6 1 7.6-.1 0-1 3-2.4 3.7-1.7.3.2 0 1.3-.6 2.5-.9 1.5-2.3 2.1-6.2 2.3l-5.1.3-1.9 5.9c-1.6 4.7-1.8 6.5-.9 8.9.8 2.4.7 3.5-.6 5.5-.9 1.3-1.7 4.2-1.9 6.3-.4 5-2 6.9-5.6 6.9-3.5 0-3.5-.3-.7-4.2 2.8-4.1 2.8-13.1-.1-12.6-1.2.3-1.5 1.3-1.3 4 .2 1.9-.4 5.2-1.2 7.2-1.3 3-2 3.6-4.5 3.6-3.6 0-3.7-.4-1.1-3.7 3.1-3.9 2.4-8.9-1.7-14l-1.8-2.2-5.9 2c-4.2 1.5-7.6 1.9-11.8 1.6-6.9-.5-8.4.5-9.3 6.1-.3 2-1.1 5.5-1.8 7.7-1.1 3.6-1.5 4-4.9 4.3-2.2.2-3.8-.1-3.8-.7s.4-1.1.9-1.1c2 0 5.9-12.4 4.2-13.4-1.3-.8-2.6.9-2.8 3.7-.1 1.5-1.1 4.3-2.3 6.2-1.7 2.7-2.8 3.5-5.1 3.5-1.6 0-2.9-.2-2.9-.5 0-.2 1.1-2.1 2.5-4.1 3.3-4.8 3.9-7.4 3.1-12.9-1-6.2-4.2-8.7-11.3-8.4-3.9.2-5.8-.2-7.2-1.6-1.2-1-4-1.9-6.8-2.1-9.7-.6-10.6-.9-12.2-4.3-1.4-3-1.4-3.4.2-4.6.9-.7 1.7-1.5 1.7-1.9 0-2.1 3.1-7.6 4-7.1.7.4.7 1.2 0 2.5-.6 1.1-.6 2.1-.1 2.4 1.2.8 9.1-8 9.1-10.1C23 42.2 31.5 31 33.1 31c.6 0 .9.9.6 2-.9 3.5 1.1 3.2 2.9-.5 2-4.2 4.8-4.9 3.8-.9z" />
  <path fill="currentColor" d="M96.006 98.845c-.53-.104-.75-.295-.75-.655 0-.335.624-1.447 1.447-2.578 1.617-2.223 2.453-4.824 2.595-8.074.13-2.972-.552-5.16-1.677-5.375-.451-.086-1.05.123-1.387.484-.46.492-.58 1.282-.494 3.238.135 3.07-.476 6.13-1.708 8.544-.687 1.348-1.06 1.789-1.838 2.17-.607.299-.695.31-2.285.31-2.958 0-3.22-.347-1.765-2.332 1.245-1.7 1.9-2.72 2.185-3.4.6-1.44.785-3.402.472-5.035-.478-2.497-1.65-4.668-4.24-7.848l-1.034-1.269-3.855 1.314c-6.803 2.317-8.346 2.548-15.136 2.268-2.517-.103-3.553-.02-4.77.382-1.013.336-1.819 1.108-2.347 2.25-.46.991-.603 1.552-1.15 4.476-.459 2.452-1.174 5.349-1.814 7.341-.949 2.955-1.448 3.35-4.638 3.68-1.997.207-3.748-.105-3.748-.668 0-.48.311-.87.8-1 .66-.178 1.157-.751 1.873-2.16 1.156-2.272 2.17-5.38 2.618-8.015.248-1.46.274-2.138.106-2.742-.145-.524-.47-.747-1.086-.747-.433 0-.542.055-.943.473-.605.63-.908 1.47-1.177 3.26-.122.811-.37 1.928-.55 2.482-.708 2.174-2.193 4.78-3.416 5.998-1.073 1.067-2.208 1.422-4.179 1.305-1.162-.07-1.926-.216-2.034-.39-.073-.118 1.112-2.078 2.64-4.363 2.56-3.83 3.384-6.337 3.21-9.757-.344-6.754-2.448-10.028-7.123-11.082-.64-.144-1.713-.206-4.74-.272-4.06-.09-4.382-.126-5.514-.629-.272-.121-.818-.48-1.212-.796-1.153-.928-2.737-1.571-4.89-1.987-.625-.12-2.54-.321-4.255-.446-6.104-.445-7.578-.808-8.827-2.175-.868-.95-2.204-3.869-2.204-4.816 0-.595.175-.827 1.394-1.845 1.062-.887 1.418-1.375 1.519-2.081.18-1.275 1.16-3.507 2.261-5.153 1.016-1.519 1.564-1.883 1.949-1.295.26.396.157 1.042-.34 2.143-.498 1.103-.578 1.926-.225 2.317.497.55 1.485-.086 3.92-2.525 3.101-3.109 5.117-5.88 5.4-7.425.273-1.486 2.45-4.94 5.608-8.9 1.482-1.857 3.65-4.083 4.19-4.3.358-.143.387-.136.635.152.315.366.331.803.08 2.17-.21 1.15-.144 1.686.238 1.936.25.163.3.16.684-.038.583-.3 1.312-1.249 2.123-2.76 1.219-2.272 2.377-3.554 3.21-3.554.776 0 .893.66.482 2.74-.435 2.207-.363 2.274 1.49 1.395 1.3-.617 2.242-.812 4.356-.9 3.407-.14 8.014.549 11.425 1.71 1.674.57 5.18 2.312 10.57 5.252 4.376 2.388 7.391 3.828 11.135 5.317 2.322.924 5.619 2.013 7.386 2.44 4.003.967 4.794 1.175 6.009 1.578 6.838 2.271 12.11 6.053 14.191 10.18.6 1.19 1.664 2.726 2.239 3.232.79.696 2.19 1.008 4.517 1.009 2.055 0 3.362-.362 3.451-.955.124-.828 2.597-2.066 3.399-1.701.266.121.285.173.237.669-.068.706-.723 2.07-1.247 2.594-.523.523-1.514.986-2.587 1.21-.455.094-2.464.276-4.465.404s-3.644.24-3.651.248c-.091.11-2.776 8.689-2.97 9.487-.516 2.132-.476 3.415.173 5.412.794 2.447.702 3.098-.825 5.843-.852 1.532-1.448 3.712-1.719 6.285-.41 3.905-1.615 5.772-4.058 6.29-.761.162-2.638.192-3.344.055z" />
</svg>
