<svg xmlns="http://www.w3.org/2000/svg" version="1.0" viewBox="0 0 128 128">
  <path d="M66.6 28.9c-1 1.1-3.8 7.3-6.2 13.8-4.3 11.3-4.5 12.2-4.2 21.2l.3 9.5-3.5.7c-2.5.6-5 .3-8.8-1.1-7.1-2.7-10-2.5-15.3.8-2.4 1.5-5.3 3.2-6.4 3.8-2.2 1.2-3 4.2-1.6 6.3.6.9 4.7 1.8 12.3 2.6 10.7 1.2 11.9 1.5 22 6.8 7.4 3.8 12.5 5.8 16.2 6.2 4.8.6 16.6-.2 31.6-2.1 7.4-1 8.7-5 2.6-8-1.7-.9-5.2-3-7.9-4.8-3.7-2.4-4.6-3.5-4.1-5.1.3-1.1 1.1-4.3 1.6-7 1.1-5.3 1.2-5.7 4.3-10.1 3-4.2 2.9-19-.1-23.1-3.5-4.7-6.5-4.2-11.4 1.8l-4.4 5.1-1.2-4.1c-.7-2.3-3.1-6.6-5.3-9.6-4.5-6-7.4-7-10.5-3.6zm7.9 5.3c7 9.7 7.2 13.8 1.1 22.9-4.5 6.6-7.2 13.9-6.2 16.5 1 2.6 2.3 1.4 2.9-2.7.3-2.3 2-6.5 3.9-9.5 4.4-7.1 17-22.4 18.4-22.4 1.7 0 4.4 7.4 4.4 12s-1.4 8.7-3.9 11.5c-1 1.1-2.1 4.1-2.3 6.7-.3 2.6-1.5 6.5-2.6 8.7-1.7 3.2-1.9 4.3-.9 5.2 1.7 1.5 8.4 5.5 13.7 8.1l4.5 2.2L97 94.7c-22.1 2.6-22.4 2.6-28.1.8-3-.9-9.5-3.9-14.6-6.5-8.4-4.4-9.9-4.8-18.5-5.4-5.1-.4-10.1-.9-11-1.2-2.4-.7-2.3-2.4.1-2.4 1.1 0 3.3-1.1 4.9-2.5 3.5-2.9 8.4-3.3 13.9-1 5.3 2.2 11.8 2 14.4-.6 1.9-1.9 2.1-2.8 1.4-10.4-.5-6.8-.3-9.4 1.3-14.6C64.2 40.2 69.1 30 70.9 30c.3 0 2 1.9 3.6 4.2z" />
  <path fill="currentColor" d="M74.529 96.677c-4.34-.372-9.376-2.31-20.451-7.872-5.252-2.637-7.015-3.422-8.881-3.954-2.2-.626-3.989-.888-8.374-1.228-5.543-.428-10.573-.95-11.786-1.221-.635-.143-1.535-.631-1.741-.945a.948.948 0 0 1-.124-.543c.057-.476.496-.715 1.524-.83 1.562-.175 3.125-.94 5.071-2.48 2.413-1.909 5.209-2.743 8.29-2.472 1.912.168 3.394.551 5.988 1.548 2.414.928 4.618 1.338 7.166 1.333 3.431-.007 5.643-.728 7.161-2.337.8-.847 1.185-1.52 1.37-2.393.193-.913.146-3.743-.115-6.839-.322-3.82-.347-8.467-.055-10.217.392-2.353.816-3.923 2.04-7.552 2.85-8.448 6.634-16.47 8.572-18.177.285-.25.58-.455.656-.455.215 0 1.722 1.658 2.741 3.016 3.298 4.395 5.26 7.88 5.986 10.633.37 1.404.416 3.58.102 4.928-.566 2.431-1.852 5.06-4.173 8.525-3.04 4.54-5.38 9.528-6.111 13.029-.287 1.374-.262 2.984.058 3.693.874 1.937 1.953 1.352 2.6-1.408.088-.377.264-1.232.39-1.9.393-2.058 1.459-4.859 2.79-7.33 1.816-3.369 6.555-9.858 11.919-16.318 4.269-5.142 6.853-7.827 7.533-7.827 1.042 0 2.953 4.078 3.849 8.213.29 1.342.31 1.596.307 3.97-.002 2.209-.034 2.682-.25 3.68-.65 2.998-1.654 5.226-3.211 7.124-1.44 1.755-2.155 3.685-2.647 7.151-.443 3.12-1.318 5.95-2.818 9.11-1.857 3.913-1.814 4.13 1.223 6.176 2.945 1.984 7.388 4.492 12.522 7.068l3.568 1.79-3.308.42c-8.42 1.066-19.94 2.382-23.428 2.675-2.071.174-5.145.285-5.953.216z" />
</svg>
