<svg xmlns="http://www.w3.org/2000/svg" version="1.0" viewBox="0 0 128 128">
  <path d="M42.5 22.8C35.4 25.4 27 32.1 27 35.3c0 .6-1.1 0-2.4-1.2-3.5-3.3-7.9-2.6-8.7 1.4-.4 1.6-.7 2.4-.8 1.7 0-.6-1.2-1.2-2.5-1.2-4.4 0-5.1 2.2-5.4 18.4-.3 18.1-.1 19.2 3.6 20.1 1.9.4 3.3 1.6 4.3 3.7 3.1 7 10 8.7 12.9 3.2 1.8-3.2 4.5-4.7 7.2-3.8 1.9.6 2 1.2 1.6 7.8-.4 5.4-1.2 8.5-3.3 12.4-3.6 6.7-2.6 8.4 4.8 8 4.4-.3 5.3-.7 6.8-3.3 1-1.7 1.8-4.2 1.8-5.7.1-3.6 2.2-7.9 3.5-7.5 1.6.5 1.9 7.5.5 10.8-.9 2.3-.9 3.2.1 4.4 1.4 1.7 8.2 2 11 .5 2.5-1.3 3.5-7 2.2-12-.8-3.3-.6-4.6 1.2-8.3 2.6-5.5 8.6-9.3 11.8-7.6 1.1.6 3.3.9 4.8.5 1.5-.3 3-.3 3.3 0 1 1-6.3 17.4-10.6 23.7-1 1.5-.9 2.1.7 3.3 3.4 2.4 12.6 1.6 12.6-1.1 0-.7.7-1.5 1.5-1.9.8-.3 1.5-1.8 1.5-3.4 0-1.6 2-6 4.9-10.6l5-7.8 1 3.8c2.2 8.9 2.3 10.5.5 15.5-1.6 4.4-1.6 5.1-.4 6 2.3 1.4 11.2.7 12-1.1 1.8-3.8 2.6-7.8 1.9-9.5-.4-1.1-.8-5.4-.8-9.5-.1-7.5-.1-7.6 2.9-8.7 2.7-1 3-1.6 3-5.6 0-2.4-.9-7-2-10.3-1.2-3.2-2.7-8.1-3.4-10.7-1.5-5.4-4.5-9.1-9.6-11.7-4.2-2.1-6.9-2.7-18.1-3.9-10.2-1.1-24-5.5-28-8.8-2.1-1.8-4.3-2.5-9.1-2.8-3.5-.2-7.2-.1-8.3.3zm12 3.8c12 6.6 19.6 9 33.6 10.8 12.6 1.5 16.2 2.7 19.7 5.9 2.8 2.6 5.2 6.9 5.2 9.3 0 1 1.2 4.6 2.6 8.1 2.4 6.1 2.9 12.8 1 12.8-1.3 0-5.6-13.4-5.6-17.5 0-1.9-.5-4.2-1-5-.7-1.1-1-.6-1 2.1 0 2-.7 5.6-1.5 7.9-1.7 4.7-1.3 7 1.8 11.2 1.7 2.2 2.1 4.6 2.4 12 .7 19.4.8 18.8-3.7 18.8h-3.8l1.5-4c1.4-3.5 1.4-5 .3-11.2-1.1-6.2-1.8-7.6-5.2-11-4.2-4.1-5.8-4.5-3.9-.9 1 1.7.4 3.3-3.9 10.1-2.7 4.4-5 9.1-5 10.5 0 1.6-.6 2.5-1.5 2.5-.8 0-1.5.9-1.5 2 0 1.7-.7 2-4.2 2h-4.1l1.9-2.3C81 98 84 92.3 87 84.7c2.2-5.7 2.2-5.8.4-9.2-2.1-4-2.2-4-4.5-1.9-1.6 1.4-2.3 1.5-4.8.4-3.6-1.4-6.5-.6-11 3.1-6.7 5.5-8.8 12-5.9 18.4.9 2.1.9 2.8-.2 3.5-.7.4-1 1.5-.7 2.4.5 1.3-.1 1.6-3.2 1.6h-3.9l1.4-3.8c1.8-5 1.7-6.1-.6-10.5-1.1-2-2-4-2.1-4.4-.1-1.1-1.8-.5-3.4 1-2.1 2.1-5.6 9.7-5 10.7.3.5 0 2-.7 3.2-.7 1.3-1.1 2.6-1 3.1.1.4-1.7.7-4 .7-3.9 0-4-.1-2.5-1.8 4.3-4.7 6.6-23.4 3.3-26.1-3.5-2.9-12.2-.3-13.3 4-.8 3-4.1 2.3-6-1.4-.9-1.7-1.6-3.7-1.5-4.2.1-.6-1.2-1.2-2.9-1.3-1.8-.1-3.6-.5-4-.8-1.4-.8-1.1-11.2.4-11.7.9-.3.9-.9 0-2.6C9.7 54.6 9.6 46 11 46c.7 0 .8-.6.2-1.6-1.1-2-.4-5.4 1-5.4.6 0 .8.7.5 1.5-.8 2 .8 2.8 2.3 1 .7-.8 2-1.5 3-1.5 2.4 0 3.1-1 1.9-3.1-.7-1.5-.6-1.9.5-1.9.9 0 2.2 1.3 3.1 3 .9 1.6 2 3 2.5 3s2.1-1.7 3.4-3.8c4.2-6.3 5.1-7.1 10.7-9.6 6.4-2.9 10.3-3.2 14.4-1z" />
  <path fill="currentColor" d="M34.866 102.802c-.583-.18-.501-.398.667-1.79 2.341-2.79 4.34-10.434 4.661-17.829.136-3.115-.305-6.32-1.028-7.485-1.172-1.886-4.915-2.42-8.541-1.22-2.485.823-4.632 2.53-5.212 4.146-.62 1.722-1.013 2.149-2.05 2.224-1.57.113-3.16-1.332-4.415-4.01-.593-1.265-1.088-2.747-1.088-3.259 0-.312-.069-.467-.284-.636-.493-.387-1.421-.661-2.657-.783-2.827-.278-3.962-.6-4.279-1.212-.85-1.645-.73-8.37.19-10.51.17-.395.334-.584.65-.745.73-.372.712-.92-.082-2.53-.88-1.785-1.279-3.91-1.292-6.89-.013-2.797.313-4.06 1.1-4.264.535-.139.56-.491.108-1.501-.69-1.545-.782-2.925-.282-4.26.4-1.07 1.259-1.495 1.64-.812.145.259.146.364.012.826-.426 1.458-.191 2.24.671 2.24.576 0 .774-.115 1.683-.967 1.015-.953 1.864-1.347 3.188-1.48 1.145-.115 1.845-.379 2.12-.8.277-.422.157-1.259-.325-2.262-.662-1.377-.645-1.794.076-1.913.543-.09 1.404.375 2.068 1.116.31.345.904 1.198 1.321 1.895.807 1.348 1.627 2.432 2.112 2.79.261.194.337.203.636.079.624-.258 1.928-1.814 3.637-4.34 3.448-5.095 4.642-6.258 8.22-8.005 3.318-1.62 6.02-2.642 8.214-3.108 1.592-.338 3.967-.34 5.203-.006 1.208.328 2.36.81 3.653 1.526 1.739.965 5.818 3.018 7.406 3.728 8.157 3.647 14.623 5.304 26.68 6.84 11.576 1.474 15.182 2.616 18.62 5.896 1.574 1.503 3.054 3.53 3.985 5.46.647 1.34.923 2.215 1.057 3.348.197 1.663.743 3.46 2.3 7.567 1.061 2.8 1.272 3.454 1.754 5.426.47 1.925.7 3.63.704 5.213.004 1.595-.208 2.419-.718 2.795l-.302.223-.288-.269c-1.26-1.173-4.32-10.36-5.114-15.35-.066-.413-.164-1.455-.22-2.316-.185-2.908-.863-5.149-1.557-5.149-.34 0-.428.422-.538 2.577-.15 2.92-.586 5.176-1.638 8.455-.706 2.201-.834 2.957-.763 4.524.092 2.03.768 3.589 2.678 6.181 1.809 2.454 2.15 4.418 2.53 14.535.437 11.664.336 14.472-.556 15.533-.526.624-.894.684-4.033.65l-2.827-.03 1.031-2.757c1.35-3.612 1.427-3.95 1.415-6.23-.011-2.005-.246-3.752-1.038-7.727-.964-4.838-1.709-6.226-5.144-9.592-1.643-1.608-3.096-2.791-3.78-3.074-.876-.363-.93.388-.144 2.028.487 1.015.524 1.153.518 1.93-.01 1.409-.575 2.58-3.757 7.781-3.497 5.718-5.234 9.315-5.45 11.29-.057.521-.181 1.157-.276 1.413-.214.575-.724 1.023-1.164 1.023-.881 0-1.366.643-1.585 2.101-.083.551-.216 1.08-.296 1.177-.08.097-.368.28-.64.406-.463.214-.725.233-3.845.266l-3.348.036 1.097-1.304c2.31-2.748 3.37-4.414 5.422-8.525 2.131-4.272 4.583-10.238 5.202-12.656.42-1.646.255-2.43-1.029-4.874-1.348-2.566-1.977-3.418-2.527-3.418-.398 0-.906.317-1.857 1.16-.514.455-1.197.958-1.518 1.117-.504.25-.672.28-1.232.222-.356-.037-1.155-.27-1.774-.516-1.513-.603-2.383-.795-3.632-.8-2.224-.008-4.33.917-7.222 3.174-2.88 2.247-5.142 4.845-6.407 7.355-.869 1.726-1.478 4.202-1.471 5.984.006 1.798.31 3.183 1.21 5.512.921 2.38.918 2.6-.042 3.518-.594.569-.72.756-.818 1.223-.11.515-.091.742.142 1.78.104.465-.187.75-.931.91-.65.138-6.07.17-6.07.034 0-.048.39-1.152.866-2.453 1.408-3.848 1.745-5.228 1.639-6.712-.093-1.293-.51-2.388-2.15-5.65-.834-1.657-1.587-3.237-1.672-3.51-.218-.694-.302-.771-.829-.771-1.085 0-2.817 1.333-3.937 3.032-1.28 1.941-2.754 4.943-3.456 7.039-.391 1.17-.448 1.623-.322 2.572.088.67-.22 1.84-.72 2.737-.485.87-.911 2.04-.984 2.7l-.066.607-.607.209c-.515.177-1.005.214-3.252.245-1.562.021-2.793-.01-3.005-.074z" />
</svg>
