<svg xmlns="http://www.w3.org/2000/svg" xml:space="preserve" viewBox="0 0 256 256">
    <g fill="currentColor" stroke-miterlimit="10" stroke-width="0">
        <path d="m176.742 203.086-48.885-25.703-48.886 25.7 9.335-54.435-39.548-38.55 54.654-7.944 24.445-49.524 24.444 49.526 54.654 7.944-39.55 38.548 9.337 54.438z"/>
        <path d="m27.568 182.848 8.064-47.123L1.407 102.37l47.32-6.885 21.131-42.852L87.87 89.079l-5.03 2.472-12.982-26.273-17.422 35.35-39.003 5.648 28.213 27.51-6.66 38.834 29.73-15.624 2.585 4.946zM228.145 182.848l-39.733-20.906 2.585-4.946 29.73 15.624-6.688-38.834 28.24-27.51-39.002-5.648-17.422-35.35-12.982 26.273-5.002-2.472 17.984-36.446 21.131 42.852 47.32 6.885-34.225 33.355z"/>
    </g>
</svg>
