<svg xmlns="http://www.w3.org/2000/svg" version="1.0" viewBox="0 0 80 80">
    <path d="M13.5 9.4C7.8 12 7.5 13.3 7.2 39c-.5 36.6-2 35 32.8 35s33.3 1.6 32.8-35c-.3-26.1-.7-27.7-7-29.9-4.7-1.7-48.5-1.4-52.3.3zM67 14c1.9 1.9 2 3.3 2 27.2 0 22-.2 25.4-1.7 27-1.5 1.7-3.7 1.8-27.1 1.8-22.4 0-25.8-.2-27.4-1.7-1.7-1.5-1.8-3.7-1.8-27 0-24 .1-25.4 2-27.3 1.9-1.9 3.3-2 27-2s25.1.1 27 2z"/>
    <path d="M30.2 32.3 21 41.5V56l18.8-.2 18.7-.3.3-6.9.3-7-9.3-9.3C44.7 27.2 40.3 23 40 23c-.3 0-4.7 4.2-9.8 9.3zm18 2.4c7.8 7.7 7.8 7.8 7.8 13V53H24v-5.2c0-5.2.1-5.3 7.7-13 4.3-4.3 8-7.8 8.3-7.8.2 0 4 3.5 8.2 7.7z"/>
    <path d="M27.5 42.3c-.4 1.4-.5 3.6-.3 4.8.3 2.1.8 2.4 4.8 2.4h4.5v-9l-4.2-.3c-3.8-.3-4.3 0-4.8 2.1zM34 45c0 1.3-.7 2-2 2-1.9 0-2.7-2-1.3-3.3C32 42.3 34 43.1 34 45zM43.4 41.3c-.3.9-.4 3-.2 4.9.3 3.1.5 3.3 4.6 3.6l4.3.3-.3-4.8c-.3-4.8-.3-4.8-4.1-5.1-2.6-.2-3.9.1-4.3 1.1zm6.4 4c.2 1.2-.3 1.7-1.7 1.7-1.5 0-2.1-.6-2.1-2.1 0-2.5 3.3-2.2 3.8.4z"/>
    <path fill="currentColor" d="M25.405 69.905c-7.485-.125-10.455-.408-11.886-1.134-.453-.23-1.137-.886-1.371-1.318-.528-.97-.761-2.429-.93-5.833-.271-5.446-.27-35.053 0-40.602.174-3.555.474-5.21 1.124-6.192.302-.457 1.064-1.215 1.499-1.491 1.046-.666 2.65-.952 6.312-1.127 5.413-.26 34.281-.26 39.694 0 3.643.174 5.278.463 6.292 1.112.454.29 1.213 1.043 1.52 1.506.648.98.948 2.633 1.122 6.18.268 5.454.269 33.033.002 39.386-.167 3.967-.457 6.002-1.008 7.091-.223.441-.884 1.126-1.31 1.358-1.08.587-2.856.833-7.266 1.003-2.335.09-29.145.139-33.794.061zm11.492-14.051c6.772-.083 21.596-.325 21.618-.352.009-.011.15-3.146.312-6.967l.296-6.947-6.884-6.866c-7.774-7.752-11.1-10.968-11.973-11.573L40 22.965l-.266.184c-.87.604-4.196 3.818-11.925 11.525l-6.837 6.819V56.015l5.2-.047c2.86-.026 7.686-.077 10.725-.114z"/>
    <path fill="currentColor" d="M24.04 49.385c0-2.008.032-3.914.072-4.298.14-1.36.615-2.522 1.534-3.754.921-1.234 2.25-2.642 6.54-6.929 4.09-4.087 6.025-5.948 7.226-6.945.455-.378.559-.435.671-.375.444.238 3.472 3.086 7.76 7.299 6.878 6.76 7.722 7.857 8.04 10.46.047.379.076 2.052.076 4.381v3.768H24.04Zm28.065.317a269.35 269.35 0 0 1-.206-3.155c-.187-3.02-.265-3.885-.41-4.52-.2-.87-.552-1.282-1.297-1.512-1.084-.335-4.424-.492-5.382-.253-1.217.303-1.504.734-1.678 2.516-.144 1.475.043 4.348.347 5.323.332 1.068.996 1.414 3.102 1.618.771.075 4.854.38 5.34.4l.223.009zm-15.6-4.706-.017-4.519-2.524-.188c-2.937-.218-4.613-.224-5.172-.018-.652.24-.988.75-1.302 1.98-.268 1.047-.377 1.994-.379 3.281-.002 2.178.315 3.192 1.124 3.59.646.318 1.367.373 5.065.383l3.223.01z"/>
    <path fill="currentColor" d="M31.456 46.92c-.871-.218-1.412-.884-1.412-1.737 0-1.075 1.072-2.146 2.15-2.147 1.071-.002 1.777.817 1.763 2.045-.01.895-.436 1.56-1.135 1.77-.383.117-1.045.15-1.366.07zM47.429 46.926c-.362-.066-.799-.274-.959-.457-.52-.592-.596-2.002-.142-2.65.722-1.03 2.444-.685 3.134.63.387.738.463 1.59.177 1.984-.225.311-.682.491-1.326.523a4.996 4.996 0 0 1-.884-.03z"/>
</svg>
