<svg xmlns="http://www.w3.org/2000/svg" version="1.0" viewBox="0 0 80 80">
    <rect fill="currentColor" x="10" y="10" width="60" height="60" rx="5" />
    <path d="M13.5 9.4C7.8 12 7.5 13.3 7.2 39c-.5 36.6-2 35 32.8 35s33.3 1.6 32.8-35c-.3-26.1-.7-27.7-7-29.9-4.7-1.7-48.5-1.4-52.3.3zM67 14c1.9 1.9 2 3.3 2 27.2 0 22-.2 25.4-1.7 27-1.5 1.7-3.7 1.8-27.1 1.8-22.4 0-25.8-.2-27.4-1.7-1.7-1.5-1.8-3.7-1.8-27 0-24 .1-25.4 2-27.3 1.9-1.9 3.3-2 27-2s25.1.1 27 2z"/>
    <path d="M30.2 32.3 21 41.5V56l18.8-.2 18.7-.3.3-6.9.3-7-9.3-9.3C44.7 27.2 40.3 23 40 23c-.3 0-4.7 4.2-9.8 9.3zm18 2.4c7.8 7.7 7.8 7.8 7.8 13V53H24v-5.2c0-5.2.1-5.3 7.7-13 4.3-4.3 8-7.8 8.3-7.8.2 0 4 3.5 8.2 7.7z"/>
    <path d="M27.5 42.3c-.4 1.4-.5 3.6-.3 4.8.3 2.1.8 2.4 4.8 2.4h4.5v-9l-4.2-.3c-3.8-.3-4.3 0-4.8 2.1zM34 45c0 1.3-.7 2-2 2-1.9 0-2.7-2-1.3-3.3C32 42.3 34 43.1 34 45zM43.4 41.3c-.3.9-.4 3-.2 4.9.3 3.1.5 3.3 4.6 3.6l4.3.3-.3-4.8c-.3-4.8-.3-4.8-4.1-5.1-2.6-.2-3.9.1-4.3 1.1zm6.4 4c.2 1.2-.3 1.7-1.7 1.7-1.5 0-2.1-.6-2.1-2.1 0-2.5 3.3-2.2 3.8.4z"/>
</svg>
