<svg xmlns="http://www.w3.org/2000/svg" version="1.0" viewBox="0 0 80 80">
    <path d="M13.5 9.4C7.8 12 7.5 13.3 7.2 39c-.5 36.6-2 35 32.8 35s33.3 1.6 32.8-35c-.3-26.1-.7-27.7-7-29.9-4.7-1.7-48.5-1.4-52.3.3zM67 14c1.9 1.9 2 3.3 2 27.2 0 22-.2 25.4-1.7 27-1.5 1.7-3.7 1.8-27.1 1.8-22.4 0-25.8-.2-27.4-1.7-1.7-1.5-1.8-3.7-1.8-27 0-24 .1-25.4 2-27.3 1.9-1.9 3.3-2 27-2s25.1.1 27 2z"/>
    <path d="M36 23.3c0 .7.6 1.9 1.3 2.6 1 1-1 3.4-10.5 12.5C15.7 49 13.4 52 16.2 52c.6 0 6.3-5.2 12.7-11.5L40.6 29 52 40.5C58.3 46.8 63.8 52 64.2 52c2.4 0-.4-3.6-10.3-13.6-10.3-10.3-11-11.3-9.8-13.2 1.7-2.8.4-4-2-1.8-1.6 1.5-1.9 1.5-3.1.1-1.5-1.8-3-2-3-.2z"/>
    <path d="M29.2 44.3c-5.6 5.7-10 10.6-9.6 11 .4.4 9.9.7 21.1.7 15.7 0 20.3-.3 20.3-1.3C61 53.2 41.9 34 40.5 34c-.6 0-5.7 4.6-11.3 10.3zM49 45.5l7.5 7.5H24.6l7.4-7.5c4.1-4.1 7.9-7.5 8.5-7.5.5 0 4.4 3.4 8.5 7.5z"/>
    <path fill="currentColor" d="M25.164 52.483c1.091-1.168 8.924-9.015 10.128-10.146 2.444-2.297 4.233-3.82 4.898-4.174l.341-.18.426.282c1.605 1.066 4.656 3.907 10.805 10.064l4.635 4.64H24.709Z"/>
    <path fill="currentColor" d="M23.624 69.868c-6.455-.14-9.127-.46-10.35-1.246-1.123-.72-1.617-1.834-1.857-4.18-.327-3.204-.422-10.16-.369-26.935.05-15.324.116-17.93.524-20.347.254-1.505.546-2.175 1.3-2.99 1.384-1.495 2.805-1.806 9.25-2.029 3.724-.128 32.073-.129 35.716 0 6.255.22 7.622.482 8.975 1.722 1.474 1.35 1.776 2.625 2.024 8.532.139 3.287.139 32.808 0 36.495-.243 6.497-.545 8.21-1.65 9.378-1.09 1.152-2.812 1.436-9.738 1.605-3.528.086-29.763.082-33.825-.005zm31.137-14.01c2.982-.143 4.65-.32 5.521-.583.41-.124.75-.389.75-.586.001-.35-1.656-2.4-3.97-4.913-3.088-3.351-9.126-9.41-12.469-12.51-1.823-1.69-3.589-3.143-3.965-3.263-.204-.064-.491.094-1.224.672-1.86 1.468-4.828 4.238-8.831 8.243-6.587 6.59-10.982 11.5-10.982 12.27 0 .206.073.226 1.246.35 1.49.156 5.744.326 10.555.421 2.848.057 21.813-.025 23.37-.1zm-37.928-4.204c.676-.479 1.479-1.16 3.294-2.796C23.24 46.053 25.8 43.584 36.65 32.92l3.934-3.867 7.946 7.97c8.955 8.982 13.624 13.493 15.188 14.675.398.301.503.346.73.309 1.328-.216.346-2.01-3.356-6.126-1.583-1.76-3.527-3.78-8.625-8.96-6.023-6.119-7.44-7.671-8.26-9.046-.35-.585-.57-1.315-.503-1.663.025-.128.272-.69.549-1.246.586-1.176.732-1.731.586-2.219-.077-.257-.154-.349-.371-.44-.522-.217-1.278.126-2.36 1.07-1.216 1.063-1.558 1.247-2.002 1.078-.122-.046-.643-.513-1.157-1.038-1.024-1.044-1.528-1.372-2.108-1.372-.436 0-.696.26-.822.825-.081.361-.075.493.04.908a5.348 5.348 0 0 0 1.04 1.925c.325.372.37.466.37.778 0 .642-.642 1.65-2.114 3.324-.921 1.048-5.958 6.072-9.61 9.587-3.477 3.345-7.083 6.979-8.259 8.32-2.335 2.664-2.92 3.949-1.926 4.236.516.149.711.104 1.273-.294z"/>
</svg>
