<svg xmlns="http://www.w3.org/2000/svg" version="1.0" viewBox="0 0 80 80">
    <rect fill="currentColor" x="10" y="10" width="60" height="60" rx="5" />
    <path d="M13.5 9.4C7.8 12 7.5 13.3 7.2 39c-.5 36.6-2 35 32.8 35s33.3 1.6 32.8-35c-.3-26.1-.7-27.7-7-29.9-4.7-1.7-48.5-1.4-52.3.3zM67 14c1.9 1.9 2 3.3 2 27.2 0 22-.2 25.4-1.7 27-1.5 1.7-3.7 1.8-27.1 1.8-22.4 0-25.8-.2-27.4-1.7-1.7-1.5-1.8-3.7-1.8-27 0-24 .1-25.4 2-27.3 1.9-1.9 3.3-2 27-2s25.1.1 27 2z"/>
    <path d="M36 23.3c0 .7.6 1.9 1.3 2.6 1 1-1 3.4-10.5 12.5C15.7 49 13.4 52 16.2 52c.6 0 6.3-5.2 12.7-11.5L40.6 29 52 40.5C58.3 46.8 63.8 52 64.2 52c2.4 0-.4-3.6-10.3-13.6-10.3-10.3-11-11.3-9.8-13.2 1.7-2.8.4-4-2-1.8-1.6 1.5-1.9 1.5-3.1.1-1.5-1.8-3-2-3-.2z"/>
    <path d="M29.2 44.3c-5.6 5.7-10 10.6-9.6 11 .4.4 9.9.7 21.1.7 15.7 0 20.3-.3 20.3-1.3C61 53.2 41.9 34 40.5 34c-.6 0-5.7 4.6-11.3 10.3zM49 45.5l7.5 7.5H24.6l7.4-7.5c4.1-4.1 7.9-7.5 8.5-7.5.5 0 4.4 3.4 8.5 7.5z"/>
</svg>
