<svg xmlns="http://www.w3.org/2000/svg" version="1.0" viewBox="0 0 80 80">
  <path fill="currentColor" d="M34.5 10.9c-8.4 2.3-8.5 2.5-8.5 9.4 0 8.3 1 9.2 6.8 6.1 9.1-4.9 11.9-1.2 4.8 6.3-4.9 5.4-6.1 8.6-5.2 13.9l.7 3.5 6.7-.3 6.7-.3-.2-2.9c-.2-2.3.9-4.2 5.2-8.8 5.7-6.2 7.2-10.1 6.1-16.1-.8-4.2-3-7.3-6.6-9.2-3.5-1.8-12.5-2.7-16.5-1.6zM49 14.5c4.3 2.2 6 5.3 6 10.8 0 4.5-.4 5.2-5.5 10.6-4.3 4.5-5.5 6.5-5.5 8.9 0 3.1-.1 3.2-4.5 3.2H35v-4.4c0-3.9.6-5.1 4.4-9.2 5-5.3 5.7-6.9 4.5-10.2-.7-1.7-1.6-2.2-4.6-2.2-2.1.1-4.9.7-6.3 1.5-3.7 2.1-4 1.9-4-3.3 0-4.3.3-4.9 2.8-5.9 4.1-1.6 13.9-1.5 17.2.2zM34.7 57.2c-4.3 3.3-4 10 .5 13.2 8.2 5.8 18.4-4.9 11.3-11.9-2.7-2.8-8.9-3.4-11.8-1.3zm9.1 2.4c2.4 1.7 3 6.2 1 8.2-1.7 1.7-6.8 1.5-9-.5-2.4-2.1-2.3-4.8.2-7.3 2.4-2.4 4.8-2.5 7.8-.4z"/>
  <path d="M35.022 45.269c0-1.473.033-3.027.073-3.455.238-2.546 1.086-3.946 4.78-7.891 1.532-1.636 2.724-3.066 3.35-4.017 1.275-1.938 1.485-3.216.854-5.217-.262-.832-.576-1.395-.996-1.788-.622-.582-1.173-.763-2.674-.88-1.168-.092-2.376.012-4.038.349-1.556.315-2.181.541-3.975 1.437-.983.49-1.772.84-1.975.877-.656.118-1.038-.17-1.194-.9-.244-1.137-.27-5.429-.04-6.7.222-1.234.679-1.847 1.773-2.383 2.066-1.012 5.044-1.492 9.245-1.491 4.265 0 7.223.479 9.07 1.465 2.153 1.149 3.72 2.695 4.569 4.505.798 1.704 1.112 3.479 1.112 6.293 0 2.423-.175 3.489-.765 4.662-.637 1.266-1.396 2.199-4.508 5.534-3.145 3.371-4.244 4.741-4.972 6.2-.552 1.105-.684 1.717-.751 3.464-.05 1.302-.063 1.397-.236 1.753-.156.318-.239.402-.539.548-.195.095-.57.203-.832.24-.266.039-1.993.07-3.905.07l-3.427.001V45.27zM40.068 68.882c-1.14-.11-2.278-.418-3.129-.847-1.207-.608-2.278-1.792-2.657-2.937-.515-1.557.028-3.258 1.564-4.903.86-.92 1.824-1.564 2.824-1.883.71-.227 1.766-.216 2.577.026 1.147.343 2.561 1.173 3.2 1.879.962 1.063 1.5 2.546 1.51 4.165.011 1.934-.688 3.296-2.035 3.963-.916.453-2.48.67-3.854.537z"/>
</svg>
