<svg xmlns="http://www.w3.org/2000/svg" version="1.0" viewBox="0 0 80 80">
    <circle fill="currentColor" cx="40" cy="40" r="30" />
    <path d="M31.9 8.3C16.9 12.6 7.6 24.6 7.5 40c0 6.6.5 8.5 3.3 14.2C16.6 66 26.9 72.4 40 72.4c13.1 0 23.4-6.4 29.2-18.2 8-16.2 1.5-35.3-14.5-43.2-7.3-3.6-16-4.6-22.8-2.7zm20.6 5.1c10.4 4.7 16.9 15 16.9 26.6 0 16.4-13 29.4-29.4 29.4S10.6 56.4 10.6 40c0-21.8 21.9-35.7 41.9-26.6z"/>
    <path d="M28.8 26.6c-.3.3.5 2.4 1.8 4.7 3 5.3 3.1 11.4.3 16.9-1.3 2.5-1.7 4.4-1.1 5C31.2 54.6 36 44.4 36 40c0-2-1.2-5.9-2.6-8.8-2.5-5-3.4-5.9-4.6-4.6zM46.5 31.2c-1.4 2.9-2.5 6.9-2.5 8.9 0 4.2 4.8 14.5 6.2 13.1.6-.6.1-2.5-1.3-5.1-2.7-5.3-2.3-13.3.9-17.8 2-2.8 2-4.3 0-4.3-.5 0-2 2.4-3.3 5.2z"/>
    <path d="M24.5 30.9c-.3.6.1 2.1.9 3.3 2 2.8 2 8.7.1 11.5-1.1 1.6-1.2 2.4-.4 2.9 1.6.9 3.7-2.1 4.5-6.2 1-5.3-3.1-14.6-5.1-11.5zM52.1 33.1C50.9 35 50 38 50 39.8c0 3.4 2.4 9.2 3.9 9.2 1.7 0 2-1.4.6-3.4-2-2.7-1.9-8.6.1-11.5 1.1-1.6 1.3-2.6.6-3.3-.8-.8-1.7 0-3.1 2.3zM21 34c-.6 1.9-.4 11 .3 11 .4 0 1.3-1.1 1.9-2.5.9-2 .8-3.2-.5-5.8-.8-1.7-1.6-3-1.7-2.7z"/>
    <path d="M57.2 36c-1.5 2.5-1.5 6.3 0 7.8 2 2 2.5 1.4 2.4-3.7-.1-5.8-.7-6.8-2.4-4.1z"/>
</svg>
