<svg xmlns="http://www.w3.org/2000/svg" version="1.0" viewBox="0 0 80 80">
  <circle cx="40" cy="40" r="31" fill="currentColor" stroke="#000" stroke-width="3"/>
  <path fill="none" stroke="#000" stroke-width="3" d="M21.286 34.419A7.725 7.893 0 0 1 23.548 40a7.725 7.893 0 0 1-2.262 5.581m4.209-15.463A13.678 13.976 0 0 1 29.5 40a13.678 13.976 0 0 1-4.006 9.882m4.177-24.032A19.585 20.012 0 0 1 35.408 40a19.585 20.012 0 0 1-5.736 14.15M58.714 34.419A7.725 7.893 0 0 0 56.452 40a7.725 7.893 0 0 0 2.262 5.581m-4.209-15.463A13.678 13.976 0 0 0 50.5 40a13.678 13.976 0 0 0 4.006 9.882M50.328 25.85A19.585 20.012 0 0 0 44.592 40a19.585 20.012 0 0 0 5.736 14.15"/>
</svg>
