<svg xmlns="http://www.w3.org/2000/svg" version="1.0" viewBox="0 0 80 80">
  <circle cx="40" cy="40" r="31" fill="currentColor" stroke="#000" stroke-width="3"/>
  <path d="M38.674 18.244c-1.487.04-2.842.313-3.817.838-3.1 1.5-3.6 4.4-1.6 9l1.401 3.6-4.5-2.4c-3.4-1.9-5-2.201-6.4-1.401-2.5 1.3-4.7 4.8-5.5 8.5-.8 4.4 1.5 6.4 7.4 6.4h4.7l-3.7 3.5c-4.6 4.1-4.8 6.7-.9 10.5 5.8 5.9 11.3 4.5 13.1-3.1l.7-3.4 2.1 4.701c1.9 4.3 2.5 4.8 5.4 4.8 4.3 0 8.804-3.212 9.604-6.412.7-2.9.197-4.988-4.103-7.688l-2.9-1.7 5.198-.7c4-.6 5.402-1.2 6.202-3 1.3-2.9.298-8.7-2.102-11.6-2.2-2.7-5.5-2.1-10 1.6l-3 2.599 1-3.299c1.4-5.1 1.102-8.601-.898-9.701-2.063-1.125-4.908-1.703-7.385-1.637zM40 33.99a6.01 6.01 0 1 1-.001 12.021A6.01 6.01 0 0 1 40 33.991Z"/>
</svg>
