<svg xmlns="http://www.w3.org/2000/svg" version="1.0" viewBox="0 0 80 80">
    <path d="M30.9 8.5C16 13.3 5.8 28.2 7.3 42.8 8 49.9 13 59.9 17.7 64.1c12.9 11.2 31.7 11.2 44.6 0 2-1.8 5.1-6.2 6.9-9.9 8-16.3 1.5-35.3-14.7-43.3-7.7-3.8-16.6-4.7-23.6-2.4zm15.3 2.6c15.6 3.3 26 19.2 22.7 34.6C65.6 61.7 50 72.2 34.3 69c-16-3.4-26.5-19-23.2-34.7C13.8 21 25.5 11 39.2 10.1c.9-.1 4.1.4 7 1z"/>
    <path d="M44.5 20c-13.6 3.7-19 5.6-18.5 6.5.3.6 1.3 1 2.3.9 2.3-.1 2.3 4.8-.4 20.4-1.2 6.8-1.9 12.6-1.6 12.9 1.3 1.2 2.5-1 3.2-5.4C31.1 44.4 32.1 41 33.9 41c1.6 0 1.8 1 1.7 9.7l-.1 9.7 4.3.1 4.2.1v-9.8c0-9 .2-9.8 1.9-9.8 2 0 3 3.1 4.6 14.3.7 4.4 1.9 6.6 3.2 5.4.3-.3-.4-6.1-1.6-12.9C50.9 41 50 32.3 50 28.3c0-6.6.2-7.2 2.2-7.5 2.7-.4 3.7-2.8 1.1-2.7-1 0-4.9.9-8.8 1.9zm2.7 7.5-.4 4.5h-6.9C33 32 33 32 33 29.2c0-2.6.5-2.9 5.8-4.4 8.8-2.5 8.8-2.5 8.4 2.7zm-5.2 15c0 .8-.9 1.5-2 1.5s-2-.7-2-1.5.9-1.5 2-1.5 2 .7 2 1.5zm0 6.5c0 1.3-.7 2-2 2s-2-.7-2-2 .7-2 2-2 2 .7 2 2zm0 6.5c0 .8-.9 1.5-2 1.5s-2-.7-2-1.5.9-1.5 2-1.5 2 .7 2 1.5z"/>
    <path fill="currentColor" d="M35.703 31.917c-1.51-.087-2.157-.307-2.463-.84-.157-.275-.162-.332-.162-1.716 0-1.733.06-1.98.607-2.524.644-.64 1.592-1.004 5.512-2.12 3.248-.925 4.746-1.301 5.716-1.438 1.319-.185 1.852-.033 2.175.62.3.604.278 1.501-.154 6.348l-.152 1.705-5.113.007c-2.812.004-5.497-.015-5.966-.042zM39.477 43.922c-.814-.172-1.455-.8-1.455-1.427 0-.505.507-1.094 1.133-1.319.426-.153 1.195-.155 1.659-.005.409.132.894.53 1.053.866.407.858-.429 1.818-1.662 1.912a3.216 3.216 0 0 1-.728-.027zM39.165 50.853c-.82-.305-1.21-1.035-1.122-2.097.094-1.12.731-1.7 1.876-1.708.29-.002.648.03.798.071.877.24 1.334 1.022 1.24 2.122-.064.742-.354 1.237-.891 1.517-.359.187-1.5.244-1.9.095zM39.318 56.888c-1.526-.498-1.732-1.91-.38-2.6.428-.218.52-.239 1.057-.239.528 0 .634.023 1.05.228.957.471 1.2 1.321.578 2.029-.364.414-.811.596-1.52.618-.338.011-.691-.005-.785-.036z"/>
    <path fill="currentColor" d="M38.602 69.518a30.35 30.35 0 0 1-5.531-.84c-11.236-2.865-19.905-12.02-22.055-23.289-.42-2.2-.589-5.202-.416-7.37.906-11.357 8.08-21.107 18.844-25.612 3.125-1.308 7.373-2.265 10.044-2.264 1.693.001 6.123.75 8.574 1.449 7.163 2.043 13.265 6.771 17.2 13.327 1.824 3.039 3.125 6.465 3.752 9.882.354 1.927.414 2.659.414 5.097 0 2.433-.06 3.17-.41 5.081-1.971 10.736-9.569 19.557-19.845 23.039-3.412 1.156-7.095 1.679-10.571 1.5zM27.379 60.94c.668-.346 1.342-1.792 1.809-3.883.1-.447.348-1.89.553-3.206 1.276-8.227 2.072-11.3 3.212-12.398.331-.319.54-.396 1.074-.396.982 0 1.297.61 1.479 2.869.058.717.067 3.092.035 8.742l-.045 7.758.36.002c.197 0 2.078.046 4.178.1 2.1.056 3.855.101 3.898.102.06 0 .088-1.987.112-7.962.031-7.737.056-8.678.26-9.94.143-.883.399-1.359.858-1.594.082-.042.373-.076.648-.075.627.001.939.137 1.363.594 1.109 1.191 1.926 4.44 3.127 12.43.397 2.645.617 3.664 1.051 4.88.409 1.143.96 1.93 1.438 2.05.239.06.55-.012.789-.182.195-.139.199-.152.199-.786 0-1.574-.491-5.262-1.537-11.554-1.078-6.48-1.615-10.737-2.048-16.232-.145-1.83-.203-6.113-.105-7.768.09-1.52.208-2.206.47-2.733.26-.518.582-.703 1.617-.928 1.282-.278 2.087-.724 2.462-1.364.34-.582.182-1.061-.422-1.27-.466-.162-1.019-.15-2.158.046-4.835.832-19.019 4.792-23.514 6.564-1.632.644-2.591 1.219-2.591 1.554 0 .23.337.57.787.79.398.197.533.225 1.258.267.748.043.832.062 1.062.237.617.47.875 1.593.87 3.787-.005 3.28-.548 7.515-2.237 17.46-.882 5.193-1.468 9.64-1.468 11.144 0 .626.006.649.188.776.348.244.654.281.968.119z"/>
</svg>
