<svg xmlns="http://www.w3.org/2000/svg" version="1.0" viewBox="0 0 80 80">
  <circle cx="40" cy="40" r="31" fill="currentColor" stroke="#000" stroke-width="3"/>
  <path d="m48.768 40.35 3.887 19.942M31.248 40.35 27.36 60.291m3.905-26.069h17.514v5.43H31.265ZM48.779 20.52v13.568m-17.564-8.774.05 8.576m-5.193-6.941 28.582-8.212"/>
  <path d="m54.309 17.535-28.582 8.213.691 2.402 3.557-1.021.04 6.767v6.245l-3.968 20.388 2.54.002 3.827-19.63h15.188l3.826 19.63 2.549-.002-3.948-20.238V21.365L55 19.938Zm-6.78 4.549v10.889H32.51l-.038-6.563zM32.516 35.473h15.013V38.4H32.516Z"/>
  <path stroke="#000" stroke-width="2" d="M36.95 39.863v20.66zm6.109 0v20.66zm-5.815 6.116h5.52zm0 5.977h5.52zm0 5.971h5.52z"/>
</svg>
