<svg xmlns="http://www.w3.org/2000/svg" version="1.0" viewBox="0 0 80 80">
    <circle fill="currentColor" cx="40" cy="40" r="30" />
    <path d="M30.9 8.5C16 13.3 5.8 28.2 7.3 42.8 8 49.9 13 59.9 17.7 64.1c12.9 11.2 31.7 11.2 44.6 0 2-1.8 5.1-6.2 6.9-9.9 8-16.3 1.5-35.3-14.7-43.3-7.7-3.8-16.6-4.7-23.6-2.4zm15.3 2.6c15.6 3.3 26 19.2 22.7 34.6C65.6 61.7 50 72.2 34.3 69c-16-3.4-26.5-19-23.2-34.7C13.8 21 25.5 11 39.2 10.1c.9-.1 4.1.4 7 1z"/>
    <path d="M44.5 20c-13.6 3.7-19 5.6-18.5 6.5.3.6 1.3 1 2.3.9 2.3-.1 2.3 4.8-.4 20.4-1.2 6.8-1.9 12.6-1.6 12.9 1.3 1.2 2.5-1 3.2-5.4C31.1 44.4 32.1 41 33.9 41c1.6 0 1.8 1 1.7 9.7l-.1 9.7 4.3.1 4.2.1v-9.8c0-9 .2-9.8 1.9-9.8 2 0 3 3.1 4.6 14.3.7 4.4 1.9 6.6 3.2 5.4.3-.3-.4-6.1-1.6-12.9C50.9 41 50 32.3 50 28.3c0-6.6.2-7.2 2.2-7.5 2.7-.4 3.7-2.8 1.1-2.7-1 0-4.9.9-8.8 1.9zm2.7 7.5-.4 4.5h-6.9C33 32 33 32 33 29.2c0-2.6.5-2.9 5.8-4.4 8.8-2.5 8.8-2.5 8.4 2.7zm-5.2 15c0 .8-.9 1.5-2 1.5s-2-.7-2-1.5.9-1.5 2-1.5 2 .7 2 1.5zm0 6.5c0 1.3-.7 2-2 2s-2-.7-2-2 .7-2 2-2 2 .7 2 2zm0 6.5c0 .8-.9 1.5-2 1.5s-2-.7-2-1.5.9-1.5 2-1.5 2 .7 2 1.5z"/>
</svg>
