<svg xmlns="http://www.w3.org/2000/svg" version="1.0" viewBox="0 0 80 80">
    <rect fill="currentColor" x="10" y="10" width="60" height="60" rx="5" />
    <path d="M13.5 9.4C7.8 12 7.5 13.3 7.2 39c-.5 36.6-2 35 32.8 35s33.3 1.6 32.8-35c-.3-26.1-.7-27.7-7-29.9-4.7-1.7-48.5-1.4-52.3.3zM67 14c1.9 1.9 2 3.3 2 27.2 0 22-.2 25.4-1.7 27-1.5 1.7-3.7 1.8-27.1 1.8-22.4 0-25.8-.2-27.4-1.7-1.7-1.5-1.8-3.7-1.8-27 0-24 .1-25.4 2-27.3 1.9-1.9 3.3-2 27-2s25.1.1 27 2z"/>
    <path d="M35 19.7c0 .3.8 1.5 1.7 2.5 1.6 1.8 1.2 2.4-9.2 12.8-6 6-10.6 11.3-10.2 11.7.4.4 5.7-4.2 11.7-10.2l11-11 11 11c6 6 11.3 10.6 11.7 10.2.4-.4-4.2-5.7-10.2-11.7-10.8-10.8-10.9-10.9-9-13 2.4-2.6 1.1-3.9-1.5-1.5-1.9 1.7-2.1 1.7-3.8.2-1.9-1.8-3.2-2.2-3.2-1z"/>
    <path d="M30.7 36.8 22 45.5V60h36V45.5l-8.7-8.7c-4.8-4.9-9-8.8-9.3-8.8-.3 0-4.5 3.9-9.3 8.8zM36 50v4h-8v-8h8v4zm16 0v4h-8v-8h8v4z"/>
</svg>
