<svg xmlns="http://www.w3.org/2000/svg" version="1.0" viewBox="0 0 80 80">
  <rect fill="currentColor" height="60" rx="8" stroke="#000" stroke-width="3" x="10" y="10" width="60"/>
  <path d="M49.512 34.248q0 1.934-.684 3.594-.664 1.64-1.875 2.851-1.504 1.504-3.555 2.266-2.05.742-5.175.742h-3.868v10.84h-3.867V25.459h7.89q2.618 0 4.435.45 1.816.429 3.222 1.366 1.66 1.114 2.559 2.774.918 1.66.918 4.199zm-4.024.098q0-1.504-.527-2.617-.527-1.114-1.602-1.817-.937-.605-2.148-.86-1.191-.273-3.027-.273h-3.829V40.4h3.262q2.344 0 3.809-.41 1.465-.43 2.383-1.347.918-.938 1.289-1.973.39-1.035.39-2.324z" stroke="#000" stroke-width="2"/>
</svg>
