<svg xmlns="http://www.w3.org/2000/svg" version="1.0" viewBox="0 0 80 80">
    <circle fill="currentColor" cx="40" cy="40" r="30" />
    <path d="M30.9 8.5C16 13.3 5.8 28.2 7.3 42.8 8 49.9 13 59.9 17.7 64.1c12.9 11.2 31.7 11.2 44.6 0 2-1.8 5.1-6.2 6.9-9.9 8-16.3 1.5-35.3-14.7-43.3-7.7-3.8-16.6-4.7-23.6-2.4zm15.3 2.6c15.6 3.3 26 19.2 22.7 34.6C65.6 61.7 50 72.2 34.3 69c-16-3.4-26.5-19-23.2-34.7C13.8 21 25.5 11 39.2 10.1c.9-.1 4.1.4 7 1z"/>
    <path d="M29.5 23.5c-1.6 1.4-3.9 2.5-5.1 2.5-1.1 0-2.5.5-3.2 1.2-1.7 1.7-1.7 25.9 0 27.6 1.7 1.7 35.9 1.7 37.6 0 1.7-1.7 1.7-25.9 0-27.6-.7-.7-2.1-1.2-3.2-1.2-1 0-3.4-1.1-5.2-2.5-2.8-2.2-4.3-2.5-10.6-2.5-6.2.1-7.7.4-10.3 2.5zM47.3 35c3.8 4.3 3.6 8.3-.7 12.6-2.4 2.5-4.3 3.4-6.6 3.4-4.3 0-10-5.6-10-9.8 0-3.3 3.2-7.9 6.4-9.3 3.4-1.4 7.9-.1 10.9 3.1z"/>
    <path d="M36 37c-1.1 1.1-2 2.9-2 4s.9 2.9 2 4 2.9 2 4 2c2.6 0 6-3.4 6-6 0-1.1-.9-2.9-2-4s-2.9-2-4-2-2.9.9-4 2z"/>
</svg>
