<svg xmlns="http://www.w3.org/2000/svg" version="1.0" viewBox="0 0 80 80">
  <circle cx="40" cy="40" r="31" fill="currentColor" stroke="#000" stroke-width="3"/>
  <path d="m33.1 20.6-7 5.6h-3.3L20 29v24.2l2.8 2.8h34.4l2.8-2.8V29l-2.8-2.8h-3.3l-7-5.6zM40 31.375c5.281 0 9.594 4.313 9.594 9.594 0 5.28-4.313 9.595-9.594 9.595s-9.594-4.314-9.594-9.595c0-5.281 4.313-9.594 9.594-9.594zm0 3a6.57 6.57 0 0 0-6.594 6.594A6.572 6.572 0 0 0 40 47.564a6.572 6.572 0 0 0 6.594-6.595A6.57 6.57 0 0 0 40 34.375Z"/>
</svg>
