<svg xmlns="http://www.w3.org/2000/svg" version="1.0" viewBox="0 0 80 80">
    <path d="M30.9 8.5C16 13.3 5.8 28.2 7.3 42.8 8 49.9 13 59.9 17.7 64.1c12.9 11.2 31.7 11.2 44.6 0 2-1.8 5.1-6.2 6.9-9.9 8-16.3 1.5-35.3-14.7-43.3-7.7-3.8-16.6-4.7-23.6-2.4zm15.3 2.6c15.6 3.3 26 19.2 22.7 34.6C65.6 61.7 50 72.2 34.3 69c-16-3.4-26.5-19-23.2-34.7C13.8 21 25.5 11 39.2 10.1c.9-.1 4.1.4 7 1z"/>
    <path d="M29.5 23.5c-1.6 1.4-3.9 2.5-5.1 2.5-1.1 0-2.5.5-3.2 1.2-1.7 1.7-1.7 25.9 0 27.6 1.7 1.7 35.9 1.7 37.6 0 1.7-1.7 1.7-25.9 0-27.6-.7-.7-2.1-1.2-3.2-1.2-1 0-3.4-1.1-5.2-2.5-2.8-2.2-4.3-2.5-10.6-2.5-6.2.1-7.7.4-10.3 2.5zM47.3 35c3.8 4.3 3.6 8.3-.7 12.6-2.4 2.5-4.3 3.4-6.6 3.4-4.3 0-10-5.6-10-9.8 0-3.3 3.2-7.9 6.4-9.3 3.4-1.4 7.9-.1 10.9 3.1z"/>
    <path d="M36 37c-1.1 1.1-2 2.9-2 4s.9 2.9 2 4 2.9 2 4 2c2.6 0 6-3.4 6-6 0-1.1-.9-2.9-2-4s-2.9-2-4-2-2.9.9-4 2z"/>
    <path fill="currentColor" d="M38.84 50.853c-2.638-.613-5.425-2.682-7.266-5.397-1.214-1.789-1.722-3.592-1.466-5.198.466-2.922 3.041-6.55 5.707-8.04 1.75-.98 4.294-1.107 6.62-.333 1.849.616 3.815 1.931 5.073 3.396 1.602 1.865 2.45 3.827 2.45 5.674 0 2.094-.93 4.001-3.09 6.338-1.695 1.833-3.411 3.02-4.992 3.452-.678.186-2.433.248-3.035.108zm2.083-3.964c1.677-.422 3.736-2.22 4.6-4.017.667-1.39.637-2.397-.117-3.923-.744-1.505-1.881-2.618-3.459-3.384-1.58-.768-2.314-.768-3.894 0-1.58.767-2.651 1.81-3.432 3.344-.412.808-.562 1.294-.603 1.944-.032.525-.015.642.186 1.246.644 1.937 2.072 3.525 3.967 4.412.312.145.736.31.942.366.495.133 1.305.139 1.81.012z"/>
    <path fill="currentColor" d="M38.602 69.518a30.35 30.35 0 0 1-5.531-.84c-11.236-2.865-19.905-12.02-22.055-23.289-.42-2.2-.589-5.202-.416-7.37.906-11.357 8.08-21.107 18.844-25.612 3.125-1.308 7.373-2.265 10.044-2.264 1.693.001 6.123.75 8.574 1.449 7.163 2.043 13.265 6.771 17.2 13.327 1.824 3.039 3.125 6.465 3.752 9.882.354 1.927.414 2.659.414 5.097 0 2.433-.06 3.17-.41 5.081-1.971 10.736-9.569 19.557-19.845 23.039-3.412 1.156-7.095 1.679-10.571 1.5zm8.593-13.527c6.295-.17 10.347-.542 11.356-1.04.35-.173.496-.416.689-1.15.614-2.34.972-9.267.816-15.774-.143-5.936-.505-9.452-1.093-10.604-.338-.664-1.74-1.3-3.161-1.434a6.165 6.165 0 0 1-1.347-.275c-1.193-.4-2.838-1.318-4.154-2.319-2.697-2.051-4.1-2.389-9.924-2.389-6.668 0-8.26.367-10.94 2.523-.923.743-1.674 1.233-2.558 1.669-1.044.515-1.68.706-2.62.789-1.201.105-2.374.544-2.971 1.112-.641.609-1.025 3.09-1.279 8.263-.103 2.113-.103 9.14 0 11.254.207 4.215.554 7.019.974 7.862.253.507.643.659 2.308.9 4.158.6 14.533.867 23.904.613z"/>
</svg>
