<svg xmlns="http://www.w3.org/2000/svg" version="1.0" viewBox="0 0 80 80">
  <rect fill="currentColor" height="60" rx="8" stroke="#000" stroke-width="3" x="10" y="10" width="60"/>
  <path d="M26.732 22.119c.255 1.294 6.58 33.025 6.914 34.274.23.856.344 2.089 1.843 1.687 1.326-.356.945-1.282.702-2.256-2.3-10.3-2.1-11.378-.755-13.53 1.779-1.866 2.42-1.98 6.182-2.087 5.356-.154 11.1-3.9 14-7.3 1.62-1.914 1.951-1.899-1.2-1.7-3.593.227-10.627-2.216-14.1-5.5-4.516-4.104-8.576-4.105-13.586-3.588z"/>
</svg>
