<svg xmlns="http://www.w3.org/2000/svg" version="1.0" viewBox="0 0 80 80">
  <rect fill="currentColor" x="10" y="10" width="60" height="60" rx="5" />
  <path d="M13.5 9.4C7.8 12 7.5 13.3 7.2 39c-.5 36.6-2 35 32.8 35s33.3 1.6 32.8-35c-.3-26.1-.7-27.7-7-29.9-4.7-1.7-48.5-1.4-52.3.3zM67 14c1.9 1.9 2 3.3 2 27.2 0 22-.2 25.4-1.7 27-1.5 1.7-3.7 1.8-27.1 1.8-22.4 0-25.8-.2-27.4-1.7-1.7-1.5-1.8-3.7-1.8-27 0-24 .1-25.4 2-27.3 1.9-1.9 3.3-2 27-2s25.1.1 27 2z"/>
  <path d="M28.5 22c-.3.4 1.1 8.6 3 18.1 1.9 9.5 3.5 17.4 3.5 17.6 0 .2.7.3 1.5.3 1.1 0 1.4-.7 1-2.3-2.3-10.3-2.3-10.6-.3-13.2 1.4-1.9 2.9-2.5 5.7-2.5 3.7 0 11.1-3.9 14-7.3 1.2-1.5 1.1-1.7-1.2-1.7-3.6 0-10.3-2.6-14.1-5.5-3.3-2.5-12.2-4.9-13.1-3.5z"/>
</svg>
