<svg xmlns="http://www.w3.org/2000/svg" version="1.0" viewBox="0 0 80 80">
    <rect fill="currentColor" x="10" y="10" width="60" height="60" rx="5" />
    <path d="M13.5 9.4C7.8 12 7.5 13.3 7.2 39c-.5 36.6-2 35 32.8 35s33.3 1.6 32.8-35c-.3-26.1-.7-27.7-7-29.9-4.7-1.7-48.5-1.4-52.3.3zM67 14c1.9 1.9 2 3.3 2 27.2 0 22-.2 25.4-1.7 27-1.5 1.7-3.7 1.8-27.1 1.8-22.4 0-25.8-.2-27.4-1.7-1.7-1.5-1.8-3.7-1.8-27 0-24 .1-25.4 2-27.3 1.9-1.9 3.3-2 27-2s25.1.1 27 2z"/>
    <path d="M31 24.2c-9.9 5.3-13.8 17.3-8.8 26.8 5.3 9.9 17.3 13.8 26.8 8.8 9.9-5.3 13.8-17.3 8.8-26.8-5.3-9.9-17.3-13.8-26.8-8.8zm17 3.1c5.1 2.7 9 9 9 14.7 0 8.7-8.3 17-17 17s-17-8.3-17-17c0-2 1-5.6 2.3-8 2.7-5.1 9-9 14.7-9 2 0 5.6 1 8 2.3z"/>
    <path d="M32.3 30c-8.7 5.2-8.3 19.8.6 24.5 9.8 5 21.1-1.6 21.1-12.3C54 33.7 48.4 28 40 28c-2.7 0-5.8.8-7.7 2zm11.2 1c.7 0 2.7 1.4 4.4 3.1 2.6 2.6 3.1 3.8 3.1 7.9 0 4-.5 5.3-3 7.8-3.1 3.1-6.4 4.2-10.5 3.4-1.5-.2-3.9-1.8-5.5-3.4-2.5-2.5-3-3.8-3-7.8 0-4.1.5-5.3 3-7.9 3-2.9 6.2-4.2 8.8-3.5.8.2 2 .4 2.7.4z"/>
    <path d="M33.9 35.9c-2 2-2.9 3.9-2.9 6.1 0 4.3 4.7 9 9 9s9-4.7 9-9-4.7-9-9-9c-2.2 0-4.1.9-6.1 2.9zM44 38c1.1 1.1 2 2.9 2 4 0 2.6-3.4 6-6 6-1.1 0-2.9-.9-4-2s-2-2.9-2-4 .9-2.9 2-4 2.9-2 4-2 2.9.9 4 2z"/>
    <path d="M37.4 40.4c-1 2.6.4 4.8 2.8 4.4 3.3-.4 3.3-5.2 0-5.6-1.3-.2-2.5.3-2.8 1.2z"/>
</svg>
