<svg xmlns="http://www.w3.org/2000/svg" version="1.0" viewBox="0 0 80 80">
    <path d="M13.5 9.4C7.8 12 7.5 13.3 7.2 39c-.5 36.6-2 35 32.8 35s33.3 1.6 32.8-35c-.3-26.1-.7-27.7-7-29.9-4.7-1.7-48.5-1.4-52.3.3zM67 14c1.9 1.9 2 3.3 2 27.2 0 22-.2 25.4-1.7 27-1.5 1.7-3.7 1.8-27.1 1.8-22.4 0-25.8-.2-27.4-1.7-1.7-1.5-1.8-3.7-1.8-27 0-24 .1-25.4 2-27.3 1.9-1.9 3.3-2 27-2s25.1.1 27 2z"/>
    <path d="M31 24.2c-9.9 5.3-13.8 17.3-8.8 26.8 5.3 9.9 17.3 13.8 26.8 8.8 9.9-5.3 13.8-17.3 8.8-26.8-5.3-9.9-17.3-13.8-26.8-8.8zm17 3.1c5.1 2.7 9 9 9 14.7 0 8.7-8.3 17-17 17s-17-8.3-17-17c0-2 1-5.6 2.3-8 2.7-5.1 9-9 14.7-9 2 0 5.6 1 8 2.3z"/>
    <path d="M32.3 30c-8.7 5.2-8.3 19.8.6 24.5 9.8 5 21.1-1.6 21.1-12.3C54 33.7 48.4 28 40 28c-2.7 0-5.8.8-7.7 2zm11.2 1c.7 0 2.7 1.4 4.4 3.1 2.6 2.6 3.1 3.8 3.1 7.9 0 4-.5 5.3-3 7.8-3.1 3.1-6.4 4.2-10.5 3.4-1.5-.2-3.9-1.8-5.5-3.4-2.5-2.5-3-3.8-3-7.8 0-4.1.5-5.3 3-7.9 3-2.9 6.2-4.2 8.8-3.5.8.2 2 .4 2.7.4z"/>
    <path d="M33.9 35.9c-2 2-2.9 3.9-2.9 6.1 0 4.3 4.7 9 9 9s9-4.7 9-9-4.7-9-9-9c-2.2 0-4.1.9-6.1 2.9zM44 38c1.1 1.1 2 2.9 2 4 0 2.6-3.4 6-6 6-1.1 0-2.9-.9-4-2s-2-2.9-2-4 .9-2.9 2-4 2.9-2 4-2 2.9.9 4 2z"/>
    <path d="M37.4 40.4c-1 2.6.4 4.8 2.8 4.4 3.3-.4 3.3-5.2 0-5.6-1.3-.2-2.5.3-2.8 1.2z"/>
    <path fill="currentColor" d="M39.079 47.818c-.908-.26-2.106-.957-2.893-1.684-1.158-1.07-2.132-2.928-2.143-4.088-.01-1.139.834-2.848 1.98-4.01.903-.916 2.443-1.773 3.526-1.961 1.492-.26 3.96 1.103 5.202 2.872.397.566.853 1.47 1.047 2.076.492 1.537-.22 3.343-1.992 5.052-1.608 1.55-3.265 2.162-4.727 1.743zm1.34-3.04c.921-.195 1.609-.715 1.972-1.491.515-1.1.337-2.366-.455-3.247-1.106-1.23-3.68-1.182-4.42.082-.43.734-.573 2.086-.31 2.937.131.426.466.953.776 1.22.212.183.755.455 1.046.523.387.091.887.083 1.39-.024z"/>
    <path fill="currentColor" d="M38.67 53.36c-1.488-.213-1.975-.348-2.856-.789-1.492-.747-2.926-1.866-4.409-3.44-1.383-1.47-1.952-2.577-2.228-4.339-.174-1.107-.173-4.525 0-5.635.307-1.95.95-3.09 2.775-4.923 2.205-2.214 4.471-3.48 6.708-3.747.768-.092 1.293-.052 2.295.172.794.177 2.112.373 2.518.373.77 0 3.06 1.66 4.796 3.477 1.679 1.757 2.268 2.83 2.555 4.658.172 1.1.172 4.524 0 5.625-.274 1.74-.829 2.831-2.188 4.301-2.093 2.264-4.087 3.54-6.378 4.082-.615.145-.922.174-2.053.193-.732.012-1.422.008-1.535-.008zm2.438-2.447c3.377-.589 6.79-3.818 7.7-7.286.184-.704.243-1.91.127-2.625-.27-1.68-1.214-3.437-2.651-4.937-1.385-1.445-2.846-2.352-4.614-2.864-.482-.14-.685-.157-1.772-.154-1.13.004-1.277.019-1.842.188-.835.25-1.987.837-2.728 1.39-.794.594-2.132 1.934-2.71 2.715-.84 1.134-1.386 2.388-1.556 3.571-.122.845-.049 2.078.17 2.867.61 2.203 2.315 4.423 4.471 5.821 1.828 1.185 3.632 1.624 5.405 1.314z"/>
    <path fill="currentColor" d="M39.08 58.952c-3.917-.316-7.783-2.178-10.81-5.21-3.053-3.055-4.869-6.79-5.198-10.69-.127-1.51.074-3.03.672-5.09.918-3.159 2.284-5.558 4.347-7.63 3.214-3.23 7.849-5.308 11.821-5.3 2.591.004 6.765 1.352 9.227 2.979 3.131 2.069 5.768 5.556 7.015 9.277 1.062 3.17 1.078 6.243.049 9.328-2.088 6.255-7.925 11.286-14.157 12.202-.74.108-2.368.182-2.967.134zm3.283-2.95c5.63-1.068 9.9-4.999 11.237-10.345.3-1.2.399-2.07.397-3.509-.003-2.612-.46-4.762-1.45-6.81-1.983-4.107-5.567-6.58-10.501-7.247-.82-.11-3.194-.111-3.956 0-2.442.354-4.527 1.063-6.07 2.066-.886.576-1.27.885-2 1.608-2.165 2.144-3.457 4.877-3.941 8.337-.137.978-.103 3.156.066 4.263.648 4.232 2.796 7.717 5.978 9.7 1.62 1.01 3.807 1.766 5.967 2.063.244.033 1.134.05 1.978.04 1.21-.017 1.695-.052 2.295-.166z"/>
    <path fill="currentColor" d="M25.405 69.905c-7.485-.125-10.455-.408-11.886-1.134-.453-.23-1.137-.886-1.371-1.318-.528-.97-.761-2.429-.93-5.833-.271-5.446-.27-35.053 0-40.602.174-3.555.474-5.21 1.124-6.192.302-.457 1.064-1.215 1.499-1.491 1.046-.666 2.65-.952 6.312-1.127 5.413-.26 34.281-.26 39.694 0 3.643.174 5.278.463 6.292 1.112.454.29 1.213 1.043 1.52 1.506.648.98.948 2.633 1.122 6.18.268 5.454.269 33.033.002 39.386-.167 3.967-.457 6.002-1.008 7.091-.223.441-.884 1.126-1.31 1.358-1.08.587-2.856.833-7.266 1.003-2.335.09-29.145.139-33.794.061zm17.528-8.11c4.177-.635 7.95-2.57 11.047-5.667a20.446 20.446 0 0 0 5.908-12.284c.134-1.198.096-3.598-.074-4.697-.547-3.53-1.912-6.626-4.148-9.411-3.44-4.284-8.302-6.985-13.695-7.609-1.223-.14-3.796-.105-4.904.07-5.569.875-10.509 4.09-13.68 8.903-1.742 2.642-2.79 5.442-3.244 8.661-.121.858-.123 3.978-.003 4.808.395 2.744 1.24 5.162 2.572 7.366 3.49 5.77 9.308 9.415 15.992 10.018.802.072 3.338-.022 4.229-.158z"/>
</svg>
