<svg xmlns="http://www.w3.org/2000/svg" xml:space="preserve" version="1.0" viewBox="0 0 80 80">
  <circle cx="40" cy="40" r="31" fill="currentColor" stroke="#000" stroke-width="3"/>
  <path d="M30.618 17.083c-.529-.096-1.234.207-1.454.698-.632 1.408 1.77 2.74 1.276 4.451-.495 1.712-2.714 1.05-3.209 2.762-.495 1.712 1.772 2.737 1.277 4.448-.495 1.712-2.714 1.05-3.209 2.762-.495 1.712 1.771 2.739 1.276 4.45-.495 1.713-2.713 1.049-3.208 2.76-.495 1.712 1.771 2.74 1.276 4.451-.495 1.712-2.713 1.048-3.208 2.76-.495 1.712 1.771 2.739 1.276 4.45-.495 1.713-3.025 1.364-3.209 2.762-.07.534.405 1.152.911 1.332 1.466.523 2.759-1.813 4.478-1.315 1.719.497 1.044 2.758 2.763 3.256 1.719.497 2.76-1.813 4.48-1.316 1.718.498 1.043 2.759 2.762 3.256 1.72.498 2.759-1.813 4.478-1.316 1.719.498 1.046 2.76 2.765 3.257 1.72.497 2.758-1.813 4.478-1.316 1.719.498 1.367 2.975 2.763 3.256.514.103 1.208-.225 1.404-.712.526-1.309-1.826-2.266-1.399-3.996.428-1.73 2.904-1.486 3.331-3.216.427-1.73-1.826-2.264-1.398-3.994.427-1.73 2.903-1.487 3.33-3.217.428-1.73-1.826-2.264-1.398-3.994.427-1.73 2.903-1.486 3.33-3.216.428-1.73-1.825-2.266-1.398-3.996.427-1.73 2.903-1.485 3.33-3.215.428-1.73-1.825-2.266-1.398-3.996.427-1.73 3.157-1.683 3.33-3.216.06-.521-.362-1.15-.86-1.318-1.348-.455-2.282 1.866-4.02 1.438-1.738-.429-1.482-2.95-3.22-3.378-1.737-.429-2.285 1.866-4.023 1.437-1.737-.428-1.482-2.95-3.22-3.378-1.737-.429-2.283 1.867-4.02 1.438-1.738-.429-1.484-2.95-3.222-3.379-1.737-.428-2.283 1.867-4.02 1.438-1.738-.428-1.69-3.098-3.22-3.378zm1.151 4.203 24.718 6.623-8.258 30.82-24.718-6.624z"/>
  <path d="m34.228 25.542 18.001 4.824-6.459 24.106-18.002-4.823z"/>
</svg>
