<svg xmlns="http://www.w3.org/2000/svg" version="1.0" viewBox="0 0 80 80">
  <circle cx="40" cy="40" r="31" fill="currentColor" stroke="#000" stroke-width="3"/>
  <path d="M42.613 16.115a1 1 0 0 0-.998 1.004c.066 18.096 3.62 25.306 9.416 34.291l-17.431.875-3.39 1.873-.046-.06a29.279 29.279 0 0 1-1.144-1.676c-.945-1.482-2.2-3.694-3.446-6.633-2.493-5.878-4.956-14.657-4.847-26.328a1 1 0 0 0-.993-1.01 1 1 0 0 0-1.007.99c-.112 11.963 2.418 21.026 5.005 27.127 1.294 3.05 2.604 5.362 3.602 6.928.448.703.82 1.234 1.113 1.637l-3.103 1.715 25.127-1.096 8.084-4.72-5.213.261c-6.131-9.38-9.66-15.7-9.727-34.18a1 1 0 0 0-1.002-.998zm16.26 36.203-8.03 4.752L25.5 58.205l.379 2.268 6.658-.3a1 1 0 0 0 .164.343l1.56 2.056a1 1 0 0 0 1.401.194 1 1 0 0 0 .193-1.4l-.982-1.296 16.348-.732 3.904-2.387 1.09 1.84a1 1 0 0 0 1.369.35 1 1 0 0 0 .352-1.37l-1.106-1.863 2.455-1.5-.412-2.09z"/>
</svg>
