<svg xmlns="http://www.w3.org/2000/svg" version="1.0" viewBox="0 0 80 80">
  <circle cx="40" cy="40" r="31" fill="currentColor" stroke="#000" stroke-width="3"/>
  <path d="M31.447 25.5c-2.947 0-5.445 1.99-6.222 4.695l-5.092 16.166a8.477 8.477 0 0 0-.574 3.125c0 4.684 3.816 8.502 8.5 8.502 4.524 0 8.24-3.565 8.488-8.029h.002l1.34-17.318v-.006a6.499 6.499 0 0 0 .033-.66c0-3.564-2.91-6.475-6.475-6.475ZM28.06 42.984c3.602 0 6.502 2.9 6.502 6.502 0 3.603-2.9 6.502-6.502 6.502-3.603 0-6.5-2.9-6.5-6.502 0-.623.087-1.225.25-1.795l.002-.005.312-.858a6.483 6.483 0 0 1 5.936-3.844zM48.553 25.5c2.947 0 5.445 1.991 6.222 4.695l5.092 16.166c.367.932.574 1.976.574 3.125 0 4.684-3.816 8.502-8.5 8.502-4.524 0-8.24-3.565-8.488-8.029h-.002l-1.34-17.318v-.006a6.499 6.499 0 0 1-.033-.66c0-3.564 2.91-6.475 6.475-6.475zm3.388 17.484a6.487 6.487 0 0 0-6.502 6.502c0 3.603 2.9 6.502 6.502 6.502 3.603 0 6.5-2.9 6.5-6.502 0-.623-.087-1.225-.25-1.795l-.002-.005-.312-.858a6.483 6.483 0 0 0-5.936-3.844z"/>
  <path stroke="#000" stroke-width="3" d="M36.469 34.406h7.062"/>
</svg>
