<svg xmlns="http://www.w3.org/2000/svg" version="1.0" viewBox="0 0 80 80">
    <circle fill="currentColor" cx="40" cy="40" r="30" />
    <path d="M30.9 8.5C16 13.3 5.8 28.2 7.3 42.8 8 49.9 13 59.9 17.7 64.1c12.9 11.2 31.7 11.2 44.6 0 2-1.8 5.1-6.2 6.9-9.9 8-16.3 1.5-35.3-14.7-43.3-7.7-3.8-16.6-4.7-23.6-2.4zm15.3 2.6c15.6 3.3 26 19.2 22.7 34.6C65.6 61.7 50 72.2 34.3 69c-16-3.4-26.5-19-23.2-34.7C13.8 21 25.5 11 39.2 10.1c.9-.1 4.1.4 7 1z"/>
    <path d="M27.3 27.9C25.2 30.1 19 46.6 19 49.8c0 3.2 4.1 7.2 8.1 7.8 2.8.5 4.1.1 6.6-2 2.8-2.4 3.1-3.2 3.8-11.1.6-7.3.9-8.5 2.5-8.5s1.9 1.2 2.5 8.5c.7 7.9 1 8.7 3.8 11.1 3.9 3.3 9.1 2.8 12.5-1.1 2.9-3.4 2.8-5.1-1-15.7-3.6-9.9-5.7-12.8-9.3-12.8-2.7 0-6.5 3.1-6.5 5.3 0 .7-.9 1.3-2 1.3s-2-.6-2-1.3c0-2.2-3.8-5.3-6.5-5.3-1.3 0-3.2.9-4.2 1.9zm6.3 17.7c2.1 3.1 1.4 6.3-1.8 8.7-3.2 2.4-7.1 1.7-9.3-1.7-2.3-3.4-1-7.5 2.8-9.1 3.7-1.6 6.4-.9 8.3 2.1zm24.7 1.7c1.9 5.7-4.7 10.6-9.9 7.3-3.2-2.2-3.9-4.1-2.8-7.4 2.1-5.9 10.7-5.8 12.7.1z"/>
</svg>
