<svg xmlns="http://www.w3.org/2000/svg" xml:space="preserve" version="1.0" viewBox="0 0 80 80">
  <circle cx="40" cy="40" r="31" fill="currentColor" stroke="#000" stroke-width="3"/>
  <path d="m51.4 26.8-4-2.4s-.3-.2-.7-.1c-.4.1-.6.5-.6.5L44 28.5a4 4 0 0 1-2.1 1.7l-5.1 1.5c-2.4.4-2.8.7-4.3 3.3L21.1 53.8s-1.1 1.6-.9 2.4c.3 1 2.3 2 2.3 2l10.7 6.5s1.9 1.3 2.9 1c.8-.1 1.7-1.8 1.7-1.8L49 45c1.4-2.2 1.5-2.7.9-5.3l-1-5.3c-.2-1.1-.2-1.5.4-2.5l2.3-3.8s.2-.3.1-.7c0-.3-.3-.5-.4-.6zM41.3 37.5l4.4 4 .1.4-.2.5-5.3 4.5s-.3.3-.5.3l-.6-.3-2.8-2.5-.3-.5.2-.6 4-5.7.5-.2.5.1zm-6.7 8.1.3.2 3.2 2.9c.5.5.7 1.3.2 1.8-.4.5-1.2.4-1.8 0l-3.2-3c-.6-.5-.7-1.3-.3-1.8.4-.4 1-.5 1.6-.1zM32 49.2l.2.1 2.8 2.5s.3.3.3.5l-.2.5-4 5.7s-.3.3-.5.3l-.4-.2-4.4-4-.2-.3.2-.5 5.3-4.5s.3-.3.5-.3c0 0 .3 0 .4.2zm16.3-27.5.5.5 3.8 2.3.6.2c.2 0 .6-.4.6-.4l2.5-2.5s.5-.6.5-1c0-.3-.7-.7-.7-.7l-5-3s-.8-.4-1-.3c-.4.1-.7.9-.7.9l-1 3.4v.6z"/>
</svg>
