<svg xmlns="http://www.w3.org/2000/svg" version="1.0" viewBox="0 0 128 128">
    <path d="M95.5 30.7c-1.6.2-7.9 1.5-13.8 2.9-9.1 2.1-13 2.5-23.5 2.3-12.4-.2-33.1 1.3-35.1 2.6-.6.3-2.1-.1-3.4-1-1.3-.8-3.2-1.3-4.1-.9-1.9.7-1.9.9-.6 3.3.7 1.4.5 2.3-1 3.6-1.1 1-2.5 3.4-3.1 5.4-.6 2-2.7 5.5-4.6 7.8-3.5 4.4-3.5 5.1 0 9.1 2.5 2.8 5.6 2.8 16.5.2 12-2.9 15-2.7 18.2 1.1 2.5 3 2.5 3.3 1.6 11.1-.8 7.1-1.2 8-3.6 9.3-4.8 2.5-5.4 4-2.4 6.4 1.8 1.4 3.4 1.9 5.3 1.5 6-1.4 7.3-2.7 9.3-9.3l2-6.5 1.9 2.5c3.1 4 3.2 5.5.3 8.5l-2.8 2.7 2.4 1.9c2.7 2.2 6.7 1.9 10.7-.7 1.8-1.2 2.3-2.5 2.3-5.8 0-3.9 1.4-11.6 2.2-12.1.1-.1 3.6.1 7.7.4 7.3.5 7.4.6 7.8 3.4.3 2.1-.3 3.6-2.4 5.8-3.1 3.3-2.5 4.2 3.4 5.3 5.9 1.1 8.6-1.1 10.3-8.4l1.6-6.4 2.7 3.2c3.7 4.4 3.6 8.1-.3 10.3-5.3 3-2.9 6.8 4.5 6.8 4.5 0 10.5-2.5 10.5-4.3 0-.8 1.8-7.7 4-15.3 4.9-16.7 5.3-23.5 2-31.1-2.9-6.9-9.3-12.7-16.1-14.7-2.9-.9-5.7-1.5-6.3-1.5-.6.1-2.4.4-4.1.6zm11.5 4.5c8 3 14.4 12.9 14.2 22 0 2.6-2 11.6-4.4 19.9-4.7 16.4-5 16.9-12.1 16.9l-3.2-.1 2.8-2c2.1-1.6 2.7-2.9 2.7-6 0-3.3-.7-4.8-4-8.2-5-5.4-6.9-4.5-8.8 4.1-1.4 6.2-3.6 8.2-6.9 6.3-1.2-.6-1.2-1 .1-2 2.2-1.8 2.1-8.4-.1-10.3-1.2-1-4.7-1.7-10.1-2.1-7.8-.5-8.4-.4-9.8 1.8-.8 1.3-1.8 5.5-2.1 9.5-.5 6.5-.8 7.3-3.1 8.1-1.4.6-3.2.7-4 .4-1.3-.5-1.1-.9.6-2.1 1.2-.8 2.2-2.5 2.2-3.8 0-2.8-5.5-10.6-7.4-10.6-2.1 0-4.3 3.5-5.7 9.1-1.3 4.9-2.5 5.9-7.8 5.9-2.2 0-2.2-.2 1-2.3 3.2-2.1 3.4-2.8 4.6-11.1l1.3-8.8-3.6-4.4c-3.4-4-4-4.4-8.3-4.4-2.5 0-8.9 1-14.2 2.2-5.3 1.2-10.3 1.8-11.3 1.5-2.9-1.1-2.9-3.5.1-7.4 1.7-2.1 3.5-5.3 4.1-7.1 1.7-5.1 5.3-8.7 8.7-8.9 1.7-.1 7.7-.7 13.5-1.4 5.8-.6 16.2-1.1 23.1-.9 10.4.1 14.4-.3 23.5-2.4 15.7-3.7 17.9-3.8 24.4-1.4z"/>
    <path fill="currentColor" d="m102.195 93.862-.488-.072 1.525-1.084c1.86-1.324 2.63-2.083 3.138-3.1.531-1.06.66-1.953.597-4.15-.041-1.475-.096-1.957-.294-2.578-.47-1.478-1.309-2.707-3.275-4.801-3.501-3.73-5.115-4.499-6.572-3.136-.959.897-1.556 2.384-2.539 6.32-.328 1.315-.75 2.83-.94 3.368-.712 2.031-1.596 3.295-2.672 3.822-.529.258-.695.287-1.39.243-1.203-.077-2.806-.899-2.806-1.438 0-.157.255-.491.716-.939.847-.822 1.142-1.3 1.485-2.402.227-.73.254-1.033.254-2.783 0-1.716-.03-2.071-.247-2.816-.611-2.11-1.292-2.815-3.323-3.441-2.255-.696-7.137-1.261-12.089-1.4-3.537-.099-4.285.067-5.277 1.17-.639.711-1.056 1.584-1.48 3.094-.626 2.23-1.063 4.892-1.317 8.03-.348 4.302-.696 5.755-1.562 6.515-.848.745-3.165 1.416-4.55 1.317-.738-.053-1.56-.383-1.671-.672-.092-.238.276-.646 1.254-1.39 1.807-1.376 2.642-3.164 2.23-4.775-.769-3-4.824-8.762-6.773-9.624-1.323-.585-2.905.692-4.31 3.478-.664 1.317-1.148 2.643-1.812 4.967-.736 2.578-1.147 3.625-1.736 4.424-1.053 1.427-2.457 1.895-5.754 1.915-2.014.013-2.193-.055-1.599-.613.21-.197 1.127-.867 2.038-1.488 1.843-1.258 2.58-1.98 3.068-3.002.382-.8.78-2.324 1.09-4.161.333-1.98 1.863-12.401 1.863-12.69 0-.163-.601-.988-1.711-2.347-5.264-6.445-5.661-6.7-10.292-6.592-3.172.073-7.484.713-13.44 1.994-5.135 1.104-8.03 1.562-10.404 1.645l-1.527.054-.655-.37c-.732-.413-1.307-1.138-1.432-1.807-.2-1.066.521-2.92 1.814-4.658 2.164-2.911 3.75-5.626 4.524-7.747 1.189-3.253 2.923-5.795 4.996-7.323 1.347-.993 2.412-1.384 4.12-1.514 1.582-.121 6.21-.592 10.203-1.039 8.595-.962 13.839-1.217 25.753-1.252 12.778-.038 14.209-.198 25.915-2.896 8.425-1.942 11.388-2.44 14.514-2.445 2.201-.004 2.944.1 5.092.714 2.678.765 4.873 1.796 6.824 3.205 1.252.903 3.818 3.48 4.828 4.847 3.729 5.047 5.595 11.234 4.924 16.323-.639 4.842-2.957 14.21-6.064 24.498-2.335 7.732-3.495 9.661-6.274 10.43-.508.14-1.25.187-3.328.212-1.47.018-2.893 0-3.162-.04z"/>
</svg>
