<svg xmlns="http://www.w3.org/2000/svg" version="1.0" viewBox="0 0 128 128">
    <path d="M83.7 13.4C73.8 17.1 60 27.7 60 31.7c0 2.9 3.1 5.3 6.8 5.3H70l-1.3 3.2c-.8 2-2.7 4-4.8 5-10.8 5.5-17.8 8.1-23.6 8.9-3.6.5-8 1.6-9.8 2.5C25.8 58.8 16 68.5 16 71c0 1.9.4 2 3.5 1.4 3.1-.6 3.5-.4 3.5 1.5 0 2.5 3.4 9.6 5.1 10.6 1.3.8.4 6.6-1.6 10.5-.7 1.4-1.5 6.7-1.7 11.8l-.5 9.2h3.2c3.3 0 3.3 0 4-6.1.5-4.4 1.3-6.6 2.8-7.8C40.2 97.4 45 92.6 45 91.4c0-.8.5-1.4 1-1.4 1.5 0-1.7 7.2-4.1 9.2l-2.1 1.8 2.4 7.2c2.3 6.9 2.6 7.3 5.6 7.6 3.5.4 3.6.2 2.3-6.7-.8-4.1-.7-4.6 2.3-7.6 3.8-3.8 6.6-9.4 7.3-14.4.4-2.8 1.3-4.1 3.5-5.4 1.7-1 3.2-1.6 3.3-1.5.1.2.8 4.9 1.5 10.5l1.2 10.3H76V86.7c.1-14.1.1-14.2 2.8-17.6l2.8-3.3 3.3 5 3.2 5.1-2 4c-1.1 2.2-2.9 4.2-4 4.6-1.1.3-2.1 1.8-2.3 3.6-.5 3-.4 3.1 3.1 2.4 5.5-1 6.7-2 10.7-8.6l3.7-6.2-5.4-10.6c-5.2-10.2-5.4-11-4.6-15.7.4-2.7 1-5.6 1.4-6.4.3-.8.5-3.2.4-5.2-.2-3.7-.2-3.7 2.7-2.6 1.6.6 3.7.8 4.6.5 1.5-.6 1.4-1.1-.8-4.6-2.4-3.8-2.5-4-.7-4.6 3.1-.9 6.8.5 7.9 3.1 1.4 3 .7 5-3 9l-3 3.2 2.9.4c7.5 1.1 11.8-3.2 11.8-11.6-.1-6.4-2.6-11-8.1-14.9-5-3.5-13.8-4.5-19.7-2.3zm16.7 4.1c6.6 3.2 9.9 11.4 7.2 17.9-.8 2-1.9 3.6-2.5 3.6-.5 0-.3-1.4.6-3 2.8-5.7-.7-11.8-7.2-12.7-3.1-.4-4.6 0-6.5 1.5-2.2 1.8-2.3 2.3-1.2 4.1 1.6 2.7 1.5 3.2-.3 2.5-2.4-.9-4.5 1.5-4.5 5.1 0 1.8-.7 7-1.6 11.5-1.3 7.2-1.3 8.4-.1 9.9 2.1 2.3 8.7 15.7 8.7 17.5 0 2-5.1 10.4-6.7 11-.6.3-.1-1.1 1.3-3.1 4.1-6 4.1-7.7 0-13.9-5-7.5-6.1-7.7-10.8-2.3L73 71.5 72.9 85c-.1 14-1.1 14.5-2.4 1.2-1.1-9.9-2.6-11-9.4-6.8-3.1 2-3.9 3.2-4.3 6.4-.8 5.5-3.5 10.7-7.5 14.5-3 2.9-3.3 3.6-2.8 7.2l.5 4-1.8-4.5-1.8-4.5 2.8-3.5c3.5-4.5 4.5-9.1 2.4-10.9-2.2-1.9-4.9-1-6.4 2.2-.7 1.5-2.9 3.9-4.9 5.5-1.9 1.5-4.4 3.4-5.6 4.3-1.2.9-2.3 3.4-2.7 6l-.7 4.4-.2-5.8c0-3.4.5-7 1.4-8.6.8-1.6 1.7-4.7 2.1-6.8.5-3.2.1-4.6-2-7.8-1.5-2.1-2.9-5-3.2-6.4-1-4.7-1.4-5.3-3.4-5.8-2.7-.7-2.4-1.4 3-5.8 5.4-4.5 7.3-5.3 15.9-6.5 3.7-.5 8.7-2 11.2-3.4 2.4-1.3 6.1-2.9 8.2-3.6 4.6-1.4 10.3-6.7 11.2-10.3.9-3.6-.9-5.7-5.1-5.7-7.3 0-4.8-4.7 6.1-11.5 12.7-7.9 18.4-9 26.9-5z"/>
    <path fill="currentColor" d="M45.15 106.796c-.916-2.293-1.665-4.21-1.665-4.262 0-.052.73-1.01 1.623-2.127 2.451-3.07 3.36-4.584 4.124-6.866.675-2.018.615-3.864-.16-4.943-.41-.57-1.266-1.166-1.967-1.37-1.728-.503-3.548.495-4.668 2.56-.847 1.562-1.634 2.594-3.098 4.064-1.394 1.4-2.092 1.972-6.691 5.492-1.573 1.203-1.866 1.547-2.548 2.99-.595 1.258-1.012 2.871-1.409 5.449-.168 1.094-.32 1.975-.337 1.958-.017-.017-.077-1.231-.134-2.698-.2-5.147.214-8.531 1.348-11.016.837-1.834 1.86-5.269 2.128-7.147.4-2.801-.044-4.277-2.362-7.857-.959-1.48-1.99-3.4-2.45-4.562-.123-.312-.459-1.504-.745-2.649-.86-3.437-1.195-3.943-2.978-4.5-2.021-.632-2.156-.838-1.31-2.01.416-.577 2.082-2.072 4.594-4.12 4.93-4.021 7.073-4.91 14.476-6.003 5.33-.787 8.368-1.709 12.93-3.925 3.191-1.549 4.932-2.302 7.312-3.162 2.297-.83 3.841-1.699 5.825-3.275 2.281-1.813 4.232-4.085 5.093-5.931.5-1.074.679-1.945.63-3.07-.051-1.147-.313-1.81-.978-2.476-.899-.898-2.095-1.266-4.556-1.402-2.543-.14-3.546-.534-3.823-1.499-.57-1.987 3.64-5.946 11.228-10.556 10.967-6.663 16.49-7.926 23.41-5.354 2.822 1.05 4.464 2.05 6.168 3.76 4.657 4.672 5.669 11.59 2.484 16.97-.554.936-1.242 1.698-1.534 1.698-.203 0-.215-.054-.163-.7.043-.532.186-.98.604-1.882.853-1.842 1.028-2.5 1.088-4.084.044-1.153.015-1.521-.178-2.292-1.09-4.354-5.306-7.119-10.419-6.834-1.351.076-2.18.344-3.277 1.06-1.008.658-2.277 1.847-2.522 2.364-.284.598-.157 1.096.645 2.536 1.366 2.45 1.331 2.832-.208 2.302-.829-.285-1.667-.282-2.286.009-.996.468-1.925 1.825-2.236 3.265-.072.33-.174 1.362-.229 2.293-.148 2.552-.7 6.409-1.632 11.402-.646 3.46-.894 5.463-.85 6.874.043 1.435.173 1.829.902 2.728 1.839 2.27 7.015 12.356 8.28 16.135.444 1.322.392 1.753-.422 3.562-1.358 3.015-4.34 7.543-5.543 8.414-1.078.78-.642-.335 1.27-3.246 2.138-3.255 2.725-4.62 2.736-6.369.009-1.294-.246-2.172-1.142-3.928-.716-1.404-2.385-4.001-3.746-5.83-2.6-3.493-3.935-4.098-5.926-2.684-.974.692-1.935 1.692-4.658 4.845l-2.25 2.606-.005 3.56c-.008 5.79-.197 16.442-.317 17.854-.131 1.553-.318 2.761-.44 2.836-.4.248-.864-2.287-1.535-8.4-.545-4.969-1.02-7.307-1.767-8.709-.55-1.033-1.394-1.604-2.371-1.604-.978 0-2.758.727-4.805 1.963-2.074 1.252-3.147 2.15-3.838 3.212-.532.818-.79 1.657-1.142 3.71-.662 3.867-1.921 7.117-3.914 10.102-1.023 1.532-1.91 2.587-3.779 4.491-1.65 1.683-2.256 2.48-2.567 3.384-.233.675-.192 2.161.128 4.679.154 1.214.266 2.247.249 2.295-.018.048-.78-1.788-1.696-4.08z"/>
</svg>
