<svg xmlns="http://www.w3.org/2000/svg" version="1.0" viewBox="0 0 128 128">
    <path d="M27.5 24c-.3.5-.3 2.1.1 3.5.4 1.8.2 2.5-.8 2.5-.8 0-3 1.6-4.9 3.6-1.8 2-5.9 4.8-8.9 6.3-9.1 4.4-6.2 9.4 6.6 11.2 16.9 2.3 17.2 2.7 18.6 25.4 1 16.4 1 18-.6 21-2.2 4.1-1.5 5.5 3 5.5 1.9 0 4.2.5 5.2 1.1 1.2.7 4 .8 8.7.2 6.4-.7 7-1 8.9-4.2 1.3-2.3 2.1-5.9 2.4-11.2l.5-7.9H70c4.4 0 5 1.1 5 10.6 0 4.6-.5 6.8-2 8.7-3.3 4.1-2.6 4.7 5.5 4.7H86v-2.8c.1-3.8 3-9.9 7.3-15l3.7-4.3 3 4.8c4.9 7.6 5.2 11.9.9 13-3.3.9-1.9 3.8 2.1 4.1 8.7.7 16.1-9.9 16.8-24.2.2-4.4 0-10.7-.6-13.8-.7-4.6-.6-6 .6-7.2 1.9-1.9.7-4.9-4.5-11.3-7.1-8.6-16-11-34.5-9.2C69.5 40.2 69.1 40.2 66 38c-2.7-1.9-3.9-2.1-9.3-1.6-6.2.7-6.3.7-13.7-4.2-4.1-2.7-8.4-5.9-9.4-7-2-2.3-5.1-2.9-6.1-1.2zM43 36c6.3 4.1 6.7 4.2 12.8 3.6 5.5-.6 6.7-.4 9.4 1.5 3 2.2 3.4 2.2 15.2 1.1 19.4-1.7 27.4.6 33.9 9.9 3.3 4.7 3.5 5.5 2.2 6.9-1.2 1.3-1.2 2.8-.3 8.5 2.1 13.7-1.1 28.2-7.2 32.5-3.5 2.5-4.3 2.5-2.9.2 1.7-2.7.3-8.3-3.4-13.8-4.9-7.3-6.1-7.6-10.3-2.9C87.7 88.9 83 97 83 99.7c0 2-.5 2.3-3.5 2.3-3.2 0-3.5-.2-2.5-1.9 1.4-2.7 1.2-16.1-.3-19.1-1-2.1-2.1-2.6-6.1-2.8-2.6-.2-5.3.2-6.1.8-.7.6-1.4 4.2-1.7 8.8-.8 11.4-1.7 12.8-9.1 13.6-3.3.3-6.3.4-6.5.1-.3-.3.4-1.5 1.5-2.8C50.9 96.3 53 89 53 83.6c0-5.2-1.7-4.4-2.4 1.1-.4 2.7-1.8 7.2-3.2 10-2 4.2-3.1 5.3-4.9 5.3-2.2 0-2.3-.2-1.2-3.5.7-2.4.7-8.6-.1-21.2l-1.1-17.8-3.9-3.6C32.4 50.3 25.8 48 19.4 48c-1.3 0-4.1-.7-6.2-1.6l-3.7-1.5 4.5-2c2.5-1.1 6.1-3.6 8.2-5.6 2-1.9 4.7-4 6-4.7 1.2-.6 2.5-2.2 2.6-3.5l.4-2.3 2.6 2.5c1.5 1.4 5.6 4.4 9.2 6.7z"/>
    <path fill="currentColor" d="M76.986 101.777c-.53-.18-.54-.475-.053-1.514.778-1.656 1.105-4.924.999-9.965-.107-5.09-.529-8.002-1.397-9.657-.834-1.588-1.946-2.148-4.76-2.395-3.527-.31-6.702.067-7.382.874-.741.88-1.245 3.816-1.759 10.25-.387 4.838-.805 7.014-1.668 8.666-.97 1.857-2.503 2.662-6.023 3.163-1.785.254-4.376.413-6.111.374-1.527-.034-1.583-.043-1.616-.272-.048-.339.415-1.193 1.152-2.123.89-1.122 1.245-1.661 1.718-2.602 1.704-3.389 2.902-8.702 2.908-12.898.004-2.304-.272-3.583-.774-3.583-.615 0-1.166 1.484-1.637 4.406-.834 5.173-3.596 12.066-5.76 14.38-.818.875-1.183 1.02-2.554 1.02-1.008 0-1.194-.029-1.404-.218-.206-.187-.233-.297-.184-.764.031-.3.204-1.012.384-1.582.452-1.428.533-1.883.683-3.823.236-3.04.05-9.052-.61-19.802-.147-2.4-.417-6.845-.599-9.876-.182-3.03-.357-5.71-.387-5.952-.053-.413-.204-.577-2.28-2.487-1.224-1.125-2.413-2.197-2.643-2.383-.893-.72-2.443-1.67-3.802-2.329-3.324-1.61-6.782-2.459-10.88-2.673-2.156-.112-3.003-.246-4.763-.753-1.098-.315-6.174-2.29-6.095-2.37.025-.024 1.13-.53 2.458-1.122 2.883-1.288 3.864-1.813 5.745-3.07 1.705-1.14 2.85-2.042 4.655-3.665 2.31-2.077 3.961-3.367 5.5-4.297.995-.601 1.908-1.51 2.364-2.352.202-.375.368-.98.537-1.959.135-.779.26-1.435.277-1.458.017-.024.733.619 1.59 1.428 2.445 2.306 4.931 4.186 9.529 7.204 5.115 3.359 6.343 3.975 8.44 4.238 1.018.127 1.798.092 5.305-.238 2.814-.265 4.863-.284 5.851-.055 1.075.25 1.734.581 3.438 1.73 1.745 1.177 2.433 1.457 3.986 1.623 1.308.14 4.108-.01 9.367-.504 8.32-.78 14.118-.861 18.765-.265 7.201.925 11.935 3.581 16.035 8.997 1.189 1.57 2.814 4.04 3.235 4.915.631 1.312.555 1.923-.378 3.052-.69.835-.83 1.375-.813 3.108.011 1.063.126 2.22.411 4.147.218 1.47.47 3.435.56 4.365 1.104 11.415-1.469 23.142-6.139 27.97-.782.808-1.248 1.185-2.485 2.01-1.213.808-1.819 1.12-2.179 1.12-.385 0-.356-.171.213-1.259.706-1.35.866-1.968.86-3.324-.014-3.177-1.448-6.882-4.328-11.185-2.014-3.01-3.521-4.774-4.574-5.352-.813-.448-1.654-.445-2.481.007-2.54 1.388-8.448 9.295-11.088 14.838-.885 1.857-1.253 3.003-1.364 4.24-.176 1.974-.447 2.135-3.595 2.133-1.274 0-2.16-.05-2.4-.132z"/>
</svg>
