<svg xmlns="http://www.w3.org/2000/svg" version="1.0" viewBox="0 0 128 128">
    <path d="M65.4 16.5c-.9 2.1 1.1 4.1 4.6 4.8 2.3.5 3.5 1.8 5.5 5.6 2.7 5.4 3.1 7.1 1.5 7.1-.5 0-1.2-1.1-1.6-2.4-.9-3.8-4.1-6.3-6.2-4.9-1.8 1.2-1.8 1.5-.8 4.9.5 1.7 0 2.2-4.3 3.3-5.7 1.4-8.1 3.5-6.3 5.3.9.9 2.6.9 7 0 7.1-1.5 11.9-1.5 12.7-.2.3.6-.6 1.5-2.2 2.1-3.4 1.3-7.4 4.9-6.7 6 .7 1.2 6.1 1.1 6.8 0 .4-.5 2.6-1.6 5.1-2.5 4.1-1.3 4.9-1.3 8.2.1l3.8 1.5-2.7 2.2c-1.5 1.1-5.3 3.1-8.5 4.4l-5.9 2.3L52.5 54c-12.7-1.2-24.9-2-27.3-1.7C19.1 53 15 57 15 62.3c0 2.1.5 4.7 1.1 5.8 1.3 2.5.6 4.8-3 9.3-2.3 2.9-3 5.1-3.6 10.7-.7 6.7-.5 7.5 2.4 13.1 1.7 3.4 3.1 6.9 3.1 7.9 0 2 2.5 2.5 4.8 1 1.1-.6 1.1-1.6.3-4.7-.6-2.2-1.1-5.7-1-7.9 0-4.5-.4-5.2 4.7 6.7 2.3 5.4 2.7 5.8 5.7 5.8h3.3l-1.9-5c-2.2-5.7-2.4-10.2-.8-15.1.7-1.9 1.3-3.5 1.4-3.7.1-.1 1.8.5 3.8 1.3 2 .8 5.6 1.5 8 1.5 3.8 0 4.9.5 8.6 4.2 3.8 3.9 7.1 11.1 7.1 15.5 0 .8 1.2 1.3 3 1.3 3 0 3 0 3-5.8 0-4.2-.7-7.2-2.4-10.5-1.3-2.6-2-4.7-1.6-4.7.5 0 4 3.1 7.8 6.9 5.2 5.1 7.3 7.9 7.7 10.4.5 2.7 1.3 3.7 3.3 4.2 1.6.4 2.8.1 3.4-.7 1.6-2.3.3-11.3-2.1-14.6L78.9 92l2.1-3c1.2-1.6 2.4-4.6 2.7-6.5.6-3.9 2.9-5.5 15.5-10.4 7.8-3.1 13.3-8 15.3-13.9.9-2.6 2.4-6 3.2-7.6 1.4-2.6 1.4-3-.4-4.8-1.2-1.1-3.9-2.2-6.4-2.4-8.8-1-8.4-.7-8.1-7.1.3-6.6-.4-8.1-3.8-8.5-1.9-.2-2.4.1-2.2 1.4.7 4-1.9 1.4-5-4.9-3.3-6.7-6.2-9-7.4-5.9-.3.9.1 3.1 1 5 2 4.2 2 4.6.1 4.6-.8 0-1.5.8-1.5 1.7 0 1-1.4-1.1-3.1-4.5-2.6-5.3-3.8-6.7-7.3-8.3-5-2.3-7.5-2.4-8.2-.4zm6.6 2.1c4.2 1.7 6.4 4.8 8.9 12.5.6 2 2.8 5.5 4.7 7.8 3 3.5 4.1 4.1 7.4 4.1 4.1 0 5.8-1.4 6.2-5 .3-1.9-.5-2.5-4.7-3.9-2.7-.9-5.9-2.2-7-2.9-1.8-1-1.8-1.1-.2-1.2 1.2 0 1.7-.8 1.7-2.8 0-2.6.1-2.5 2.3 1.3 2.4 4.3 6.2 5.9 7.3 3.1.3-.9 1-1.3 1.5-1 1.3.8 1.1 11.1-.2 12-2 1.2.6 2.3 7.5 3.3 3.7.5 7.1 1.2 7.4 1.5.3.4.1 1.6-.5 2.9-.6 1.2-1.9 4.3-2.8 7-2.1 5.9-5.2 8.3-17.3 13.5C83.4 75.5 81 77.3 81 80.9c0 1.5-1.1 4.3-2.5 6.3-3 4.5-3.1 5.2-.4 8.9 1.2 1.7 2.3 4.9 2.5 7.2l.4 4.2-1.6-3.5c-2.1-4.5-15.8-18-18.3-18-4 0-4.5 2.6-1.7 8.2 1.5 2.9 2.6 6.7 2.5 8.7l-.1 3.6-.9-3.9c-1.1-4.4-4.6-9.7-9.3-13.8-2.3-2.1-4.2-2.8-7.4-2.8-2.3 0-5.9-.7-7.9-1.5-1.9-.8-4.1-1.5-4.7-1.5-2.1 0-4.9 6.3-5.5 12.4l-.6 6.1-1.5-4.4c-2.8-8.4-7.9-7.9-8.1.8l-.1 4.6-2-4.4C11 92 12 83.5 16.1 78.4c3.7-4.7 4.5-7.6 2.9-11.3-1.9-4.7-.9-8.2 2.8-10.4 3.3-2 3.6-2 29.2.3l25.8 2.2 7-3.2c6.2-2.8 13.3-8.4 12.1-9.3-1.4-1.1-10.1-4.7-11.5-4.7-.9 0-3.9 1.1-6.6 2.5-2.8 1.4-5.3 2.3-5.5 2.1-.3-.3 1.8-1.6 4.6-3 3.7-1.9 5.1-3.2 5.1-4.8 0-2-.3-2.1-8.7-1.5-4.9.3-9.9.9-11.3 1.3-1.4.4-2.2.4-1.8 0 .3-.4 2.8-1.3 5.5-2 4.7-1.3 4.8-1.3 4.6-5-.3-4.4 1.1-4 3.2 1 1.1 2.8 1.9 3.5 3.7 3.2 3.3-.4 3.3-4.3 0-10.3-1.9-3.6-3.6-5.3-5.9-6-3-1-5.4-2.5-4-2.5.4 0 2.5.7 4.7 1.6zm17 4.8c0 .6-.7.2-1.5-.8-.8-1.1-1.5-2.5-1.5-3 0-.6.7-.2 1.5.8.8 1.1 1.5 2.5 1.5 3zm5.8 13.1c3.6.7 4 1.6 1.5 3.6-3.1 2.7-8 .2-11-5.4l-1.4-2.8 3.8 1.9c2.1 1.1 5.3 2.3 7.1 2.7z"/>
    <path fill="currentColor" d="M80.096 105.428c-1.52-3.399-3.957-6.439-9.728-12.13-3.725-3.675-6.649-6.143-8.266-6.978-.508-.262-.78-.332-1.302-.332-1.672 0-2.87.773-3.129 2.018-.266 1.284.194 2.996 1.618 6.025.94 1.998 1.498 3.413 1.92 4.873.527 1.814.615 2.58.584 5.027l-.03 2.275-.418-1.843c-.56-2.47-1.06-3.94-1.94-5.711-1.626-3.274-4.101-6.482-7.228-9.369-2.614-2.414-4.604-3.295-7.44-3.295-1.781 0-4.42-.366-6.435-.894-.48-.125-1.659-.522-2.62-.88-3.48-1.301-4.178-1.432-4.944-.926-1.569 1.038-3.447 5.178-4.276 9.423-.127.654-.397 2.802-.6 4.773-.202 1.972-.385 3.602-.405 3.622-.02.02-.4-1.028-.843-2.33-1.006-2.952-1.562-4.238-2.335-5.4-1.376-2.068-2.826-2.776-4.125-2.015-.596.349-.99.842-1.398 1.751-.631 1.405-.823 2.772-.964 6.867l-.078 2.261-1.075-2.37c-1.141-2.518-1.699-4.04-1.968-5.37-.787-3.897-.394-8.264 1.073-11.917.635-1.581 1.266-2.662 2.567-4.397 1.388-1.851 1.993-2.797 2.575-4.026.712-1.502.867-2.18.853-3.722-.014-1.405-.082-1.71-.855-3.813-.565-1.535-.74-2.439-.742-3.825-.001-1 .046-1.346.283-2.074.624-1.914 2.059-3.382 4.52-4.625 1.331-.672 1.706-.722 5.372-.72 1.83.002 4.114.066 5.074.144 3.67.294 9.681.805 14.35 1.219 2.67.236 8.637.752 13.258 1.145 4.621.394 10.063.859 12.093 1.034l3.691.32 3.839-1.749c5.328-2.427 6.915-3.278 9.895-5.306 3.192-2.173 5.565-4.377 5.565-5.17 0-.106-.164-.319-.365-.472-.906-.691-6.373-3.072-9.292-4.047-1.37-.458-1.602-.505-2.237-.454-1.17.092-3.016.789-6.494 2.449-3.149 1.503-5.161 2.27-5.378 2.05-.204-.209 1.357-1.21 4.342-2.787 4.203-2.22 5.347-3.303 5.347-5.067 0-.849-.15-1.217-.594-1.46-1.213-.661-15.66.367-19.72 1.404-.975.249-1.55.279-1.485.077.126-.391 2.451-1.246 6.296-2.314 1.896-.527 2.841-.9 3.268-1.293.54-.498.596-.82.58-3.35-.014-2.521.07-3.083.472-3.141.131-.019.364.108.573.313.622.608 1.225 1.726 2.426 4.495.824 1.9 1.695 2.583 3.112 2.437 1.273-.13 1.972-.549 2.41-1.443.785-1.605.28-4.107-1.583-7.858-1.242-2.499-2.296-4.103-3.434-5.224-.99-.974-1.683-1.388-3.305-1.97-1.276-.457-3.342-1.454-3.802-1.835-.264-.218-.3-.298-.19-.41.111-.114.275-.104.873.054 1.155.306 4.102 1.441 5.163 1.989 3.352 1.731 5.27 4.566 7.52 11.112.667 1.943.766 2.173 1.504 3.5 1.588 2.856 3.965 5.972 5.766 7.56.798.704 1.867 1.278 2.782 1.493.956.226 3.55.223 4.651-.004 1.605-.332 2.698-1.12 3.296-2.379.38-.8.663-2.095.662-3.037 0-1.462-.607-1.885-4.825-3.368-2.862-1.007-4.663-1.734-6.087-2.457-1.512-.768-2.237-1.234-2.113-1.358.055-.055.452-.132.884-.172 1.505-.14 1.76-.525 1.908-2.877.055-.872.141-1.627.192-1.679.124-.126.602.549 1.69 2.386 1.127 1.9 1.716 2.689 2.675 3.576 2.177 2.016 4.205 2.066 5.072.126.396-.885 1.1-1.282 1.523-.859.474.475.731 2.315.73 5.234-.001 2.292-.113 3.708-.402 5.103-.19.916-.354 1.237-.855 1.678-.68.6-.473 1.071.706 1.611 1.276.584 2.959.933 9.542 1.975 1.978.314 4.077.763 4.624.99l.37.154-.051.792c-.041.637-.153 1.026-.573 1.99-1.09 2.501-1.735 4.105-2.481 6.165-1.22 3.362-1.966 4.692-3.578 6.369-1.713 1.781-3.921 3.237-7.805 5.143-1.26.619-3.15 1.502-4.201 1.963-4.739 2.078-5.523 2.433-7.475 3.379-4.405 2.135-6.481 3.667-7.28 5.371-.252.537-.347.96-.465 2.086-.244 2.319-.936 4.033-2.78 6.885-2.626 4.06-2.674 4.785-.527 7.928 1.873 2.743 2.625 5.017 3.033 9.18.127 1.293.216 2.365.197 2.383-.02.018-.378-.736-.798-1.675zM88.702 23.661c-.265-.086-.648-.411-1.057-.896-.42-.496-1.028-1.503-1.36-2.25-.193-.436-.283-.746-.274-.941.01-.192.065-.254.217-.243.182.013.432.184.784.535.344.343.501.54.814 1.017.673 1.028 1.173 2.11 1.17 2.529-.002.093-.04.197-.084.23-.046.034-.139.042-.21.02z"/>
</svg>
