<svg xmlns="http://www.w3.org/2000/svg" version="1.0" viewBox="0 0 128 128">
    <path d="M49.4 18.5c-.3.8-.3 1.8 0 2.4.4.5-.4 1.1-1.6 1.3-5.6.8-2.1 10.6 5.1 14.6l4.1 2.3-1.5 3.6c-.8 1.9-1.5 3.7-1.5 3.9 0 .2-1.5 1.1-3.2 2C38.6 54.7 31 65.1 31 75.6c0 6.7 3.1 16.6 7.2 22.9 1.8 2.7 3.7 6.3 4.3 7.9 1.5 4.2 3.7 5.3 7.7 3.8 2.2-.9 8-1.3 17.1-1.2 11.9.1 13.7-.1 13.7-1.5 0-.9-1.1-2.7-2.5-4.1-2.2-2.2-3.1-2.4-7.1-1.8l-4.5.6.6-2.8c2.3-10.4 3.8-13.9 7.3-17.1 4.1-3.8 9.4-5.6 16.7-5.7 4.7-.1 5-.3 5.3-2.8.4-3.3-3.1-5.9-7.4-5.7-1.6.2-3.8-.1-5-.4-1.9-.7-2-1.3-1.6-5.7.2-2.7-.1-6.3-.7-8-.9-2.7-.8-3.6.9-5.7 2.2-2.8 2.6-5.8 1-6.8-.6-.4-2-2.7-3.2-5.2-1.6-3.4-3.1-5-6.2-6.4-2.3-1-5.1-1.9-6.3-1.9-1.3 0-3-1.1-4-2.6-4-6.2-13.5-10.6-14.9-6.9zm12.5 8.6c2.2 2.7 4 3.8 6.9 4.2 4 .7 9.2 4 9.2 5.9 0 .5 1 2.3 2.1 4l2.2 3-2.3 3c-2 2.7-2.1 3.4-1 7.4.7 2.5 1 6.2.6 8.8-.6 4-.4 4.7 1.7 6 1.3.9 4.4 1.8 6.8 2 2.4.2 4.7.4 5.2.5.4.1.7.6.7 1.1 0 .6-1 .8-2.3.4-4.1-1-13.3 2.1-18.1 6-4.7 4-6.7 7.7-8.6 16.9-1.5 7.5-.4 9.1 5.6 8.4 2.3-.2 4.8 0 5.6.5.8.5-3.5.8-11.2.6-8.1-.1-13.3.2-14.7 1-3.2 1.8-4.2 1.5-4.9-1.4-.4-1.4-2.1-4.8-3.9-7.4-4.1-6.2-7.5-16-7.5-22 0-3.2 1-6.6 3.1-10.8 2.5-5.1 4.1-6.8 9.2-10.1 3.4-2.2 7.2-4.7 8.4-5.6 1.1-.8 2.9-3.6 3.9-6.1l1.8-4.7-2.8-2.1c-5.4-4-9.6-8.4-9.6-9.9 0-.8.9-1.7 2.1-2 1.1-.3 2.3-1.5 2.6-2.6.5-2 .6-2 3.4-.4 1.6 1 4.2 3.4 5.8 5.4z"/>
    <path fill="currentColor" d="M46.938 107.81c-.664-.2-.955-.665-1.549-2.477-.652-1.99-1.684-3.936-4.184-7.887-3.675-5.807-6.613-14.118-7.095-20.069-.279-3.444.452-6.627 2.571-11.204 1.584-3.42 2.93-5.518 4.594-7.167 1.274-1.261 2.362-2.1 4.806-3.703 6.012-3.944 8.633-5.74 9.16-6.277.75-.764 1.954-2.6 2.696-4.11.507-1.032 2.462-5.937 2.462-6.176 0-.044-1.044-.868-2.319-1.83-4.767-3.599-7.853-6.476-9.363-8.732-.85-1.27-.851-1.838-.01-2.643.37-.355.747-.577 1.353-.798 1.399-.509 2.358-1.541 2.758-2.967.38-1.356.624-1.423 2.216-.603 2.022 1.042 4.389 3.105 6.858 5.978 1.388 1.615 2.46 2.562 3.547 3.137 1.006.532 1.436.671 3.226 1.044.854.179 1.96.473 2.455.654 3.508 1.285 6.848 3.827 6.848 5.213 0 .57 1.41 3.058 2.857 5.043.5.687 1.024 1.41 1.164 1.606l.253.357-1.544 2.044c-.849 1.124-1.724 2.41-1.946 2.857-.393.795-.402.843-.395 2.02.007 1.025.07 1.439.42 2.786.623 2.39.836 3.829.904 6.111.052 1.711.023 2.3-.184 3.867-.396 2.986-.243 3.91.8 4.822.993.868 2.21 1.461 4.141 2.019 1.602.462 2.567.612 5.85.91 2.097.192 3.065.322 3.24.437.268.175.509.838.405 1.11-.147.383-1.055.467-2.161.2-.864-.208-2.996-.205-4.31.007-4.797.772-10.889 3.44-14.081 6.166-2.589 2.21-4.377 4.554-5.674 7.435-1.725 3.832-3.566 11.917-3.322 14.592.142 1.563.58 2.337 1.606 2.842.906.446 1.979.524 4.538.33 2.137-.162 4.21-.049 5.174.282.883.303.696.426-.944.622-.78.094-3.136.124-8.086.103-9.23-.04-13.645.159-15.55.7-.33.093-.85.313-1.157.487-1.161.66-2.461 1.03-3.028.861z"/>
</svg>
