<svg xmlns="http://www.w3.org/2000/svg" version="1.0" viewBox="0 0 128 128">
    <path d="M21.5 20.5c-.3.8-.7 2.2-1 3.1-.3 1-1.1 1.3-2.5.9-2.8-.9-2.6 1.9.4 6.4 1.3 2 2.9 6.5 3.6 10 1.4 7.6 4.5 15.1 9.5 22.6 5.4 8 7.6 14.7 7.7 22.7 0 6.2-.2 7.2-2.6 9.7-1.4 1.5-2.6 3-2.6 3.5 0 .4 2.3.6 5.2.4l5.2-.3 1.7-5.5c.9-3 2.2-9.2 2.9-13.8l1.2-8.2h12.7l2.1 4.7c1.2 2.7 3.2 5.9 4.4 7.3 5.5 5.9 6.2 12.4 1.9 16.4-1.5 1.4-2.5 2.7-2.3 2.9.3.2 2.3.7 4.6 1l4 .7 2.7-5.5c2.9-5.9 3.3-8.9 1.7-12.9-.5-1.4-.6-2.6-.2-2.6 1.4 0 3 3.7 3.7 8.8.4 3.2 1.2 5.2 2 5.2 2.6 0 2.5 4.3-.1 7.1-3.1 3.3-2.1 4.1 4 3.3 4.3-.6 4.6-.9 5.2-4.3.5-2.2.1-6-1-10.1-1.5-6.2-2.2-18-1-18 .3 0 1.7.9 3.1 2 3.1 2.4 10 2.7 12.9.6 1.9-1.4 1.9-1.5-.1-2.1-6.4-2-10.6-6.4-18.1-19.3-2.2-3.7-4.9-6.9-6.6-7.8-1.6-.8-8.7-2.8-15.7-4.5-7.1-1.6-14.8-3.6-17.1-4.4-2.3-.8-5.2-1.5-6.4-1.5-3.4 0-4.9-2-3-4.1 2-2.2 1-3.9-2.3-3.9-2.8 0-6.7-2.7-12.2-8.3-3.8-3.9-6.8-4.8-7.6-2.2zm13.3 11.2c1.6 1.3 3.5 2.3 4.1 2.3.6 0 .8.7.4 1.6-.8 2 3.5 6.4 6.2 6.4 1.3 0 4.2.7 6.6 1.5 2.4.9 9.3 2.7 15.4 4 17.6 4 18.3 4.4 23.5 13.1 2.5 4.2 6.2 9.6 8.3 12 4.1 4.6 3.8 5.8-.6 2.4-2.9-2.3-5-2.5-6.5-.8-1.4 1.8-.9 16.1.8 23 .9 3.7 1.1 6.1.5 6.7-.7.6-1-.3-1.1-2.4 0-1.9-.8-4.3-1.8-5.4-1-1.1-2-3.8-2.3-6-.6-4.6-4.2-9.1-7.2-9.1-2.9 0-3.4 1.5-2 6.8 1 4.1.9 5.2-.4 7.7l-1.6 3-.1-4.3c0-4.7-1.7-8.7-4.8-11.5-1-1-2.7-3.7-3.7-6-3.2-7.2-4-7.7-12-7.7-4.6 0-7.6.5-8.3 1.2-.5.7-1.5 4.7-2.1 8.8-1.5 9.8-3.9 18-5.3 18-.7 0-.6-.5.2-1.5.8-.9 1.2-4.5 1.2-9.3 0-8.8-2.1-15.3-7.5-23.5-5.6-8.4-7.7-13.3-9.6-22.1-1-4.5-2.4-9.1-3.2-10.3-1.1-1.9-1.1-2.4.4-4.1.9-1 1.7-2.4 1.7-3.1 0-.6 1.7.5 3.9 2.6 2.1 2.1 5.2 4.8 6.9 6z"/>
    <path fill="currentColor" d="M92.746 103.61c-.088-.21-.212-1.033-.275-1.827-.063-.795-.184-1.776-.27-2.181-.215-1.03-.737-2.33-1.194-2.975-1.596-2.251-2.137-3.579-2.67-6.556-.128-.715-.376-1.729-.55-2.252-.981-2.928-2.957-5.432-5.08-6.438-.693-.328-.844-.358-1.793-.354-.851.003-1.118.046-1.491.243-.577.303-.874.721-1.03 1.449-.217 1.01-.052 2.077 1.016 6.597.17.721.235 1.36.241 2.401.011 1.75-.087 2.06-1.499 4.735l-1.002 1.899-.08-2.934c-.089-3.285-.292-4.843-.848-6.5-.764-2.284-1.706-3.83-3.46-5.687-1.442-1.525-2.633-3.312-3.765-5.644l-1.56-3.22c-1.56-3.22-2.736-4.409-4.92-4.967-1.126-.288-2.989-.432-5.609-.432-4.875 0-8.095.471-8.73 1.278-.511.65-1.356 4.116-2.069 8.486-1.095 6.717-2.147 11.38-3.336 14.784-.916 2.625-1.566 3.618-2.208 3.375-.236-.09-.241-.112-.095-.462.085-.203.308-.58.495-.84.72-.994 1.059-2.932 1.203-6.9.296-8.085-.799-13.631-3.934-19.941-1.067-2.146-2.156-4.001-4.13-7.035-4.652-7.15-6.725-11.739-8.334-18.445-2.163-9.02-2.624-10.568-3.91-13.117-.984-1.95-.957-2.16.51-3.98.847-1.051 1.504-2.173 1.635-2.79.103-.491.32-.46 1.276.184.78.526 1.705 1.338 4.511 3.961 2.201 2.058 4.852 4.212 6.464 5.256.964.623 2.287 1.265 2.609 1.265.569 0 .716.548.42 1.568-.141.483-.144.645-.018 1.127.206.798.763 1.673 1.7 2.675 1.53 1.634 2.982 2.454 4.63 2.613 1.88.182 3.535.574 6.673 1.581 3.708 1.19 8.07 2.325 14.44 3.757 13.859 3.114 16.934 4.179 19.645 6.8 1.372 1.328 2.342 2.683 4.654 6.505 3.12 5.156 6.215 9.573 8.833 12.603 1.548 1.793 2.515 3.318 2.263 3.57-.255.255-1.665-.544-3.676-2.084-1.04-.796-2.38-1.476-3.25-1.65-1.392-.277-2.795.412-3.236 1.59-.415 1.108-.498 2.27-.493 6.868.007 6.474.465 11.04 1.616 16.095.932 4.1.95 6.33.048 6.33-.133 0-.264-.137-.367-.384z"/>
</svg>
