<svg xmlns="http://www.w3.org/2000/svg" version="1.0" viewBox="0 0 128 128">
    <path d="M44.5 42.5c-9.7 2.1-26.6 9.5-29.4 12.9C13.7 57 12.3 72 13.5 72c.8 0 8.8-6.5 12.5-10.2 3.3-3.3 6.9-4.8 11.6-4.8 2.7 0 4.1.8 6.6 3.5 3.6 4.1 9.5 7.9 16.2 10.1 5.3 1.8 5.2 1.6 6 7 .7 3.7.5 4.2-1.4 4.7-1.7.4-2 1-1.5 2.9 1 3.1.8 3.1 4.9 1.2 2.4-1.2 3.6-2.4 3.6-3.8 0-3.9 2.1-9.6 4.2-11.5 1.1-1.1 4.3-2.2 7.2-2.6 2.8-.4 7-1.3 9.4-2.1 2.3-.8 7.1-1.4 10.5-1.4 3.4-.1 7.5-.7 9.2-1.4l3-1.2-3.2-1.1c-1.7-.6-3.4-2-3.8-3.2-.4-1.3-2.4-2.5-5.8-3.6-2.9-1-8.8-3.7-13.3-6-4.4-2.4-10.5-5-13.4-5.9-6.6-2-22.9-2-31.5-.1zM75 45.6c2.9.9 9 3.5 13.4 5.9 4.5 2.4 10 4.9 12.4 5.6 2.4.7 4.8 2.1 5.3 3.1.9 1.6.5 1.8-4.5 1.8-3 0-6.7.5-8.3 1.1-1.5.6-5.6 1.5-9.1 2-9.9 1.4-12.6 3.9-13.7 12.5-1 7.6-2.8 8.1-2.2.7.5-7.2-.2-8.3-7.3-10.8-6.8-2.4-12.6-6.2-15.6-10-2.4-3.1-3.1-3.5-7.5-3.5-6.4 0-9.2 1.2-15.2 6.6-4.1 3.7-5.2 4.2-5.9 3-1.9-3.4.3-6.6 6.6-9.8 8.5-4.3 17.8-7.7 23.9-8.7 8.8-1.5 21.9-1.2 27.7.5z"/>
    <path fill="currentColor" d="M68.6 83.445c-.308-.372-.376-1.322-.278-3.895.25-6.564.077-7.629-1.49-9.18-.6-.596-.967-.839-2.08-1.383-.744-.363-2.187-.962-3.207-1.332-5.285-1.913-9.132-3.958-12.49-6.638-1.537-1.228-2.532-2.212-3.772-3.728-2.477-3.029-3.032-3.274-7.422-3.274-4.816 0-7.221.627-10.362 2.699-1.293.853-2.318 1.673-4.693 3.753-2.4 2.103-3.322 2.846-4.05 3.265-1.156.666-1.595.535-2.152-.641-.316-.667-.345-.82-.345-1.825 0-1.056.016-1.129.428-1.964.953-1.93 3.278-3.72 7.702-5.93 7.467-3.727 15.876-6.83 21.626-7.98 3.992-.797 8.754-1.196 14.298-1.197 6.103-.001 11.274.502 14.568 1.416 2.293.637 7.715 2.966 11.87 5.1 6.738 3.457 10.537 5.206 13.696 6.303 2.725.947 4.006 1.588 5.002 2.504.491.452 1 1.313 1 1.693 0 .54-1.325.754-4.747.768-3.634.015-6.1.373-9.221 1.34-1.79.553-4.285 1.085-7.802 1.662-3.658.6-5.171.927-6.644 1.438-3.03 1.052-4.843 2.542-5.955 4.892-.786 1.662-1.139 3.04-1.643 6.425-.491 3.3-1.032 5.287-1.559 5.724-.122.102-.183.098-.277-.015z"/>
    <path fill="currentColor" d="M68.51 83.302c-.218-.333-.246-1.642-.152-7.19.045-2.7-.048-3.454-.552-4.449-.832-1.64-2.1-2.433-6.589-4.117-3.628-1.361-6.114-2.525-8.511-3.982-3.26-1.982-5.204-3.634-7.553-6.42-1.568-1.86-2.314-2.47-3.454-2.83-.733-.23-.963-.244-3.943-.24-3.58.004-4.486.113-6.518.781-2.495.822-4.825 2.41-9.086 6.196-2.322 2.062-3.83 3.109-4.487 3.112-.377.001-.75-.38-1.088-1.112-.284-.615-.318-.804-.318-1.785 0-1.056.016-1.129.428-1.964.925-1.875 3.261-3.704 7.374-5.775 8.22-4.138 17.219-7.373 23.352-8.396 3.755-.626 6.32-.827 11.517-.904 5.606-.082 9.432.148 13.285.798 2.095.354 3.516.786 6.37 1.936 3.111 1.254 5.465 2.356 11.277 5.28 5.263 2.648 7.986 3.866 10.91 4.882 3.197 1.11 4.763 2.084 5.42 3.367.328.642.3.951-.105 1.145-.428.204-2.01.34-4.015.343-3.854.007-6.282.362-9.939 1.455-1.585.474-4.23 1.024-7.717 1.608-1.824.305-3.965.718-4.757.917-3.802.958-6.067 2.488-7.359 4.971-.907 1.745-1.247 2.976-1.809 6.558-.57 3.638-1.056 5.462-1.582 5.938-.188.17-.212.163-.4-.123z"/>
</svg>
