<svg xmlns="http://www.w3.org/2000/svg" version="1.0" viewBox="0 0 128 128">
    <path d="M84.8 44.5c-4 2.2-7.1 8-7.1 13.2v4.5l-6.3-.7c-5.3-.5-7.9-.2-17.1 2.5-5.9 1.7-14.3 4.4-18.5 6-4.3 1.7-8.9 3-10.3 3-3.3 0-3.2 1.6.2 2.5 2.6.6 2.7.8 1 2-1 .7-5 2.1-8.8 3-4.6 1.2-6.9 2.2-6.9 3.2 0 .9.6 1.2 1.8.9 6.7-2.2 21.3-4.7 29.8-5.3 8.1-.5 11-.2 15.3 1.2 5.6 1.8 8.3 1.7 19.6-.8 5.4-1.2 6.7-1.2 13.5.6 4.5 1.2 11.1 2 16.5 2.1 10.3.1 13.5-1.7 3.8-2.2-5.6-.3-6.2-.5-6.7-2.8-.4-1.4-2.7-4.7-5.1-7.3-6.8-7.2-6.6-7.4 5.5-7.5 6.2-.1 7.5-.4 7.8-1.8.2-1.2-1.1-2.3-4.8-3.9-4-1.7-5.5-3.1-7.2-6.3-3.2-6.4-4.6-7.6-9.2-7.6-2.3.1-5.3.7-6.8 1.5zM97.5 51c1.5 2.9 4 5.9 5.8 7l3.2 2-4.7-.6c-9.4-1.3-12.7 4.4-6.2 10.7 2 1.8 4.2 4.6 5 6.1 1.3 2.6 1.3 2.8-.3 2.8-1 0-5.2-.9-9.3-2.1l-7.5-2.1-9.3 2.3c-9.1 2.2-9.3 2.2-15.2.4-4.7-1.4-8.1-1.7-17-1.3-6 .3-11 .2-11-.2 0-.8 14.7-6.7 20-7.9 1.9-.5 6.2-1.6 9.5-2.5 4.1-1.1 7.8-1.4 11.7-1 7.2.8 8.6-.2 8.6-6-.2-7.5 4.1-12.4 10.9-12.5 2.9-.1 3.5.4 5.8 4.9z"/>
    <path fill="currentColor" d="M99.246 78.842c-2.283-.37-4.507-.929-11.28-2.828l-4.46-1.25-5.252 1.295c-9.59 2.367-10.99 2.652-13.054 2.66-1.634.008-2.3-.12-5.645-1.086-2.536-.732-4.428-1.155-6.085-1.36-1.66-.206-5.237-.29-8.367-.198l-6.264.186c-3.317.1-7.306.007-7.636-.178-.157-.088-.14-.132.131-.348 1.29-1.024 11.273-5.068 16.57-6.712 1.336-.415 5.712-1.585 12.5-3.342 4.417-1.144 7.745-1.428 11.954-1.022 2.303.222 4.698.219 5.555-.007.727-.191 1.404-.553 1.765-.942.742-.8 1.127-2.42 1.127-4.74 0-3.538.623-6.11 1.988-8.2 1.422-2.179 3.523-3.646 6.166-4.309.8-.2 1.273-.24 2.867-.244 1.75-.004 1.946.016 2.346.23.971.522 1.494 1.21 2.91 3.835 2.395 4.44 4.175 6.486 7.377 8.48.964.6 1.739 1.105 1.722 1.122-.017.017-1.204-.116-2.637-.295-3.485-.436-4.267-.485-5.553-.348-1.383.147-2.194.358-3.198.832-1.922.906-2.888 2.672-2.532 4.629.33 1.82 1.31 3.373 3.572 5.664 2.619 2.654 4.232 4.744 5.11 6.62.549 1.173.662 1.609.46 1.776-.244.203-1.186.238-2.157.08z"/>
</svg>
