<svg xmlns="http://www.w3.org/2000/svg" version="1.0" viewBox="0 0 128 128">
    <path d="m28.5 13-1.7 3.3-1.8-2.4-1.9-2.4-1 2.8c-.6 1.6-1.1 4.6-1.1 6.8 0 2.6-.5 4.1-1.5 4.4-5.1 1.6-5.1 1.4-.8 5.4 3.6 3.2 4.3 4.6 4.9 9 .7 5.7 4 10.6 8 12.2 2.8 1 4.6 5.1 8.3 18.9 2.9 10.7 4.7 15.1 8.4 20.3 1.7 2.4 1.9 3.9 1.4 9.2-.3 3.5-1.3 8-2.2 10.1-.8 2-1.4 3.8-1.3 4 .2.1 2.4-.2 4.9-.7l4.5-1 1.3-12.1c.8-6.9 1.7-11.5 2.1-10.7 1.7 3 2.2 12 1 17-.7 2.7-1 5.2-.8 5.4.2.2 2.3-.1 4.6-.7l4.2-1v-8.1c0-7.5.2-8.3 2.6-10.2 2.8-2.2 4.3-7.4 4.4-14.7 0-4.2.3-4.8 2.4-5.4 1.3-.3 3.6-.4 5.1-.2 2.5.3 2.9 1 4.9 7.8 2.1 7.6 2.1 9.2.1 23.7-.7 4.7-.6 5.1 1.1 4.8 7.4-1.5 7.3-1.4 7.9-5.3 1.4-9 6.6-36 7.6-39.5.8-2.8 1.4-3.7 2.6-3.3.8.3 2.6.9 3.9 1.2l2.5.6-2.1-3.5c-1.2-2-2.3-6.2-2.7-10.1-.7-7.9-2.5-10.7-9.1-14-5.7-2.9-11.7-3.9-15.7-2.8-2.2.7-4.3.4-7.6-.9-9.3-3.6-24.7-6.2-32.3-5.5l-7.2.6.4-3.5c.3-2.8.1-3.4-1.1-3-1 .5-1.6-.3-2.1-2.8-.3-1.8-1.2-4.2-2-5.2-1.3-1.8-1.5-1.7-3.1 1.5zm4 9c.7.8 1.5 2.6 1.7 4 .3 2.5.4 2.5 10.8 2.6 10.4 0 23 2.4 30.8 5.7 2.3 1 4.7 1.2 7.5.6 5.5-1 9.4-.2 15.3 3 5.1 2.8 5.2 3 7.1 13.8.8 4.2.7 5.3-.4 5.3-.7 0-1.9 1-2.7 2.3-1.5 2.2-8.6 35.8-8.6 40.7 0 2.9-1.6 5.8-2.6 4.8-.3-.4-.2-4.6.3-9.4.8-7.6.7-9.6-1.2-15.9C87.8 70 86.9 69 81.1 69c-6.5 0-9.1 2-9.1 7.3-.1 7.6-1.6 12.6-4.4 14.8-2.4 1.9-2.6 2.6-2.6 10 0 5-.4 7.9-1.1 7.9-.7 0-.8-1.1-.4-3 1-4.7-.5-15.8-2.6-18.3-3.1-3.8-5.2-1.3-6.5 7.9-1.1 7.7-1.2 7.7-1.3 2.6-.1-3.5-.8-6.3-2-8-3.2-4.6-5.8-10.5-7.1-16.2-3.5-15-8.1-25-11.6-25-2.3 0-5.1-4.9-5.8-9.9-.4-3.2-1.6-6.1-3.2-8.1-2.1-2.4-2.3-3-.9-3s1.5-.8.9-5.6c-.5-4.1-.4-5.5.5-5 .6.4 1.1 2.2 1.1 4 0 4.1 2.5 7.8 3.9 5.7.5-.8.7-2.9.4-4.7-.3-1.8-.2-4.6.3-6.1l.8-2.8.4 3.5c.2 1.9 1 4.2 1.7 5zM53 108.5c0 1.4-.4 2.5-.9 2.5-.4 0-.6-1.1-.3-2.5.2-1.4.6-2.5.8-2.5.2 0 .4 1.1.4 2.5z"/>
    <path fill="currentColor" d="M63.458 108.693c-.18-.336-.132-1.517.119-2.916.557-3.12.165-9.1-.888-13.514-.666-2.793-1.2-3.993-2.266-5.098-1.887-1.955-3.322-1.492-4.474 1.442-.669 1.702-1.093 3.7-1.83 8.62-.597 3.981-.7 4.508-.82 4.202-.048-.12-.09-.71-.096-1.31-.043-4.967-.686-7.865-2.266-10.212a51.497 51.497 0 0 1-2.91-4.98c-1.849-3.694-2.977-6.872-4.228-11.914-1.15-4.633-1.752-6.747-2.925-10.268-1.184-3.557-1.824-5.163-3.065-7.693-1.986-4.05-3.632-5.893-5.438-6.093-.733-.081-1.335-.43-2.058-1.194-1.576-1.667-2.959-4.754-3.526-7.873a3640.4 3640.4 0 0 0-.39-2.136c-.092-.51-.358-1.498-.589-2.195-.688-2.077-1.497-3.52-2.927-5.225-1.346-1.604-1.52-2.2-.664-2.265.889-.068 1.09-.145 1.304-.496.298-.49.28-2.023-.06-4.987-.281-2.455-.352-4.668-.16-5.027.062-.116.201-.21.309-.21.653 0 1.189 1.538 1.329 3.819.108 1.766.218 2.453.557 3.492.788 2.407 2.143 3.612 3.13 2.78.638-.536.991-2.468.779-4.254-.199-1.666-.251-4.082-.111-5.135.125-.945.976-4.242 1.07-4.147.026.025.142.872.258 1.882.352 3.058.848 4.712 1.872 6.241.973 1.452 1.546 2.946 1.765 4.6.088.663.385 1.12.879 1.354.866.41 1.914.495 7.474.602 2.97.057 5.893.133 6.493.169 9.37.558 18.872 2.499 26.013 5.314 2.348.926 2.955 1.072 4.76 1.143 1.253.05 1.762.02 2.836-.167 2.298-.4 2.912-.463 4.529-.467 1.877-.005 3 .13 4.683.566 2.11.546 5.042 1.836 7.816 3.437 3.267 1.886 3.98 3.054 5.001 8.184.586 2.94 1.25 6.741 1.376 7.877.167 1.494-.092 2.32-.728 2.32-.684 0-1.964.999-2.643 2.062-.575.898-1.18 2.875-2.36 7.705-2.893 11.838-6.18 28.868-6.431 33.317-.118 2.08-.721 3.877-1.544 4.6-.454.399-.792.4-.992.003-.276-.548-.147-4.453.297-9.003.391-4.01.442-4.79.443-6.82.001-3.073-.241-4.495-1.546-9.057-2.28-7.972-3.376-9.862-6.11-10.532-.991-.244-3.996-.333-5.606-.167-3.96.408-5.892 1.754-6.663 4.643-.114.428-.21 1.504-.276 3.11-.224 5.396-.89 8.88-2.177 11.392-.636 1.241-1.03 1.732-2.48 3.09-1.723 1.611-1.98 2.144-2.211 4.56-.057.6-.106 2.367-.109 3.928-.007 4.655-.274 7.941-.715 8.794-.195.377-.634.434-.81.106zM51.984 110.957c-.07-.049-.095-.08-.151-.188a1.638 1.638 0 0 1-.14-.477 3.267 3.267 0 0 1-.023-.536c0-.407.017-.61.082-.975a68.7 68.7 0 0 0 .088-.508c.15-.892.355-1.63.567-2.044.109-.21.198-.27.265-.176.156.219.275.97.315 1.985.04 1.037-.079 1.887-.342 2.443-.157.33-.326.495-.526.507-.07.004-.089 0-.135-.031z"/>
</svg>
