<svg xmlns="http://www.w3.org/2000/svg" version="1.0" viewBox="0 0 128 128">
    <path d="M92.7 12.7c-1 .9-.9 5.1.2 5.7 1.3.9 2.2 8.5 1.2 10.4-.7 1.2-.9.7-.8-2 .2-6.5-4.3-9.2-6.2-3.7-.6 1.7-1.4 2.9-1.8 2.7-.5-.2-2.5-1.2-4.6-2.3-3.4-1.7-3.9-1.7-5.3-.3-1.8 1.8-1.7 1.9 6 7.1 5.9 4 7.3 6.4 3 5.2-5.1-1.5-8.8-1.2-9.2.7-.2 1.3 1.2 2.5 5.5 4.4 4.3 2 5.3 2.8 3.8 3.1-1.1.3-2.4.8-2.8 1.3-1.4 1.2 2.1 6.9 5.4 8.9l3.1 1.9-6.6 3.2c-3.7 1.8-7.9 3.3-9.4 3.3-1.5.1-12.7-.8-24.9-1.8-21.1-1.8-22.4-1.8-25.8-.2-4.5 2.1-7.3 7.8-5.6 11.4 1.7 3.8 1.3 6.5-1.9 11.3-2.6 3.9-3 5.4-3 11.5 0 5.6.5 8 2.5 11.7 1.4 2.6 2.5 5.4 2.5 6.3 0 1 1 1.5 3.1 1.5 2.8 0 3.1-.2 2.4-2.3-.4-1.2-.9-4.7-1.1-7.7l-.4-5.5 1.4 3.6c3.6 9.2 5.5 11.9 8.5 11.9h2.9l-2-5.8c-2.8-8-1.7-14.8 3.5-21.5 1.3-1.6 1.7-1.6 4.3-.2 1.6.8 3.9 1.5 5.1 1.5 1.5 0 3.1 1.2 4.7 3.8 4.3 6.9 7.5 14 8.2 18.2.6 3.7.9 4.1 3.3 3.8 2.6-.3 2.6-.4 2.5-7.8 0-5.4-.6-8.8-2.2-12.3-1.1-2.6-1.7-4.7-1.1-4.7.5 0 .9.4.9 1 0 .5 2.7 4 6 7.7 4 4.4 6.5 8.4 7.4 11.3 1 3.6 1.8 4.6 3.8 4.8 1.9.2 2.7-.2 3.2-2 1-4 .7-6.3-1.9-11.4-3-6-3.2-10.4-.5-12.9 1.1-1 3.3-4.1 4.9-7 3.4-6 9.4-10.8 20-15.9 10-4.8 12.4-8.4 8.2-12.3-1.9-1.8-1.9-1.9.1-6.6 1.7-3.9 1.8-5 .8-6.2-.7-.9-2-1.3-2.8-1-1.1.4-1.3-.1-.7-2.2 1.7-6.9 1.7-8.9 0-10.3-1.5-1.3-2-1.2-3.6.9-1.1 1.3-1.9 3.2-1.9 4.2s-.9 2.3-2 2.9c-2.5 1.3-2.5 3.8 0 7 1.1 1.4 2 3.2 1.9 4 0 2.4-2.6 5.2-4.6 4.8-2.5-.4-2.9-6.6-.9-13.8 2.8-10.6 3-15.6.7-19.4-2.5-4-5.7-5.7-7.4-3.9zm4.9 6.9c1.9 4.4 1.7 7.7-.5 14.9-2.1 6.7-2.2 14.5-.2 16.9 1.9 2.3 6.8 2.1 7.6-.3.3-1.1 1.2-2.2 2-2.5 2.2-.8 1.8-3.7-1.1-7.9-1.4-2.1-2.4-3.9-2.2-4 3.2-1.7 4.4-2.7 4.6-4.3.5-3 1.2-4.7 1.7-4.2.3.2-.2 2.8-1.1 5.7-1.9 6.4-1.3 8.5 2.1 7.9l2.4-.5-1.9 3.8c-1.1 2.1-2.4 4-3 4.4-1.9 1.2-1.1 4.3 1.3 4.7 4.4.6 2.1 3.3-6.8 8.1C90.8 68.6 85.6 73 81.9 79.5c-1.6 2.9-3.8 6-4.9 7-2.8 2.6-2.6 8.8.5 14.9 1.4 2.7 2.5 5.9 2.5 7-.1 1.5-.7.8-2.2-2.2-1.2-2.4-4.2-6.7-6.7-9.5-2.6-2.9-5.5-6.4-6.4-8-1.9-3-4.8-3.5-6.7-1.2-1 1.2-.8 2.4.9 6.5 1.2 2.7 2.4 7.1 2.7 9.7l.5 4.8-1.4-3.6c-2-5.4-8.3-16.2-10.4-18-1-.9-2.9-1.9-4.3-2.2-1.4-.3-4-1.1-5.8-1.8-3.3-1.4-3.4-1.3-6.2 2.1-3.4 4.1-6 10.8-6.1 15.9l-.1 3.6-1.2-3.4c-1.6-4.5-3.9-6-6.1-4.1-1.7 1.4-1.7 3.1 0 12 .7 3.3.6 3.2-1.9-1.5-2.1-4-2.6-6.4-2.6-12.1 0-6.4.3-7.5 3.1-11.4 3-4.1 3.1-4.6 2.5-11-1.2-11.5.1-11.9 28.2-9.4 11.4 1 22.3 1.8 24.2 1.8 4 0 16.8-6 18.4-8.6.9-1.4.6-2.1-1.4-3.5-1.3-.9-3.3-2.6-4.4-3.7-2.6-2.6-.5-3.4 3-1.2 2.3 1.6 2.5 1.5 3.1 0 .8-2.1-4.1-6.3-11.2-9.8l-5-2.5 4 .6c2.2.3 5.6 1.6 7.6 2.9 4.5 3.1 5.3 3 4.4-.4-.8-3.4-3.7-6.5-10-10.8-5.6-3.8-5.3-4.5.5-1.3 4.7 2.6 7.4 2 6.8-1.6-.3-1.4-.1-2.5.5-2.5s.8 1.9.4 4.9c-.4 3.6-.2 5.3.8 6.1 5.3 4.4 8.3-9.7 3.6-17-1.1-1.7-1.2-2.2-.2-1.6.7.5 1.9 2.3 2.7 4.2zm-66.2 92.3c-.6.6-2.4-1.9-2.4-3.4.1-.6.7-.1 1.5.9.8 1.1 1.2 2.2.9 2.5z"/>
    <path fill="currentColor" d="M20.338 110.595c-.675-1.117-2.136-3.897-2.587-4.921-1.339-3.044-1.665-5.097-1.664-10.465.001-6.537.17-7.107 3.536-11.894 1.288-1.833 1.852-2.884 2.09-3.897.234-.99.208-3.281-.07-6.184-.302-3.143-.326-5.9-.06-6.876.522-1.916 1.6-2.883 3.849-3.454 2.903-.736 8.29-.645 19.744.335 17.974 1.538 25.594 2.118 28.279 2.152.826.011 1.672-.04 2.057-.125 5.173-1.135 15.105-6.025 16.768-8.254.447-.6.677-1.277.59-1.74-.101-.54-.563-1.025-2.033-2.135-1.75-1.321-2.494-1.949-3.742-3.156-1.59-1.538-1.954-2.331-1.251-2.724.623-.348 2.367.287 4.422 1.61 1.497.965 1.829.958 2.288-.044.21-.46.267-.73.228-1.078-.204-1.808-3.04-4.464-7.801-7.305-.675-.403-2.762-1.514-4.638-2.47-1.877-.955-3.374-1.738-3.327-1.74.288-.007 3.993.59 4.716.76 2.313.546 4.825 1.656 7.113 3.142 3.188 2.072 3.963 2.225 3.963.784 0-.344-.125-1.107-.278-1.696-.52-2.001-1.54-3.653-3.457-5.598-1.704-1.729-3.073-2.809-7.58-5.985-1.803-1.27-3.09-2.35-2.96-2.484.138-.142 1.221.3 3.036 1.239 3.721 1.926 4.446 2.207 5.892 2.279.823.041.983.017 1.416-.216a1.61 1.61 0 0 0 .734-.745c.28-.552.308-.945.203-2.776-.08-1.382.012-1.813.398-1.888.606-.116.785 1.692.468 4.716a26.557 26.557 0 0 0-.147 3.304c.038 1.38.067 1.561.343 2.124.656 1.342 2.35 2.023 3.53 1.421 2.386-1.217 3.658-6.726 2.764-11.968-.387-2.27-1.041-4.051-2.132-5.8-.513-.825-.858-1.555-.773-1.64.028-.028.19.022.36.112 1.402.735 3.509 4.838 4.036 7.859.133.764.16 1.429.115 2.852-.073 2.288-.365 3.784-1.533 7.856-1.394 4.864-1.751 7.098-1.75 10.967 0 2.24.03 2.706.242 3.685.429 1.98.904 2.872 1.894 3.551 1.533 1.051 3.981 1.25 5.557.451.49-.248 1.298-1.054 1.298-1.296 0-.247.655-1.445 1.001-1.831.2-.223.707-.597 1.127-.83.99-.551 1.3-1.05 1.298-2.092-.003-1.458-.663-2.977-2.61-6.004-.675-1.051-1.43-2.303-1.679-2.783-.526-1.017-.657-.805 1.15-1.87 1.414-.832 2.222-1.502 2.612-2.167.166-.285.38-.973.536-1.722.548-2.644.984-3.788 1.444-3.788.147 0 .163.129.111.9-.059.874-.455 2.555-1.37 5.811-.721 2.564-.961 4.592-.669 5.644.145.52.597 1.056 1.05 1.246.52.217 1.556.175 2.983-.12.69-.142 1.271-.242 1.291-.222.02.02-.51 1.119-1.18 2.442-1.448 2.863-2.689 4.797-3.557 5.543-1.007.866-1.3 1.708-.98 2.812.204.7.82 1.457 1.416 1.74.2.095.715.247 1.144.337 2.07.435 2.338 1.166.968 2.63-1.175 1.257-3.46 2.79-7.395 4.96-6.83 3.77-10.163 5.864-13.228 8.317-3.675 2.94-5.93 5.568-8.275 9.644-1.523 2.648-3.207 5.042-4.63 6.588-.92.997-1.428 1.904-1.772 3.164-.155.565-.193 1.12-.188 2.728.005 1.814.036 2.152.31 3.328.45 1.933.966 3.38 1.943 5.456 2.086 4.435 2.957 7.21 2.483 7.912-.188.278-.744-.483-1.803-2.472-1.965-3.689-4.076-6.627-8.034-11.183-2.465-2.837-3.81-4.522-4.866-6.096-1.068-1.592-1.827-2.365-2.785-2.835-.937-.461-1.999-.514-2.828-.14-1.139.512-2.155 1.841-2.157 2.82-.002.748.382 2.01 1.402 4.605 1.833 4.669 2.547 7.425 2.959 11.435.123 1.196.25 2.37.281 2.61.033.25-.366-.638-.932-2.072-1.414-3.585-3.353-7.492-5.767-11.622-1.7-2.908-3.673-5.836-4.587-6.803-.92-.974-2.987-2.148-4.448-2.526-2.729-.706-4.134-1.162-7.438-2.414-.839-.318-1.627-.337-2.186-.052-.729.372-2.778 2.703-4.006 4.555-2.146 3.24-3.767 7.294-4.465 11.168-.092.51-.217 1.96-.279 3.22-.061 1.26-.123 2.438-.137 2.619-.018.234-.223-.232-.721-1.637-1.23-3.47-2.18-5.004-3.56-5.755-.593-.322-1.58-.325-2.182-.006-1.721.911-2.268 2.272-2.022 5.027.13 1.456.63 4.557 1.204 7.483.186.951.324 1.86.306 2.019-.03.262-.07.23-.43-.366z"/>
    <path fill="currentColor" d="M31.066 111.973c-.184-.048-.373-.178-.614-.42-.677-.677-1.294-1.854-1.421-2.71-.03-.194-.035-.325-.017-.396.04-.16.13-.228.262-.195.156.04.357.189.628.466.21.216.526.586.66.775.693.977 1.07 1.968.887 2.33-.068.134-.22.194-.385.15z"/>
</svg>
