<svg xmlns="http://www.w3.org/2000/svg" version="1.0" viewBox="0 0 128 128">
    <path d="M68.4 14.4c-.9 2.3.9 4.1 5.4 5.4 4 1.2 8 4.7 6.9 5.9-.4.3-1.8.1-3.2-.5-3.9-1.8-5.4-1.5-6.1 1.2-.5 2.2-.7 2.3-3.4 1-7.1-3.6-22.6-4.3-25.7-1.1-2.8 2.7-.5 3.7 8.6 3.7 7.8 0 9.5.3 14.9 3.1 3.4 1.7 6.2 3.5 6.2 4 0 1.4-.9 1.1-4.6-1.7-3.8-2.9-6.1-2.7-6.6.8-.2 1.6-1.1 2.4-2.8 2.6-6.4.8-10 2.3-10 4.1 0 2.6 1.8 3.1 7.6 2 5-1 13-.3 13.9 1.1.3.4-.2 1.3-1 2S67 50 67 51c0 3.1 2.9 3.1 7.2 0 5.2-3.8 7.5-4 5.2-.5-2 3.1-1.1 4.5 2.9 4.5h3.2l-3.1 3.1-3.1 3.1-22-2C33 56.9 28.5 57.3 25 61.8c-2.3 2.8-2.5 6.1-.8 10.8 1.1 3 .9 3.6-2.5 8.6-5 7.3-5.2 14.1-.5 24.5 3.3 7.2 4.1 8 6.6 6.5 1-.7 1-2 .1-6-1.2-5.7-.8-10.3.6-6.7 4.1 10.7 5.4 12.5 8.4 12.5 3.6 0 3.5.2 1.6-4.3-2.8-6.7-1.5-16.4 2.9-22 1.3-1.7 1.6-1.7 7.1.1 5.6 1.8 5.9 2.1 10.3 9.6 2.7 4.8 4.7 9.4 5 12.2.4 4.1.7 4.4 3.5 4.4h3l-.5-8.3c-.3-5.8-1.1-9.4-2.6-12.4-1.3-2.4-1.8-4.3-1.2-4.3.5 0 1 .3 1 .8 0 .4 2.9 4.2 6.5 8.5 3.7 4.5 6.9 9.3 7.5 11.6.7 2.6 1.7 4.1 3.2 4.4 3.2.9 3.8.1 3.8-5.1 0-4.4-.8-6.8-4-11.8-.8-1.3-1-3.2-.6-4.8.7-2.8 15.6-18.9 15.6-16.8 0 .6.5 1.2 1 1.2.6 0 1-1.2 1-2.6 0-1.8.4-2.4 1.3-2.1 1.1.4 1.3-1.1 1-7.2-.4-7.2-.2-7.9 2.5-11.7 4.1-5.7 5-9.9 2.3-11.4-1.2-.6-3.8-1-5.9-.8l-3.7.3.3-3.7c.5-6-4.6-13.6-8.2-12.2-2.2.8-2 2.1.4 3.4 2.3 1.2 2.7 3 .6 3-.7 0-2.8-2.6-4.7-5.7-2.5-4.3-4.5-6.3-7.9-8-6.6-3.3-9.8-3.9-10.6-1.9zm10.5 4.3c3.3 1.9 4.9 3.8 6.8 7.9 2.1 4.6 2.8 5.4 5.2 5.4 1.5 0 3.2-.5 3.9-1.2.8-.8 1.2-.9 1.2-.1 0 .6.3 2 .7 3 .6 1.6.5 1.6-1 .5-.9-.8-2.2-1.2-2.9-.9-2.3.7-19.8-5-19.8-6.5 0-1.2 1.4-1 4.9.8 2.5 1.3 3.5 1.3 4.6.4.8-.7 1.5-1.6 1.5-2 0-2-5.4-7-8.8-8.1-2-.6-4.1-1.6-4.7-2.1-1.7-1.7 3.6.2 8.4 2.9zm-14.7 9.5c2.9.9 6.5 3.4 11.4 8 4.8 4.6 7.9 6.8 9.6 6.8 1.3 0 2.9.5 3.5 1.1 1.9 1.9 5.7.6 6.4-2.1l.7-2.5.1 2.4c.1 2.5.8 2.5 7.9.5 3.3-.9 2.9 2.6-.8 7.8-3.2 4.4-3.7 7.6-1.7 10.8 1 1.7.9 2.2-.1 2.9-.7.4-1 1.5-.6 2.4.3 1 .1 1.7-.5 1.7S99 69 99 70.2c0 1.5-.3 1.9-.8 1.1-.8-1.3-14.9 12.2-17.1 16.4-1.7 3.3-1.3 7.2 1 10.4 1.2 1.7 2.3 4.9 2.5 7.2l.4 4.2-1.5-3.8c-.8-2.2-3.6-6.4-6.3-9.5-2.7-3.2-5.8-7.2-7.1-9-2.4-3.5-5.1-4.1-7.1-1.7-1.1 1.3-1 2.2.5 5.3C65.9 96 68 103 68 106.4c0 3.7-1.1 2.7-1.6-1.4-.4-3.4-6.5-15-9.8-18.5C54.7 84.4 46 81 42.7 81c-1.9 0-6 5.5-7.5 9.9-1.6 4.6-1.5 11.4.2 15.6.8 1.9 1.1 3.5.7 3.5-.5 0-1.4-1.5-2-3.3-2.5-6.7-5.6-12.2-7.1-12.2-2.2 0-3.6 4.9-2.2 7.7 1.7 3.6 2.6 9.2 1.3 8.4-.6-.4-1.1-1.2-1.1-1.8 0-.5-.8-2.2-1.8-3.6-1.2-1.9-1.8-5.1-2-10.2-.3-7.2-.2-7.7 3.2-12.5 3.9-5.4 4.2-7.1 2.4-12.1-.9-2.5-.9-3.9 0-5.8 1.8-4.1 7-4.5 31.5-2.2l21.8 2 4.2-4.2c3.5-3.5 4-4.5 3.1-6-.6-.9-2.1-1.8-3.3-2-2.1-.3-2.2-.5-.6-2.2 1.5-1.6 1.5-1.9 0-3.4-2.3-2.2-3.4-2-8.8 1.4-5.5 3.5-7.2 3.9-3.3.9 6.1-4.8 1.4-7.4-11.8-6.5-9.8.7-11.1.1-2.5-1.1 4.9-.8 5.4-1.1 5.9-3.6l.5-2.9 4.3 3.2c6.8 4.9 10.3 1.8 4-3.6C66 29.6 61.3 28.1 52 28c-6-.1-7.9-.4-6.5-1.1 2.5-1.1 13-.4 18.7 1.3zm20.3 5.7c9 2.8 9.9 3.3 9 6-.6 2-1.1 2.1-5.3 1.5-4-.5-5.6-1.5-10.7-6.6-4.6-4.7-5.3-5.7-3-4.5 1.7.8 6.2 2.5 10 3.6z"/>
    <path fill="currentColor" d="M25.788 110.24c-.491-.513-.613-.751-.748-1.461-.125-.662-.82-2.097-1.57-3.246a10.124 10.124 0 0 1-1.218-2.631c-.677-2.266-1.05-6.116-1.07-11.021-.01-2.662.009-2.969.235-3.86.322-1.266.915-2.442 2.105-4.17 3.174-4.608 3.748-5.61 4.157-7.247.192-.769.22-1.115.164-2.02-.075-1.231-.188-1.711-.954-4.063-.94-2.889-.94-4.028.005-5.978.89-1.84 2.287-2.71 5.079-3.164 1.874-.306 4.739-.403 8.1-.276 5.615.213 8.462.438 26.946 2.135 6.852.63 12.629 1.144 12.836 1.144.35 0 .592-.218 3.278-2.947 3.033-3.08 3.9-4.063 4.372-4.953.538-1.015.31-2.011-.669-2.922-.753-.7-1.694-1.147-3.046-1.445-.63-.14-1.197-.305-1.26-.369-.214-.213.007-.616.847-1.55 1.324-1.472 1.478-1.857 1.032-2.589-.356-.583-1.621-1.735-2.307-2.1-1.51-.806-2.815-.379-7.298 2.39-3.577 2.209-5.085 3.028-5.38 2.921-.168-.06.493-.698 1.802-1.742 4.005-3.193 3.75-5.354-.752-6.352a24.019 24.019 0 0 0-2.374-.378c-1.69-.164-6.256-.14-8.972.046-4.687.323-7.899.343-7.604.05.15-.15 1.676-.5 3.31-.757 4.66-.735 5.565-.924 6.493-1.356 1.139-.53 1.457-1.144 1.873-3.618.161-.956.306-1.755.322-1.777.017-.022 1.125.765 2.464 1.749 2.872 2.11 3.025 2.212 4.34 2.872 2.632 1.322 4.607 1.2 4.773-.294.29-2.602-6.112-7.954-11.707-9.788-2.71-.888-5.217-1.266-9.486-1.428-8.18-.312-9.104-.41-8.68-.923 1.123-1.352 13.672-.596 19.007 1.146 2.972.97 6.382 3.357 11.214 7.851 4.206 3.912 6.366 5.624 8.14 6.455.527.246 1.02.37 1.924.481 1.7.21 2.426.474 3.323 1.207.244.2.613.433.818.518 1.332.549 3.154.146 4.334-.957.682-.638 1.009-1.266 1.398-2.684.355-1.296.44-1.226.47.382.048 2.737.686 2.882 6.158 1.403 2.276-.614 3.058-.706 3.507-.412 1.06.694.253 3.498-1.942 6.757l-1.251 1.855c-.811 1.202-1.724 3.102-1.987 4.136-.292 1.149-.293 2.588-.001 3.64.12.432.537 1.4.927 2.15.91 1.749.914 1.877.068 2.673-.937.882-1.094 1.327-.828 2.349.316 1.21.145 1.91-.466 1.91-.275 0-.73.516-.89 1.008-.064.196-.16.84-.213 1.428-.054.59-.147 1.122-.208 1.182-.075.075-.2.015-.386-.185-.249-.269-.307-.285-.621-.176-2.47.861-13.554 11.62-16.227 15.75-1.047 1.618-1.517 3.413-1.422 5.43.096 2.047.625 3.61 1.87 5.518.729 1.12.935 1.515 1.436 2.758.381.944.951 2.95 1.078 3.79.089.59.478 4.576.45 4.608-.013.013-.404-.944-.87-2.128-.465-1.185-1.121-2.644-1.457-3.245-1.309-2.336-3.174-4.961-5.414-7.622-1.724-2.047-4.472-5.51-6.276-7.907-.89-1.182-1.933-2.443-2.32-2.803-1.828-1.703-3.673-1.8-5.233-.273-1.448 1.418-1.439 2.281.063 5.565 2.05 4.486 3.854 10.116 4.372 13.65.208 1.417.18 3.699-.048 4.119-.134.245-.148.247-.352.062-.278-.251-.586-1.313-.853-2.941-.264-1.606-.602-2.702-1.439-4.659-1.728-4.043-4.612-9.26-6.873-12.433-1.02-1.433-1.746-2.214-2.663-2.866-2.348-1.67-7.996-3.9-11.336-4.476-1.726-.298-2.068-.218-3.275.765-1.807 1.472-4.481 5.545-5.568 8.478-1.058 2.86-1.526 6.526-1.267 9.941.174 2.295.473 3.818 1.108 5.637.924 2.652 1.163 3.618.97 3.927-.083.134-.157.107-.441-.164-.506-.482-.997-1.433-1.724-3.34-2.239-5.869-4.93-10.782-6.395-11.676-1.603-.977-3.378 1.587-3.37 4.87.002 1.305.052 1.494 1.008 3.85.998 2.459 1.675 6.015 1.32 6.946-.144.382-.325.352-.785-.13zM95.868 34.267c-1.317-.95-1.834-1.116-3.208-1.028-.897.057-1.344.026-2.362-.166-5.303-1.003-15.213-4.433-16.896-5.85-.39-.328-.445-.69-.145-.962.454-.411 1.559-.103 4.28 1.192 3.364 1.602 4.039 1.6 5.552-.019.887-.948 1.033-1.282.84-1.923-.456-1.517-3.103-4.309-5.79-6.107-1.289-.862-2.022-1.222-3.543-1.74-1.524-.52-3.786-1.605-4.142-1.986-1.086-1.165 2.258-.106 6.562 2.08 4.386 2.225 6.288 4.052 8.126 7.801l1.324 2.704c1.502 3.068 2.316 3.755 4.433 3.74 1.71-.011 2.95-.405 4.018-1.274.823-.671.98-.638 1.075.225.093.836.37 1.956.706 2.849.265.706.326 1.116.165 1.116-.051 0-.499-.293-.995-.652z"/>
</svg>
