<svg xmlns="http://www.w3.org/2000/svg" version="1.0" viewBox="0 0 128 128">
    <path d="M64.1 19.7c-16.4 8.4-21 18.3-21.4 45.9-.2 13.1-1 16.4-4.2 16.4C35 82 23 97.5 23 102c0 5.9 39.8 10.5 55.5 6.5 12.4-3.3 21.6-9 25.1-15.7.8-1.5 1.4-4.9 1.4-7.6 0-6.6-3.2-10.8-15.7-21-5.4-4.4-11.1-9.4-12.7-11.1l-3-3.1h3.3c4.1 0 9.1-4.7 9.1-8.4 0-1.4.1-2.9.3-3.3.1-.4-1.1-1-2.8-1.5-1.8-.4-4.8-2.9-7.4-5.8-4.2-5-4.3-5.3-3.7-10.1.4-2.8.3-4.9-.3-4.9-.5 0-4.1 1.6-8 3.7zm4.9 4.4c0 2.3 1.3 4.6 5.1 9 2.8 3.2 6 6.1 7 6.4 4.2 1.4 1 6.5-4.6 7.4-2.1.3-4.3 1.4-4.9 2.3-1.3 2.2 2.8 6.7 16.5 17.9C98.9 75.8 102 80 102 85.4c0 10.8-12.5 19-32.9 21.5-7.1.9-7.7.8-12-1.7l-4.4-2.6 4.3-1.8c2.3-1 5.3-2.1 6.6-2.4 3.4-.9 3-1.7-2.2-4.2l-4.6-2.3 4.1-2.9c3.9-2.8 4.3-2.9 9-1.9 6.6 1.4 13.5.8 13.9-1.1.2-1.2-1.1-1.5-7-1.6-4.6 0-10.6-1-16.3-2.6-4.9-1.4-10.2-2.8-11.6-3.2-2.4-.5-2.7-1.1-3.1-6.3-.3-3.2-.2-10.2.3-15.5 1.2-14.6 4-22.8 9.6-27.9 2.8-2.7 11.2-7.9 12.6-7.9.4 0 .7 1.4.7 3.1zM53 82.6c3.9.8 7.2 1.9 7.5 2.4.3.5-2.2 2.4-5.5 4.3l-6.1 3.4 4.6 1.3c7.3 2 7.1 2.2-5.5 7.2-2.5 1-2.4 1 2 3.3 3.8 2.1 4.1 2.4 2 2.4-7.6.2-25-4.2-25-6.3 0-.7 1.7-4 3.9-7.3 2.9-4.5 5-6.5 8.4-8.1 2.5-1.2 4.8-2.6 5.2-3.2.8-1.3.3-1.3 8.5.6z"/>
    <path fill="currentColor" d="M61.854 107.264c-.784-.142-2.208-.676-3.074-1.154-2.137-1.178-5.912-3.468-5.835-3.54.113-.105 5.511-2.35 7.017-2.917A57.206 57.206 0 0 1 64 98.313c1.302-.377 1.855-.731 1.855-1.187 0-.23-.802-.997-1.458-1.396-.368-.224-2.216-1.173-4.105-2.11l-3.435-1.704.59-.427c2.726-1.972 5.76-4.035 6.39-4.344 1.503-.738 2.234-.754 5.51-.118 3.771.73 6.454.966 9.22.809 2.742-.156 4.323-.603 5.007-1.415.343-.408.363-.743.067-1.12-.483-.613-1.738-.79-6.71-.947-1.86-.059-4.021-.182-4.801-.274-3.737-.442-7.597-1.223-11.909-2.41-1.432-.395-4.839-1.33-7.57-2.08-3.263-.894-5.1-1.45-5.36-1.62-.752-.494-1.05-1.488-1.373-4.588-.264-2.54-.26-10.203.009-13.91 1.22-16.828 3.932-25.206 9.923-30.651 1.676-1.523 4.875-3.785 7.932-5.608 1.65-.984 3.774-2.037 4.266-2.114.38-.06.4-.045.578.402.115.287.227 1.046.295 2 .06.847.157 1.752.215 2.012.495 2.208 3.075 5.794 7.19 9.99 2.175 2.22 3.644 3.459 4.697 3.964 1.103.53 1.513.853 1.755 1.386.264.581.262 1.12-.008 1.837-.462 1.228-1.762 2.462-3.438 3.262-.893.425-1.598.64-3.71 1.124-2.256.519-4.084 1.664-4.253 2.665-.402 2.377 3.685 6.647 16.365 17.096 6.754 5.566 9.411 8.08 11.44 10.827 2.633 3.566 3.393 7.24 2.32 11.216-2.163 8.003-11.702 14.171-26.31 17.01-5.371 1.043-11.604 1.686-13.33 1.374z"/>
    <path fill="currentColor" d="M48.941 106.758c-3.073-.325-5.896-.765-8.58-1.338-7.175-1.532-12.619-3.422-13.25-4.601-.159-.298-.014-.72.822-2.391.796-1.59 1.648-3.037 3.087-5.238 1.759-2.69 3.153-4.39 4.584-5.586 1.244-1.041 1.706-1.329 4.225-2.63 2.432-1.257 4.293-2.417 4.61-2.875.105-.153.32-.43.476-.615.48-.568.763-.531 7.21.946 5.602 1.283 8.383 2.182 8.383 2.709 0 .256-1.389 1.465-2.686 2.338-1.66 1.118-1.995 1.317-5.664 3.367-1.68.937-3.097 1.748-3.15 1.8-.055.054.155.167.492.263l3.48.982c4.389 1.235 5.346 1.635 5.346 2.234 0 .296-.74.902-1.733 1.418-1.001.52-3.746 1.689-7.188 3.062-2.491.994-3.083 1.298-3.083 1.586 0 .256.683.751 2.021 1.465 2.048 1.093 3.772 2.077 4.308 2.46.853.607.742.66-1.418.673-1.05.006-2.082-.007-2.292-.03z"/>
</svg>
