<svg xmlns="http://www.w3.org/2000/svg" version="1.0" viewBox="0 0 128 128">
    <path d="M27 29.7c-2.8 2.6-5 5-5 5.4 0 .3 2.9.9 6.5 1.2 3.6.4 7.1.9 7.7 1.3 1.7 1.1.2 10.6-2.7 16.9-2.2 4.5-2.6 6.7-2.3 10.5.9 9.6 8.8 18.2 19.3 21.2 5.1 1.4 6.5 3.2 6.5 8 0 3-.4 3.8-1.9 3.8-1.4 0-1.7.6-1.3 2.5.5 2.9 2.1 3.1 6.2 1 2.5-1.3 3-2.2 3-5.1 0-4.3 2.5-10 4.8-10.9 7.5-3.2 25.1-4.7 34.1-3l4.5.8-2.1-2.7c-1.2-1.5-2-3.3-1.7-4 .3-.8-2-2.2-6.4-4-3.9-1.5-10.1-4.6-13.8-6.8-8.6-5.2-14.6-7.5-21.5-8.3-3-.3-7.2-.8-9.5-1.1l-4.1-.5v-8.8c0-7.6-.4-9.7-2.6-14.3-4.5-9.3-10.1-10.2-17.7-3.1zm11.2-.6c3.8 2 6.2 9.5 6 19.1-.1 7.9.1 8.9 2.1 10.3 1.2.8 4.1 1.5 6.6 1.5 8.3 0 16.6 2.1 22.7 5.6 3.2 1.9 9.8 5.4 14.7 7.7 4.8 2.3 8.7 4.4 8.7 4.7 0 .3-3.1.4-6.9.2-4.4-.2-8.5.2-11.5 1.2-2.6.9-6 1.6-7.7 1.6C66.1 81 61 86.3 61 93.5c0 4.3-1.5 7.5-3.5 7.5-1.9 0-1.9-1.6 0-2.4 1.1-.4 1.5-2.1 1.5-5.9 0-6-1.4-8-6.5-9.1-1.7-.4-5.3-2-8.1-3.6-4.1-2.3-5.7-4.1-7.8-8.2-3.3-6.6-3.3-9.7.1-16.7 4.9-10.3 3.8-21-2.1-21.2-1.1 0-3-.4-4-.8-1.9-.7-1.9-.8.2-2.9 2.4-2.4 4.3-2.7 7.4-1.1z"/>
    <path fill="currentColor" d="M56.623 100.782c-.906-.395-.522-1.407.802-2.112 1.084-.578 1.413-1.486 1.535-4.225.186-4.199-.204-6.643-1.305-8.18-.87-1.215-2.172-1.927-4.804-2.628-2.125-.566-4.523-1.574-7.422-3.121-4.864-2.596-6.653-4.428-8.99-9.205-2.913-5.954-2.972-8.95-.295-14.895 1.786-3.965 2.467-5.84 3.016-8.299.807-3.612.83-7.472.061-9.985-.543-1.775-1.57-3.174-2.76-3.76-.655-.322-.982-.392-3.023-.647-1.081-.134-2.298-.436-3.157-.783-1.239-.501-1.275-.771-.25-1.874 2.895-3.116 4.652-3.588 7.775-2.088.857.411 1.17.638 1.855 1.338 1.73 1.773 2.968 4.591 3.768 8.579.533 2.657.622 3.913.717 10.099.085 5.536.14 6.466.438 7.404.324 1.02 1.297 2.033 2.415 2.512 1.635.7 3.314.992 6.416 1.112 6.158.238 10.45.958 15.222 2.553 2.917.975 4.835 1.858 8.201 3.775 3.263 1.859 7.304 3.963 13.078 6.812 7.336 3.618 9.17 4.627 8.898 4.897-.09.09-1.8.125-6.202.125-5.227.001-6.27.028-7.442.194-2.036.289-2.95.488-4.652 1.014-3.337 1.032-5.222 1.414-7.788 1.575-.93.059-2.01.176-2.4.26-2.308.5-4.2 1.553-5.856 3.26-1.025 1.055-1.654 1.954-2.224 3.177-.875 1.878-1.158 3.184-1.302 6.015-.109 2.134-.279 3.214-.694 4.408-.476 1.369-1.219 2.373-1.995 2.697-.455.19-1.194.188-1.636-.004z"/>
</svg>
