<svg xmlns="http://www.w3.org/2000/svg" version="1.0" viewBox="0 0 128 128">
    <path d="M44 27.6c-8.1 2.2-18.4 7.2-21.6 10.5-2.3 2.4-2.9 4.2-3.5 9.5-.6 5.9-1 6.9-4.4 10-2.4 2.2-4.4 3.2-5.5 2.9-1.4-.4-1.6-.1-1.2 2 .3 1.8-.2 3.3-1.8 5l-2.2 2.3 2.7 1.8c2.3 1.5 3 1.6 4.7.5 1.9-1.2 2-1.1 1.4 1.4-.7 2.6-.6 2.6 2.2 1.1 4.6-2.4 17.5-4.6 26.6-4.6h8.5l-.6 3.7c-1.6 11.5-4.7 19.5-9.6 25-2.5 2.8-2.2 3.1 2.9 2.6 3.5-.4 4.5-1.1 6.7-4.5 1.5-2.3 3.4-6.4 4.3-9.1l1.7-5.1 2.8 5.5c1.5 3 3.9 6.7 5.2 8.4l2.5 3 .7-4.8c.6-4 .4-5.2-1.2-7-3.2-3.5-3.4-5.6-1.6-11.4 1.3-4.1 2.1-5.2 3.2-4.8 4.3 1.7 11 2.2 16.1 1.3 7.6-1.3 10.6 0 13.1 5.7 1.8 4.1 1.9 4.7.4 8.2-.9 2.1-2.9 5.5-4.6 7.5l-3 3.8H94c3.9 0 5.2-.4 5.7-1.8.3-.9 1.7-4.2 3-7.2 1.4-3 2.8-6.8 3.2-8.5l.7-2.9 2.3 3.2c3.1 4.4 2.3 11.2-1.9 15.4l-2.8 2.8h4.9c4.8 0 5.1-.2 6.5-3.5.7-1.9 1.4-5.7 1.4-8.5s.5-6 1-7.1c.8-1.5.5-2.7-1.4-5.5-2.3-3.4-2.3-3.8-1-7.7.8-2.3 1.8-7.6 2.3-11.7.7-6.6.9-7.1 1.6-4.3.9 3.8 1.5 4.1 3.3 1.2 2.7-4.2-2.1-12.9-7.1-12.9-1.2 0-2.8-.5-3.3-1-.6-.6-7.1-1.9-14.5-3-13.7-1.9-21-3.4-35.9-6.9-9.9-2.4-10.7-2.4-18-.5zM64.9 32c16.6 3.9 30 6.1 38.4 6.4 3.7.2 7.3.8 8 1.5.6.6 2.1 1.1 3.4 1.1 2 0 6.3 3.4 6.3 5 0 .4-1 .6-2.2.6-2.1-.1-2.4.5-2.9 6.4-.4 3.6-1.6 9-2.8 12-2.6 6.8-2.6 6.4.3 9.5 2.1 2.3 2.3 3.2 1.9 8.8-.7 8.7-2.1 13.7-3.8 13.7-1.8 0-1.8-.8 0-4 2.5-4.3 1.9-10.1-1.4-14-2.5-3-3.1-3.3-4.5-2.1-.9.7-1.6 1.9-1.6 2.5 0 2.2-6.5 15.6-7.7 15.6-.7 0-.4-1.5.9-4.2 4-8.2 3.3-14.3-2.2-19.3-1.9-1.7-3.8-2-13.9-2.2-6.4 0-12.9-.3-14.6-.5-2.4-.2-3.2.2-4.5 2.7-2.3 4.7-2 13.4.8 16.9 2.2 2.9 3 6.2 1.2 5.1-.6-.4-2.4-3.3-4.1-6.6-2-4.1-3.5-5.9-4.6-5.7-.9.2-2.8 3.2-4.4 7.2-2.7 6.7-6.2 11.6-7.4 10.4-.3-.3.4-2.1 1.7-4 4.1-5.9 8.7-24 6.7-26.4-1.6-1.9-15.9-1.9-27.4.1-6.9 1.2-9 1.3-10.2.3-1.1-.9-1.9-.9-3.4 0-4.2 2.6-.9-2.7 5.5-8.9 4.6-4.4 4.9-5.1 5.5-11.3.4-4 1.4-7.2 2.4-8.4 3-3.3 21-10.7 27.1-11.1.5-.1 6.5 1.2 13.5 2.9z"/>
    <path fill="currentColor" d="M43.653 98.826c-.16-.117-.188-.233-.134-.567.096-.589.802-2.016 1.654-3.342 1.5-2.336 2.855-5.4 4.187-9.475 1.877-5.743 2.999-11.127 3.012-14.458.01-2.557-.284-2.974-2.43-3.437-1.986-.429-3.057-.492-8.312-.488-6.648.004-10.394.314-17.22 1.426-4.773.778-6.119.935-7.66.893-1.477-.04-1.73-.118-2.883-.877-.447-.295-.641-.354-1.157-.354-.541 0-.772.079-1.828.627-1.398.726-1.77.791-1.77.311 0-.174.144-.59.32-.926.896-1.703 2.838-3.994 6.717-7.924 1.748-1.77 3.403-3.538 3.677-3.928 1.276-1.813 1.59-2.897 2.05-7.088.348-3.156.74-5.114 1.381-6.903.411-1.145.65-1.575 1.224-2.193 2.386-2.576 15.448-8.352 23.34-10.322 2.585-.645 3.472-.738 4.799-.505 1.572.276 5.817 1.214 10.885 2.404 17.581 4.128 29.506 6.17 39.179 6.711 3.475.195 6.132.561 7.638 1.054.3.098.813.368 1.14.6.736.525 1.722.837 3.037.962.844.08 1.163.169 1.922.536 2.152 1.042 4.652 3.483 4.52 4.413-.048.337-.635.499-2.196.604l-1.31.088-.357.391c-.563.614-.856 1.913-1.137 5.047-.25 2.79-1.035 6.868-1.9 9.882-.268.933-.933 2.882-1.479 4.332-1.052 2.796-1.422 4.038-1.42 4.763.002.695.427 1.445 1.482 2.612 1.982 2.191 2.42 2.878 2.654 4.156.439 2.4-.371 10.993-1.415 15.012-.833 3.209-1.603 4.288-2.889 4.048-1.108-.208-1.066-.65.328-3.448 1.166-2.343 1.518-3.415 1.704-5.192.263-2.506-.367-5.365-1.663-7.557-.997-1.686-3.279-4.175-4.066-4.434-.583-.193-1.052.01-1.927.836-.816.77-1.411 1.776-1.411 2.385 0 1.8-5.03 12.464-7.065 14.977-.27.333-.448.46-.613.437-.584-.083-.216-1.547 1.105-4.398 1.581-3.412 2.258-5.828 2.386-8.512.177-3.72-1.133-6.896-4.052-9.825-2.475-2.484-3.507-2.684-14.95-2.889-6.578-.117-10.83-.262-13.24-.45-2.843-.221-3.662-.036-4.53 1.025-2.06 2.517-3.015 7.85-2.297 12.821.362 2.506.925 4.025 2.17 5.856 1.038 1.524 1.57 2.533 1.904 3.61.298.96.239 1.474-.169 1.474-.419 0-.642-.163-1.161-.847-.923-1.216-1.931-2.935-3.787-6.456-1.983-3.764-3.094-5.137-4.158-5.137-.365 0-.481.077-1.048.696-.985 1.077-2.35 3.542-3.467 6.266-1.81 4.408-3.736 7.852-5.392 9.64-.611.66-1.331 1.185-1.628 1.185-.051 0-.184-.067-.294-.148z"/>
</svg>
