<svg xmlns="http://www.w3.org/2000/svg" version="1.0" viewBox="0 0 128 128">
    <path d="M93.2 39.5c-3 5.7-14.7 18.5-17 18.5-.4 0-2-2.4-3.6-5.2C68.9 46.2 59.1 36 56.5 36c-1.9 0-2 .8-2.2 11.5-.2 9.7.1 12.1 1.7 14.8 1 1.8 2.2 4.9 2.5 6.9l.7 3.8H53c-3.9 0-9.3-1-14.7-2.6l-8.4-2.7-4.2 2.1c-2.3 1.1-5.2 2.3-6.4 2.6-1.1.4-2.7 1.3-3.4 2.2-2.1 2.6-2.2 2.5 18.2 5.3 7 .9 8.6 1.5 16.5 6.8 2.8 1.9 6.6 3.5 8.5 3.7 1.9.1 6.8 1.3 10.9 2.6 11.6 3.7 33.6 3.2 39.1-.9l3.1-2.3-5.8-3.2c-3.3-1.7-7.3-4.1-8.9-5.2-1.7-1.2-4-2.4-5.2-2.8-2-.7-2-.9 2.7-9.9 7.9-15.1 9.8-24.6 6.2-31.7-2.6-5.4-4.3-4.9-8 2.5zm6.3 1.9c1.1 5.5-1.4 14.3-7.2 25.7-3 6-5.2 11.3-4.8 12 .4.6 2.2 1.7 3.9 2.4 3.4 1.4 12.8 7.5 13.6 8.8.6.9-11.8 2.1-21 2-4.2-.1-9.4-1-14.3-2.7-4.3-1.4-9-2.6-10.5-2.6s-5.1-1.6-8.1-3.6C44.5 79 39.9 77 36.1 77c-1.6 0-5.2-.5-8.1-1.2l-5.1-1.2 3.8-1.7c2-.9 4.2-1.5 4.7-1.4 14.2 4.6 26.7 6 29.4 3.3 1.9-1.9 1.4-7.1-1.3-12.4-2.4-4.6-2.5-5.5-1.9-13.9l.7-8.9 4.2 4.6c2.3 2.6 5.7 7.3 7.6 10.5 2.3 3.7 4.2 5.9 5.6 6.1 2.9.4 16.1-12.1 19.4-18.3 1.3-2.5 2.7-4.5 3.1-4.5.4 0 1 1.5 1.3 3.4z"/>
    <path fill="currentColor" d="M83.424 92.247c-4.659-.27-8.556-1.02-13.477-2.597-5.053-1.618-8.32-2.445-10.596-2.681-2.223-.23-4.798-1.39-8.718-3.926-4.276-2.765-7.245-4.324-9.97-5.234-1.672-.558-2.76-.754-4.871-.876-2.957-.172-5.1-.532-9.804-1.646-1.51-.358-2.79-.665-2.845-.683-.176-.055 4.417-2.047 5.72-2.48 1.869-.62 2.204-.66 3.174-.373l2.664.793c5.975 1.78 12.497 3.119 17.164 3.523 2.204.19 5.508.085 6.749-.216 1.717-.417 2.61-1.141 3.046-2.475.294-.895.301-3.714.014-5.066-.349-1.64-1.166-3.885-2.12-5.821-2.562-5.201-2.585-5.462-1.605-17.904.208-2.636.39-4.806.406-4.821.038-.038 4.248 4.6 5.11 5.63 1.835 2.192 4.272 5.654 7.296 10.364 1.8 2.803 3.454 4.592 4.602 4.973.48.16.548.156 1.198-.063 2.092-.705 5.761-3.591 10.257-8.069 4.427-4.409 6.844-7.405 8.717-10.805.836-1.518 1.818-2.994 2.285-3.435.438-.414.628-.312.961.515 1.202 2.987 1.195 7.018-.022 11.952-.716 2.906-2.132 6.855-3.824 10.664-.4.9-1.602 3.43-2.672 5.62-3.288 6.734-4.802 10.4-4.802 11.632 0 .468.022.498.737 1.032.411.307 1.892 1.12 3.355 1.842 1.44.711 3.454 1.795 4.474 2.41 4.418 2.657 8.894 5.824 8.894 6.291 0 .813-9.166 1.774-18.333 1.923-1.41.023-2.834.026-3.164.007z"/>
</svg>
